<svg width="40" height="41" viewBox="0 0 40 41" fill="none" xmlns="http://www.w3.org/2000/svg">
<rect width="39.5" height="40.5" rx="8" fill="#D5E4F0"/>
<path d="M30.9338 17.9037L20.9338 8.46748L20.9225 8.45748C20.6012 8.16322 20.1813 8 19.7456 8C19.31 8 18.8901 8.16322 18.5688 8.45748L18.5575 8.46748L8.55752 17.905C8.38064 18.0697 8.23979 18.2692 8.14384 18.491C8.04789 18.7128 7.99892 18.9521 8.00002 19.1937V30.75C8.00002 31.2141 8.18439 31.6592 8.51258 31.9874C8.84077 32.3156 9.28589 32.5 9.75002 32.5H29.75C30.2141 32.5 30.6593 32.3156 30.9875 31.9874C31.3156 31.6592 31.5 31.2141 31.5 30.75V19.1937C31.4997 18.9513 31.4493 18.7115 31.3518 18.4895C31.2544 18.2675 31.112 18.0681 30.9338 17.9037ZM30 30.75C30 30.8163 29.9737 30.8799 29.9268 30.9268C29.8799 30.9736 29.8163 31 29.75 31H9.75002C9.68371 31 9.62013 30.9736 9.57324 30.9268C9.52636 30.8799 9.50002 30.8163 9.50002 30.75V19.1937C9.49994 19.1589 9.50713 19.1245 9.52112 19.0927C9.53511 19.0608 9.5556 19.0322 9.58127 19.0087L9.59252 18.9987L19.585 9.56373C19.6306 9.52399 19.689 9.5021 19.7494 9.5021C19.8098 9.5021 19.8682 9.52399 19.9138 9.56373L29.9075 19L29.9175 19.01C29.9434 19.0334 29.9641 19.0619 29.9783 19.0938C29.9926 19.1256 29.9999 19.1601 30 19.195V30.75Z" fill="#86A2CE"/>
</svg>
