<svg width="24" height="24" viewBox="0 0 24 24" fill="none" xmlns="http://www.w3.org/2000/svg">
<path d="M23.28 12.2613L14.28 21.2613C14.1378 21.3938 13.9498 21.4659 13.7555 21.4625C13.5612 21.459 13.3758 21.3803 13.2384 21.2429C13.101 21.1055 13.0223 20.9201 13.0188 20.7258C13.0154 20.5315 13.0875 20.3435 13.22 20.2013L20.9387 12.4813H0.75C0.551088 12.4813 0.360322 12.4023 0.21967 12.2616C0.0790175 12.121 0 11.9302 0 11.7313C0 11.5324 0.0790175 11.3416 0.21967 11.201C0.360322 11.0603 0.551088 10.9813 0.75 10.9813H20.9387L13.22 3.26129C13.0875 3.11912 13.0154 2.93107 13.0188 2.73677C13.0223 2.54247 13.101 2.35708 13.2384 2.21967C13.3758 2.08226 13.5612 2.00355 13.7555 2.00012C13.9498 1.99669 14.1378 2.06881 14.28 2.20129L23.28 11.2013C23.4205 11.3419 23.4993 11.5325 23.4993 11.7313C23.4993 11.93 23.4205 12.1207 23.28 12.2613Z" fill="#ED8022"/>
</svg>
