<svg width="25" height="24" viewBox="0 0 25 24" fill="none" xmlns="http://www.w3.org/2000/svg">
<path d="M15.8975 19.1026C15.9528 19.1541 15.9971 19.2162 16.0278 19.2852C16.0586 19.3542 16.0751 19.4287 16.0764 19.5042C16.0778 19.5798 16.0639 19.6548 16.0356 19.7248C16.0073 19.7949 15.9652 19.8585 15.9118 19.9119C15.8584 19.9653 15.7947 20.0074 15.7247 20.0357C15.6546 20.064 15.5796 20.0779 15.5041 20.0766C15.4286 20.0752 15.3541 20.0587 15.2851 20.028C15.2161 19.9972 15.154 19.9529 15.1025 19.8976L7.60249 12.3976C7.49716 12.2922 7.43799 12.1492 7.43799 12.0001C7.43799 11.8511 7.49716 11.7081 7.60249 11.6026L15.1025 4.10263C15.2091 4.00327 15.3502 3.94918 15.4959 3.95175C15.6416 3.95432 15.7807 4.01335 15.8837 4.11641C15.9868 4.21947 16.0458 4.35851 16.0484 4.50424C16.0509 4.64996 15.9969 4.791 15.8975 4.89763L8.79593 12.0001L15.8975 19.1026Z" fill="#929292"/>
</svg>
