<svg width="114" height="101" viewBox="0 0 114 101" fill="none" xmlns="http://www.w3.org/2000/svg">
<g filter="url(#filter0_d_1866_2011)">
<path d="M70.56 41.94C70.8409 42.2213 70.9987 42.6025 70.9987 43C70.9987 43.3975 70.8409 43.7787 70.56 44.06L56.56 58.06C56.2788 58.3409 55.8975 58.4987 55.5 58.4987C55.1025 58.4987 54.7213 58.3409 54.44 58.06L48.44 52.06C48.1751 51.7757 48.0308 51.3996 48.0377 51.011C48.0445 50.6224 48.2019 50.2516 48.4768 49.9768C48.7516 49.7019 49.1224 49.5445 49.511 49.5377C49.8996 49.5308 50.2757 49.675 50.56 49.94L55.5 54.8775L68.44 41.94C68.7213 41.6591 69.1025 41.5013 69.5 41.5013C69.8975 41.5013 70.2788 41.6591 70.56 41.94ZM85 49C85 54.0434 83.5045 58.9736 80.7025 63.167C77.9005 67.3605 73.918 70.6289 69.2584 72.5589C64.5989 74.489 59.4717 74.9939 54.5252 74.01C49.5787 73.0261 45.035 70.5975 41.4688 67.0312C37.9025 63.465 35.4739 58.9213 34.49 53.9748C33.5061 49.0283 34.011 43.9011 35.9411 39.2416C37.8711 34.5821 41.1395 30.5995 45.333 27.7975C49.5264 24.9955 54.4566 23.5 59.5 23.5C66.2606 23.5079 72.742 26.1971 77.5225 30.9775C82.3029 35.758 84.9921 42.2394 85 49ZM82 49C82 44.5499 80.6804 40.1998 78.2081 36.4997C75.7357 32.7996 72.2217 29.9157 68.1104 28.2127C63.9991 26.5097 59.4751 26.0642 55.1105 26.9323C50.7459 27.8005 46.7368 29.9434 43.5901 33.0901C40.4434 36.2368 38.3005 40.2459 37.4323 44.6105C36.5642 48.975 37.0098 53.499 38.7127 57.6104C40.4157 61.7217 43.2996 65.2357 46.9997 67.7081C50.6998 70.1804 55.0499 71.5 59.5 71.5C65.4654 71.4934 71.1845 69.1207 75.4026 64.9026C79.6207 60.6845 81.9934 54.9653 82 49Z" fill="#3AA608"/>
</g>
<g filter="url(#filter1_d_1866_2011)">
<rect x="21.5" y="69" width="12" height="12" rx="6" fill="#3AA608"/>
</g>
<g filter="url(#filter2_d_1866_2011)">
<rect x="16.5" y="62" width="12" height="12" rx="6" fill="#3AA608"/>
</g>
<g filter="url(#filter3_d_1866_2011)">
<rect x="85.5" y="12" width="12" height="12" rx="6" fill="#3AA608"/>
</g>
<g filter="url(#filter4_d_1866_2011)">
<rect x="85.5" y="63" width="12" height="12" rx="6" fill="#3AA608"/>
</g>
<defs>
<filter id="filter0_d_1866_2011" x="11.5" y="5" width="96" height="96" filterUnits="userSpaceOnUse" color-interpolation-filters="sRGB">
<feFlood flood-opacity="0" result="BackgroundImageFix"/>
<feColorMatrix in="SourceAlpha" type="matrix" values="0 0 0 0 0 0 0 0 0 0 0 0 0 0 0 0 0 0 127 0" result="hardAlpha"/>
<feOffset dy="4"/>
<feGaussianBlur stdDeviation="8"/>
<feComposite in2="hardAlpha" operator="out"/>
<feColorMatrix type="matrix" values="0 0 0 0 0.14902 0 0 0 0 0.882353 0 0 0 0 0.0862745 0 0 0 0.24 0"/>
<feBlend mode="normal" in2="BackgroundImageFix" result="effect1_dropShadow_1866_2011"/>
<feBlend mode="normal" in="SourceGraphic" in2="effect1_dropShadow_1866_2011" result="shape"/>
</filter>
<filter id="filter1_d_1866_2011" x="5.5" y="57" width="44" height="44" filterUnits="userSpaceOnUse" color-interpolation-filters="sRGB">
<feFlood flood-opacity="0" result="BackgroundImageFix"/>
<feColorMatrix in="SourceAlpha" type="matrix" values="0 0 0 0 0 0 0 0 0 0 0 0 0 0 0 0 0 0 127 0" result="hardAlpha"/>
<feOffset dy="4"/>
<feGaussianBlur stdDeviation="8"/>
<feComposite in2="hardAlpha" operator="out"/>
<feColorMatrix type="matrix" values="0 0 0 0 0.227451 0 0 0 0 0.65098 0 0 0 0 0.0313726 0 0 0 0.24 0"/>
<feBlend mode="normal" in2="BackgroundImageFix" result="effect1_dropShadow_1866_2011"/>
<feBlend mode="normal" in="SourceGraphic" in2="effect1_dropShadow_1866_2011" result="shape"/>
</filter>
<filter id="filter2_d_1866_2011" x="0.5" y="50" width="44" height="44" filterUnits="userSpaceOnUse" color-interpolation-filters="sRGB">
<feFlood flood-opacity="0" result="BackgroundImageFix"/>
<feColorMatrix in="SourceAlpha" type="matrix" values="0 0 0 0 0 0 0 0 0 0 0 0 0 0 0 0 0 0 127 0" result="hardAlpha"/>
<feOffset dy="4"/>
<feGaussianBlur stdDeviation="8"/>
<feComposite in2="hardAlpha" operator="out"/>
<feColorMatrix type="matrix" values="0 0 0 0 0.227451 0 0 0 0 0.65098 0 0 0 0 0.0313726 0 0 0 0.24 0"/>
<feBlend mode="normal" in2="BackgroundImageFix" result="effect1_dropShadow_1866_2011"/>
<feBlend mode="normal" in="SourceGraphic" in2="effect1_dropShadow_1866_2011" result="shape"/>
</filter>
<filter id="filter3_d_1866_2011" x="69.5" y="0" width="44" height="44" filterUnits="userSpaceOnUse" color-interpolation-filters="sRGB">
<feFlood flood-opacity="0" result="BackgroundImageFix"/>
<feColorMatrix in="SourceAlpha" type="matrix" values="0 0 0 0 0 0 0 0 0 0 0 0 0 0 0 0 0 0 127 0" result="hardAlpha"/>
<feOffset dy="4"/>
<feGaussianBlur stdDeviation="8"/>
<feComposite in2="hardAlpha" operator="out"/>
<feColorMatrix type="matrix" values="0 0 0 0 0.227451 0 0 0 0 0.65098 0 0 0 0 0.0313726 0 0 0 0.24 0"/>
<feBlend mode="normal" in2="BackgroundImageFix" result="effect1_dropShadow_1866_2011"/>
<feBlend mode="normal" in="SourceGraphic" in2="effect1_dropShadow_1866_2011" result="shape"/>
</filter>
<filter id="filter4_d_1866_2011" x="69.5" y="51" width="44" height="44" filterUnits="userSpaceOnUse" color-interpolation-filters="sRGB">
<feFlood flood-opacity="0" result="BackgroundImageFix"/>
<feColorMatrix in="SourceAlpha" type="matrix" values="0 0 0 0 0 0 0 0 0 0 0 0 0 0 0 0 0 0 127 0" result="hardAlpha"/>
<feOffset dy="4"/>
<feGaussianBlur stdDeviation="8"/>
<feComposite in2="hardAlpha" operator="out"/>
<feColorMatrix type="matrix" values="0 0 0 0 0.227451 0 0 0 0 0.65098 0 0 0 0 0.0313726 0 0 0 0.24 0"/>
<feBlend mode="normal" in2="BackgroundImageFix" result="effect1_dropShadow_1866_2011"/>
<feBlend mode="normal" in="SourceGraphic" in2="effect1_dropShadow_1866_2011" result="shape"/>
</filter>
</defs>
</svg>
