<svg width="635" height="630" viewBox="0 0 635 630" fill="none" xmlns="http://www.w3.org/2000/svg">
<g filter="url(#filter0_f_1960_1587)">
<rect x="136" y="203.429" width="238" height="232.56" rx="116.28" fill="#9EE2CB" fill-opacity="0.7"/>
</g>
<g filter="url(#filter1_f_1960_1587)">
<rect x="320" y="115" width="200" height="195.429" rx="97.7143" fill="#4EB990" fill-opacity="0.6"/>
</g>
<g filter="url(#filter2_f_1960_1587)">
<rect x="278.041" y="278.429" width="226.959" height="221.771" rx="110.886" fill="#E63F66" fill-opacity="0.2"/>
</g>
<path d="M376.766 454.747L371.189 451.441L377.384 452.582C377.143 453.296 376.938 454.018 376.766 454.747Z" fill="#D1CCEB"/>
<path d="M407.713 472.762C407.357 472.762 406.995 472.67 406.667 472.474L403.512 470.604C405.771 470.586 408.031 470.522 410.279 470.41L409.482 471.757C409.098 472.402 408.414 472.762 407.713 472.762Z" fill="#D2CEEB"/>
<path d="M403.511 470.604L378.776 455.939C378.977 454.943 379.248 453.958 379.59 452.991L382.824 453.586L403.513 465.853C403.842 466.048 404.202 466.14 404.558 466.14C405.261 466.14 405.944 465.781 406.328 465.134L410.184 458.63L416.566 459.806L410.279 470.41C408.03 470.523 405.77 470.587 403.511 470.604Z" fill="#D1CCEB"/>
<path d="M378.777 455.939L376.766 454.748C376.938 454.019 377.143 453.297 377.384 452.583L379.59 452.99C379.249 453.958 378.978 454.943 378.777 455.939Z" fill="#DFDDF2"/>
<path d="M452.336 399.474L453.686 392.148L455.558 394.039L452.336 399.474ZM471.48 367.184L467.053 362.709L467.352 362.206C469.872 361.6 472.454 361.232 475.082 361.107L471.48 367.184ZM468.893 359.606L503.289 301.59L506.761 303.649C507.736 304.228 508.058 305.487 507.48 306.463L485.118 344.182C484.862 344.16 484.608 344.149 484.356 344.149C480.113 344.149 476.372 347.28 475.742 351.61L474.681 358.906C472.726 359.011 470.794 359.245 468.893 359.606ZM477.098 357.709L477.937 351.929C478.38 348.889 480.866 346.642 483.807 346.391L477.098 357.709Z" fill="#D7D3EE"/>
<path d="M467.352 362.208L468.893 359.607C470.794 359.247 472.726 359.013 474.681 358.907L475.742 351.611C476.372 347.281 480.113 344.15 484.356 344.15C484.608 344.15 484.862 344.161 485.118 344.184L483.807 346.392C480.866 346.643 478.38 348.891 477.937 351.931L477.098 357.71L475.082 361.109C472.454 361.234 469.872 361.601 467.352 362.208Z" fill="#E2DFF2"/>
<path d="M403.514 465.853L282.117 393.878C281.142 393.3 280.819 392.04 281.398 391.063L379.397 225.772C379.975 224.796 381.235 224.474 382.211 225.053L503.609 297.027C504.585 297.606 504.907 298.865 504.328 299.841L406.329 465.134C405.751 466.109 404.491 466.432 403.514 465.853Z" fill="#99C6FF"/>
<path d="M450.919 407.158C450.679 405.805 450.432 404.452 450.187 403.1L452.336 399.475L450.919 407.158Z" fill="#D7D3EE"/>
<path d="M438.76 463.861C438.637 463.861 438.511 463.85 438.386 463.827L433.16 462.864C433.287 461.284 433.297 459.695 433.189 458.101L435.419 458.511C435.436 458.515 435.452 458.517 435.469 458.52L437.438 458.883L437.803 456.903C437.807 456.889 437.809 456.876 437.811 456.864L438.086 455.369L438.102 455.365C441.659 454.238 443.636 450.429 442.51 446.872C442.095 445.562 441.311 444.434 440.255 443.602L440.81 440.593C441.198 440.386 441.572 440.147 441.932 439.88L445.36 437.323L440.778 462.179C440.595 463.169 439.732 463.861 438.76 463.861Z" fill="#D1CCEB"/>
<path d="M430.964 462.458L424.451 461.258C424.518 459.653 424.424 458.039 424.165 456.436L430.933 457.684C431.068 459.282 431.078 460.875 430.964 462.458ZM438.578 452.7L439.763 446.271C440.035 446.654 440.249 447.08 440.394 447.54C441.019 449.515 440.221 451.605 438.578 452.7Z" fill="#D1CCEB"/>
<path d="M422.244 460.851L416.566 459.804L419.115 455.505L421.832 456.007C422.151 457.613 422.288 459.237 422.244 460.851ZM441.375 437.526L446.201 411.339C446.838 413.639 447.739 415.891 448.912 418.049L445.951 434.111L441.375 437.526ZM449.593 414.352C448.647 412.105 447.992 409.777 447.623 407.423L450.187 403.098C450.432 404.451 450.679 405.803 450.919 407.157L449.593 414.352Z" fill="#D1CCEB"/>
<path d="M433.16 462.863L430.965 462.459C431.079 460.875 431.069 459.282 430.934 457.684L433.189 458.101C433.297 459.695 433.287 461.284 433.16 462.863ZM438.086 455.369L438.579 452.701C440.222 451.606 441.02 449.515 440.395 447.541C440.25 447.08 440.036 446.654 439.764 446.271L440.255 443.602C441.312 444.434 442.095 445.561 442.51 446.872C443.636 450.429 441.659 454.237 438.102 455.365L438.086 455.369Z" fill="#DFDDF2"/>
<path d="M424.451 461.258L422.244 460.851C422.288 459.237 422.152 457.613 421.832 456.007L424.165 456.436C424.424 458.039 424.518 459.654 424.451 461.258Z" fill="#DFDDF2"/>
<path d="M440.811 440.594L441.376 437.527L445.952 434.112L445.36 437.323L441.932 439.88C441.573 440.148 441.199 440.386 440.811 440.594Z" fill="#DFDDF2"/>
<path d="M448.912 418.05C447.739 415.892 446.838 413.64 446.201 411.34L446.608 409.134L447.622 407.423C447.992 409.778 448.646 412.105 449.593 414.352L448.912 418.05Z" fill="#DFDDF2"/>
<path d="M367.273 450.718L346.638 446.915V442.146L359.518 444.519L360.617 445.172C361.186 446.818 362.343 448.159 363.894 448.965L367.273 450.718Z" fill="#D1CCEB"/>
<path d="M371.189 451.441L370.869 451.383C370.88 451.345 370.891 451.308 370.902 451.272L371.189 451.441Z" fill="#D1CCEB"/>
<path d="M370.869 451.382L367.272 450.718L363.894 448.965C362.343 448.16 361.185 446.819 360.616 445.172L370.902 451.271C370.891 451.308 370.88 451.344 370.869 451.382Z" fill="#DFDDF2"/>
<path d="M344.419 446.505L301.99 438.684V436.575H316.417L344.419 441.736V446.505ZM304.379 434.356H301.99V433.916L304.379 434.356Z" fill="#D1CCEB"/>
<path d="M346.638 446.917L344.419 446.508V441.739L346.638 442.148V446.917ZM316.417 436.578H301.99V434.359H304.379L316.417 436.578Z" fill="#E3E3F4"/>
<path d="M474.41 279.717L470.854 277.608L472.167 270.48L473.964 270.812C475.079 271.017 475.817 272.089 475.611 273.204L474.41 279.717Z" fill="#D1CCEB"/>
<path d="M416.566 459.807L410.185 458.631L412.733 454.331L419.115 455.507L416.566 459.807Z" fill="#BBB6E1"/>
<path d="M360.617 445.171L359.518 444.519L360.472 444.695C360.498 444.797 360.528 444.899 360.56 445C360.578 445.058 360.597 445.114 360.617 445.171Z" fill="#BBB6E1"/>
<path d="M377.383 452.582L371.189 451.44L370.903 451.271C370.915 451.231 370.927 451.191 370.94 451.151L371.215 450.264L364.917 446.995C364.111 446.578 363.464 445.944 363.034 445.169L371.151 446.664L378.074 450.769C377.818 451.366 377.588 451.971 377.383 452.582Z" fill="#BBB6E1"/>
<path d="M382.824 453.586L379.59 452.99C379.717 452.628 379.854 452.269 380.001 451.913L382.824 453.586Z" fill="#BBB6E1"/>
<path d="M370.903 451.271L360.617 445.172C360.597 445.115 360.578 445.059 360.56 445.001C360.528 444.9 360.498 444.798 360.472 444.696L363.035 445.168C363.464 445.944 364.112 446.577 364.917 446.995L371.216 450.264L370.941 451.151C370.927 451.191 370.915 451.231 370.903 451.271Z" fill="#C9C5E7"/>
<path d="M379.591 452.989L377.384 452.582C377.589 451.971 377.819 451.366 378.075 450.769L380.002 451.912C379.855 452.268 379.718 452.628 379.591 452.989Z" fill="#C9C5E7"/>
<path d="M450.187 403.1C449.77 400.797 449.357 398.5 448.992 396.203L449.803 391.806L451.131 389.566L453.686 392.149L452.336 399.475L450.187 403.1Z" fill="#C2BCE4"/>
<path d="M447.623 407.425C447.502 406.653 447.412 405.879 447.353 405.104L448.992 396.204C449.357 398.5 449.77 400.798 450.187 403.1L447.623 407.425Z" fill="#BBB6E1"/>
<path d="M446.608 409.135L447.352 405.103C447.412 405.878 447.502 406.652 447.622 407.424L446.608 409.135Z" fill="#C9C5E7"/>
<path d="M410.185 458.629L382.824 453.585L380.002 451.912L378.074 450.769L371.151 446.664L412.733 454.33L410.185 458.629ZM449.803 391.805L450.36 388.785L451.131 389.565L449.803 391.805ZM460.36 355.943L457.033 352.58L457.547 349.794L470.853 277.606L474.41 279.716L460.36 355.943Z" fill="#34CDCB"/>
<path d="M437.438 458.884L294.606 432.555L330.185 239.54L473.016 265.868L437.438 458.884Z" fill="white"/>
<path d="M435.468 458.52C435.452 458.516 435.435 458.514 435.419 458.511L433.188 458.1C433.188 458.099 433.188 458.099 433.188 458.099L435.468 458.52Z" fill="#D7274D"/>
<path d="M430.933 457.685L424.165 456.436L430.933 457.683C430.933 457.683 430.933 457.683 430.933 457.685Z" fill="#D7274D"/>
<path d="M421.832 456.008L419.115 455.506H419.116L421.832 456.007C421.832 456.007 421.832 456.007 421.832 456.008Z" fill="#D7274D"/>
<path d="M433.189 458.101L430.934 457.685C430.934 457.683 430.934 457.683 430.934 457.683L433.189 458.099C433.189 458.099 433.189 458.099 433.189 458.101Z" fill="#E9C2DD"/>
<path d="M424.165 456.438L421.832 456.008C421.832 456.007 421.832 456.007 421.832 456.007L424.165 456.438Z" fill="#E9C2DD"/>
<path d="M437.804 456.903L438.087 455.37L437.811 456.864C437.809 456.877 437.807 456.89 437.804 456.903ZM440.256 443.603L440.81 440.594L440.256 443.603Z" fill="#D7274D"/>
<path d="M438.578 452.702L439.764 446.273L438.579 452.702H438.578Z" fill="#D7274D"/>
<path d="M441.375 437.527L446.202 411.339V411.34L441.376 437.527H441.375Z" fill="#D7274D"/>
<path d="M438.086 455.37L438.577 452.702H438.579L438.086 455.37ZM439.763 446.272L440.255 443.603L439.763 446.272Z" fill="#E9C2DD"/>
<path d="M440.811 440.594L441.375 437.527H441.376L440.811 440.594Z" fill="#E9C2DD"/>
<path d="M446.201 411.341V411.34L446.608 409.135L446.201 411.341Z" fill="#E9C2DD"/>
<path d="M359.517 444.52L346.638 442.146V442.145L359.516 444.52H359.517ZM344.419 441.737L316.417 436.576H316.419L344.419 441.736V441.737ZM304.381 434.357H304.379L301.99 433.916V433.915L304.381 434.357Z" fill="#D7274D"/>
<path d="M346.638 442.146L344.419 441.737V441.736L346.638 442.145V442.146ZM316.419 436.576H316.417L304.379 434.357H304.381L316.419 436.576Z" fill="#EBC5DD"/>
<path d="M419.115 455.506L412.733 454.33V454.329L419.116 455.506H419.115Z" fill="#D3AAD6"/>
<path d="M360.472 444.696L359.518 444.52H359.517L360.472 444.695C360.472 444.696 360.472 444.696 360.472 444.696Z" fill="#D3AAD6"/>
<path d="M371.151 446.664L363.034 445.168C363.034 445.168 363.034 445.168 363.034 445.167L371.15 446.664H371.151Z" fill="#D3AAD6"/>
<path d="M363.035 445.168L360.472 444.695C360.472 444.695 360.472 444.695 360.472 444.694L363.035 445.167C363.035 445.168 363.035 445.168 363.035 445.168Z" fill="#DAB3D5"/>
<path d="M448.992 396.203V396.202L449.803 391.806L448.992 396.203Z" fill="#D6AED6"/>
<path d="M447.353 405.102C447.353 405.1 447.353 405.102 447.353 405.1L448.992 396.2V396.201L447.353 405.102Z" fill="#D3AAD6"/>
<path d="M446.608 409.135L447.352 405.102C447.352 405.103 447.352 405.102 447.352 405.103L446.608 409.135Z" fill="#DAB3D5"/>
<path d="M412.733 454.33L371.152 446.665H371.15L412.733 454.329V454.33ZM449.803 391.806L450.359 388.786H450.36L449.803 391.806ZM457.033 352.58L457.547 349.795L457.033 352.58Z" fill="#E98EB3"/>
<path d="M435.794 458.546C435.686 458.546 435.577 458.537 435.469 458.52L433.189 458.1L430.933 457.684L424.165 456.437L421.832 456.006L419.116 455.506L412.733 454.329L371.15 446.665L363.034 445.168L360.472 444.695L359.516 444.52L346.638 442.146L344.419 441.736L316.419 436.576L304.381 434.357L301.99 433.916V392.499L304.295 379.996H330.807C335.697 379.996 340.231 378.279 343.957 375.352L373.498 380.797L373.701 380.816C374.226 380.816 374.693 380.442 374.79 379.908C374.902 379.304 374.504 378.726 373.902 378.615L346.062 373.484C348.016 371.532 349.671 369.212 350.94 366.621C356.778 367.925 362.844 368.613 369.068 368.613C378.709 368.613 388.09 366.988 396.935 363.83L432.081 370.309L450.359 388.786L449.803 391.806L448.992 396.201L447.352 405.102L446.609 409.134L446.202 411.339L441.374 437.527L440.81 440.594L440.255 443.602L439.763 446.272L438.577 452.701L438.086 455.369L437.803 456.903C437.605 457.871 436.751 458.546 435.794 458.546ZM429.352 367.549L400.889 362.303C406.844 359.821 412.531 356.623 417.86 352.74C417.809 353.602 418.113 354.482 418.772 355.141L422.63 358.999C422.215 359.692 422.055 360.174 422.237 360.357L429.352 367.549ZM457.033 352.58L443.481 338.882C443.435 338.834 443.366 338.811 443.278 338.811C442.975 338.811 442.439 339.081 441.73 339.563L438.04 335.873C437.432 335.264 436.638 334.962 435.844 334.962C435.835 334.962 435.827 334.962 435.819 334.962C441.249 327.646 445.374 319.638 448.115 311.17C448.165 311.074 448.202 310.97 448.223 310.859C448.225 310.843 448.229 310.829 448.23 310.814C450.523 303.619 451.821 296.092 452.075 288.376C452.286 288.215 452.44 287.978 452.492 287.696C452.567 287.289 452.41 286.894 452.114 286.645C452.118 286.284 452.122 285.921 452.122 285.559C452.122 277.144 450.862 269.015 448.524 261.353L470.996 265.496C472.112 265.701 472.85 266.773 472.645 267.888L457.547 349.794L457.033 352.58Z" fill="#D8F3E5"/>
<path d="M451.402 288.604L451.199 288.586L416.457 282.182C415.855 282.071 415.456 281.493 415.567 280.89C415.679 280.288 416.25 279.89 416.86 280.001L451.603 286.404C452.205 286.515 452.604 287.093 452.493 287.696C452.394 288.231 451.928 288.604 451.402 288.604Z" fill="white"/>
<path d="M449.356 299.704L449.154 299.686L414.411 293.281C413.809 293.17 413.411 292.592 413.521 291.99C413.634 291.389 414.206 290.989 414.815 291.1L449.557 297.504C450.16 297.615 450.558 298.194 450.447 298.797C450.348 299.33 449.882 299.704 449.356 299.704Z" fill="white"/>
<path d="M447.133 311.768L446.931 311.75L412.188 305.346C411.585 305.235 411.187 304.656 411.299 304.053C411.409 303.452 411.98 303.054 412.592 303.164L447.334 309.567C447.936 309.678 448.334 310.258 448.223 310.86C448.125 311.395 447.658 311.768 447.133 311.768Z" fill="white"/>
<path d="M391.193 318.307L334.446 307.847C333.238 307.625 332.44 306.465 332.662 305.258L343.834 244.65C344.056 243.441 345.217 242.643 346.424 242.866L403.171 253.326C404.379 253.549 405.178 254.708 404.956 255.916L393.784 316.524C393.561 317.732 392.402 318.53 391.193 318.307Z" fill="#6C92D3"/>
<path d="M359.88 280.512C359.45 280.512 359.014 280.473 358.576 280.392L357.729 280.235C353.237 279.408 350.254 275.078 351.081 270.583L353.216 259.001C353.382 258.097 354.257 257.498 355.154 257.667C356.059 257.833 356.656 258.701 356.49 259.605L354.355 271.187C353.859 273.876 355.645 276.467 358.333 276.963L359.179 277.119C361.271 277.507 363.283 276.117 363.668 274.026L369.072 244.711C369.47 242.554 368.038 240.475 365.882 240.077L364.434 239.811C362.135 239.388 359.937 240.909 359.513 243.199L359.381 243.922C359.213 244.827 358.335 245.424 357.443 245.257C356.539 245.091 355.941 244.223 356.107 243.32L356.24 242.596C356.997 238.499 360.944 235.781 365.036 236.538L366.484 236.804C370.446 237.534 373.075 241.352 372.347 245.314L366.942 274.629C366.304 278.086 363.275 280.512 359.88 280.512Z" fill="#3C419F"/>
<path d="M365.657 255.897L365.555 255.889L343.378 251.8C343.076 251.745 342.878 251.456 342.933 251.154C342.989 250.853 343.274 250.649 343.579 250.71L365.757 254.797C366.058 254.852 366.258 255.142 366.202 255.444C366.152 255.711 365.919 255.897 365.657 255.897Z" fill="white"/>
<path d="M433.47 370.547L433.267 370.528L327.11 350.96C326.507 350.849 326.108 350.271 326.22 349.668C326.332 349.066 326.901 348.664 327.513 348.778L433.671 368.346C434.274 368.457 434.672 369.036 434.56 369.639C434.462 370.173 433.996 370.547 433.47 370.547Z" fill="white"/>
<path d="M425.88 411.723L425.678 411.705L319.519 392.137C318.916 392.026 318.518 391.448 318.629 390.845C318.74 390.243 319.311 389.839 319.921 389.955L426.081 409.523C426.684 409.632 427.082 410.212 426.971 410.815C426.872 411.349 426.405 411.723 425.88 411.723Z" fill="white"/>
<path d="M373.702 380.815L373.498 380.797L323.315 371.546C322.712 371.436 322.313 370.857 322.425 370.253C322.537 369.652 323.107 369.247 323.718 369.363L373.902 378.614C374.505 378.725 374.903 379.303 374.791 379.907C374.693 380.442 374.226 380.815 373.702 380.815Z" fill="white"/>
<path d="M380.616 343.304L380.414 343.286L330.229 334.036C329.626 333.924 329.228 333.346 329.34 332.744C329.451 332.142 330.024 331.744 330.633 331.854L380.816 341.104C381.419 341.213 381.817 341.793 381.706 342.396C381.607 342.93 381.141 343.304 380.616 343.304Z" fill="white"/>
<path d="M429.704 390.975L429.503 390.956L381.688 382.142C381.085 382.031 380.687 381.453 380.798 380.85C380.909 380.248 381.48 379.847 382.09 379.96L429.905 388.775C430.508 388.884 430.906 389.464 430.795 390.067C430.696 390.601 430.23 390.975 429.704 390.975Z" fill="white"/>
<path d="M169 155.763V150.234C169 149.239 169.807 148.431 170.802 148.431H176.33C172.282 148.431 169 151.714 169 155.763Z" fill="#BAB0DE"/>
<path d="M182.688 340.211C180.582 336.746 176.771 334.431 172.419 334.431H169V155.761C169 151.713 172.282 148.43 176.33 148.43H317.945H183.911C183.236 148.43 182.688 148.978 182.688 149.654V340.211Z" fill="#2C9D76"/>
<path d="M323.11 216.41V151.199C323.11 149.669 321.871 148.43 320.341 148.43H320.921C322.13 148.43 323.11 149.41 323.11 150.62V216.41Z" fill="#A6A2D8"/>
<path d="M323.11 216.41V153.594C323.11 150.743 320.798 148.43 317.945 148.43H320.341C321.871 148.43 323.11 149.669 323.11 151.199V216.41Z" fill="#8883C9"/>
<path d="M225.61 366.248H196.391C189.784 366.248 184.427 360.892 184.427 354.283V346.437C184.427 344.157 183.791 342.026 182.688 340.21V149.653C182.688 148.977 183.236 148.429 183.911 148.429H317.945C320.798 148.429 323.11 150.742 323.11 153.593V216.409C308.637 226.06 297.352 240.126 291.196 256.671H235.628C235.016 256.671 234.519 257.168 234.519 257.781C234.519 258.393 235.016 258.89 235.628 258.89H290.406C288.335 264.982 286.953 271.387 286.354 278.017H209.055C208.442 278.017 207.946 278.514 207.946 279.127C207.946 279.739 208.442 280.236 209.055 280.236H286.183C286.071 281.997 286.015 283.77 286.015 285.558C286.015 308.529 295.386 329.35 310.51 344.4H228.591V354.199C228.591 358.552 227.513 362.651 225.61 366.248Z" fill="#4EB990"/>
<path d="M204.195 379.957V379.997H327.977C342.224 379.997 353.773 368.447 353.773 354.201V344.402H228.591V354.201C228.591 367.977 217.791 379.23 204.195 379.957Z" fill="#1D7E5E"/>
<path d="M330.807 379.997H304.295H327.977C333.579 379.997 338.766 378.211 342.997 375.175L343.957 375.353C340.232 378.28 335.697 379.997 330.807 379.997ZM346.062 373.484L345.273 373.339C347.418 371.4 349.233 369.108 350.63 366.551C350.732 366.575 350.838 366.598 350.94 366.621C349.671 369.213 348.016 371.533 346.062 373.484Z" fill="#C9ADD2"/>
<path d="M343.957 375.352L342.996 375.174C343.79 374.605 344.55 373.991 345.273 373.338L346.062 373.483C345.394 374.15 344.69 374.775 343.957 375.352Z" fill="#CCCBE6"/>
<path d="M327.977 379.997H301.991V377.434C301.991 371.258 296.984 366.25 290.807 366.25H239.672C241.366 362.653 242.326 358.553 242.326 354.201V344.402H310.511C321.368 355.207 335.187 363.038 350.63 366.551C349.233 369.108 347.418 371.4 345.274 373.339C344.551 373.993 343.791 374.606 342.997 375.175C338.767 378.211 333.58 379.997 327.977 379.997Z" fill="#1D7E5E"/>
<path d="M299.721 317.713H210.72C210.107 317.713 209.61 317.216 209.61 316.603C209.61 315.991 210.107 315.494 210.72 315.494H299.721C300.334 315.494 300.83 315.991 300.83 316.603C300.83 317.216 300.334 317.713 299.721 317.713Z" fill="white"/>
<path d="M301.586 280.238H209.055C208.441 280.238 207.945 279.741 207.945 279.129C207.945 278.516 208.441 278.019 209.055 278.019H301.586C302.199 278.019 302.695 278.516 302.695 279.129C302.695 279.741 302.199 280.238 301.586 280.238Z" fill="white"/>
<path d="M255.219 298.958H207.938C207.325 298.958 206.828 298.462 206.828 297.849C206.828 297.236 207.325 296.739 207.938 296.739H255.219C255.832 296.739 256.328 297.236 256.328 297.849C256.328 298.462 255.832 298.958 255.219 298.958Z" fill="white"/>
<path d="M251.637 298.958H211.52C210.906 298.958 210.41 298.462 210.41 297.849C210.41 297.236 210.906 296.739 211.52 296.739H251.637C252.249 296.739 252.746 297.236 252.746 297.849C252.746 298.462 252.249 298.958 251.637 298.958Z" fill="white"/>
<path d="M270.61 240.171H209.699C209.086 240.171 208.59 239.674 208.59 239.061C208.59 238.449 209.086 237.952 209.699 237.952H270.61C271.223 237.952 271.72 238.449 271.72 239.061C271.72 239.674 271.223 240.171 270.61 240.171Z" fill="white"/>
<path d="M298.848 240.171H280.294C279.681 240.171 279.185 239.674 279.185 239.061C279.185 238.449 279.681 237.952 280.294 237.952H298.848C299.461 237.952 299.957 238.449 299.957 239.061C299.957 239.674 299.461 240.171 298.848 240.171Z" fill="white"/>
<path d="M301.587 258.893H235.629C235.017 258.893 234.52 258.396 234.52 257.783C234.52 257.171 235.017 256.674 235.629 256.674H301.587C302.201 256.674 302.697 257.171 302.697 257.783C302.697 258.396 302.201 258.893 301.587 258.893Z" fill="white"/>
<path d="M229.113 258.893H209.055C208.441 258.893 207.945 258.396 207.945 257.783C207.945 257.171 208.441 256.674 209.055 256.674H229.113C229.725 256.674 230.222 257.171 230.222 257.783C230.222 258.396 229.725 258.893 229.113 258.893Z" fill="white"/>
<path d="M299.721 224.317H210.72C210.107 224.317 209.61 223.82 209.61 223.208C209.61 222.594 210.107 222.098 210.72 222.098H299.721C300.334 222.098 300.83 222.594 300.83 223.208C300.83 223.82 300.334 224.317 299.721 224.317Z" fill="white"/>
<path d="M299.721 186.844H210.72C210.107 186.844 209.61 186.347 209.61 185.734C209.61 185.121 210.107 184.625 210.72 184.625H299.721C300.334 184.625 300.83 185.121 300.83 185.734C300.83 186.347 300.334 186.844 299.721 186.844Z" fill="white"/>
<path d="M243.384 205.565H209.699C209.086 205.565 208.59 205.068 208.59 204.456C208.59 203.842 209.086 203.346 209.699 203.346H243.384C243.996 203.346 244.493 203.842 244.493 204.456C244.493 205.068 243.996 205.565 243.384 205.565Z" fill="white"/>
<path d="M299.042 205.565H258.925C258.312 205.565 257.815 205.068 257.815 204.456C257.815 203.842 258.312 203.346 258.925 203.346H299.042C299.656 203.346 300.152 203.842 300.152 204.456C300.152 205.068 299.656 205.565 299.042 205.565Z" fill="white"/>
<path d="M323.11 277.921V264.003C324.236 261.435 325.549 258.973 327.036 256.627L323.11 277.921ZM428.466 252.476L382.211 225.052C381.881 224.857 381.521 224.765 381.165 224.765C380.463 224.765 379.78 225.124 379.396 225.771L371.107 239.752C370.043 238.26 368.423 237.162 366.484 236.805L365.036 236.539C364.576 236.453 364.116 236.412 363.664 236.412C360.096 236.412 356.912 238.962 356.24 242.596L356.107 243.321C356.041 243.681 356.096 244.037 356.244 244.343L341.096 241.55C350.274 234.796 361.602 230.801 373.846 230.801C376.297 230.801 378.284 228.813 378.284 226.363C378.284 223.912 376.297 221.925 373.846 221.925C353.244 221.925 334.875 231.674 323.11 246.8V235.481C335.222 224.357 351.365 217.558 369.068 217.558C377.729 217.558 386.014 219.185 393.639 222.15V227.724C393.639 230.485 395.898 232.744 398.66 232.744H411.857C418.565 238.19 424.223 244.889 428.466 252.476ZM367.189 246.361L358.885 244.83C359.134 244.596 359.314 244.284 359.381 243.923L359.513 243.2C359.889 241.167 361.662 239.741 363.664 239.741C363.918 239.741 364.175 239.764 364.434 239.812L365.882 240.078C367.525 240.381 368.746 241.659 369.06 243.204L367.189 246.361Z" fill="#EDE9F6"/>
<path d="M431.313 258.181L371.99 247.246L372.346 245.315C372.719 243.293 372.215 241.308 371.107 239.752L379.396 225.772C379.78 225.125 380.463 224.766 381.164 224.766C381.521 224.766 381.881 224.858 382.211 225.053L428.466 252.477C429.501 254.326 430.452 256.23 431.313 258.181ZM368.716 246.642L367.188 246.361L369.06 243.205C369.158 243.689 369.168 244.198 369.072 244.713L368.716 246.642Z" fill="#34CDCB"/>
<path d="M431.312 258.182L371.99 247.247V247.246L431.312 258.181V258.182ZM368.716 246.643L358.885 244.83L367.188 246.361L368.716 246.642V246.643ZM356.245 244.344L341.095 241.552L341.096 241.551L356.243 244.343C356.243 244.343 356.245 244.343 356.245 244.344Z" fill="white"/>
<path d="M323.11 277.921L327.036 256.627V256.626L323.11 277.921Z" fill="#F2D2EB"/>
<path d="M369.068 353.562C363.811 353.562 358.69 352.962 353.773 351.827V344.402H335.009C330.726 341.913 326.737 338.97 323.11 335.639V277.921L327.036 256.626C330.746 250.769 335.525 245.651 341.095 241.551L356.245 244.344C356.267 244.39 356.291 244.435 356.317 244.478L346.461 242.662C346.325 242.637 346.19 242.624 346.056 242.624C345.004 242.624 344.069 243.374 343.871 244.446L333.113 302.804L332.662 305.258C332.661 305.261 332.661 305.264 332.66 305.267L332.07 308.462C331.849 309.67 332.647 310.829 333.856 311.052L393.381 322.025C393.517 322.049 393.654 322.061 393.787 322.061C394.839 322.061 395.774 321.311 395.97 320.241L407.771 256.224C407.994 255.017 407.195 253.858 405.988 253.635L371.969 247.364L371.99 247.246L431.313 258.181C434.781 266.033 436.803 274.659 437.045 283.721L416.86 280.001C416.792 279.989 416.723 279.982 416.657 279.982C416.127 279.982 415.667 280.356 415.567 280.891C415.456 281.494 415.854 282.072 416.457 282.183L437.069 285.982C437.05 289.065 436.825 292.106 436.406 295.079L414.815 291.099C414.746 291.086 414.678 291.081 414.612 291.081C414.083 291.081 413.621 291.456 413.521 291.989C413.41 292.592 413.809 293.17 414.411 293.281L436.06 297.271C435.478 300.614 434.649 303.877 433.596 307.035L412.591 303.163C412.523 303.15 412.455 303.145 412.388 303.145C411.858 303.145 411.397 303.518 411.299 304.052C411.187 304.655 411.585 305.234 412.188 305.345L432.849 309.154C423.238 335.054 398.273 353.562 369.068 353.562ZM330.431 331.836C329.901 331.836 329.439 332.209 329.34 332.743C329.228 333.346 329.626 333.924 330.229 334.036L380.413 343.286L380.615 343.303C381.141 343.303 381.607 342.929 381.706 342.396C381.817 341.792 381.419 341.213 380.816 341.103L330.633 331.854C330.564 331.841 330.497 331.836 330.431 331.836ZM368.695 246.76L358.769 244.931C358.809 244.899 358.848 244.865 358.885 244.83L368.716 246.643L368.695 246.76Z" fill="#D8F3E5"/>
<path d="M437.069 285.982L416.457 282.182C415.855 282.072 415.456 281.494 415.567 280.891C415.667 280.356 416.128 279.982 416.657 279.982C416.723 279.982 416.792 279.989 416.86 280.001L437.046 283.721C437.062 284.334 437.07 284.944 437.07 285.56C437.07 285.702 437.07 285.84 437.069 285.982Z" fill="white"/>
<path d="M436.06 297.271L414.411 293.281C413.809 293.17 413.411 292.592 413.521 291.989C413.621 291.456 414.083 291.081 414.612 291.081C414.679 291.081 414.746 291.086 414.815 291.1L436.407 295.079C436.302 295.816 436.188 296.544 436.06 297.271Z" fill="white"/>
<path d="M432.85 309.153L412.188 305.344C411.585 305.234 411.187 304.654 411.299 304.052C411.397 303.517 411.858 303.144 412.389 303.144C412.455 303.144 412.523 303.15 412.592 303.162L433.596 307.034C433.359 307.746 433.11 308.451 432.85 309.153Z" fill="white"/>
<path d="M393.787 322.06C393.654 322.06 393.517 322.047 393.381 322.023L333.855 311.05C332.647 310.827 331.848 309.668 332.07 308.46L332.659 305.266C332.443 306.469 333.241 307.624 334.446 307.846L391.193 318.306C391.329 318.332 391.465 318.344 391.599 318.344C392.651 318.344 393.586 317.594 393.783 316.523L403.902 261.633L404.605 257.813L404.956 255.915C404.956 255.911 404.957 255.907 404.958 255.904L404.981 255.774C405.19 254.644 404.442 253.559 403.312 253.35L371.931 247.566L371.969 247.362L405.988 253.633C407.195 253.856 407.994 255.015 407.771 256.222L395.97 320.239C395.774 321.31 394.839 322.06 393.787 322.06ZM333.113 302.802L343.871 244.444C344.069 243.373 345.003 242.623 346.056 242.623C346.189 242.623 346.325 242.635 346.461 242.66L356.317 244.476C356.369 244.563 356.429 244.645 356.495 244.721L346.359 242.852C346.227 242.828 346.095 242.817 345.965 242.817C344.945 242.817 344.037 243.543 343.846 244.584L343.706 245.342L333.113 302.802ZM368.657 246.963L358.514 245.093C358.603 245.046 358.689 244.991 358.769 244.929L368.695 246.759L368.657 246.963Z" fill="#64E4DE"/>
<path d="M391.599 318.347C391.465 318.347 391.329 318.334 391.193 318.309L334.446 307.849C333.241 307.627 332.443 306.472 332.659 305.268C332.661 305.265 332.661 305.262 332.662 305.259L333.113 302.805L343.706 245.345L342.78 250.37L367.199 254.872L363.668 274.028C363.326 275.883 361.704 277.186 359.884 277.186C359.651 277.186 359.415 277.164 359.179 277.121L358.333 276.965C355.644 276.469 353.859 273.878 354.355 271.189L356.49 259.607C356.656 258.703 356.059 257.835 355.154 257.669C355.052 257.65 354.951 257.641 354.85 257.641C354.068 257.641 353.363 258.202 353.216 259.003L351.081 270.585C350.253 275.08 353.237 279.41 357.729 280.237L358.576 280.394C359.014 280.475 359.45 280.514 359.88 280.514C363.275 280.514 366.304 278.088 366.942 274.631L370.474 255.475L403.902 261.636L393.784 316.526C393.586 317.597 392.651 318.347 391.599 318.347ZM343.472 250.699C343.209 250.699 342.982 250.889 342.933 251.155C342.878 251.457 343.076 251.745 343.378 251.801L365.555 255.889L365.657 255.898C365.919 255.898 366.152 255.711 366.202 255.444C366.258 255.142 366.058 254.853 365.757 254.797L343.579 250.71C343.543 250.702 343.507 250.699 343.472 250.699ZM404.605 257.816L404.958 255.907C404.957 255.91 404.956 255.913 404.956 255.918L404.605 257.816Z" fill="#64E4DE"/>
<path d="M403.902 261.635L404.606 257.815L403.902 261.635ZM404.958 255.905C405.174 254.702 404.376 253.548 403.171 253.326L371.932 247.568L403.312 253.351C404.442 253.56 405.19 254.645 404.982 255.776L404.958 255.905Z" fill="#EAD4E6"/>
<path d="M403.902 261.635L370.474 255.474L371.931 247.568L403.171 253.326C404.376 253.548 405.173 254.702 404.958 255.905L404.605 257.815L403.902 261.635Z" fill="#64E4DE"/>
<path d="M368.657 246.965L358.513 245.095H358.514L368.657 246.965ZM343.706 245.344L343.846 244.586C344.037 243.545 344.944 242.819 345.965 242.819C346.095 242.819 346.227 242.83 346.359 242.854L356.495 244.723L346.423 242.866C346.287 242.841 346.151 242.829 346.018 242.829C344.966 242.829 344.031 243.579 343.834 244.65L343.706 245.344Z" fill="#EAD4E6"/>
<path d="M367.2 254.87L342.78 250.369L343.707 245.343L343.834 244.65C344.032 243.578 344.967 242.828 346.019 242.828C346.152 242.828 346.287 242.84 346.424 242.866L356.496 244.722C356.734 244.992 357.061 245.188 357.443 245.258C357.543 245.277 357.644 245.285 357.743 245.285C358.016 245.285 358.28 245.218 358.514 245.095L368.658 246.964L367.2 254.87Z" fill="#64E4DE"/>
<path d="M359.88 280.512C359.45 280.512 359.014 280.473 358.576 280.392L357.729 280.235C353.237 279.408 350.254 275.078 351.081 270.583L353.216 259.001C353.363 258.2 354.068 257.639 354.85 257.639C354.951 257.639 355.052 257.648 355.154 257.667C356.059 257.833 356.656 258.701 356.49 259.605L354.355 271.187C353.859 273.876 355.645 276.467 358.333 276.963L359.179 277.119C359.416 277.162 359.651 277.184 359.884 277.184C361.704 277.184 363.327 275.881 363.668 274.026L367.2 254.87L368.658 246.964L368.695 246.759L368.716 246.642V246.641L369.072 244.711C369.168 244.197 369.158 243.687 369.06 243.204C368.746 241.658 367.525 240.38 365.882 240.077L364.434 239.811C364.175 239.763 363.918 239.74 363.664 239.74C361.662 239.74 359.889 241.167 359.513 243.199L359.381 243.922C359.314 244.283 359.134 244.595 358.885 244.829C358.848 244.864 358.809 244.898 358.769 244.93C358.689 244.992 358.603 245.046 358.515 245.094H358.514C358.28 245.217 358.015 245.285 357.743 245.285C357.644 245.285 357.543 245.276 357.443 245.257C357.061 245.187 356.734 244.992 356.495 244.721C356.429 244.646 356.369 244.564 356.317 244.477C356.291 244.434 356.267 244.388 356.245 244.343C356.245 244.342 356.244 244.342 356.244 244.342C356.096 244.036 356.041 243.681 356.107 243.32L356.24 242.596C356.912 238.961 360.096 236.411 363.664 236.411C364.116 236.411 364.576 236.452 365.036 236.538L366.484 236.804C368.423 237.161 370.043 238.259 371.107 239.751C372.216 241.306 372.719 243.291 372.347 245.314L371.99 247.244V247.245L371.969 247.363L371.932 247.567L370.474 255.473L366.942 274.629C366.304 278.086 363.275 280.512 359.88 280.512Z" fill="#34CDCB"/>
<path d="M365.657 255.897L365.555 255.889L343.378 251.8C343.076 251.745 342.878 251.456 342.933 251.154C342.982 250.888 343.209 250.698 343.472 250.698C343.507 250.698 343.543 250.702 343.579 250.71L365.757 254.797C366.058 254.852 366.258 255.142 366.202 255.444C366.152 255.711 365.919 255.897 365.657 255.897Z" fill="white"/>
<path d="M380.616 343.304L380.414 343.286L330.229 334.036C329.626 333.924 329.228 333.346 329.34 332.744C329.439 332.209 329.902 331.836 330.431 331.836C330.497 331.836 330.564 331.842 330.633 331.854L380.816 341.104C381.419 341.213 381.817 341.793 381.706 342.396C381.607 342.93 381.141 343.304 380.616 343.304Z" fill="white"/>
<path d="M323.11 335.64C309.568 323.201 301.066 305.354 301.066 285.56C301.066 283.769 301.136 281.996 301.273 280.238H301.587C302.2 280.238 302.696 279.741 302.696 279.129C302.696 278.516 302.2 278.019 301.587 278.019H301.482C303.34 261.262 311.312 246.318 323.11 235.482V246.801C314.647 257.683 309.603 271.348 309.603 286.169C309.603 288.62 311.591 290.607 314.041 290.607C316.491 290.607 318.48 288.62 318.48 286.169C318.48 278.292 320.133 270.793 323.11 264.003V335.64Z" fill="#4EB990"/>
<path d="M353.772 351.826C347.089 350.284 340.782 347.756 335.009 344.4H353.772V351.826Z" fill="#1D7E5E"/>
<path d="M301.586 280.238H301.272C301.33 279.495 301.4 278.755 301.482 278.019H301.586C302.2 278.019 302.696 278.516 302.696 279.129C302.696 279.741 302.2 280.238 301.586 280.238Z" fill="white"/>
<path d="M323.11 264.003V246.801C334.875 231.674 353.244 221.925 373.846 221.925C376.297 221.925 378.284 223.912 378.284 226.363C378.284 228.814 376.297 230.801 373.846 230.801C361.602 230.801 350.274 234.796 341.096 241.551L330.185 239.54L329.819 241.526C329.817 241.537 329.815 241.548 329.813 241.561L327.036 256.627C325.549 258.974 324.236 261.436 323.11 264.003Z" fill="#F4F4F4"/>
<path d="M341.095 241.552L332.206 239.913C332.079 239.89 331.954 239.879 331.831 239.879C330.87 239.879 330.016 240.554 329.819 241.526L330.185 239.54L341.096 241.551L341.095 241.552Z" fill="white"/>
<path d="M327.035 256.627L329.812 241.56C329.814 241.548 329.817 241.537 329.819 241.526L327.035 256.626V256.627Z" fill="#FCF8FC"/>
<path d="M327.035 256.626L329.819 241.526C330.015 240.554 330.87 239.878 331.83 239.878C331.953 239.878 332.079 239.89 332.205 239.913L341.094 241.552C335.525 245.651 330.745 250.769 327.035 256.626Z" fill="#F4F4F4"/>
<path d="M314.04 290.607C311.591 290.607 309.603 288.62 309.603 286.17C309.603 271.348 314.647 257.683 323.11 246.801V264.003C320.133 270.793 318.479 278.292 318.479 286.17C318.479 288.62 316.491 290.607 314.04 290.607Z" fill="#F4F4F4"/>
<path d="M430.324 253.577L428.465 252.475C424.223 244.888 418.564 238.189 411.856 232.744H413.595C420.432 238.516 426.136 245.589 430.324 253.577Z" fill="#8584CA"/>
<path d="M432.629 258.423L431.313 258.18C430.452 256.229 429.501 254.326 428.466 252.476L430.324 253.578C431.153 255.158 431.922 256.773 432.629 258.423Z" fill="#886CB2"/>
<path d="M432.628 258.423L431.312 258.181V258.18L432.628 258.423Z" fill="#8F8ECB"/>
<path d="M369.068 354.671C363.813 354.671 358.694 354.082 353.772 352.966V351.827C358.69 352.962 363.811 353.561 369.068 353.561C398.272 353.561 423.238 335.054 432.849 309.154L433.957 309.357C424.238 335.779 398.818 354.671 369.068 354.671ZM434.697 307.238L433.596 307.035C434.648 303.877 435.477 300.614 436.06 297.271L437.151 297.473C436.568 300.816 435.745 304.077 434.697 307.238ZM437.498 295.28L436.406 295.079C436.824 292.106 437.049 289.065 437.068 285.982L438.177 286.187C438.149 289.269 437.918 292.305 437.498 295.28ZM438.16 283.927L437.045 283.721C436.803 274.659 434.781 266.033 431.312 258.181L432.628 258.423C435.998 266.285 437.949 274.897 438.16 283.927Z" fill="#8C80C1"/>
<path d="M438.177 286.187L437.068 285.982C437.069 285.84 437.069 285.702 437.069 285.56C437.069 284.944 437.062 284.334 437.045 283.721L438.16 283.927C438.172 284.47 438.179 285.014 438.179 285.56C438.179 285.769 438.178 285.977 438.177 286.187Z" fill="#8F8ECB"/>
<path d="M437.152 297.474L436.061 297.272C436.188 296.544 436.302 295.816 436.407 295.079L437.498 295.28C437.394 296.016 437.279 296.746 437.152 297.474Z" fill="#8F8ECB"/>
<path d="M433.957 309.357L432.849 309.154C433.109 308.452 433.358 307.748 433.595 307.035L434.697 307.238C434.462 307.948 434.214 308.657 433.957 309.357Z" fill="#8F8ECB"/>
<path d="M323.11 235.48V233.985C335.332 223.081 351.44 216.447 369.068 216.447C377.719 216.447 386.001 218.045 393.639 220.96V222.149C386.014 219.185 377.729 217.557 369.068 217.557C351.365 217.557 335.222 224.356 323.11 235.48Z" fill="#8584CA"/>
<path d="M413.595 232.744H411.856C406.413 228.325 400.278 224.732 393.639 222.15V220.96C400.967 223.757 407.701 227.768 413.595 232.744Z" fill="#6966BA"/>
<path d="M335.009 344.401H332.852C329.39 342.263 326.133 339.83 323.11 337.134V335.639C326.737 338.969 330.726 341.913 335.009 344.401Z" fill="#8C80C1"/>
<path d="M323.11 337.134C308.911 324.468 299.956 306.04 299.956 285.559C299.956 283.768 300.025 281.994 300.159 280.237H301.272C301.135 281.994 301.066 283.767 301.066 285.559C301.066 305.353 309.567 323.2 323.11 335.638V337.134Z" fill="#6868BA"/>
<path d="M301.482 278.019H300.366C302.266 260.582 310.678 245.076 323.11 233.986V235.481C311.312 246.318 303.34 261.261 301.482 278.019Z" fill="#6868BA"/>
<path d="M353.773 352.965C346.265 351.262 339.217 348.333 332.852 344.401H335.009C340.783 347.756 347.089 350.284 353.773 351.827V352.965Z" fill="#5454AE"/>
<path d="M301.273 280.238H300.16C300.217 279.497 300.286 278.754 300.367 278.019H301.483C301.401 278.755 301.331 279.495 301.273 280.238Z" fill="#8F8ECB"/>
<path d="M369.067 355.78C330.286 355.78 298.847 324.341 298.847 285.561C298.847 246.778 330.286 215.34 369.067 215.34C407.849 215.34 439.288 246.778 439.288 285.561C439.288 324.341 407.849 355.78 369.067 355.78ZM433.611 335.873C433.714 335.769 433.829 335.686 433.944 335.601C444.637 321.757 451.012 304.407 451.012 285.561C451.012 240.304 414.324 203.616 369.067 203.616C323.811 203.616 287.124 240.304 287.124 285.561C287.124 330.816 323.811 367.504 369.067 367.504C387.835 367.504 405.111 361.171 418.927 350.557L428.406 341.076L433.611 335.873Z" fill="#144D3C"/>
<path d="M369.068 216.448C330.96 216.448 299.957 247.451 299.957 285.559C299.957 323.669 330.96 354.671 369.068 354.671C407.177 354.671 438.18 323.669 438.18 285.559C438.18 247.451 407.177 216.448 369.068 216.448ZM369.068 356.89C329.737 356.89 297.738 324.891 297.738 285.559C297.738 246.229 329.737 214.229 369.068 214.229C408.4 214.229 440.399 246.229 440.399 285.559C440.399 324.891 408.4 356.89 369.068 356.89ZM369.068 204.725C324.497 204.725 288.235 240.987 288.235 285.559C288.235 330.132 324.497 366.394 369.068 366.394C386.986 366.394 403.971 360.628 418.194 349.72L432.828 335.088C432.932 334.983 433.043 334.892 433.157 334.805C444.113 320.57 449.903 303.545 449.903 285.559C449.903 240.987 413.64 204.725 369.068 204.725ZM369.068 368.613C323.273 368.613 286.016 331.356 286.016 285.559C286.016 239.765 323.273 202.507 369.068 202.507C414.865 202.507 452.122 239.765 452.122 285.559C452.122 304.09 446.14 321.628 434.822 336.279L434.614 336.485C434.505 336.567 434.447 336.605 434.399 336.655L419.604 351.435C404.978 362.673 387.502 368.613 369.068 368.613Z" fill="#144D3C"/>
<path d="M431.586 348.685L428.407 345.508C427.183 344.284 427.183 342.3 428.407 341.077L418.928 350.557L418.772 350.711C417.549 351.934 417.549 353.919 418.772 355.141L422.63 358.999C423.903 356.867 427.623 352.692 431.586 348.685Z" fill="#2C9D76"/>
<path d="M428.407 341.077C427.183 342.301 427.183 344.284 428.407 345.508L431.586 348.686C435.419 344.809 439.464 341.106 441.734 339.567L438.041 335.873C436.921 334.753 435.172 334.671 433.944 335.602C433.83 335.687 433.715 335.769 433.612 335.873L428.407 341.077Z" fill="#4E5DB3"/>
<path d="M431.584 348.686L428.407 345.509C427.794 344.897 427.489 344.096 427.489 343.294C427.489 342.491 427.794 341.69 428.407 341.078L433.611 335.874C433.714 335.77 433.83 335.688 433.944 335.603C434.504 335.178 435.175 334.964 435.844 334.964C436.638 334.964 437.432 335.265 438.04 335.874L441.73 339.565C439.458 341.108 435.411 344.816 431.584 348.686Z" fill="#2C9D76"/>
<path d="M501.187 397.214L443.481 338.882C443.273 338.671 442.642 338.949 441.733 339.566C439.463 341.105 435.418 344.808 431.585 348.685C427.622 352.691 423.902 356.866 422.629 358.998C422.214 359.692 422.055 360.173 422.236 360.356L479.942 418.69C485.808 424.621 495.32 424.621 501.187 418.69C507.052 412.76 507.052 403.145 501.187 397.214Z" fill="#4EB990"/>
<path d="M430.457 349.837C430.83 349.453 431.206 349.068 431.585 348.685C435.419 344.809 439.464 341.105 441.734 339.567L441.73 339.563C442.439 339.082 442.975 338.811 443.278 338.811C443.366 338.811 443.435 338.834 443.481 338.882C443.436 338.835 443.368 338.812 443.281 338.812C442.979 338.812 442.439 339.087 441.734 339.567C439.464 341.105 435.419 344.809 431.585 348.685C431.206 349.068 430.83 349.453 430.457 349.837Z" fill="#E4C3DC"/>
<path d="M430.457 349.837C430.466 349.827 430.475 349.818 430.484 349.808C430.848 349.433 431.215 349.058 431.584 348.684L431.585 348.685C431.206 349.068 430.83 349.453 430.457 349.837Z" fill="#4C59B1"/>
<path d="M431.585 348.686L431.584 348.684C435.411 344.815 439.458 341.107 441.73 339.563L441.733 339.567C439.463 341.106 435.418 344.809 431.585 348.686Z" fill="#454EAA"/>
<path d="M500.164 419.047C489.795 419.04 426.118 354.805 430.457 349.836C430.83 349.452 431.206 349.067 431.585 348.684C435.418 344.808 439.464 341.104 441.734 339.565C442.439 339.086 442.978 338.811 443.281 338.811C443.368 338.811 443.435 338.834 443.481 338.881L501.187 397.214C504.12 400.179 505.586 404.066 505.586 407.952C505.586 411.839 504.12 415.725 501.187 418.69C500.948 418.931 500.605 419.047 500.164 419.047Z" fill="#4EB990"/>
<defs>
<filter id="filter0_f_1960_1587" x="0" y="67.4287" width="510" height="504.56" filterUnits="userSpaceOnUse" color-interpolation-filters="sRGB">
<feFlood flood-opacity="0" result="BackgroundImageFix"/>
<feBlend mode="normal" in="SourceGraphic" in2="BackgroundImageFix" result="shape"/>
<feGaussianBlur stdDeviation="68" result="effect1_foregroundBlur_1960_1587"/>
</filter>
<filter id="filter1_f_1960_1587" x="205.714" y="0.714294" width="428.571" height="424" filterUnits="userSpaceOnUse" color-interpolation-filters="sRGB">
<feFlood flood-opacity="0" result="BackgroundImageFix"/>
<feBlend mode="normal" in="SourceGraphic" in2="BackgroundImageFix" result="shape"/>
<feGaussianBlur stdDeviation="57.1429" result="effect1_foregroundBlur_1960_1587"/>
</filter>
<filter id="filter2_f_1960_1587" x="148.35" y="148.738" width="486.341" height="481.153" filterUnits="userSpaceOnUse" color-interpolation-filters="sRGB">
<feFlood flood-opacity="0" result="BackgroundImageFix"/>
<feBlend mode="normal" in="SourceGraphic" in2="BackgroundImageFix" result="shape"/>
<feGaussianBlur stdDeviation="64.8454" result="effect1_foregroundBlur_1960_1587"/>
</filter>
</defs>
</svg>
