<svg width="495" height="385" viewBox="0 0 495 385" fill="none" xmlns="http://www.w3.org/2000/svg">
<path d="M135.047 159.257C134.128 157.347 131.516 157.2 130.118 158.632C128.61 160.175 127.911 163.149 128.058 165.242C128.389 169.465 132.509 171.448 133.613 175.23C134.128 176.956 136.776 177.507 137.659 175.744C139.131 172.843 141.191 170.346 143.03 167.702C144.649 165.352 147.114 161.717 146.231 158.706C145.863 157.421 144.723 156.319 143.325 156.172C141.632 155.989 140.455 157.017 139.462 158.265C138.469 159.55 137.586 160.872 136.85 162.304C136.188 163.553 135.673 165.022 134.385 165.719C135.452 166.16 136.556 166.601 137.623 167.041C137.144 165.462 136.666 163.883 136.225 162.341C135.011 163.039 133.76 163.773 132.546 164.471C134.201 166.344 137.034 166.601 139.021 165.022C139.94 164.287 140.455 163.296 141.081 162.341C141.375 161.901 141.632 161.497 142.074 161.203C142.368 160.983 142.736 160.836 143.104 160.725C143.84 160.689 143.803 160.615 143.03 160.505C142.663 159.881 142.295 159.22 141.927 158.596C141.927 158.669 141.927 158.779 141.927 158.853C142.479 158.155 142.994 157.421 143.545 156.723C143.472 156.76 143.398 156.76 143.325 156.796C140.639 157.641 141.78 161.901 144.502 161.056C144.575 161.019 144.649 161.019 144.723 160.983C145.716 160.689 146.268 159.844 146.341 158.853C146.341 158.779 146.341 158.669 146.341 158.596C146.378 157.825 145.863 157.09 145.238 156.686C143.398 155.511 140.676 156.65 139.168 157.861C138.322 158.559 137.733 159.367 137.144 160.285C136.776 160.872 136.372 162.121 135.673 161.313C134.201 159.661 131.369 161.423 131.994 163.443C132.472 165.022 132.951 166.601 133.392 168.143C133.797 169.538 135.379 170.163 136.629 169.465C138.506 168.473 139.536 166.748 140.455 164.912C141.007 163.847 141.559 162.819 142.258 161.864C142.368 161.68 143.361 160.652 143.325 160.468C142.368 159.661 141.89 159.697 141.816 160.579C141.743 160.872 141.632 161.129 141.522 161.386C139.683 165.83 136.004 169.208 133.833 173.467C135.195 173.651 136.519 173.835 137.88 173.981C137.181 171.595 135.599 169.869 134.091 167.959C133.466 167.151 132.767 166.27 132.546 165.279C132.399 164.581 132.472 163.957 132.656 163.296C132.767 162.855 132.914 162.451 133.098 162.047C133.723 161.166 133.098 160.946 131.258 161.423C132.472 164.03 136.261 161.79 135.047 159.257Z" fill="#0A65CC"/>
<path d="M137.438 171.301C140.676 167.409 143.508 163.259 145.863 158.816C147.187 156.319 143.361 154.079 142.037 156.576C139.866 160.726 137.328 164.618 134.311 168.18C132.509 170.346 135.599 173.468 137.438 171.301Z" fill="#0A65CC"/>
<path d="M146.157 108.987C145.568 112.843 145.715 116.625 146.745 120.407C147.297 122.464 150.498 121.582 149.946 119.526C149.1 116.368 148.842 113.1 149.357 109.869C149.652 107.776 146.451 106.894 146.157 108.987Z" fill="#6CA3E0"/>
<path d="M147.408 110.677C151.455 112.402 154.692 109.024 154.839 105.058C154.839 104.691 154.619 103.7 154.766 103.369C154.692 103.369 154.619 103.369 154.582 103.369C154.913 103.479 155.17 103.663 155.317 103.994C155.906 104.728 156.2 105.683 156.826 106.417C158.113 107.923 159.879 108.143 161.755 108.253C162.675 108.29 163.779 108.18 164.33 109.061C164.882 109.905 164.588 111.338 164.514 112.292C164.441 113.614 164.331 114.973 164.22 116.295C164.183 116.625 163.852 117.874 164.33 117.396C164.036 117.727 162.822 117.8 162.418 117.91C159.99 118.461 157.488 118.682 155.023 118.535C153.736 118.461 151.786 118.608 151.05 117.47C150.388 116.405 150.351 114.789 150.535 113.577C149.542 113.724 148.512 113.834 147.518 113.981C148.401 115.928 149.247 117.874 150.13 119.857C150.719 121.142 152.853 120.775 153.147 119.453C154.03 115.487 152.816 111.338 154.067 107.445C153.147 107.702 152.227 107.923 151.308 108.18C152.374 109.465 152.117 112.219 152.374 113.798C152.669 115.634 153.184 117.323 154.03 118.939C154.802 120.334 157.23 119.746 157.12 118.094C156.826 113.688 156.531 109.244 156.274 104.838C155.207 104.985 154.103 105.132 153.037 105.279C154.582 109.428 154.802 113.761 153.588 118.021C154.398 117.69 155.207 117.36 156.016 117.029C153.956 115.45 152.411 113.394 151.344 111.044C150.645 109.538 148.181 110.309 148.254 111.888C148.328 113.357 148.365 114.826 148.438 116.295C149.542 116.295 150.645 116.295 151.749 116.295C151.675 114.459 151.749 112.659 152.117 110.86C152.264 110.236 152.411 109.575 152.595 108.951C152.706 108.547 152.853 108.106 153 107.702C153.478 107.115 153.405 106.894 152.779 107.041C154.545 109.538 154.766 113.284 154.471 116.185C155.501 115.891 156.531 115.634 157.562 115.34C156.715 113.614 156.164 111.778 155.943 109.869C155.833 108.877 155.796 107.886 155.869 106.894C155.869 106.748 156.053 105.719 155.98 105.646C155.722 105.683 155.465 105.683 155.207 105.719C155.354 106.013 155.501 106.27 155.649 106.564C157.341 110.016 157.856 113.908 157.451 117.727C158.481 117.433 159.511 117.176 160.541 116.882C159.879 115.45 159.364 113.945 159.07 112.402C158.959 111.741 158.886 111.08 158.959 110.42C158.996 110.052 159.07 109.685 159.18 109.318C159.585 108.877 159.622 108.694 159.291 108.804C158.849 108.73 158.444 108.694 158.003 108.62C158.592 108.914 158.959 111.815 159.07 112.476C159.291 114.055 159.254 115.707 159.033 117.286C160.1 117.286 161.167 117.286 162.234 117.286C161.829 116.111 161.535 114.899 161.351 113.688C161.167 112.513 161.277 111.301 160.909 110.162C161.719 112.696 161.571 115.377 160.836 117.874C161.829 117.727 162.859 117.617 163.852 117.47C163.411 116.515 163.043 115.487 162.859 114.422C162.749 113.908 162.712 113.394 162.675 112.88C162.675 112.659 162.638 112.439 162.675 112.219C162.785 111.705 162.528 111.668 161.939 112.072C161.608 111.815 161.277 111.558 160.946 111.301C163.043 114.899 158.849 118.902 155.281 118.388C155.685 118.902 156.09 119.453 156.495 119.967C156.458 119.306 156.237 118.351 156.458 117.727C156.2 118.057 155.943 118.388 155.685 118.718C155.06 119.122 158.408 118.645 157.01 118.498C155.097 118.314 154.802 121.252 156.568 121.729C158.334 122.207 159.953 123.161 161.829 122.941C163.448 122.757 164.662 121.803 165.324 120.371C166.023 118.865 166.17 117.103 165.949 115.45C165.839 114.532 165.618 113.688 165.25 112.88C165.103 112.513 164.919 112.145 164.735 111.778C164.625 111.558 164.478 111.338 164.33 111.117C164.183 110.787 164.11 110.86 164.183 111.338C165.213 111.631 166.243 111.888 167.274 112.182C167.31 111.484 167.384 110.823 167.421 110.126C166.354 110.273 165.25 110.42 164.183 110.566C164.809 112.402 164.698 114.092 163.963 115.891C163.153 117.874 166.354 118.718 167.163 116.772C168.083 114.459 168.156 112.035 167.384 109.685C166.795 107.886 164.257 108.253 164.147 110.126C164.11 110.823 164.036 111.484 163.999 112.182C163.889 113.798 166.391 114.495 167.09 113.027C167.899 111.264 167.678 108.987 165.802 107.996C164.183 107.151 162.013 107.886 161.24 109.538C160.173 111.815 162.565 113.834 162.785 116.038C162.896 117.066 162.896 119.122 161.755 119.636C160.652 120.114 158.555 118.828 157.525 118.535C157.378 119.6 157.23 120.701 157.083 121.766C160.431 122.06 160.505 117.653 158.187 116.221C157.047 115.524 155.501 114.973 154.287 115.707C152.779 116.625 153.221 118.461 153.257 119.93C153.294 120.591 153.736 121.435 154.471 121.509C160.357 122.353 165.728 117.653 164.588 111.521C164.367 110.309 163.889 108.951 162.528 108.694C161.387 108.473 160.247 109.134 159.769 110.162C158.555 112.77 159.99 116.625 161.093 119.012C161.719 120.371 163.742 119.893 164.11 118.608C164.846 116.148 165.066 113.614 164.625 111.08C164.294 109.171 163.705 106.674 161.314 106.601C155.98 106.49 158.187 115.23 159.107 117.984C159.585 119.379 162.013 119.71 162.307 117.984C162.749 115.156 162.712 112.329 161.976 109.538C161.535 107.886 160.652 104.654 158.261 105.499C156.348 106.197 155.759 108.951 155.759 110.75C155.759 113.394 156.715 116.001 157.819 118.314C158.592 119.967 160.762 118.939 160.909 117.47C161.24 114.385 160.983 111.264 160.1 108.29C159.475 106.197 158.334 101.974 155.538 102.084C152.816 102.158 152.669 105.646 152.669 107.629C152.669 110.823 153.478 113.908 154.876 116.809C155.649 118.424 157.819 117.433 157.966 115.964C158.261 113.357 158.003 110.713 157.194 108.216C156.605 106.38 155.649 103.736 153.441 103.479C151.013 103.222 150.167 106.013 149.615 107.812C148.806 110.456 148.549 113.247 148.659 116.038C148.769 118.167 152.043 118.167 151.97 116.038C151.896 114.569 151.859 113.1 151.786 111.631C150.756 111.925 149.726 112.182 148.696 112.476C150.02 115.377 152.043 117.727 154.545 119.636C155.428 120.297 156.715 119.563 156.973 118.645C158.371 113.871 158.187 108.804 156.421 104.14C155.796 102.525 153.037 102.598 153.184 104.581C153.478 108.987 153.772 113.431 154.03 117.837C155.06 117.543 156.09 117.286 157.12 116.992C155.207 113.431 156.495 108.694 153.883 105.536C153.037 104.508 151.455 105.169 151.124 106.27C149.836 110.199 151.087 114.312 150.204 118.278C151.197 118.131 152.227 118.021 153.221 117.874C152.338 115.928 151.492 113.981 150.609 111.998C150.057 110.75 147.813 111.044 147.592 112.402C147.187 114.973 147.371 118.571 149.615 120.334C150.645 121.142 152.007 121.215 153.294 121.362C155.023 121.546 156.789 121.619 158.555 121.509C160.247 121.399 161.902 121.142 163.558 120.775C164.662 120.517 166.133 120.334 166.906 119.453C167.899 118.388 167.715 116.662 167.825 115.303C167.936 113.688 168.12 112.109 168.156 110.493C168.193 107.849 167.126 105.536 164.404 104.875C163.3 104.618 162.16 104.765 161.02 104.581C159.254 104.324 159.07 102.818 158.113 101.57C156.899 99.9543 154.287 98.9262 152.632 100.505C151.565 101.533 151.786 102.855 151.823 104.177C151.859 105.352 151.271 108.326 149.395 107.519C147.151 107.005 145.458 109.869 147.408 110.677Z" fill="#6CA3E0"/>
<path d="M49.9202 128.963C52.4953 131.313 54.9233 133.847 57.0202 136.637C58.4181 138.473 59.8529 142.145 62.3544 142.659C63.826 142.953 65.0032 142.182 66.1068 141.301C67.6151 140.089 69.0866 138.841 70.5949 137.592C72.1032 136.344 73.5747 135.132 75.083 133.883C76.1499 133.002 77.3639 132.194 77.4375 130.689C77.511 129.257 76.5913 128.192 75.7452 127.127C74.568 125.621 73.354 124.116 72.1768 122.61C70.9996 121.105 69.7856 119.599 68.6084 118.094C67.7255 116.992 66.9161 115.523 65.4446 115.193C64.1203 114.899 62.9063 115.67 61.8026 116.258C60.3311 117.029 58.8964 117.91 57.5352 118.828C54.8497 120.664 52.3481 122.757 50.0673 125.107C49.3683 125.842 49.4419 127.2 50.3984 127.714C52.7896 128.926 55.0704 130.358 57.1306 132.121C58.0503 132.892 58.9332 133.736 59.7793 134.618C60.184 135.058 60.5886 135.499 60.9933 135.976C61.2508 136.27 61.5083 136.601 61.7658 136.894C62.0969 137.776 62.5752 137.739 63.1638 136.711C63.3109 137.702 63.4213 138.73 63.5684 139.722C67.3944 137.408 70.8892 134.544 73.9058 131.24C75.1566 129.844 73.5747 127.714 71.8825 128.632C69.3073 130.028 66.6586 131.166 63.8995 132.047C64.5249 132.855 65.1503 133.663 65.7757 134.471C67.3208 132.011 69.2338 129.881 71.4778 128.008C70.5949 127.347 69.7488 126.686 68.8659 125.989C66.8426 129 64.3042 131.643 61.398 133.81C62.2073 134.434 63.0166 135.058 63.826 135.683C64.7824 132.231 66.7322 129.183 69.6384 127.017C68.8659 126.246 68.1301 125.511 67.3576 124.74C65.7021 128.008 63.3845 130.799 60.4047 132.929C60.9565 132.929 61.5083 132.929 62.0601 132.929C62.1705 133.039 62.2441 133.186 62.3544 133.296C62.428 133.002 62.5016 132.708 62.5752 132.451C62.6855 132.084 62.7959 131.717 62.943 131.313C63.2741 130.322 63.7156 129.404 64.1938 128.486C65.1135 126.76 66.2539 125.254 67.6151 123.859C66.7322 123.198 65.8861 122.537 65.0032 121.839C63.0534 125.842 60.3679 129.33 56.9834 132.268C57.9399 132.672 58.8596 133.039 59.8161 133.443C60.2207 129.11 62.0969 125.144 65.1503 122.023C64.2674 121.362 63.4213 120.701 62.5384 120.003C61.0301 122.941 58.8228 125.254 55.9534 126.907C56.7995 127.384 57.6088 127.861 58.4549 128.339C58.4181 127.017 58.6021 125.732 59.2275 124.557C59.485 124.042 59.8161 123.565 60.184 123.161C60.7726 122.463 61.8762 122.28 60.8461 121.619C60.3679 121.031 60.1104 121.068 60.0736 121.803C59.8897 122.17 59.7425 122.537 59.5586 122.904C59.2643 123.455 58.97 123.969 58.6757 124.483C58.3446 124.997 58.0135 125.511 57.6456 125.989C57.3513 126.356 57.0938 126.723 56.7627 127.09C56.2477 127.384 56.2109 127.604 56.6523 127.714C56.9098 128.045 57.1674 128.375 57.4249 128.706C57.057 127.531 58.271 125.328 58.8228 124.336C59.1539 123.785 61.0669 120.627 61.913 120.811C62.3176 120.885 62.8695 122.941 63.0166 123.308C63.3109 124.116 63.5684 124.96 63.7524 125.805C63.9363 126.65 64.157 127.531 64.157 128.375C64.157 129.367 64.1571 129.404 63.3477 128.706C61.0301 126.723 60.7726 121.692 64.1938 120.554C65.9229 119.967 66.4379 122.17 66.8426 123.418C67.4312 125.217 67.983 127.053 68.5716 128.889C69.4913 128.339 70.411 127.825 71.3307 127.274C69.2706 125.254 68.1669 122.684 68.0933 119.783C67.3944 120.297 66.6954 120.848 65.9964 121.362C69.8592 122.831 70.4846 127.678 70.9996 131.203C71.2939 133.296 74.4944 132.415 74.2001 130.322C73.4644 125.328 72.1032 120.113 66.8793 118.167C65.8861 117.8 64.7457 118.755 64.7824 119.746C64.856 123.492 66.3275 126.907 68.9763 129.55C70.1167 130.689 72.2504 129.55 71.7353 127.935C71.0732 125.842 70.4846 123.749 69.7488 121.692C69.2338 120.224 68.5716 118.681 67.2104 117.8C64.2674 115.854 60.8094 118.057 59.3011 120.738C57.572 123.859 58.0135 127.751 60.3679 130.395C62.3177 132.561 66.1068 133.736 67.1737 130.101C68.1301 126.87 66.4747 122.096 64.856 119.306C62.6487 115.56 59.0067 118.388 57.1306 120.811C56.1373 122.096 55.3648 123.492 54.8129 124.997C54.2979 126.393 53.4518 128.669 54.4818 130.028C56.9098 133.186 60.4047 127.825 61.4715 126.062C62.3912 124.593 63.7156 122.574 63.4949 120.738C63.2741 119.012 61.6555 118.204 60.1104 118.865C56.7259 120.334 54.9969 124.85 55.144 128.265C55.1808 129.514 56.5052 130.322 57.6456 129.697C60.9565 127.788 63.642 124.997 65.4078 121.619C66.2539 120.003 64.1571 118.241 62.7959 119.599C59.1171 123.345 56.9834 128.118 56.5052 133.333C56.358 134.875 58.3446 135.352 59.3378 134.508C62.9063 131.423 65.8125 127.641 67.8726 123.418C68.6452 121.803 66.6586 120.003 65.2607 121.399C63.127 123.602 61.4347 126.135 60.2575 128.963C59.485 130.836 57.8663 134.397 60.3679 135.683C60.8829 135.94 61.5451 136.013 62.0234 135.683C65.4814 133.222 68.2773 130.101 70.1902 126.319C70.8524 124.997 69.3809 122.978 67.9094 124.042C64.3042 126.76 61.7658 130.358 60.5886 134.691C60.2208 135.976 61.8026 137.445 63.0166 136.564C66.4379 134.067 69.3073 131.093 71.6986 127.568C72.8022 125.915 70.4478 124.446 69.0866 125.548C66.6218 127.568 64.5617 129.954 62.8695 132.672C62.0969 133.883 63.3845 135.536 64.7457 135.095C67.799 134.14 70.7421 132.892 73.5379 131.35C72.8758 130.468 72.2136 129.624 71.5146 128.743C68.6819 131.864 65.4446 134.544 61.8394 136.711C60.5151 137.519 60.9565 139.208 62.2441 139.722C63.7892 140.346 65.4446 139.098 65.5182 137.519C65.6286 135.609 63.642 133.81 62.4648 132.561C59.485 129.33 55.9166 126.686 52.0171 124.74C52.1274 125.621 52.2378 126.466 52.3481 127.347C54.0772 125.585 55.9166 123.969 57.8663 122.5C59.6321 121.178 61.8394 119.416 63.9363 118.718C64.5617 118.498 64.5249 118.388 65.04 118.902C65.555 119.416 65.9596 120.04 66.3643 120.591C67.1736 121.619 68.0198 122.684 68.8291 123.712C69.712 124.85 70.6317 125.989 71.5146 127.127C71.9929 127.751 73.9426 129.624 73.7955 130.322C73.6483 131.129 71.625 132.304 70.9628 132.855C69.9327 133.7 68.9027 134.544 67.8726 135.389C66.8426 136.233 65.8125 137.078 64.7824 137.923C64.341 138.29 63.3845 139.355 62.612 138.951C62.3177 138.804 61.8026 137.702 61.6187 137.445C58.9332 133.406 55.7326 129.771 52.1642 126.503C50.6927 125.217 48.3383 127.531 49.9202 128.963Z" fill="#6CA3E0"/>
<path d="M51.6862 126.025C53.0105 128.596 61.3246 142.916 64.8562 138.033C66.107 136.307 63.2375 134.654 61.9867 136.38C61.9132 136.454 61.8764 136.564 61.8028 136.637C62.281 136.38 62.7593 136.086 63.2375 135.829C62.6121 135.903 61.1038 133.81 60.6992 133.332C59.8898 132.414 59.0805 131.496 58.3448 130.505C56.91 128.559 55.6592 126.503 54.5556 124.373C53.5991 122.463 50.7297 124.152 51.6862 126.025Z" fill="#6CA3E0"/>
<path d="M117.499 80.6762C113.563 77.812 112.055 71.9369 114.519 67.6406C115.733 65.5109 117.941 63.785 120.516 64.0788C123.164 64.3725 124.452 66.282 124.636 68.7789C124.746 70.1743 124.599 71.6064 124.562 73.0017C124.489 74.3237 124.636 75.8659 124.268 77.1511C123.9 78.4363 122.576 79.134 122.061 80.4192C121.619 81.5208 122.098 82.4755 120.81 82.8427C120.442 82.9528 119.927 82.9161 119.596 83.0263C119.007 82.9528 119.007 83.063 119.596 83.32C119.449 82.8427 119.339 82.402 119.191 81.9247C118.713 80.309 118.235 78.6566 117.757 77.0409C116.947 74.3237 115.255 70.3212 117.389 67.7875C116.506 67.8977 115.623 68.0078 114.703 68.118C115.991 69.0727 115.513 72.965 115.586 74.2869C115.697 77.0409 115.807 79.7949 115.917 82.5489C116.028 85.4498 120.038 85.3396 120.332 82.5489C120.626 79.648 120.221 76.7839 120.111 73.8463C120.038 72.5978 120.038 71.3126 120.221 70.0641C120.295 69.4399 120.442 68.8524 120.626 68.2649C120.736 67.8609 120.92 67.457 121.104 67.0898C121.509 66.4656 121.509 66.3921 121.141 66.8695C120.589 66.9429 120.001 67.0164 119.449 67.0898C119.339 67.0531 119.854 68.4117 119.927 68.7055C120.074 69.2563 120.148 69.8438 120.221 70.3946C120.369 71.9369 120.369 73.5158 120.295 75.058C120.258 75.7557 120.185 76.4534 120.074 77.1878C120.001 77.6284 119.927 78.0691 119.854 78.5097C119.486 79.391 120.111 79.6113 121.73 79.0605C121.877 78.7668 121.472 77.5917 121.435 77.2612C121.362 76.4901 121.325 75.6823 121.362 74.9112C121.399 73.4056 121.583 71.9736 121.95 70.5048C122.061 70.0641 122.171 69.6602 122.318 69.2196C122.87 68.2649 122.282 67.9344 120.553 68.2649C120.405 68.5219 120.994 69.9173 121.068 70.1743C121.399 71.7165 121.472 73.2955 121.325 74.8744C121.252 75.6088 121.178 77.9956 120.332 78.1792C117.573 78.8402 118.75 83.0997 121.509 82.4388C124.415 81.7411 125.225 78.8035 125.592 76.1964C125.997 73.1119 125.85 69.6235 124.673 66.7226C123.532 63.9319 120.185 63.8952 118.713 66.4656C117.242 69.036 116.911 72.6713 116.947 75.5721C116.984 77.9222 117.021 81.9614 119.854 82.806C122.981 83.7239 124.084 80.3457 124.415 77.9956C124.857 74.9112 124.967 71.7533 124.452 68.6688C124.084 66.3921 122.613 62.0225 119.486 62.867C116.469 63.6382 115.881 68.8891 115.733 71.3861C115.549 75.1315 116.359 78.8402 115.991 82.5856C117.462 82.5856 118.934 82.5856 120.405 82.5856C120.258 78.8769 120.111 75.1682 119.927 71.4595C119.817 68.6321 119.375 66.1351 116.984 64.3726C116.285 63.8218 114.887 64.0421 114.299 64.703C111.871 67.5672 111.687 71.0923 112.533 74.6174C112.974 76.5268 113.6 78.4363 114.151 80.309C114.667 82.0716 114.961 84.2013 115.917 85.7435C117.426 88.2405 121.619 87.653 123.79 86.3678C124.93 85.7068 125.703 84.6052 125.997 83.32C126.181 82.5122 126.108 82.1817 126.623 81.5208C127.211 80.7864 127.8 80.1988 128.168 79.3176C128.793 77.9222 128.83 76.38 128.903 74.9112C128.977 73.0752 129.161 71.2025 129.124 69.3297C129.051 66.0617 127.984 62.9772 125.151 61.1045C119.706 57.5059 112.864 60.8474 110.289 66.282C107.272 72.708 109.7 80.309 115.329 84.4216C117.573 86.1475 119.78 82.3286 117.499 80.6762Z" fill="#0A65CC"/>
<path d="M117.279 90.407C118.015 91.582 119.339 92.0226 120.663 91.6187C121.252 91.4351 121.767 91.1046 122.209 90.7007C122.319 90.5906 122.466 90.4804 122.576 90.3335C122.687 90.2234 122.65 90.2234 122.503 90.3702C123.202 90.0031 122.65 89.8929 120.884 89.9663C121.767 90.7007 123.165 90.8843 124.011 89.9663C124.784 89.1585 124.931 87.653 124.011 86.8451C122.944 85.9271 121.583 85.7803 120.332 86.5147C119.928 86.735 119.523 87.0655 119.229 87.4327C118.971 87.7631 119.56 87.2123 119.155 87.5061C119.229 87.4694 119.302 87.4327 119.376 87.4327C118.603 87.6163 119.155 87.8733 121.031 88.2038C120.406 87.2123 119.045 86.735 118.015 87.3959C117.095 88.0202 116.617 89.3788 117.279 90.407Z" fill="#0A65CC"/>
<path d="M118.309 93.3077C118.309 93.4178 118.309 93.528 118.309 93.6382C118.309 94.189 118.567 94.8132 118.971 95.1804C119.339 95.5476 119.965 95.8414 120.516 95.8414C121.105 95.8046 121.694 95.621 122.061 95.1804C122.466 94.7398 122.724 94.2257 122.724 93.6382C122.724 93.528 122.724 93.4178 122.724 93.3077C122.724 92.7569 122.466 92.1326 122.061 91.7654C121.694 91.3982 121.068 91.1045 120.516 91.1045C119.928 91.1412 119.339 91.3248 118.971 91.7654C118.567 92.1694 118.309 92.6834 118.309 93.3077Z" fill="#0A65CC"/>
<path d="M96.457 52.6956C106.132 41.2022 115.403 29.3784 124.305 17.2241C123.459 17.5546 122.65 17.8851 121.804 18.2523C122.65 18.5093 123.275 18.9499 123.901 19.5742C123.79 18.6929 123.68 17.8116 123.57 16.8936C115.072 29.0112 106.61 41.0921 98.1125 53.2096C99.1058 52.9526 100.136 52.6956 101.129 52.4018C100.393 51.9612 99.6576 51.5205 98.9218 51.0432C99.1793 52.0346 99.4369 53.0628 99.7312 54.0542C103.594 49.0236 107.125 43.8093 110.326 38.3381C111.761 35.8778 107.935 33.6746 106.5 36.0982C103.3 41.5327 99.7679 46.7837 95.9052 51.8143C95.1695 52.769 95.7949 54.2745 96.7146 54.8253C97.4503 55.266 98.1861 55.7066 98.9218 56.184C99.9887 56.8449 101.276 56.3676 101.938 55.3761C110.436 43.2585 118.898 31.1777 127.396 19.0601C127.947 18.2523 127.69 17.0405 127.064 16.3795C125.924 15.2045 124.563 14.3967 123.018 13.9193C122.025 13.5888 121.105 14.1396 120.516 14.9475C111.871 26.7713 102.821 38.3014 93.3669 49.5009C91.5275 51.7409 94.6544 54.8988 96.457 52.6956Z" fill="#0A65CC"/>
<path d="M71.6987 177.543C71.6987 177.433 71.6987 177.323 71.6987 177.213C71.6987 174.385 67.2842 174.385 67.2842 177.213C67.2842 177.323 67.2842 177.433 67.2842 177.543C67.2842 180.407 71.6987 180.407 71.6987 177.543C71.6987 177.433 71.6987 177.323 71.6987 177.213C71.6987 174.385 67.2842 174.385 67.2842 177.213C67.2842 177.323 67.2842 177.433 67.2842 177.543C67.2842 180.407 71.6987 180.407 71.6987 177.543Z" fill="#0A65CC"/>
<path d="M36.456 146.809C39.2887 146.809 39.2887 142.402 36.456 142.402C33.6234 142.402 33.6234 146.809 36.456 146.809Z" fill="#0A65CC"/>
<path d="M46.4255 148.755C48.5591 148.755 48.5591 145.45 46.4255 145.45C44.2918 145.45 44.2918 148.755 46.4255 148.755Z" fill="#6CA3E0"/>
<path d="M181.621 64.8131C183.754 64.8131 183.754 61.5083 181.621 61.5083C179.487 61.5083 179.487 64.8131 181.621 64.8131Z" fill="#6CA3E0"/>
<path d="M202.37 114.752C202.37 114.972 202.37 115.156 202.37 115.376C202.37 115.817 202.554 116.258 202.848 116.551C203.142 116.845 203.62 117.065 204.025 117.029C204.467 116.992 204.908 116.882 205.202 116.551C205.497 116.221 205.681 115.817 205.681 115.376C205.681 115.156 205.681 114.972 205.681 114.752C205.681 114.311 205.497 113.871 205.202 113.577C204.908 113.283 204.43 113.063 204.025 113.1C203.584 113.136 203.142 113.247 202.848 113.577C202.554 113.908 202.37 114.311 202.37 114.752Z" fill="#6CA3E0"/>
<path d="M165.987 273.529C163.301 270.592 162.418 266.479 163.743 262.881C165.104 259.245 168.709 256.124 173.013 256.271C176.802 256.418 179.856 259.062 180.959 261.559C181.769 263.468 181.585 265.231 181.585 265.231C181.474 266.222 181.143 266.993 180.886 267.471C179.01 265.304 176.14 264.313 173.455 264.937C170.144 265.708 168.709 268.536 168.562 268.793C167.054 271.877 168.378 274.741 168.562 275.072C167.679 274.521 166.833 274.007 165.987 273.529Z" fill="#6CA3E0"/>
<path d="M231.836 214.337C228.82 216.577 225.178 220.175 223.853 225.316C222.897 229.135 223.817 231.375 223.485 236.295C223.265 239.71 222.382 244.521 219.549 250.249C213.111 248.927 202.296 247.642 189.53 250.58C181.915 252.342 175.808 255.096 171.32 257.593C172.019 258.034 172.976 258.548 174.19 258.878C181.069 260.751 188.316 254.986 188.537 255.39C188.758 255.757 180.444 259.649 180.885 263.028C181.179 265.304 185.263 266.516 189.493 267.801C193.062 268.866 196.446 269.894 200.971 269.38C207.188 268.682 211.493 265.561 213.406 263.946C215.245 264.864 217.967 266.075 221.389 267.14C227.679 269.05 236.361 271.693 242.137 268.095C245.889 265.745 247.03 260.237 249.163 249.294C251.738 235.965 252.952 229.282 249.494 223.811C244.97 216.503 235.662 214.814 231.836 214.337Z" fill="white" stroke="#18191C" stroke-width="1.17937" stroke-miterlimit="10"/>
<path d="M218.372 250.653C222.823 252.305 226.502 255.316 229.04 259.319C229.408 259.906 230.364 259.356 229.997 258.768C227.311 254.509 223.375 251.351 218.666 249.588C217.967 249.331 217.709 250.396 218.372 250.653Z" fill="#18191C"/>
<path d="M194.68 257.887C190.303 258.621 186.771 261.559 185.189 265.672C184.932 266.332 185.999 266.626 186.256 265.965C187.691 262.22 191.002 259.613 194.975 258.952C195.674 258.842 195.379 257.777 194.68 257.887Z" fill="#18191C"/>
<path d="M199.831 261.559C198.249 262.513 196.777 263.615 195.379 264.79C194.46 265.598 193.43 266.553 193.65 267.875C194.202 271.363 198.396 270.592 200.677 269.711C201.339 269.454 201.045 268.389 200.383 268.646C199.389 269.013 198.286 269.49 197.219 269.454C195.49 269.38 193.945 267.728 195.416 266.222C196.814 264.753 198.654 263.578 200.383 262.477C200.971 262.11 200.419 261.155 199.831 261.559Z" fill="#18191C"/>
<path d="M266.159 169.135C264.283 169.759 261.892 170.714 259.206 172.036C258.434 172.403 256.484 173.394 254.387 174.753C251.15 176.809 248.795 178.976 246.11 181.693C242.689 185.181 239.231 188.67 235.11 194.251C231.652 198.951 226.281 206.332 222.419 217.164C220.874 221.461 219.991 225.169 219.476 227.813C221.499 226.638 223.338 226.051 224.773 225.72C233.05 223.847 240.996 228.034 248.538 231.963C251.371 233.431 253.615 234.863 255.16 235.855C255.969 231.889 256.778 227.887 257.588 223.921C258.287 220.579 258.949 217.201 259.648 213.86C260.715 212.942 262.149 211.583 263.731 209.82C266.711 206.442 272.634 199.722 273.443 190.396C274.437 179.637 268.036 171.411 266.159 169.135Z" fill="#0A65CC"/>
<path d="M263.989 169.575C260.052 170.163 256.668 172.256 253.615 174.679C250.083 177.433 246.772 180.481 243.682 183.713C237.649 189.955 232.388 196.932 228.047 204.459C227.679 205.084 228.636 205.634 229.004 205.01C233.197 197.74 238.201 190.983 244.013 184.924C246.846 181.987 249.825 179.196 252.952 176.589C256.3 173.835 259.869 171.264 264.283 170.604C264.982 170.53 264.688 169.465 263.989 169.575Z" fill="#18191C"/>
<path d="M262.444 209.673C259.721 212.427 256.925 215.108 254.093 217.715C253.578 218.192 254.35 218.964 254.865 218.486C257.698 215.879 260.494 213.199 263.216 210.445C263.694 209.93 262.922 209.159 262.444 209.673Z" fill="#18191C"/>
<path d="M258.618 214.704C257.33 221.754 256.08 228.841 254.792 235.891C255.05 235.781 255.344 235.671 255.601 235.561C249.752 231.485 243.241 228.437 236.325 226.528C230.917 225.059 224.038 223.627 219.402 227.703C218.887 228.18 219.66 228.951 220.175 228.474C224.884 224.288 232.499 226.491 237.833 228.107C243.977 229.98 249.752 232.844 255.013 236.479C255.307 236.663 255.749 236.479 255.822 236.148C257.11 229.098 258.361 222.011 259.648 214.961C259.795 214.3 258.728 214.006 258.618 214.704Z" fill="#18191C"/>
<path d="M228.305 203.945C224.479 211.4 219.696 219.074 219.365 227.703C219.328 228.401 220.432 228.401 220.469 227.703C220.8 219.294 225.509 211.804 229.261 204.496C229.555 203.872 228.599 203.321 228.305 203.945Z" fill="#18191C"/>
<path opacity="0.4" d="M261.009 190.065C254.424 203.137 250.856 214.153 248.759 221.864C245.705 233.174 244.639 242.097 236.729 249.515C235.442 250.726 231.652 254.215 225.693 256.381C213.185 260.898 203.914 254.802 196.042 261.265C195.159 261.999 192.547 263.835 192.841 265.928C193.136 267.911 195.858 268.939 196.263 269.123C199.5 270.371 202.848 269.086 207.041 267.397C211.787 265.488 211.272 264.827 213.406 264.459C217.894 263.688 219.954 266.516 225.914 268.389C228.452 269.16 235.957 271.51 241.364 268.389C245.338 266.075 246.552 261.742 248.465 254.435C249.789 249.478 251.15 242.244 250.929 233.137C252.401 234.276 253.872 235.414 255.344 236.552C257.257 221.057 259.133 205.561 261.009 190.065Z" fill="#042852"/>
<path opacity="0.38" d="M258.802 205.965C253.762 215.475 251.297 223.517 249.973 228.952C247.324 239.857 248.17 244.998 244.565 252.673C240.702 261.008 234.448 266.296 230.107 269.307C232.535 269.858 238.385 270.886 242.615 267.581C245.595 265.268 246.368 261.963 247.508 256.565C248.943 249.919 250.451 242.354 251.923 234.056C253.063 234.79 254.203 235.524 255.344 236.259C256.521 226.198 257.661 216.063 258.802 205.965Z" fill="#042852"/>
<path d="M265.387 168.4C264.063 177.029 262.775 185.732 261.524 194.471C256.668 228.364 252.475 261.669 248.943 294.423C249.016 295.524 249.311 297.287 250.414 299.05C251.518 300.849 252.99 301.767 253.688 302.244C260.384 307.018 263.732 309.441 267.116 311.057C283.339 318.878 301.292 317.96 301.292 317.96C305.081 317.777 312.623 317.299 320.716 314.068C321.157 313.884 324.247 312.452 330.428 309.551C336.02 306.944 337.013 306.43 338.374 305.182C341.611 302.207 342.862 298.535 343.708 295.928C345.511 290.384 345.327 285.684 345.253 284.545C345.253 284.545 344.885 275.402 344.628 222.011C344.591 211.142 345.658 195.169 351.397 175.45C345.437 172.549 339.846 169.869 333.113 166.638C328.478 164.398 324.174 162.341 317.994 161.607C316.228 161.387 314.646 161.313 312.291 161.35C302.727 161.423 294.854 162.892 291.47 163.48C284.885 164.544 275.982 166.16 265.387 168.4Z" fill="#0A65CC"/>
<path d="M265.093 169.685C276.497 167.262 288.012 165.315 299.563 163.883C300.078 163.81 300.372 163.149 299.857 162.855C299.71 162.782 299.563 162.672 299.379 162.598C298.754 162.231 298.202 163.186 298.827 163.553C298.975 163.626 299.122 163.737 299.306 163.81C299.416 163.479 299.49 163.112 299.6 162.782C287.938 164.214 276.313 166.16 264.835 168.62C264.1 168.767 264.394 169.832 265.093 169.685Z" fill="#18191C"/>
<path d="M261.672 188.927C257.625 217.715 253.946 246.54 250.635 275.439C250.231 279.074 249.826 282.673 249.421 286.308C249.09 289.466 248.17 293.028 248.575 296.186C248.943 298.976 251.15 300.739 253.174 302.428C255.381 304.264 257.699 305.99 260.127 307.569C270.096 313.995 281.758 317.85 293.603 318.548C307.693 319.356 321.856 315.757 333.886 308.413C334.475 308.046 333.923 307.092 333.334 307.459C312.292 320.274 285.51 320.788 264.063 308.634C261.598 307.238 259.207 305.696 256.926 304.007C254.608 302.281 250.856 299.931 249.9 297.104C249.458 295.745 249.679 294.24 249.826 292.807C250.01 291.008 250.231 289.172 250.415 287.373C250.782 283.995 251.15 280.616 251.555 277.238C253.137 263.468 254.755 249.735 256.521 236.002C258.508 220.396 260.568 204.79 262.775 189.221C262.849 188.523 261.782 188.229 261.672 188.927Z" fill="#18191C"/>
<path d="M315.86 161.276C322.334 162.562 328.404 165.536 334.437 168.07C340.36 170.567 346.945 172.586 352.169 176.405C352.758 176.809 353.31 175.854 352.721 175.45C347.608 171.705 341.17 169.722 335.394 167.299C329.14 164.691 322.849 161.57 316.154 160.212C315.455 160.065 315.161 161.13 315.86 161.276Z" fill="#18191C"/>
<path d="M344.702 223.554C344.113 239.013 343.524 254.472 344.076 269.894C344.334 277.385 345.511 285.17 344.113 292.624C342.936 298.756 339.478 304.888 333.334 307.165C332.672 307.422 332.966 308.487 333.629 308.23C343.414 304.595 345.952 293.468 345.805 284.142C345.732 277.826 345.18 271.51 345.033 265.157C344.886 258.695 344.959 252.269 345.07 245.806C345.217 238.389 345.511 230.971 345.769 223.554C345.842 222.819 344.738 222.819 344.702 223.554Z" fill="#18191C"/>
<path opacity="0.38" d="M339.404 214.851C337.454 221.534 334.401 228.841 329.692 236.112C308.613 268.462 270.022 274.925 260.163 276.283C273.407 277.679 286.797 279.184 300.335 280.8C315.271 282.562 330.023 284.435 344.554 286.344C343.635 269.931 343.635 256.418 343.855 246.76C344.26 226.785 345.695 210.628 343.083 210.114C342.457 209.967 341.354 210.665 339.404 214.851Z" fill="#042852"/>
<path opacity="0.42" d="M343.929 226.858C342.605 230.751 340.582 236.259 337.602 242.611C333.408 251.608 329.398 260.274 324.211 265.598C309.717 280.47 281.39 274.044 281.317 275.072C281.28 275.659 291.654 277.312 344.04 282.122C344.04 263.688 344.003 245.292 343.929 226.858Z" fill="#042852"/>
<path d="M409.926 378.255C274.915 360.262 139.867 342.269 4.85547 324.313C44.6967 301.253 84.5747 278.193 124.416 255.133C246.22 267.104 368.062 279.111 489.866 291.082C463.195 320.127 436.561 349.209 409.926 378.255Z" fill="white" stroke="#18191C" stroke-width="1.17937" stroke-miterlimit="10"/>
<path d="M3.53125 327.435C138.874 345.354 274.216 363.273 409.522 381.193" stroke="#E4E5E8" stroke-width="6.29" stroke-miterlimit="10"/>
<path d="M406.946 382C435.31 352.073 463.673 322.11 492 292.183" stroke="#E4E5E8" stroke-width="6.29" stroke-miterlimit="10"/>
<path d="M361.771 303.346C347.975 314.105 334.474 325.194 321.194 336.578C320.642 337.055 321.451 337.826 321.966 337.349C335.247 325.966 348.785 314.876 362.543 304.117C363.095 303.713 362.323 302.905 361.771 303.346Z" fill="#18191C"/>
<path d="M321.709 337.165C326.05 338.083 330.464 338.083 334.916 338.12C339.919 338.193 344.627 338.707 349.41 340.103C358.386 342.71 367.178 344.436 376.559 344.215C377.258 344.215 377.258 343.114 376.559 343.114C371.74 343.224 366.921 342.93 362.138 342.159C357.65 341.425 353.383 340.103 349.005 338.891C344.811 337.716 340.618 337.165 336.24 337.092C331.457 336.981 326.675 337.128 321.966 336.137C321.304 335.953 321.01 337.018 321.709 337.165Z" fill="#18191C"/>
<path d="M362.58 304.154C377.148 305.329 391.606 307.642 405.806 311.094C406.505 311.278 406.799 310.213 406.1 310.029C391.827 306.541 377.259 304.227 362.58 303.052C361.881 302.979 361.881 304.081 362.58 304.154Z" fill="#18191C"/>
<path d="M377.405 343.554C387.669 333.42 397.528 322.844 406.872 311.828C407.314 311.277 406.541 310.506 406.1 311.057C396.756 322.036 386.897 332.612 376.633 342.783C376.118 343.297 376.89 344.068 377.405 343.554Z" fill="#18191C"/>
<path d="M334.548 332.796C347.203 331.253 360.005 332.832 371.888 337.459C372.55 337.716 372.844 336.651 372.182 336.394C360.226 331.767 347.277 330.152 334.548 331.694C333.849 331.767 333.849 332.869 334.548 332.796Z" fill="#18191C"/>
<path d="M353.714 328.756C361.513 329.344 369.202 330.556 376.817 332.355C377.516 332.538 377.81 331.474 377.111 331.29C369.423 329.454 361.624 328.242 353.714 327.655C352.979 327.618 353.015 328.72 353.714 328.756Z" fill="#18191C"/>
<path d="M347.866 320.641C359.601 320.898 371.226 322.587 382.557 325.708C383.255 325.892 383.55 324.827 382.851 324.644C371.447 321.522 359.711 319.797 347.866 319.54C347.167 319.54 347.167 320.641 347.866 320.641Z" fill="#18191C"/>
<path d="M362.433 317.263C368.761 318.144 375.015 319.246 381.269 320.568C381.968 320.714 382.262 319.65 381.563 319.503C375.309 318.181 369.055 317.079 362.728 316.198C362.029 316.088 361.734 317.153 362.433 317.263Z" fill="#18191C"/>
<path d="M354.377 341.902C352.133 345.354 349.889 348.805 347.608 352.22C347.387 352.551 347.681 353.102 348.086 353.065C366.222 351.009 384.616 352.184 402.348 356.517C403.047 356.7 403.341 355.635 402.642 355.452C384.8 351.082 366.333 349.907 348.086 351.927C348.233 352.22 348.417 352.477 348.564 352.771C350.808 349.319 353.052 345.868 355.333 342.453C355.738 341.865 354.781 341.315 354.377 341.902Z" fill="#18191C"/>
<path d="M398.853 321.045C405.953 320.898 413.016 320.751 420.116 320.605C419.932 320.384 419.748 320.127 419.601 319.907C414.708 331.547 409.779 343.151 404.886 354.791C404.628 355.452 405.695 355.745 405.953 355.085C410.846 343.444 415.775 331.841 420.668 320.201C420.815 319.87 420.447 319.503 420.153 319.503C413.053 319.65 405.99 319.797 398.89 319.944C398.154 319.98 398.154 321.082 398.853 321.045Z" fill="#18191C"/>
<path d="M371.961 348.401C373.837 348.034 375.713 347.961 377.626 348.107C378.325 348.144 378.325 347.043 377.626 347.006C375.603 346.859 373.653 346.969 371.667 347.336C370.968 347.446 371.262 348.511 371.961 348.401Z" fill="#18191C"/>
<path d="M382.409 348.512C388.185 348.732 393.96 349.283 399.699 350.164C400.398 350.274 400.693 349.209 399.994 349.099C394.181 348.181 388.295 347.63 382.409 347.41C381.71 347.373 381.71 348.475 382.409 348.512Z" fill="#18191C"/>
<path d="M382.74 341.608C384.101 341.608 385.462 341.608 386.86 341.608C387.559 341.608 387.559 340.507 386.86 340.507C385.499 340.507 384.138 340.507 382.74 340.507C382.041 340.507 382.041 341.608 382.74 341.608Z" fill="#18191C"/>
<path d="M391.312 341.498C395.837 341.608 400.325 342.049 404.813 342.783C405.512 342.893 405.806 341.829 405.107 341.718C400.546 340.984 395.947 340.543 391.312 340.396C390.613 340.396 390.613 341.498 391.312 341.498Z" fill="#18191C"/>
<path d="M390.613 335.219C395.763 335.293 400.877 335.586 405.99 336.174C406.689 336.247 406.689 335.146 405.99 335.072C400.877 334.485 395.763 334.154 390.613 334.118C389.914 334.081 389.914 335.183 390.613 335.219Z" fill="#18191C"/>
<path d="M356.069 347.41C358.534 347.483 360.962 347.19 363.39 346.602C364.089 346.419 363.795 345.354 363.096 345.537C360.778 346.125 358.46 346.382 356.069 346.308C355.37 346.308 355.37 347.41 356.069 347.41Z" fill="#18191C"/>
<path d="M373.543 289.87C372.587 291.045 371.483 293.432 372.624 294.864C373.323 295.745 374.647 295.561 375.64 295.598C377.443 295.672 379.246 295.782 381.048 295.855C388.369 296.186 395.653 296.553 402.974 296.883C403.673 296.92 403.673 295.819 402.974 295.782C397.566 295.525 392.195 295.268 386.787 295.011C384.138 294.901 381.526 294.754 378.878 294.643C377.59 294.57 376.229 294.643 374.941 294.46C373.985 294.313 373.286 294.276 373.323 293.101C373.36 292.183 373.764 291.339 374.316 290.641C374.757 290.09 373.985 289.282 373.543 289.87Z" fill="#18191C"/>
<path d="M374.536 291.265C380.717 291.486 386.897 291.669 393.078 291.889C396.094 292 399.148 292.073 402.164 292.183C404.886 292.293 407.756 292.477 409.706 294.57C410.184 295.084 410.956 294.313 410.478 293.799C409.007 292.183 407.02 291.559 404.886 291.265C401.723 290.861 398.449 290.935 395.248 290.825C388.332 290.604 381.416 290.347 374.536 290.127C373.837 290.164 373.837 291.265 374.536 291.265Z" fill="#18191C"/>
<path d="M402.606 296.92C405.438 296.957 408.124 296.075 410.404 294.386C410.956 293.982 410.404 293.028 409.853 293.432C407.719 295.011 405.291 295.855 402.606 295.818C401.87 295.818 401.87 296.92 402.606 296.92Z" fill="#18191C"/>
<path d="M403.489 291.265C401.943 292.293 401.244 294.203 401.759 295.965C401.943 296.626 403.01 296.369 402.826 295.672C402.458 294.386 402.9 292.954 404.04 292.183C404.629 291.816 404.077 290.861 403.489 291.265Z" fill="#18191C"/>
<path d="M189.015 88.5342C195.269 89.5256 204.025 92.4265 201.707 100.578C200.64 104.324 197.697 107.004 194.791 109.391C191.922 111.704 189.089 113.981 186.477 116.588C183.975 119.085 181.695 121.802 179.598 124.667C177.942 126.943 175.661 129.771 175.919 132.818C176.14 135.536 178.531 136.197 180.701 137.041C183.828 138.253 187.139 140.383 188.353 143.651C189.972 148.057 186.587 151.949 183.387 154.557C180.517 156.907 177.39 158.926 175.441 162.158C175.073 162.782 176.029 163.333 176.397 162.708C179.892 156.833 188.795 154.483 189.788 147.066C190.193 144.165 188.868 141.448 186.771 139.501C185.741 138.51 184.527 137.702 183.276 137.004C181.768 136.197 180.002 135.866 178.531 135.022C174.411 132.635 179.561 126.539 181.327 124.226C183.865 120.884 186.698 117.8 189.825 115.009C194.828 110.456 202.664 106.417 203.215 98.8157C203.767 91.1045 195.49 88.4974 189.383 87.5427C188.611 87.3591 188.316 88.424 189.015 88.5342Z" fill="#18191C"/>
<path d="M80.3441 87.3595C73.7959 95.4011 66.4015 102.708 58.2346 109.098C50.2149 115.377 41.4962 120.371 32.6303 125.328C24.4634 129.918 16.2229 134.618 9.23325 140.971C6.10628 143.798 2.64822 147.103 0.882409 151.032C-0.478741 154.08 -0.589104 158.045 2.90574 159.624C4.81871 160.469 7.06277 160.175 9.04931 159.845C12.2866 159.294 15.4872 158.596 18.6877 157.972C21.9618 157.348 25.2359 156.687 28.5101 156.062C31.637 155.475 37.4863 154.924 37.6334 159.588C37.6702 160.285 38.7739 160.285 38.7371 159.588C38.5899 155.255 33.9547 154.153 30.3862 154.594C24.9416 155.291 19.5706 156.65 14.1628 157.678C10.3737 158.413 0.257017 161.46 0.992773 154.226C1.47102 149.563 5.88555 145.524 9.08609 142.476C15.8551 136.087 23.9852 131.35 32.0785 126.797C40.5765 122.023 49.0377 117.323 56.8367 111.448C65.8129 104.655 73.943 96.7965 81.0431 88.0938C81.5581 87.5798 80.7856 86.8087 80.3441 87.3595Z" fill="#18191C"/>
<path d="M21.8147 162.782C18.5774 166.675 14.7883 171.265 15.3769 176.662C15.8183 180.812 18.7981 184.704 23.2862 184.41C26.1557 184.227 28.6941 182.648 31.1956 181.436C34.3226 179.93 37.5231 178.572 40.834 177.58C44.1082 176.626 47.5294 176.001 50.9507 175.928C53.673 175.891 56.7632 176.075 59.044 177.764C62.5021 180.261 60.3684 184.006 58.529 186.797C56.7264 189.478 55.1445 192.232 53.7466 195.133C52.4958 197.776 51.3921 200.53 50.5092 203.321C49.847 205.414 49.0745 207.874 50.6932 209.71C54.1512 213.713 59.4119 210.298 62.3181 207.581C66.7694 203.431 71.5887 199.98 77.1436 197.409C83.3608 194.545 90.1297 192.856 96.9355 192.489C100.394 192.305 103.888 192.415 107.31 192.966C110.363 193.443 113.784 194.398 115.219 197.446C115.513 198.07 116.47 197.519 116.175 196.895C114.189 192.599 108.744 191.938 104.551 191.534C99.0692 191.02 93.4774 191.424 88.1064 192.599C82.7354 193.774 77.4747 195.757 72.6923 198.474C70.3379 199.796 68.1306 201.301 65.9969 202.954C63.6057 204.827 61.5824 207.14 59.1544 208.866C56.9839 210.408 52.3486 211.546 51.061 208.168C50.4357 206.516 51.245 204.606 51.76 202.991C52.3118 201.301 52.9372 199.649 53.6362 198.033C54.8502 195.169 56.2849 192.415 57.9036 189.771C59.3383 187.458 61.472 185.108 61.987 182.354C62.8332 177.874 58.4186 175.561 54.6295 175.01C49.0009 174.239 43.0413 175.524 37.7439 177.434C34.5065 178.609 31.4531 180.114 28.363 181.62C25.1624 183.199 21.1893 184.41 18.467 181.289C13.3903 175.487 18.7246 168.18 22.5873 163.517C23.0655 163.003 22.293 162.232 21.8147 162.782Z" fill="#18191C"/>
<path d="M42.9676 181.363C46.4257 180.261 49.4791 183.639 49.5527 186.907C49.6262 190.359 47.3454 193.333 45.0645 195.683C44.5495 196.197 45.3588 196.969 45.8371 196.454C48.633 193.59 51.5392 189.514 50.4356 185.255C49.5527 181.913 46.1682 179.196 42.6733 180.298C42.0111 180.518 42.2687 181.583 42.9676 181.363Z" fill="#18191C"/>
<path d="M171.468 86.6248C173.16 88.0202 175.146 88.314 177.243 88.7546C179.524 89.232 181.511 90.1132 183.093 91.8758C186.072 95.2173 186.992 100.248 184.785 104.214C184.454 104.838 185.373 105.389 185.741 104.765C187.875 100.946 187.434 96.2455 185.079 92.6469C183.976 90.9578 182.43 89.489 180.554 88.6077C177.906 87.3593 174.595 87.7632 172.24 85.8537C171.688 85.4131 170.916 86.1842 171.468 86.6248Z" fill="#18191C"/>
<path d="M36.5662 164.838C38.6631 170.457 45.3217 169.025 49.4051 166.821C52.017 165.426 54.445 163.627 56.5787 161.57C58.8596 159.331 60.699 156.687 62.943 154.41C65.4078 151.913 68.8659 149.636 72.5814 150.261C75.9291 150.811 77.9525 153.786 80.0862 156.062C82.882 159 88.5106 162.011 91.3432 157.348C91.7111 156.723 90.7546 156.173 90.3868 156.797C88.5842 159.734 84.7582 158.706 82.5509 156.944C80.5644 155.328 79.1297 153.125 77.1799 151.472C73.5011 148.315 68.9027 148.608 65.0032 151.252C60.699 154.153 58.087 158.963 54.1507 162.305C51.8331 164.251 49.1476 166.05 46.2781 167.115C43.2248 168.253 38.9574 168.18 37.633 164.581C37.3755 163.884 36.3086 164.178 36.5662 164.838Z" fill="#18191C"/>
<path d="M45.7631 130.615C50.472 134.691 54.4083 139.538 57.4617 144.973C57.7928 145.597 58.7492 145.046 58.4182 144.422C55.328 138.877 51.3549 133.994 46.5357 129.844C46.0207 129.367 45.2113 130.175 45.7631 130.615Z" fill="#18191C"/>
<path d="M46.7199 129.44C50.693 124.189 56.3215 118.828 62.5755 116.441C63.5687 116.074 64.7091 115.744 65.776 116.001C67.1004 116.295 67.8729 117.433 68.6454 118.461C69.7491 119.893 70.8159 121.362 71.8828 122.831C73.9797 125.768 75.9662 128.816 77.8424 131.901C78.2103 132.488 79.1668 131.937 78.7989 131.35C76.4445 127.494 73.9061 123.712 71.2206 120.077C69.1973 117.323 67.3579 114.091 63.4216 115.009C60.0003 115.817 56.7262 118.314 54.0407 120.407C50.9137 122.867 48.1546 125.732 45.7266 128.889C45.3588 129.44 46.3153 129.991 46.7199 129.44Z" fill="#18191C"/>
<path d="M58.1241 145.45C65.6288 142.292 72.3242 137.666 77.8792 131.717C78.3574 131.203 77.5849 130.432 77.1066 130.946C71.6988 136.748 65.1506 141.338 57.8298 144.385C57.1676 144.679 57.4619 145.744 58.1241 145.45Z" fill="#18191C"/>
<path d="M50.9878 130.175C55.1816 126.393 59.8537 123.271 65.004 120.885C65.6294 120.591 65.0776 119.636 64.4522 119.93C59.2283 122.353 54.4827 125.548 50.2153 129.404C49.6635 129.844 50.4728 130.652 50.9878 130.175Z" fill="#18191C"/>
<path d="M54.0408 132.011C56.3216 130.358 58.6024 128.743 60.8833 127.09C61.4719 126.686 60.9201 125.732 60.3315 126.136C58.0506 127.788 55.7698 129.404 53.4889 131.056C52.9003 131.497 53.4522 132.452 54.0408 132.011Z" fill="#18191C"/>
<path d="M55.5857 134.544C59.4116 131.864 63.2375 129.146 67.0635 126.466C67.6521 126.062 67.1003 125.107 66.5117 125.511C62.6857 128.192 58.8598 130.909 55.0339 133.59C54.4453 133.993 54.9971 134.948 55.5857 134.544Z" fill="#18191C"/>
<path d="M58.8232 137.556C61.1776 135.646 63.6424 133.957 66.2176 132.378C66.843 132.011 66.2543 131.056 65.6657 131.423C62.9802 133.002 60.4419 134.802 58.0507 136.748C57.4989 137.225 58.2714 137.996 58.8232 137.556Z" fill="#18191C"/>
<path d="M60.5156 140.566C63.9737 137.739 67.726 135.389 71.7359 133.443C72.3613 133.149 71.8095 132.194 71.1841 132.488C67.0638 134.471 63.2747 136.931 59.7431 139.795C59.1912 140.236 59.9638 141.007 60.5156 140.566Z" fill="#18191C"/>
<path d="M136.151 163.627C137.954 161.35 135.82 158.559 133.429 157.899C130.56 157.091 127.286 158.449 125.851 161.02C124.232 163.884 124.894 167.629 126.991 170.053C129.677 173.211 136.667 175.12 135.416 180.334C135.232 181.032 136.299 181.326 136.483 180.628C137.917 174.68 130.744 172.844 127.764 169.282C125.667 166.748 125.299 162.489 127.948 160.175C129.015 159.257 130.523 158.706 131.921 158.78C133.576 158.853 137.145 160.653 135.416 162.892C134.937 163.407 135.71 164.178 136.151 163.627Z" fill="#18191C"/>
<path d="M136.74 163.406C137.034 161.423 137.954 159.661 139.426 158.302C140.125 157.641 140.934 157.127 141.817 156.723C142.258 156.539 142.737 156.356 143.215 156.246C144.245 156.025 144.466 156.025 145.312 156.76C146.158 157.531 146.195 157.751 146.158 158.816C146.158 159.22 146.084 159.624 146.047 159.991C145.937 160.726 145.716 161.423 145.459 162.121C144.907 163.626 144.061 165.022 143.178 166.344C140.014 171.044 135.489 175.34 135.232 181.325C135.195 182.023 136.299 182.023 136.335 181.325C136.667 173.284 145.017 168.657 146.93 161.166C147.298 159.734 147.593 157.898 146.967 156.503C146.195 154.887 144.502 154.814 142.957 155.181C139.205 156.062 136.335 159.33 135.747 163.112C135.563 163.81 136.63 164.14 136.74 163.406Z" fill="#18191C"/>
<path d="M142.994 107.959C142.331 111.521 142.184 115.266 142.994 118.828C143.766 122.243 146.231 121.509 149.064 121.692C155.501 122.133 164.036 126.209 168.267 118.938C168.635 118.314 167.678 117.763 167.31 118.388C163.705 124.593 156.127 121.545 150.609 120.774C149.321 120.591 148.107 120.591 146.82 120.627C144.833 120.627 144.244 119.673 143.95 117.91C143.398 114.716 143.472 111.484 144.097 108.29C144.171 107.555 143.104 107.261 142.994 107.959Z" fill="#18191C"/>
<path d="M143.141 109.722C145.128 108.51 146.857 108.29 149.101 107.923C150.057 107.776 150.683 107.408 150.83 106.417C151.235 103.92 150.168 101.35 152.154 99.2199C154.362 96.8331 157.341 98.9629 158.261 101.386C158.703 102.525 158.96 103.847 159.843 104.765C160.983 105.976 162.492 105.646 163.926 106.05C169.481 107.555 167.826 114.716 166.649 118.571C166.428 119.232 167.495 119.526 167.716 118.865C168.966 114.863 170.217 109.869 166.869 106.527C166.318 105.976 165.692 105.536 164.993 105.242C163.926 104.801 162.749 105.022 161.646 104.618C159.512 103.847 159.549 100.689 158.261 99.073C155.944 96.2089 151.97 96.6128 150.389 99.9543C149.947 100.872 149.8 101.827 149.726 102.818C149.653 103.993 150.205 106.344 148.954 106.821C148.071 107.188 146.71 107.041 145.753 107.335C144.613 107.665 143.583 108.18 142.59 108.767C142.001 109.171 142.553 110.126 143.141 109.722Z" fill="#18191C"/>
<path d="M147.519 108.583C146.967 112.916 147.703 117.212 149.616 121.142C149.91 121.766 150.866 121.215 150.572 120.591C148.733 116.845 148.071 112.733 148.622 108.583C148.733 107.886 147.629 107.886 147.519 108.583Z" fill="#18191C"/>
<path d="M112.129 84.1645C107.383 81.9613 104.551 76.8572 104.808 71.643C105.102 66.3186 108.708 61.4716 113.306 58.9379C116.176 57.3589 119.229 56.8816 122.135 58.5707C124.784 60.0762 126.66 62.6833 127.727 65.474C129.64 70.5414 128.941 76.3064 125.924 80.823C125.52 81.4105 126.476 81.9613 126.881 81.3738C131.884 73.9196 130.743 60.9575 121.583 57.1019C116.985 55.1557 112.092 57.7628 108.781 60.9942C105.544 64.1521 103.447 68.6687 103.704 73.2219C103.999 78.2526 106.942 82.9894 111.54 85.1559C112.202 85.4129 112.754 84.4582 112.129 84.1645Z" fill="#18191C"/>
<path d="M111.614 85.4867C110.657 86.5148 110.915 88.0938 112.092 88.8649C114.005 90.1134 117.316 88.9751 119.339 88.4977C121.51 87.9836 124.784 87.5063 126.255 85.5968C127.138 84.4218 127.138 82.8061 125.998 81.8147C125.446 81.374 124.674 82.1451 125.225 82.5858C126.918 84.0179 124.71 85.6703 123.386 86.1844C122.282 86.5883 121.142 86.9187 120.002 87.2125C118.935 87.4696 117.868 87.7266 116.801 87.9102C116.139 88.0203 115.403 88.204 114.741 88.2407C113.784 88.2774 111.025 87.7633 112.423 86.2945C112.901 85.7437 112.129 84.9726 111.614 85.4867Z" fill="#18191C"/>
<path d="M113.747 89.4158C113.895 91.5823 115.734 92.9776 117.868 93.1245C120.811 93.3081 123.018 90.8479 124.747 88.8283C125.188 88.2775 124.416 87.5064 123.974 88.0572C122.76 89.4892 121.399 91.1416 119.597 91.7659C117.757 92.4268 115.035 91.6924 114.888 89.4158C114.814 88.7181 113.711 88.7181 113.747 89.4158Z" fill="#18191C"/>
<path d="M116.727 93.5283C116.433 95.0338 117.353 96.6128 118.935 96.8698C120.553 97.1269 121.951 95.6948 121.988 94.1526C121.988 93.4549 120.884 93.4549 120.884 94.1526C120.884 95.0706 120.001 95.9886 119.008 95.7682C118.162 95.5846 117.61 94.6299 117.794 93.8221C117.941 93.1244 116.875 92.8306 116.727 93.5283Z" fill="#18191C"/>
<path d="M109.186 70.2844C112.349 72.304 114.777 75.1314 116.323 78.5464C116.617 79.2073 117.573 78.6198 117.279 77.9956C115.66 74.397 113.085 71.4594 109.738 69.3297C109.112 68.9625 108.56 69.9172 109.186 70.2844Z" fill="#18191C"/>
<path d="M114.851 67.6038C115.55 72.8915 116.286 78.1792 116.985 83.4301C117.095 84.1278 118.126 83.834 118.052 83.1363C117.353 77.8487 116.617 72.561 115.918 67.3101C115.808 66.6124 114.778 66.9061 114.851 67.6038Z" fill="#18191C"/>
<path d="M116.764 76.6004C117.721 73.1488 119.928 70.3581 123.055 68.5955C123.68 68.265 123.129 67.3103 122.503 67.6408C119.156 69.5135 116.728 72.598 115.697 76.3067C115.514 77.0043 116.58 77.2981 116.764 76.6004Z" fill="#18191C"/>
<path d="M76.6654 171.007C78.1369 174.202 79.7188 177.36 81.4846 180.408C82.3676 181.913 83.5448 184.777 85.7153 183.859C86.3774 183.566 85.7888 182.648 85.1634 182.905C83.7655 183.492 81.2639 177.801 80.7857 176.883C79.6453 174.79 78.6152 172.623 77.6219 170.457C77.3276 169.796 76.3711 170.346 76.6654 171.007Z" fill="#18191C"/>
<path d="M77.6584 171.668C80.7854 169.245 83.8388 166.748 87.0025 164.398C89.7616 162.305 92.7414 160.285 96.1259 159.33C99.7679 158.265 102.932 159.11 105.36 162.048C107.42 164.544 108.671 167.629 110.068 170.493C110.363 171.117 111.319 170.567 111.025 169.942C108.339 164.434 105.176 156.65 97.6342 157.861C93.8818 158.449 90.4974 160.505 87.444 162.708C83.8388 165.352 80.3807 168.18 76.8491 170.934C76.334 171.338 77.1066 172.109 77.6584 171.668Z" fill="#18191C"/>
<path d="M84.2067 183.969C93.8083 181.876 102.711 177.397 110.179 171.007C110.731 170.53 109.921 169.759 109.406 170.236C102.086 176.515 93.33 180.848 83.9124 182.941C83.2134 183.088 83.5077 184.153 84.2067 183.969Z" fill="#18191C"/>
<path d="M93.1462 173.615C91.1965 173.137 89.5778 171.228 90.0561 169.135C90.4975 167.115 92.9623 165.646 94.9121 166.601C98.8484 168.584 96.1628 174.239 92.1162 172.807C91.454 172.587 91.1597 173.651 91.8219 173.872C94.1027 174.68 96.8618 173.578 97.7447 171.265C98.6276 168.988 97.1929 166.234 94.9488 165.426C92.5209 164.545 89.7618 166.197 89.0628 168.621C88.2535 171.338 90.24 174.019 92.8519 174.68C93.5509 174.863 93.8452 173.798 93.1462 173.615Z" fill="#18191C"/>
<path d="M112.754 145.744C112.312 141.815 112.275 137.335 116.948 136.27C119.302 135.719 121.252 135.022 122.613 132.855C124.011 130.652 123.827 128.596 123.275 126.172C122.87 124.263 122.907 122.61 124.452 121.178C125.703 120.04 127.358 119.599 128.977 120.113C129.639 120.334 129.934 119.269 129.271 119.049C126.917 118.314 124.452 119.232 122.944 121.178C120.626 124.226 123.349 127.31 122.429 130.579C121.877 132.525 120.369 134.177 118.419 134.838C116.837 135.352 115.145 135.315 113.821 136.417C111.025 138.694 111.282 142.549 111.65 145.744C111.724 146.442 112.827 146.442 112.754 145.744Z" fill="#18191C"/>
<path d="M103.778 125.181C102.638 124.263 103.557 122.207 105.029 122.978C105.617 123.271 105.985 123.969 105.654 124.593C105.323 125.218 104.477 125.548 103.852 125.218C103.226 124.887 102.674 125.842 103.3 126.172C104.44 126.723 105.838 126.319 106.537 125.291C107.273 124.189 106.795 122.794 105.728 122.133C104.661 121.472 103.226 121.656 102.527 122.757C101.902 123.786 102.049 125.218 103.005 125.989C103.557 126.393 104.33 125.622 103.778 125.181Z" fill="#18191C"/>
<path d="M154.103 68.2652C153.441 67.2003 153.036 65.8416 153.441 64.6299C153.772 63.6017 154.802 62.9775 155.869 63.0877C157.046 63.1978 157.672 64.2994 157.046 65.3276C156.495 66.2823 155.354 66.7596 154.287 66.6128C153.588 66.5393 153.588 67.6409 154.287 67.7144C155.869 67.898 157.598 66.9432 158.187 65.4377C158.739 64.0791 158.04 62.5736 156.642 62.1329C155.317 61.6923 153.699 62.2064 152.889 63.3447C151.675 64.9971 152.154 67.237 153.147 68.8894C153.515 69.4035 154.471 68.8527 154.103 68.2652Z" fill="#18191C"/>
<path d="M94.7648 113.284C96.7513 116.882 100.798 118.902 104.881 118.314C109.885 117.58 112.57 113.761 114.557 109.501C116.874 104.581 120.075 100.542 125.188 98.3753C129.824 96.4292 135.82 97.4206 139.646 93.7853C141.117 92.39 142.111 90.4438 141.78 88.3875C141.522 86.8085 140.566 85.4866 140.934 83.8342C141.375 82.035 142.773 80.713 144.539 80.3458C145.238 80.199 144.943 79.1341 144.244 79.281C142.111 79.7583 140.382 81.374 139.867 83.5405C139.572 84.7155 139.793 85.7804 140.161 86.9187C140.75 88.7547 140.97 90.2602 139.756 91.9493C137.623 94.9236 133.87 95.3276 130.523 95.8049C127.543 96.2456 124.747 97.0534 122.172 98.5956C119.891 99.9543 117.868 101.79 116.286 103.92C114.557 106.27 113.6 109.024 112.202 111.558C110.436 114.679 107.53 117.066 103.815 117.286C100.43 117.47 97.2663 115.67 95.6109 112.696C95.3902 112.109 94.4337 112.659 94.7648 113.284Z" fill="#18191C"/>
<path d="M87.0764 53.063C86.451 57.653 85.8256 62.243 85.237 66.833C85.1266 67.5307 86.1935 67.8244 86.3039 67.1267C86.9292 62.5367 87.5546 57.9467 88.1433 53.3568C88.2536 52.6591 87.1868 52.3653 87.0764 53.063Z" fill="#18191C"/>
<path d="M86.8923 67.4569C91.2333 64.3357 95.5742 61.2145 99.9152 58.0933C100.504 57.6894 99.952 56.7347 99.3634 57.1386C95.0224 60.2598 90.6815 63.381 86.3405 66.5022C85.7519 66.9061 86.3037 67.8608 86.8923 67.4569Z" fill="#18191C"/>
<path d="M87.775 53.6873C98.6642 39.1095 109.369 24.4215 119.891 9.58664C120.295 8.99912 119.339 8.44833 118.934 9.03584C108.413 23.8707 97.7077 38.5954 86.8185 53.1365C86.4138 53.6873 87.3703 54.2381 87.775 53.6873Z" fill="#18191C"/>
<path d="M101.276 56.4413C111.282 43.2221 120.994 29.7826 130.412 16.1228C130.817 15.5353 129.86 14.9845 129.456 15.572C120.038 29.1951 110.326 42.6713 100.32 55.8905C99.8783 56.4413 100.835 56.9921 101.276 56.4413Z" fill="#18191C"/>
<path d="M119.56 9.5865C121.289 6.35514 123.313 2.42611 127.139 1.36123C130.928 0.296352 134.643 3.16051 134.717 7.08954C134.717 7.78722 135.821 7.78722 135.821 7.08954C135.784 3.30739 132.583 -0.107566 128.684 0.00259405C123.57 0.149474 120.701 5.03323 118.604 9.0357C118.273 9.65994 119.229 10.2107 119.56 9.5865Z" fill="#18191C"/>
<path d="M130.633 16.0123C132.509 13.2216 134.201 10.3574 135.71 7.34639C136.041 6.72215 135.084 6.17136 134.753 6.79559C133.245 9.80663 131.553 12.6708 129.676 15.4615C129.309 16.0123 130.265 16.5998 130.633 16.0123Z" fill="#18191C"/>
<path d="M118.75 11.3859C122.981 8.52175 128.462 10.064 130.559 14.6907C130.853 15.3517 131.81 14.7641 131.516 14.1399C129.161 8.96238 122.87 7.23655 118.198 10.4312C117.61 10.8351 118.162 11.7898 118.75 11.3859Z" fill="#18191C"/>
<path d="M116.801 14.6903C120.48 12.3403 125.888 13.8825 127.58 17.9951C127.837 18.6561 128.904 18.3623 128.647 17.7014C126.66 13.0012 120.59 10.9816 116.249 13.7356C115.661 14.1395 116.212 15.0943 116.801 14.6903Z" fill="#18191C"/>
<path d="M87.1129 54.2013C89.1363 55.413 91.1596 52.7692 93.2565 52.8059C94.8384 52.8426 96.3099 53.577 97.2296 54.8989C97.8918 55.8537 98.2229 56.7717 99.2897 57.3225C99.9151 57.6529 100.467 56.6982 99.8415 56.3677C98.5907 55.7068 98.2229 54.0911 97.156 53.1731C96.4203 52.5489 95.5374 52.1082 94.5809 51.8879C93.6244 51.6676 92.6311 51.6676 91.7114 51.8879C90.5342 52.1817 88.8052 53.9075 87.7015 53.2465C87.0762 52.8793 86.5243 53.8341 87.1129 54.2013Z" fill="#18191C"/>
<path d="M93.1461 52.2183C100.577 42.4508 108.045 32.6465 115.476 22.879C115.918 22.3282 114.961 21.7774 114.52 22.3282C107.089 32.0957 99.6207 41.9 92.1896 51.6675C91.7849 52.2183 92.7414 52.7691 93.1461 52.2183Z" fill="#18191C"/>
<path d="M104.808 44.8743C111.724 34.7396 119.045 24.9354 126.807 15.425C127.248 14.8742 126.476 14.103 126.034 14.6538C118.235 24.2377 110.804 34.1154 103.851 44.3236C103.483 44.9111 104.44 45.4619 104.808 44.8743Z" fill="#18191C"/>
<path d="M86.6716 63.9689C87.3706 63.3814 88.4006 63.9689 88.2167 64.8869C88.0695 65.5846 89.1364 65.8783 89.2835 65.1806C89.4675 64.2994 89.1364 63.3814 88.327 62.904C87.5177 62.4266 86.5612 62.6102 85.8623 63.1978C85.3472 63.6384 86.1198 64.4095 86.6716 63.9689Z" fill="#18191C"/>
<path d="M87.0026 63.8218C86.8186 64.5929 86.4876 65.2906 86.0093 65.9148C86.3036 66.0984 86.6347 66.282 86.929 66.4656C87.1497 65.6578 87.5912 64.9601 88.2166 64.3726C87.9223 64.3358 87.628 64.2991 87.3337 64.2624C87.5176 64.6663 87.3705 65.107 87.0026 65.3273C87.2601 65.4374 87.5544 65.5476 87.8119 65.6578C87.6648 65.1437 87.7751 64.6663 88.1062 64.2624C87.8855 64.2991 87.6648 64.3358 87.444 64.3358C87.7383 64.4827 87.7015 64.8866 87.4072 65.0335C87.628 65.0702 87.8487 65.107 88.0694 65.107C87.8487 64.9234 87.6648 64.703 87.5544 64.446C87.5176 64.3358 87.4808 64.2257 87.444 64.0788C87.444 64.0054 87.3705 63.2342 87.2601 63.4546C86.929 64.0788 87.8855 64.6296 88.2166 64.0054C88.7316 63.0506 87.4072 62.2061 86.6715 62.9772C85.899 63.8218 86.5979 65.2171 87.3337 65.8414C87.5176 66.025 87.7751 66.0617 87.9959 65.9148C89.0259 65.4007 89.0259 63.8585 88.0326 63.3077C87.8487 63.1975 87.5176 63.1975 87.3705 63.3811C86.7819 64.0788 86.5611 64.9601 86.7819 65.8414C86.8554 66.1718 87.2969 66.3554 87.5912 66.1718C88.5109 65.621 88.7684 64.5194 88.3269 63.6014C88.1798 63.271 87.7016 63.271 87.444 63.4913C86.6715 64.189 86.1565 65.0702 85.899 66.0617C85.7518 66.539 86.4508 67.0531 86.8186 66.6125C87.4072 65.8414 87.8487 64.9968 88.1062 64.0421C88.2534 63.4178 87.1865 63.1241 87.0026 63.8218Z" fill="#18191C"/>
<path d="M84.9426 69.5868C84.2068 73.5526 82.5514 77.1879 79.9394 80.2724C79.498 80.8232 80.2705 81.5943 80.712 81.0435C83.4343 77.7754 85.2369 74.03 86.0094 69.8439C86.1198 69.1829 85.0529 68.8892 84.9426 69.5868Z" fill="#18191C"/>
<path d="M77.2541 74.1769C73.4282 77.0044 69.3815 79.538 65.1877 81.778C64.5623 82.1084 65.1141 83.0632 65.7395 82.7327C69.9333 80.4928 73.98 77.9591 77.8059 75.1316C78.3945 74.691 77.8427 73.7363 77.2541 74.1769Z" fill="#18191C"/>
<path d="M167.053 158.119C166.06 156.577 164.404 157.384 163.521 158.559C162.565 159.771 161.792 161.203 160.983 162.525C160.357 163.553 159.622 164.692 159.511 165.977C159.291 168.547 161.24 168.841 163.19 169.465C165.508 170.236 165.361 172.954 163.889 174.459C162.712 175.671 160.983 176.185 159.438 176.699C158.776 176.919 159.07 177.984 159.732 177.764C162.822 176.773 167.421 174.533 165.839 170.42C165.581 169.759 165.14 169.208 164.551 168.841C164.22 168.657 163.852 168.511 163.484 168.4C162.418 168.07 162.123 168.18 161.277 167.262C160.578 166.858 160.357 166.307 160.688 165.573C160.836 165.059 161.02 164.582 161.277 164.141C161.571 163.553 161.939 163.003 162.307 162.452C162.675 161.901 165.25 157.274 166.096 158.633C166.464 159.257 167.421 158.706 167.053 158.119Z" fill="#18191C"/>
<path d="M103.888 201.338C106.904 200.567 109.48 203.541 108.155 206.405C107.861 207.03 108.817 207.617 109.112 206.956C110.841 203.248 107.64 199.245 103.63 200.273C102.895 200.457 103.189 201.522 103.888 201.338Z" fill="#18191C"/>
<path d="M160.247 140.86C158.849 139.832 158.849 137.152 160.983 137.078C161.755 137.042 162.565 137.482 162.528 138.327C162.528 139.024 161.903 139.869 161.13 139.759C160.431 139.649 160.137 140.714 160.836 140.824C162.197 141.044 163.374 140.053 163.595 138.731C163.852 137.372 162.859 136.197 161.535 136.013C160.174 135.793 158.776 136.564 158.297 137.886C157.819 139.355 158.481 140.934 159.695 141.815C160.247 142.219 160.799 141.264 160.247 140.86Z" fill="#18191C"/>
<path d="M6.47431 136.307C6.98934 134.251 8.75515 133.076 10.4106 131.937C12.1396 130.726 13.9054 129.477 15.6713 128.265C19.1661 125.805 22.6609 123.382 26.1558 120.921C26.7444 120.518 26.1926 119.563 25.604 119.967C21.5205 122.831 17.4371 125.658 13.3536 128.522C10.5945 130.432 6.29037 132.452 5.40746 136.013C5.22352 136.711 6.29037 137.005 6.47431 136.307Z" fill="#18191C"/>
<path d="M253.284 329.344C208.587 321.706 163.89 314.068 119.192 306.431C146.342 295.488 173.491 284.582 200.641 273.64C243.094 283.077 285.547 292.514 327.963 301.951C303.095 311.094 278.189 320.2 253.284 329.344Z" fill="white" stroke="#18191C" stroke-width="1.17937" stroke-miterlimit="10"/>
<path d="M251.445 329.895C251.592 330.335 251.702 330.813 251.849 331.253C252.033 331.841 252.916 331.731 252.916 331.106C252.916 330.739 252.916 330.409 252.916 330.041C252.916 329.344 251.813 329.344 251.813 330.041C251.813 330.482 251.739 330.886 251.555 331.29C251.923 331.29 252.254 331.29 252.622 331.29C252.475 330.813 252.438 330.372 252.548 329.858C252.217 329.895 251.886 329.931 251.555 330.005C251.665 330.115 251.665 330.188 251.592 330.298C251.923 330.335 252.254 330.372 252.585 330.445C252.511 330.188 252.548 329.968 252.695 329.748C252.364 329.638 251.996 329.564 251.665 329.454C251.592 330.041 251.518 330.592 251.445 331.18C251.408 331.474 251.739 331.731 251.996 331.731C252.328 331.731 252.511 331.474 252.548 331.18C252.622 330.592 252.695 330.041 252.769 329.454C252.843 328.903 251.996 328.756 251.739 329.16C251.445 329.638 251.371 330.188 251.518 330.739C251.629 331.216 252.291 331.253 252.511 330.886C252.806 330.445 252.806 329.895 252.475 329.491C252.217 329.16 251.555 329.123 251.481 329.638C251.334 330.298 251.371 330.996 251.555 331.657C251.739 332.208 252.438 332.134 252.622 331.657C252.806 331.143 252.916 330.629 252.916 330.115C252.548 330.115 252.18 330.115 251.813 330.115C251.813 330.482 251.813 330.813 251.813 331.18C252.18 331.143 252.548 331.07 252.879 331.033C252.732 330.592 252.622 330.115 252.475 329.674C252.328 328.903 251.261 329.197 251.445 329.895Z" fill="#18191C"/>
<path d="M252.29 332.538C258.213 329.491 264.688 327.875 271.052 326.076C274.179 325.194 277.269 324.24 280.249 322.991C283.119 321.816 285.878 320.347 288.71 319.025C295.001 316.088 301.807 314.178 308.392 312.012C315.234 309.735 322.04 307.459 328.883 305.219C329.545 304.998 329.25 303.934 328.588 304.154C321.746 306.43 314.94 308.707 308.097 310.947C301.623 313.077 294.964 314.986 288.747 317.814C285.51 319.282 282.346 321.008 279.035 322.293C276.019 323.469 272.928 324.387 269.801 325.268C263.658 327.03 257.441 328.646 251.702 331.584C251.113 331.914 251.665 332.869 252.29 332.538Z" fill="#18191C"/>
<path d="M252.806 332.318C278.226 323.542 303.573 314.656 328.92 305.623C330.906 304.925 330.06 301.73 328.037 302.428C302.727 311.461 277.343 320.347 251.923 329.123C249.936 329.821 250.782 333.016 252.806 332.318Z" fill="#18191C"/>
<path d="M249.936 296.847C254.718 297.324 258.802 300.225 263.511 301.143C264.21 301.29 264.504 300.225 263.805 300.078C259.022 299.123 254.865 296.222 249.936 295.745C249.237 295.708 249.237 296.81 249.936 296.847Z" fill="#18191C"/>
<path d="M263.842 300.629C266.748 299.05 269.471 297.177 271.935 294.974C272.45 294.497 271.678 293.726 271.163 294.203C268.735 296.333 266.123 298.169 263.29 299.674C262.665 300.041 263.217 300.996 263.842 300.629Z" fill="#18191C"/>
<path d="M251.077 294.754C253.395 293.101 255.786 291.522 258.251 290.053C258.876 289.686 258.287 288.732 257.699 289.099C255.234 290.567 252.843 292.11 250.525 293.799C249.936 294.239 250.488 295.194 251.077 294.754Z" fill="#18191C"/>
<path d="M258.434 290.237C262.628 291.816 266.822 293.358 271.052 294.937C271.715 295.194 272.009 294.13 271.347 293.873C267.153 292.294 262.959 290.751 258.729 289.172C258.066 288.952 257.772 290.017 258.434 290.237Z" fill="#18191C"/>
<path d="M246.625 301.033C257.698 304.448 268.624 308.377 279.33 312.82C279.992 313.077 280.286 312.012 279.624 311.755C268.919 307.312 257.993 303.383 246.92 299.968C246.221 299.748 245.926 300.812 246.625 301.033Z" fill="#18191C"/>
<path d="M247.692 309.589C254.571 312.894 261.524 316.015 268.551 319.062C269.213 319.356 269.765 318.402 269.103 318.108C262.076 315.097 255.123 311.939 248.244 308.634C247.619 308.34 247.067 309.295 247.692 309.589Z" fill="#18191C"/>
<path d="M248.685 319.026C252.438 320.935 256.19 322.881 259.942 324.791C260.568 325.121 261.12 324.166 260.494 323.836C256.742 321.927 252.989 319.98 249.237 318.071C248.612 317.74 248.06 318.695 248.685 319.026Z" fill="#18191C"/>
<path d="M250.819 319.356C256.006 314.95 261.451 310.911 267.116 307.165C267.705 306.761 267.153 305.806 266.565 306.21C260.826 309.993 255.307 314.142 250.047 318.585C249.495 319.062 250.267 319.833 250.819 319.356Z" fill="#18191C"/>
<path d="M249.458 311.828C252.401 309.772 255.344 307.716 258.287 305.623C258.876 305.219 258.324 304.264 257.735 304.668C254.792 306.724 251.849 308.781 248.906 310.874C248.354 311.278 248.906 312.232 249.458 311.828Z" fill="#18191C"/>
<path d="M251.297 331.877C205.055 324.019 158.813 316.161 112.57 308.303C108.229 275.512 103.852 242.758 99.5107 209.967C149.285 216.65 199.022 223.333 248.796 230.053C249.642 263.982 250.488 297.912 251.297 331.877Z" fill="white" stroke="#18191C" stroke-width="1.17937" stroke-miterlimit="10"/>
<path d="M168.893 275.145C164.883 273.897 162.712 270.519 162.381 266.443C162.05 262.293 162.86 258.291 166.722 256.124C170.144 254.215 174.227 254.766 177.28 257.079C180.334 259.392 183.056 264.129 180.591 267.765C180.187 268.352 181.143 268.903 181.548 268.315C184.197 264.423 181.695 259.282 178.458 256.602C175.11 253.848 170.585 253.003 166.649 254.949C162.087 257.189 160.91 261.743 161.278 266.479C161.646 271.069 164.074 274.852 168.598 276.247C169.261 276.431 169.555 275.366 168.893 275.145Z" fill="#18191C"/>
<path d="M169.923 275.549C168.23 272.758 168.782 268.866 171.504 266.92C174.227 264.974 178.126 265.782 180.186 268.279C180.628 268.829 181.4 268.058 180.959 267.507C178.531 264.607 173.969 263.799 170.806 266.039C167.642 268.315 166.98 272.868 168.966 276.1C169.334 276.687 170.291 276.137 169.923 275.549Z" fill="#18191C"/>
<path d="M173.712 277.092C171.983 275.256 172.24 271.841 174.558 270.519C176.839 269.197 179.929 270.702 180.665 273.126C180.886 273.787 181.952 273.53 181.732 272.832C180.775 269.748 176.913 267.912 174.006 269.601C171.1 271.29 170.732 275.549 172.939 277.899C173.418 278.377 174.19 277.606 173.712 277.092Z" fill="#18191C"/>
<path d="M176.545 279.662C177.979 280.176 179.635 279.331 180.187 277.972C180.775 276.614 180.003 275.145 178.715 274.557C177.428 273.97 175.882 274.3 175.184 275.549C174.521 276.761 174.742 278.413 175.846 279.294C176.398 279.735 177.17 278.964 176.618 278.523C175.147 277.385 176.177 274.704 178.127 275.512C178.973 275.843 179.561 276.724 179.157 277.642C178.752 278.523 177.722 278.964 176.839 278.633C176.177 278.376 175.882 279.441 176.545 279.662Z" fill="#18191C"/>
<path d="M248.796 230.017L252.033 331.18" stroke="#18191C" stroke-width="1.17937" stroke-miterlimit="10"/>
<path d="M249.017 229.943C250.01 263.211 251.003 296.479 251.996 329.748" stroke="#18191C" stroke-width="1.17937" stroke-miterlimit="10"/>
<path opacity="0.08" d="M185.337 223.187C187.728 224.435 208.256 235.598 209.69 255.427C210.5 266.369 205.129 274.668 201.744 279.735C183.497 307.128 147.409 311.975 137.623 313.003C151.86 322.44 201.597 353.542 255.969 351.706C268.073 351.302 286.834 350.458 307.178 339.295C322.445 330.923 332.341 320.164 338.006 313.003C334.511 310.837 331.053 308.707 327.559 306.541C301.881 315.317 276.166 324.093 250.488 332.832C249.164 298.903 247.839 265.011 246.515 231.081C226.098 228.511 205.717 225.867 185.337 223.187Z" fill="#18191C"/>
<path d="M352.132 227.042C350.146 228.511 348.012 230.494 346.062 233.101C338.815 242.832 339.809 254.252 340.324 257.96C333.886 256.638 323.07 255.353 310.305 258.291C302.69 260.053 296.583 262.807 292.095 265.304C292.794 265.745 293.75 266.259 294.964 266.59C301.843 268.462 309.091 262.697 309.311 263.101C309.532 263.468 301.218 267.361 301.66 270.739C301.954 273.016 306.037 274.227 310.268 275.513C313.836 276.577 317.221 277.606 321.746 277.091C327.963 276.394 332.267 273.273 334.18 271.657C336.019 272.575 338.742 273.787 342.163 274.852C348.454 276.761 357.136 279.405 362.911 275.806C366.664 273.456 367.804 267.948 369.938 257.006C372.66 242.979 374.021 235.965 370.269 231.522C365.302 225.61 355.333 226.602 352.132 227.042Z" fill="white" stroke="#18191C" stroke-width="1.17937" stroke-miterlimit="10"/>
<path d="M339.073 258.328C343.524 259.98 347.203 262.991 349.741 266.994C350.109 267.581 351.066 267.03 350.698 266.443C348.012 262.183 344.076 259.025 339.367 257.263C338.705 257.042 338.411 258.107 339.073 258.328Z" fill="#18191C"/>
<path d="M315.419 265.598C311.041 266.333 307.509 269.27 305.927 273.383C305.67 274.044 306.737 274.338 306.994 273.677C308.429 269.931 311.74 267.324 315.713 266.663C316.412 266.553 316.118 265.488 315.419 265.598Z" fill="#18191C"/>
<path d="M306.442 274.08C308.723 276.247 311.886 276.981 314.866 276.026C315.528 275.806 315.234 274.741 314.572 274.962C311.96 275.806 309.201 275.219 307.214 273.309C306.699 272.795 305.927 273.566 306.442 274.08Z" fill="#18191C"/>
<path d="M320.532 269.234C318.95 270.188 317.479 271.29 316.081 272.465C315.161 273.273 314.131 274.228 314.352 275.549C314.903 279.038 319.097 278.267 321.378 277.385C322.04 277.128 321.746 276.064 321.084 276.321C320.09 276.688 318.987 277.165 317.92 277.128C316.191 277.055 314.646 275.403 316.117 273.897C317.515 272.428 319.355 271.253 321.084 270.152C321.709 269.821 321.157 268.866 320.532 269.234Z" fill="#18191C"/>
<path d="M350.293 174.643C351.802 175.818 353.751 177.434 355.812 179.527C356.4 180.114 357.908 181.657 359.417 183.566C361.771 186.504 363.279 189.294 364.935 192.709C367.069 197.079 369.202 201.449 371.336 207.985C373.139 213.493 375.898 222.159 376.229 233.689C376.376 238.242 376.082 242.061 375.787 244.741C374.279 243.016 372.771 241.877 371.52 241.143C364.493 236.847 355.959 238.389 347.902 239.858C344.886 240.408 342.384 241.069 340.655 241.547C341.096 237.508 341.501 233.468 341.943 229.429C342.31 226.051 342.642 222.636 343.009 219.221C342.31 218.009 341.354 216.283 340.471 214.117C338.742 209.968 335.284 201.816 337.271 192.673C339.625 182.171 347.902 176.222 350.293 174.643Z" fill="#0A65CC"/>
<path d="M351.581 176.663C355.259 178.572 357.724 181.877 359.858 185.292C362.065 188.817 364.052 192.452 365.818 196.198C369.423 203.835 372.071 211.914 373.8 220.176C373.948 220.873 375.014 220.58 374.867 219.882C373.102 211.289 370.306 202.954 366.48 195.023C364.604 191.13 362.543 187.348 360.189 183.713C358.092 180.481 355.627 177.47 352.169 175.671C351.507 175.377 350.955 176.332 351.581 176.663Z" fill="#18191C"/>
<path d="M340.103 214.006C341.795 217.458 343.561 220.836 345.4 224.215C345.731 224.839 346.688 224.288 346.357 223.664C344.517 220.286 342.752 216.907 341.059 213.456C340.728 212.795 339.772 213.345 340.103 214.006Z" fill="#18191C"/>
<path d="M342.715 220.322C341.795 227.446 340.875 234.57 339.992 241.693C339.956 242.061 340.397 242.318 340.691 242.207C346.945 240.225 353.457 239.27 360.005 239.49C365.192 239.674 372.072 240.151 374.978 245.219C375.346 245.843 376.265 245.292 375.934 244.668C373.175 239.821 367.142 238.829 362.065 238.499C354.744 237.985 347.387 238.939 340.434 241.143C340.655 241.326 340.912 241.51 341.133 241.657C342.053 234.533 342.972 227.409 343.855 220.286C343.929 219.625 342.825 219.625 342.715 220.322Z" fill="#18191C"/>
<path d="M373.727 219.625C375.014 227.703 377.111 236.259 374.941 244.374C374.757 245.072 375.824 245.366 376.008 244.668C378.215 236.369 376.118 227.63 374.794 219.331C374.683 218.633 373.616 218.927 373.727 219.625Z" fill="#18191C"/>
<path opacity="0.32" d="M347.497 173.284C350.845 179.527 354.193 186.981 357.025 195.536C362.58 212.428 364.052 227.593 364.162 238.939C360.41 239.16 356.657 239.38 352.905 239.6C354.119 248.303 355.37 257.042 356.584 265.745C354.229 264.386 350.624 262.661 345.989 261.632C344.481 261.302 338.926 260.2 333.003 261.192C320.569 263.285 313.064 273.456 311.372 275.88C313.064 276.577 315.234 277.238 317.846 277.385C325.866 277.863 331.715 273.236 333.444 271.767C338.926 274.521 343.708 275.843 347.093 276.504C353.015 277.716 359.932 279.111 363.757 275.439C364.052 275.145 364.714 274.448 366.149 270.886C368.393 265.231 369.57 259.943 371.115 250.359C371.446 248.23 371.924 245.365 372.403 241.95C373.322 242.868 374.279 243.823 375.198 244.741C375.64 243.089 376.192 240.629 376.486 237.618C377.259 229.796 375.75 223.627 374.316 218.597C368.54 198.254 365.082 185.989 353.53 177.103C351.139 175.341 348.932 174.055 347.497 173.284Z" fill="#042852"/>
<path opacity="0.29" d="M366.958 198.438C369.423 210.408 369.754 220.58 369.57 227.924C369.386 234.754 368.687 239.747 367.951 244.778C365.781 259.943 364.677 267.508 360.483 271.033C352.537 277.716 338.374 272.649 334.989 271.363C338.19 273.493 349.704 280.727 360.961 276.724C362.139 276.284 363.426 275.733 364.677 274.925C366.001 272.685 367.767 269.234 368.908 264.717C369.57 262.036 369.754 260.09 370.011 257.814C370.416 254.142 371.115 248.781 372.292 242.061C373.359 242.979 374.463 243.897 375.529 244.815C375.897 242.942 376.376 240.078 376.486 236.553C376.817 228.034 374.941 221.571 372.77 214.19C371.593 210.151 369.754 204.717 366.958 198.438Z" fill="#042852"/>
<path d="M265.829 102.047C266.197 105.976 266.859 111.484 268.331 117.984C269.287 122.206 269.876 124.887 271.127 128.228C273.003 133.259 276.571 142.88 285.878 149.159C288.123 150.701 291.838 152.757 297.062 153.969C297.908 154.043 298.754 154.153 299.6 154.226C299.895 155.768 300.262 158.045 300.63 160.799C301.513 167.886 301.072 170.052 302.911 171.962C305.155 174.275 308.724 174.055 309.496 173.981C315.64 173.578 318.73 167.482 318.877 167.152C317.884 165.352 316.891 163.149 316.081 160.579C314.315 154.887 314.279 149.82 314.573 146.368C317.406 142.292 320.533 139.171 323.696 136.747C324.91 135.829 325.94 134.581 327.743 133.957C330.318 133.075 331.642 133.957 333.555 133.369C336.719 132.378 338.08 128.302 338.669 126.613C340.913 119.93 338.154 113.32 336.388 109.391C334.806 105.793 330.686 96.8696 320.643 89.8928C310.306 82.6957 289.631 74.6908 275.946 85.0825C273.591 86.8818 268.22 91.6921 265.829 102.047Z" fill="white"/>
<path d="M267.374 117.176C265.019 116.772 259.06 115.376 255.197 110.272C249.311 102.524 252.475 91.6921 255.749 85.9638C260.899 76.9674 270.28 73.8462 282.052 69.9172C289.042 67.6038 295.7 65.4006 304.75 65.7678C309.753 65.9881 326.713 66.7225 336.866 79.3175C342.899 86.7716 343.561 94.7766 344.886 110.566C345.511 117.8 345.033 121.729 343.782 125.474C342.862 128.192 339.883 136.894 331.311 140.383C326.823 142.219 322.666 141.852 320.385 141.484C322.445 138.437 324.505 135.426 326.602 132.378C327.779 132.451 331.973 132.525 335.174 129.624C339.552 125.621 340.324 117.653 337.124 115.523C334.769 113.944 330.097 115.487 326.05 119.122C325.683 116.809 325.094 114.275 324.101 111.668C319.465 99.2197 309.386 92.3898 304.456 89.5623C302.506 92.0593 296.326 99.3666 285.363 102.267C276.681 104.544 269.471 102.928 266.27 101.974C266.638 107.041 267.006 112.108 267.374 117.176Z" fill="#ADB2BA"/>
<path d="M265.534 103.002C267.042 114.348 268.624 126.135 274.179 136.343C278.741 144.716 286.098 151.876 295.553 154.263C296.252 154.446 296.546 153.382 295.847 153.198C286.503 150.811 279.293 143.614 274.878 135.279C269.618 125.364 268.109 113.981 266.638 103.002C266.527 102.304 265.424 102.304 265.534 103.002Z" fill="#18191C"/>
<path d="M295.553 154.41C302.212 154.41 309.202 150.848 314.425 147.029C319.686 143.173 323.99 138.216 327.08 132.488C327.411 131.864 326.455 131.313 326.124 131.937C323.144 137.519 318.987 142.366 313.874 146.074C308.76 149.82 301.991 153.308 295.553 153.308C294.818 153.308 294.818 154.41 295.553 154.41Z" fill="#18191C"/>
<path d="M314.389 146.148C313.653 153.565 315.088 160.983 318.472 167.629C318.803 168.253 319.76 167.702 319.429 167.078C316.118 160.579 314.793 153.382 315.492 146.148C315.566 145.45 314.462 145.45 314.389 146.148Z" fill="#18191C"/>
<path d="M298.386 154.226C299.6 158.412 300.593 162.671 301.329 166.968C301.807 169.832 301.991 173.063 305.192 174.128C309.974 175.744 317.037 172.88 318.877 168.143C319.134 167.482 318.067 167.188 317.81 167.849C316.78 170.53 314.205 171.998 311.556 172.77C309.349 173.394 306.001 174.055 304.125 172.255C303.021 171.191 302.874 169.501 302.653 168.069C302.396 166.564 302.138 165.058 301.844 163.553C301.182 160.321 300.409 157.09 299.49 153.932C299.269 153.271 298.202 153.565 298.386 154.226Z" fill="#18191C"/>
<path d="M299.968 158.779C306.516 157.935 310.82 152.941 313.984 147.58C314.352 146.956 313.396 146.405 313.028 147.029C310.121 152.023 306.075 156.907 299.968 157.678C299.269 157.788 299.269 158.89 299.968 158.779Z" fill="#18191C"/>
<path d="M299.711 155.034C304.824 154.447 309.423 152.06 312.844 148.204C313.322 147.69 312.55 146.882 312.071 147.433C308.871 151.068 304.53 153.382 299.711 153.933C299.049 154.006 299.012 155.108 299.711 155.034Z" fill="#18191C"/>
<path d="M299.894 154.226C304.014 153.639 307.73 151.95 310.894 149.269C311.445 148.792 310.636 148.02 310.121 148.498C307.105 151.068 303.536 152.647 299.6 153.198C298.901 153.271 299.195 154.336 299.894 154.226Z" fill="#18191C"/>
<path d="M299.674 155.144C299.857 156.026 299.821 157.788 300.924 158.082C301.991 158.376 303.61 157.127 304.456 156.613C307.362 154.851 309.79 152.464 311.703 149.673C312.108 149.086 311.151 148.535 310.747 149.122C309.386 151.142 307.73 152.941 305.78 154.41C304.861 155.108 303.904 155.695 302.911 156.246C302.506 156.466 301.587 157.091 301.182 156.833C300.924 156.687 300.814 155.108 300.777 154.851C300.593 154.153 299.526 154.447 299.674 155.144Z" fill="#18191C"/>
<path d="M300.189 156.172C303.352 154.887 306.332 153.271 309.128 151.325C309.717 150.921 309.165 149.967 308.576 150.371C305.854 152.28 302.984 153.859 299.894 155.107C299.232 155.364 299.526 156.429 300.189 156.172Z" fill="#18191C"/>
<path d="M300.74 157.274C304.272 156.025 307.362 154.079 309.937 151.362C310.416 150.848 309.643 150.077 309.165 150.591C306.7 153.125 303.794 155.034 300.446 156.209C299.784 156.466 300.078 157.531 300.74 157.274Z" fill="#18191C"/>
<path d="M301.329 156.686C303.941 155.548 306.332 154.006 308.392 152.023C308.908 151.546 308.135 150.774 307.62 151.252C305.597 153.161 303.316 154.63 300.777 155.732C300.115 156.025 300.667 156.98 301.329 156.686Z" fill="#18191C"/>
<path d="M271.273 130.909C265.277 128.779 263.29 120.958 263.879 115.303C264.504 109.097 270.096 102.341 276.939 105.242C280.213 106.637 281.427 110.235 282.31 113.43C283.229 116.808 283.634 120.554 282.751 124.005C281.979 127.053 280.102 129.954 277.159 131.276C274.216 132.598 270.722 131.863 268.735 129.33C268.294 128.779 267.521 129.55 267.962 130.101C271.31 134.397 277.601 133.553 280.985 129.77C285.29 124.96 284.848 117.653 283.009 111.888C282.163 109.207 281.059 106.417 278.594 104.874C276.46 103.516 273.738 103.185 271.347 103.809C265.755 105.315 262.849 111.227 262.739 116.625C262.628 122.537 264.946 129.844 271.053 131.974C271.641 132.194 271.936 131.129 271.273 130.909Z" fill="#18191C"/>
<path d="M284.002 119.93C287.607 117.763 291.985 117.543 295.737 119.416C296.362 119.746 296.914 118.791 296.289 118.461C292.169 116.405 287.386 116.588 283.413 118.975C282.861 119.342 283.413 120.297 284.002 119.93Z" fill="#18191C"/>
<path d="M301.586 127.751C297.429 123.748 295.7 117.543 297.319 111.961C299.011 106.16 304.824 101.166 311.078 103.222C317.994 105.499 318.362 115.376 316.559 121.178C315.492 124.593 313.358 128.008 309.827 129.256C306.295 130.505 303.242 128.632 300.409 126.649C299.821 126.245 299.269 127.2 299.857 127.604C302.175 129.256 304.677 130.909 307.62 130.799C310.415 130.688 312.954 129.146 314.683 127.053C318.582 122.353 319.355 115.193 317.736 109.464C316.265 104.25 311.924 100.872 306.369 101.79C301.071 102.634 297.172 107.408 295.995 112.402C294.633 118.167 296.473 124.409 300.74 128.522C301.329 129.036 302.101 128.228 301.586 127.751Z" fill="#18191C"/>
<path d="M274.621 115.67C274.253 117.983 274.658 120.223 275.908 122.206C276.166 122.61 276.754 122.537 276.902 122.059C277.785 119.526 276.534 117.029 275.283 114.862C275.025 114.385 274.253 114.605 274.253 115.156C274.29 117.102 274.694 119.012 275.43 120.811C275.688 121.472 276.754 121.178 276.497 120.517C275.798 118.791 275.393 117.029 275.357 115.156C275.025 115.266 274.658 115.34 274.327 115.45C275.467 117.396 276.644 119.526 275.835 121.802C276.166 121.766 276.497 121.729 276.828 121.655C275.724 119.93 275.32 117.983 275.651 115.964C275.798 115.266 274.731 114.972 274.621 115.67Z" fill="#18191C"/>
<path d="M307.179 114.642C307.179 114.165 307.142 114.055 306.921 113.651C306.664 113.173 305.891 113.394 305.891 113.945C305.928 116.221 306.112 118.681 307.878 120.297C308.245 120.628 308.76 120.371 308.834 119.893C309.128 117.176 308.319 114.642 306.627 112.512C306.259 112.072 305.597 112.549 305.707 113.063C306.149 114.863 306.7 116.625 307.362 118.314C307.62 118.975 308.687 118.681 308.429 118.02C307.73 116.295 307.179 114.569 306.774 112.77C306.48 112.953 306.149 113.137 305.854 113.32C307.363 115.23 307.988 117.506 307.73 119.93C308.061 119.783 308.356 119.673 308.687 119.526C307.105 118.094 307.031 115.927 306.995 113.945C306.664 114.055 306.296 114.128 305.965 114.238C306.001 114.385 306.038 114.532 306.075 114.679C306.075 115.34 307.179 115.34 307.179 114.642Z" fill="#18191C"/>
<path d="M287.68 121.876C286.945 124.079 286.319 126.319 285.915 128.596C285.694 129.807 284.921 132.084 285.473 133.296C286.577 135.756 291.47 134.25 293.162 133.443C293.787 133.149 293.235 132.194 292.61 132.488C291.249 133.149 289.777 133.479 288.269 133.369C287.386 133.296 286.687 133.149 286.503 132.157C286.393 131.607 286.761 130.175 286.871 129.55C287.313 127.017 287.975 124.556 288.784 122.133C288.968 121.509 287.901 121.215 287.68 121.876Z" fill="#18191C"/>
<path d="M293.235 143.063C295.994 142.696 298.386 140.933 299.6 138.4C299.894 137.776 298.937 137.188 298.643 137.849C297.539 140.162 295.479 141.668 292.941 141.998C292.242 142.108 292.573 143.173 293.235 143.063Z" fill="#18191C"/>
<path d="M272.303 112.512C273.002 111.668 274.29 111.521 275.173 112.255C275.725 112.733 276.497 111.925 275.945 111.484C274.658 110.383 272.671 110.456 271.531 111.741C271.053 112.255 271.825 113.026 272.303 112.512Z" fill="#18191C"/>
<path d="M303.867 110.456C305.008 109.464 306.737 109.464 307.877 110.419C308.429 110.86 309.202 110.089 308.65 109.648C307.031 108.253 304.677 108.289 303.058 109.685C302.543 110.162 303.352 110.933 303.867 110.456Z" fill="#18191C"/>
<path d="M318.362 115.523C322.335 114.128 326.418 113.283 330.649 113.063C331.348 113.026 331.348 111.925 330.649 111.961C326.345 112.182 322.151 113.026 318.067 114.458C317.405 114.715 317.663 115.78 318.362 115.523Z" fill="#18191C"/>
<path opacity="0.4" d="M323.843 69.7705C326.05 72.5979 334.548 84.2015 332.966 100.138C332.084 109.024 328.405 115.56 326.087 119.012C327.412 117.984 328.552 117.286 329.398 116.809C331.642 115.56 333.077 114.789 334.916 114.899C335.468 114.936 336.792 115.046 337.749 115.817C340.545 118.167 339.588 126.503 334.622 130.395C331.9 132.525 328.699 132.745 327.08 132.708C324.984 135.683 322.85 138.657 320.753 141.668C322.151 141.888 324.285 142.072 326.749 141.705C327.816 141.558 332.084 140.787 336.13 137.556C340.103 134.361 341.722 130.469 342.789 127.825C345.732 120.481 345.143 114.018 344.113 102.378C343.672 97.2003 343.414 94.5565 342.384 91.0681C341.28 87.2859 339.551 81.7045 334.622 76.7106C331.09 73.0386 327.117 70.9823 323.843 69.7705Z" fill="#042852"/>
<path opacity="0.48" d="M288.306 101.166C291.985 97.8979 296.105 93.7118 300.078 88.4976C302.543 85.2662 304.603 82.145 306.295 79.2441C305.67 82.5489 305.045 85.8537 304.456 89.1585C303.021 91.2148 300.63 94.1524 296.915 96.833C293.64 99.1463 290.55 100.432 288.306 101.166Z" fill="#042852"/>
<path opacity="0.27" d="M314.462 96.98C317.258 106.27 317.479 114.055 317.221 119.196C317.037 123.014 316.007 143.027 305.449 149.93C304.419 150.591 301.807 152.133 301.917 152.354C302.065 152.611 306.957 150.444 309.643 148.975C313.873 146.699 320.385 142.109 326.418 132.415C327.411 132.525 332.267 132.855 335.762 129.514C339.993 125.511 340.728 117.653 337.381 115.34C334.99 113.688 330.428 115.083 326.418 118.388C326.013 116.699 325.498 114.936 324.799 113.063C322.04 105.793 317.883 100.505 314.462 96.98Z" fill="#042852"/>
<path opacity="0.36" d="M305.596 152.06C306.553 154.997 307.509 157.935 308.466 160.909C309.79 164.949 311.078 169.024 312.365 173.064C313.101 172.917 314.904 172.403 316.485 170.787C318.067 169.171 318.582 167.409 318.766 166.674C317.332 163.847 315.639 159.551 315.051 154.116C314.756 151.289 314.83 148.792 315.051 146.699C311.924 148.498 308.76 150.297 305.596 152.06Z" fill="#042852"/>
<path opacity="0.43" d="M287.239 123.161C285.4 127.09 283.561 130.982 281.721 134.912C284.738 134.838 287.718 134.801 290.734 134.728C288.968 134.177 287.166 133.626 285.4 133.076C285.989 129.771 286.614 126.466 287.239 123.161Z" fill="#042852"/>
</svg>
