<svg width="41" height="40" viewBox="0 0 41 40" fill="none" xmlns="http://www.w3.org/2000/svg">
<rect x="0.5" width="40" height="40" rx="8" fill="#135C5B"/>
<path d="M31.03 14.47L24.03 7.47C23.8895 7.32931 23.6988 7.25018 23.5 7.25L11.5 7.25C11.0359 7.25 10.5908 7.43437 10.2626 7.76256C9.93437 8.09075 9.75 8.53587 9.75 9L9.75 31C9.75 31.4641 9.93437 31.9092 10.2626 32.2374C10.5908 32.5656 11.0359 32.75 11.5 32.75L29.5 32.75C29.9641 32.75 30.4092 32.5656 30.7374 32.2374C31.0656 31.9092 31.25 31.4641 31.25 31L31.25 15C31.2498 14.8012 31.1707 14.6105 31.03 14.47ZM24.25 9.81L28.69 14.25L24.25 14.25L24.25 9.81ZM29.5 31.25L11.5 31.25C11.4337 31.25 11.3701 31.2237 11.3232 31.1768C11.2763 31.1299 11.25 31.0663 11.25 31L11.25 9C11.25 8.9337 11.2763 8.87011 11.3232 8.82322C11.3701 8.77634 11.4337 8.75 11.5 8.75L22.75 8.75L22.75 15C22.75 15.1989 22.829 15.3897 22.9697 15.5303C23.1103 15.671 23.3011 15.75 23.5 15.75L29.75 15.75L29.75 31C29.75 31.0663 29.7237 31.1299 29.6768 31.1768C29.6299 31.2237 29.5663 31.25 29.5 31.25ZM24.03 23.47C24.1705 23.6106 24.2493 23.8012 24.2493 24C24.2493 24.1988 24.1705 24.3894 24.03 24.53L21.03 27.53C20.8894 27.6705 20.6988 27.7493 20.5 27.7493C20.3012 27.7493 20.1106 27.6705 19.97 27.53L16.97 24.53C16.8375 24.3878 16.7654 24.1998 16.7688 24.0055C16.7723 23.8112 16.851 23.6258 16.9884 23.4884C17.1258 23.351 17.3112 23.2723 17.5055 23.2688C17.6998 23.2654 17.8878 23.3375 18.03 23.47L19.75 25.1887L19.75 19C19.75 18.8011 19.829 18.6103 19.9697 18.4697C20.1103 18.329 20.3011 18.25 20.5 18.25C20.6989 18.25 20.8897 18.329 21.0303 18.4697C21.171 18.6103 21.25 18.8011 21.25 19L21.25 25.1887L22.97 23.47C23.1106 23.3295 23.3012 23.2507 23.5 23.2507C23.6988 23.2507 23.8894 23.3295 24.03 23.47Z" fill="#F2F7FB"/>
</svg>
