<svg width="41" height="40" viewBox="0 0 41 40" fill="none" xmlns="http://www.w3.org/2000/svg">
<rect x="0.5" width="40" height="40" rx="8" fill="#135C5B"/>
<path d="M34.7342 12.7077L31.7342 9.76271C31.4062 9.43563 30.9618 9.25195 30.4986 9.25195C30.0354 9.25195 29.591 9.43563 29.263 9.76271L17.673 21.1802C17.6498 21.2035 17.6222 21.2219 17.5918 21.2345C17.5615 21.2471 17.529 21.2535 17.4961 21.2535C17.4632 21.2535 17.4307 21.2471 17.4004 21.2345C17.37 21.2219 17.3424 21.2035 17.3192 21.1802L17.308 21.1702L12.7317 16.7565C12.4038 16.4301 11.96 16.2469 11.4974 16.2469C11.0347 16.2469 10.5909 16.4301 10.263 16.7565L7.26298 19.7565C6.93513 20.0846 6.75098 20.5295 6.75098 20.9933C6.75098 21.4572 6.93513 21.9021 7.26298 22.2302L16.2155 31.2302C16.378 31.3927 16.5709 31.5216 16.7832 31.6096C16.9956 31.6976 17.2232 31.7428 17.453 31.7428C17.6828 31.7428 17.9104 31.6976 18.1227 31.6096C18.335 31.5216 18.528 31.3927 18.6905 31.2302L34.7392 15.1877C34.9022 15.0248 35.0313 14.8313 35.1193 14.6183C35.2073 14.4053 35.2523 14.1771 35.2519 13.9467C35.2514 13.7162 35.2054 13.4882 35.1166 13.2756C35.0278 13.063 34.8978 12.87 34.7342 12.7077ZM33.678 14.1252L17.6255 30.1765C17.5787 30.2226 17.5156 30.2485 17.4499 30.2485C17.3841 30.2485 17.321 30.2226 17.2742 30.1765L8.32173 21.1765C8.27517 21.1296 8.24903 21.0663 8.24903 21.0002C8.24903 20.9342 8.27517 20.8708 8.32173 20.824L11.3217 17.824C11.3451 17.8004 11.373 17.7818 11.4037 17.7691C11.4344 17.7564 11.4673 17.75 11.5005 17.7502C11.5665 17.7502 11.6299 17.7762 11.6767 17.8227L11.6867 17.8327L16.2692 22.2427C16.597 22.5679 17.04 22.7504 17.5017 22.7504C17.9634 22.7504 18.4064 22.5679 18.7342 22.2427L30.3242 10.824C30.3475 10.8 30.3754 10.7809 30.4062 10.7678C30.437 10.7548 30.4701 10.7481 30.5036 10.7481C30.5371 10.7481 30.5702 10.7548 30.601 10.7678C30.6318 10.7809 30.6597 10.8 30.683 10.824L33.683 13.769C33.7063 13.7925 33.7246 13.8205 33.737 13.8513C33.7494 13.8821 33.7555 13.915 33.7551 13.9481C33.7546 13.9813 33.7476 14.014 33.7343 14.0444C33.7211 14.0748 33.7019 14.1023 33.678 14.1252Z" fill="#F2F7FB"/>
</svg>
