<svg width="41" height="40" viewBox="0 0 41 40" fill="none" xmlns="http://www.w3.org/2000/svg">
<rect x="0.5" width="40" height="40" rx="8" fill="#135C5B"/>
<path d="M33.0303 31.4703L26.6078 25.0478C28.4393 22.9416 29.3815 20.2066 29.2357 17.4193C29.0899 14.632 27.8677 12.0101 25.8265 10.1064C23.7854 8.20275 21.0848 7.16592 18.2941 7.21453C15.5034 7.26313 12.8406 8.39337 10.867 10.367C8.89337 12.3406 7.76313 15.0034 7.71453 17.7941C7.66592 20.5848 8.70275 23.2854 10.6064 25.3265C12.5101 27.3677 15.132 28.5899 17.9193 28.7357C20.7066 28.8815 23.4416 27.9393 25.5478 26.1078L31.9703 32.5303C32.1125 32.6628 32.3006 32.7349 32.4949 32.7315C32.6892 32.7281 32.8745 32.6494 33.012 32.512C33.1494 32.3745 33.2281 32.1892 33.2315 31.9949C33.2349 31.8006 33.1628 31.6125 33.0303 31.4703ZM9.25033 18.0003C9.25033 16.1709 9.79283 14.3825 10.8092 12.8613C11.8256 11.3402 13.2703 10.1546 14.9605 9.45445C16.6507 8.75434 18.5106 8.57115 20.3049 8.92807C22.0992 9.28498 23.7474 10.166 25.0411 11.4596C26.3347 12.7532 27.2157 14.4014 27.5726 16.1957C27.9295 17.9901 27.7463 19.8499 27.0462 21.5402C26.3461 23.2304 25.1605 24.675 23.6394 25.6914C22.1182 26.7078 20.3298 27.2503 18.5003 27.2503C16.048 27.2474 13.6969 26.2718 11.9629 24.5378C10.2288 22.8037 9.25331 20.4527 9.25033 18.0003Z" fill="#F2F7FB"/>
</svg>
