<svg width="40" height="40" viewBox="0 0 40 40" fill="none" xmlns="http://www.w3.org/2000/svg">
<rect width="40" height="40" rx="20" fill="#154A4C"/>
<path d="M29.1791 15.0117L24.9894 10.822C24.8675 10.7001 24.7228 10.6034 24.5636 10.5374C24.4043 10.4715 24.2336 10.4375 24.0613 10.4375C23.8889 10.4375 23.7182 10.4715 23.5589 10.5374C23.3997 10.6034 23.255 10.7001 23.1331 10.822L11.5719 22.3823C11.4498 22.504 11.3529 22.6486 11.2869 22.8079C11.221 22.9672 11.1872 23.138 11.1875 23.3104V27.5001C11.1875 27.8482 11.3258 28.182 11.5719 28.4282C11.8181 28.6743 12.1519 28.8126 12.5 28.8126H28.25C28.3992 28.8126 28.5423 28.7533 28.6478 28.6478C28.7532 28.5424 28.8125 28.3993 28.8125 28.2501C28.8125 28.1009 28.7532 27.9578 28.6478 27.8523C28.5423 27.7469 28.3992 27.6876 28.25 27.6876H18.3584L29.1791 16.8679C29.301 16.746 29.3976 16.6013 29.4636 16.4421C29.5296 16.2828 29.5635 16.1122 29.5635 15.9398C29.5635 15.7674 29.5296 15.5967 29.4636 15.4375C29.3976 15.2782 29.301 15.1335 29.1791 15.0117ZM16.7675 27.6876H12.5C12.4503 27.6876 12.4026 27.6678 12.3674 27.6327C12.3323 27.5975 12.3125 27.5498 12.3125 27.5001V23.3104C12.3127 23.2608 12.3326 23.2132 12.3678 23.1782L20.75 14.796L25.205 19.2501L16.7675 27.6876ZM28.3831 16.072L26 18.4551L21.5459 14.0001L23.9281 11.6179C23.9455 11.6005 23.9662 11.5866 23.989 11.5772C24.0117 11.5678 24.0361 11.5629 24.0608 11.5629C24.0854 11.5629 24.1098 11.5678 24.1326 11.5772C24.1553 11.5866 24.176 11.6005 24.1934 11.6179L28.3831 15.8067C28.4006 15.8241 28.4144 15.8448 28.4238 15.8675C28.4333 15.8903 28.4381 15.9147 28.4381 15.9393C28.4381 15.964 28.4333 15.9884 28.4238 16.0111C28.4144 16.0339 28.4006 16.0546 28.3831 16.072Z" fill="#FDFDFD"/>
</svg>
