<svg width="40" height="40" viewBox="0 0 40 40" fill="none" xmlns="http://www.w3.org/2000/svg">
<rect width="40" height="40" rx="20" fill="#FDFDFD"/>
<path d="M20 10.4375C18.1087 10.4375 16.2599 10.9983 14.6874 12.0491C13.1148 13.0998 11.8892 14.5933 11.1654 16.3406C10.4416 18.0879 10.2523 20.0106 10.6212 21.8656C10.9902 23.7205 11.901 25.4244 13.2383 26.7617C14.5756 28.099 16.2795 29.0098 18.1345 29.3788C19.9894 29.7477 21.9121 29.5584 23.6594 28.8346C25.4067 28.1108 26.9002 26.8852 27.9509 25.3126C29.0017 23.7401 29.5625 21.8913 29.5625 20C29.5595 17.4648 28.5511 15.0343 26.7584 13.2416C24.9658 11.4489 22.5352 10.4405 20 10.4375ZM20 28.4375C18.3312 28.4375 16.6999 27.9426 15.3124 27.0155C13.9248 26.0884 12.8434 24.7706 12.2048 23.2289C11.5662 21.6871 11.3991 19.9906 11.7246 18.3539C12.0502 16.7172 12.8538 15.2138 14.0338 14.0338C15.2138 12.8538 16.7172 12.0502 18.3539 11.7246C19.9906 11.3991 21.6871 11.5662 23.2289 12.2048C24.7706 12.8434 26.0884 13.9248 27.0155 15.3124C27.9427 16.6999 28.4375 18.3312 28.4375 20C28.435 22.237 27.5453 24.3817 25.9635 25.9635C24.3817 27.5453 22.237 28.435 20 28.4375ZM23.5625 21.5C23.5625 21.6492 23.5032 21.7923 23.3978 21.8977C23.2923 22.0032 23.1492 22.0625 23 22.0625H22.0625V24.5C22.0625 24.6492 22.0032 24.7923 21.8978 24.8977C21.7923 25.0032 21.6492 25.0625 21.5 25.0625C21.3508 25.0625 21.2077 25.0032 21.1023 24.8977C20.9968 24.7923 20.9375 24.6492 20.9375 24.5V22.0625H17C16.9109 22.0625 16.823 22.0413 16.7437 22.0006C16.6643 21.96 16.5958 21.9011 16.5437 21.8287C16.4916 21.7564 16.4574 21.6727 16.444 21.5846C16.4306 21.4965 16.4383 21.4064 16.4666 21.3219L18.7166 14.5719C18.7389 14.5005 18.7752 14.4342 18.8234 14.377C18.8716 14.3198 18.9307 14.2728 18.9973 14.2388C19.0639 14.2047 19.1366 14.1842 19.2112 14.1786C19.2858 14.173 19.3607 14.1823 19.4317 14.206C19.5026 14.2297 19.5681 14.2673 19.6244 14.3166C19.6806 14.3659 19.7264 14.4259 19.7592 14.4932C19.792 14.5604 19.811 14.6335 19.8151 14.7082C19.8193 14.7829 19.8085 14.8577 19.7834 14.9281L17.78 20.9375H20.9375V18.5C20.9375 18.3508 20.9968 18.2077 21.1023 18.1023C21.2077 17.9968 21.3508 17.9375 21.5 17.9375C21.6492 17.9375 21.7923 17.9968 21.8978 18.1023C22.0032 18.2077 22.0625 18.3508 22.0625 18.5V20.9375H23C23.1492 20.9375 23.2923 20.9968 23.3978 21.1023C23.5032 21.2077 23.5625 21.3508 23.5625 21.5Z" fill="black"/>
</svg>
