<svg width="40" height="40" viewBox="0 0 40 40" fill="none" xmlns="http://www.w3.org/2000/svg">
<rect width="40" height="40" rx="8" fill="#135C5B"/>
<path d="M34.2337 12.7077L31.2337 9.76271C30.9057 9.43563 30.4614 9.25195 29.9981 9.25195C29.5349 9.25195 29.0905 9.43563 28.7625 9.76271L17.1725 21.1802C17.1493 21.2035 17.1217 21.2219 17.0913 21.2345C17.061 21.2471 17.0285 21.2535 16.9956 21.2535C16.9628 21.2535 16.9302 21.2471 16.8999 21.2345C16.8695 21.2219 16.842 21.2035 16.8187 21.1802L16.8075 21.1702L12.2312 16.7565C11.9033 16.4301 11.4595 16.2469 10.9969 16.2469C10.5342 16.2469 10.0904 16.4301 9.76249 16.7565L6.76249 19.7565C6.43464 20.0846 6.25049 20.5295 6.25049 20.9933C6.25049 21.4572 6.43464 21.9021 6.76249 22.2302L15.715 31.2302C15.8775 31.3927 16.0704 31.5216 16.2828 31.6096C16.4951 31.6976 16.7227 31.7428 16.9525 31.7428C17.1823 31.7428 17.4099 31.6976 17.6222 31.6096C17.8346 31.5216 18.0275 31.3927 18.19 31.2302L34.2387 15.1877C34.4017 15.0248 34.5308 14.8313 34.6188 14.6183C34.7068 14.4053 34.7518 14.1771 34.7514 13.9467C34.7509 13.7162 34.7049 13.4882 34.6161 13.2756C34.5273 13.063 34.3973 12.87 34.2337 12.7077ZM33.1775 14.1252L17.125 30.1765C17.0782 30.2226 17.0151 30.2485 16.9494 30.2485C16.8836 30.2485 16.8205 30.2226 16.7737 30.1765L7.82124 21.1765C7.77468 21.1296 7.74854 21.0663 7.74854 21.0002C7.74854 20.9342 7.77468 20.8708 7.82124 20.824L10.8212 17.824C10.8446 17.8004 10.8725 17.7818 10.9032 17.7691C10.9339 17.7564 10.9668 17.75 11 17.7502C11.066 17.7502 11.1294 17.7762 11.1762 17.8227L11.1862 17.8327L15.7687 22.2427C16.0965 22.5679 16.5395 22.7504 17.0012 22.7504C17.463 22.7504 17.906 22.5679 18.2337 22.2427L29.8237 10.824C29.847 10.8 29.8749 10.7809 29.9057 10.7678C29.9365 10.7548 29.9697 10.7481 30.0031 10.7481C30.0366 10.7481 30.0697 10.7548 30.1005 10.7678C30.1313 10.7809 30.1592 10.8 30.1825 10.824L33.1825 13.769C33.2058 13.7925 33.2242 13.8205 33.2365 13.8513C33.2489 13.8821 33.255 13.915 33.2546 13.9481C33.2541 13.9813 33.2471 14.014 33.2338 14.0444C33.2206 14.0748 33.2014 14.1023 33.1775 14.1252Z" fill="#F2F7FB"/>
</svg>
