<svg width="40" height="40" viewBox="0 0 40 40" fill="none" xmlns="http://www.w3.org/2000/svg">
<rect width="40" height="40" rx="8" fill="#F2F7FB"/>
<path d="M16.7288 27.1814C16.6813 27.3751 15.5113 31.7501 9.00009 31.7501C8.80118 31.7501 8.61042 31.6711 8.46976 31.5305C8.32911 31.3898 8.25009 31.199 8.25009 31.0001C8.25009 24.4889 12.6326 23.3189 12.8188 23.2726C13.0104 23.2282 13.2118 23.2608 13.3796 23.3635C13.5474 23.4661 13.6682 23.6305 13.7159 23.8214C13.7636 24.0122 13.7344 24.2141 13.6347 24.3836C13.5349 24.5531 13.3726 24.6767 13.1826 24.7276C13.0576 24.7614 10.0776 25.6126 9.77509 30.2276C14.4426 29.9189 15.2651 26.8526 15.2751 26.8201C15.3233 26.627 15.4463 26.461 15.617 26.3585C15.7876 26.2561 15.992 26.2256 16.1851 26.2739C16.3782 26.3221 16.5442 26.4451 16.6467 26.6158C16.7491 26.7864 16.7796 26.9908 16.7313 27.1839L16.7288 27.1814ZM28.4201 18.6414L27.7501 19.3101V26.7064C27.7506 26.9361 27.7055 27.1636 27.6175 27.3758C27.5296 27.588 27.4004 27.7806 27.2376 27.9426L22.9438 32.2364C22.7142 32.4658 22.4254 32.6268 22.1095 32.7015C21.7936 32.7762 21.4632 32.7615 21.1552 32.6592C20.8472 32.5569 20.5737 32.3709 20.3653 32.1221C20.1569 31.8732 20.0218 31.5713 19.9751 31.2501L19.2926 26.3564L13.6476 20.7076L8.75634 20.0251C8.43437 19.9796 8.13146 19.8452 7.88158 19.6371C7.63171 19.429 7.44475 19.1555 7.34169 18.847C7.23863 18.5386 7.22353 18.2076 7.2981 17.8911C7.37266 17.5746 7.53394 17.2851 7.76384 17.0551L12.0576 12.7614C12.2197 12.5987 12.4123 12.4698 12.6245 12.382C12.8367 12.2943 13.0642 12.2494 13.2938 12.2501H20.6901L21.3588 11.5814C24.6226 8.31763 28.5551 8.17763 30.0938 8.26888C30.5196 8.29517 30.9212 8.4761 31.223 8.77765C31.5247 9.0792 31.706 9.4806 31.7326 9.90638C31.8238 11.4451 31.6826 15.3751 28.4201 18.6414ZM8.96634 18.5401L13.7338 19.2051L19.1901 13.7501H13.2938C13.2276 13.7504 13.1643 13.7769 13.1176 13.8239L8.82509 18.1151C8.79317 18.1473 8.77061 18.1876 8.75982 18.2316C8.74903 18.2757 8.75042 18.3218 8.76384 18.3651C8.77655 18.411 8.80256 18.4521 8.8386 18.4833C8.87464 18.5144 8.91908 18.5342 8.96634 18.5401ZM26.2501 20.8101L20.7938 26.2664L21.4588 31.0364C21.4657 31.0823 21.4852 31.1253 21.5152 31.1608C21.5452 31.1962 21.5844 31.2226 21.6285 31.237C21.6726 31.2514 21.7199 31.2532 21.765 31.2423C21.81 31.2314 21.8512 31.2081 21.8838 31.1751L26.1763 26.8826C26.2233 26.836 26.2498 26.7726 26.2501 26.7064V20.8101ZM30.2351 10.0001C30.2303 9.94108 30.2046 9.88567 30.1627 9.84377C30.1208 9.80188 30.0654 9.77622 30.0063 9.77138C28.6099 9.68176 27.2105 9.89194 25.9021 10.3878C24.5936 10.8837 23.4064 11.6538 22.4201 12.6464L15.0613 20.0001L20.0001 24.9389L26.4701 18.4701L27.3588 17.5814C28.351 16.5958 29.121 15.4094 29.617 14.1019C30.1131 12.7943 30.3238 11.3958 30.2351 10.0001Z" fill="#135C5B"/>
</svg>
