<svg width="682" height="644" viewBox="0 0 682 644" fill="none" xmlns="http://www.w3.org/2000/svg">
<g filter="url(#filter0_f_1553_2061)">
<rect x="113" y="206" width="240" height="240" rx="120" fill="#CB83DD" fill-opacity="0.6"/>
</g>
<g filter="url(#filter1_f_1553_2061)">
<rect x="235" y="107" width="332" height="333" rx="130" fill="#56D0A6" fill-opacity="0.6"/>
</g>
<g filter="url(#filter2_f_1553_2061)">
<rect x="253" y="306" width="245" height="245" rx="122.5" fill="#94D4BB"/>
</g>
<g filter="url(#filter3_b_1553_2061)">
<path d="M0 8.00001C0 3.58174 3.58172 0 8 0H674C678.418 0 682 3.58172 682 8V636C682 640.418 678.418 644 674 644H7.99999C3.58171 644 0 640.418 0 636V8.00001Z" fill="#C4C4C4" fill-opacity="0.01"/>
</g>
<path d="M213.047 302.257C212.128 300.347 209.516 300.2 208.118 301.632C206.61 303.175 205.911 306.149 206.058 308.242C206.389 312.465 210.509 314.448 211.613 318.23C212.128 319.956 214.776 320.507 215.659 318.744C217.131 315.843 219.191 313.346 221.03 310.702C222.649 308.352 225.114 304.717 224.231 301.706C223.863 300.421 222.723 299.319 221.325 299.172C219.632 298.989 218.455 300.017 217.462 301.265C216.469 302.55 215.586 303.872 214.85 305.304C214.188 306.553 213.673 308.022 212.385 308.719C213.452 309.16 214.556 309.601 215.623 310.041C215.144 308.462 214.666 306.883 214.225 305.341C213.011 306.039 211.76 306.773 210.546 307.471C212.201 309.344 215.034 309.601 217.021 308.022C217.94 307.287 218.455 306.296 219.081 305.341C219.375 304.901 219.632 304.497 220.074 304.203C220.368 303.983 220.736 303.836 221.104 303.725C221.84 303.689 221.803 303.615 221.03 303.505C220.663 302.881 220.295 302.22 219.927 301.596C219.927 301.669 219.927 301.779 219.927 301.853C220.479 301.155 220.994 300.421 221.545 299.723C221.472 299.76 221.398 299.76 221.325 299.796C218.639 300.641 219.78 304.901 222.502 304.056C222.575 304.019 222.649 304.019 222.723 303.983C223.716 303.689 224.268 302.844 224.341 301.853C224.341 301.779 224.341 301.669 224.341 301.596C224.378 300.825 223.863 300.09 223.238 299.686C221.398 298.511 218.676 299.65 217.168 300.861C216.322 301.559 215.733 302.367 215.144 303.285C214.776 303.872 214.372 305.121 213.673 304.313C212.201 302.661 209.369 304.423 209.994 306.443C210.472 308.022 210.951 309.601 211.392 311.143C211.797 312.538 213.379 313.163 214.629 312.465C216.506 311.473 217.536 309.748 218.455 307.912C219.007 306.847 219.559 305.819 220.258 304.864C220.368 304.68 221.361 303.652 221.325 303.468C220.368 302.661 219.89 302.697 219.816 303.579C219.743 303.872 219.632 304.129 219.522 304.386C217.683 308.83 214.004 312.208 211.833 316.467C213.195 316.651 214.519 316.835 215.88 316.981C215.181 314.595 213.599 312.869 212.091 310.959C211.466 310.151 210.767 309.27 210.546 308.279C210.399 307.581 210.472 306.957 210.656 306.296C210.767 305.855 210.914 305.451 211.098 305.047C211.723 304.166 211.098 303.946 209.258 304.423C210.472 307.03 214.261 304.79 213.047 302.257Z" fill="#0A65CC"/>
<path d="M215.438 314.301C218.676 310.409 221.508 306.259 223.863 301.816C225.187 299.319 221.361 297.079 220.037 299.576C217.866 303.726 215.328 307.618 212.311 311.18C210.509 313.346 213.599 316.468 215.438 314.301Z" fill="#0A65CC"/>
<path d="M224.157 251.987C223.568 255.843 223.715 259.625 224.745 263.407C225.297 265.464 228.498 264.582 227.946 262.526C227.1 259.368 226.842 256.1 227.357 252.869C227.652 250.776 224.451 249.894 224.157 251.987Z" fill="#6CA3E0"/>
<path d="M225.408 253.677C229.455 255.402 232.692 252.024 232.839 248.058C232.839 247.691 232.619 246.7 232.766 246.369C232.692 246.369 232.619 246.369 232.582 246.369C232.913 246.479 233.17 246.663 233.317 246.994C233.906 247.728 234.2 248.683 234.826 249.417C236.113 250.923 237.879 251.143 239.755 251.253C240.675 251.29 241.779 251.18 242.33 252.061C242.882 252.905 242.588 254.338 242.514 255.292C242.441 256.614 242.331 257.973 242.22 259.295C242.183 259.625 241.852 260.874 242.33 260.396C242.036 260.727 240.822 260.8 240.418 260.91C237.99 261.461 235.488 261.682 233.023 261.535C231.736 261.461 229.786 261.608 229.05 260.47C228.388 259.405 228.351 257.789 228.535 256.577C227.542 256.724 226.512 256.834 225.518 256.981C226.401 258.928 227.247 260.874 228.13 262.857C228.719 264.142 230.853 263.775 231.147 262.453C232.03 258.487 230.816 254.338 232.067 250.445C231.147 250.702 230.227 250.923 229.308 251.18C230.374 252.465 230.117 255.219 230.374 256.798C230.669 258.634 231.184 260.323 232.03 261.939C232.802 263.334 235.23 262.746 235.12 261.094C234.826 256.688 234.531 252.244 234.274 247.838C233.207 247.985 232.103 248.132 231.037 248.279C232.582 252.428 232.802 256.761 231.588 261.021C232.398 260.69 233.207 260.36 234.016 260.029C231.956 258.45 230.411 256.394 229.344 254.044C228.645 252.538 226.181 253.309 226.254 254.888C226.328 256.357 226.365 257.826 226.438 259.295C227.542 259.295 228.645 259.295 229.749 259.295C229.675 257.459 229.749 255.659 230.117 253.86C230.264 253.236 230.411 252.575 230.595 251.951C230.706 251.547 230.853 251.106 231 250.702C231.478 250.115 231.405 249.894 230.779 250.041C232.545 252.538 232.766 256.284 232.471 259.185C233.501 258.891 234.531 258.634 235.562 258.34C234.715 256.614 234.164 254.778 233.943 252.869C233.833 251.877 233.796 250.886 233.869 249.894C233.869 249.748 234.053 248.719 233.98 248.646C233.722 248.683 233.465 248.683 233.207 248.719C233.354 249.013 233.501 249.27 233.649 249.564C235.341 253.016 235.856 256.908 235.451 260.727C236.481 260.433 237.511 260.176 238.541 259.882C237.879 258.45 237.364 256.945 237.07 255.402C236.959 254.741 236.886 254.08 236.959 253.42C236.996 253.052 237.07 252.685 237.18 252.318C237.585 251.877 237.622 251.694 237.291 251.804C236.849 251.73 236.444 251.694 236.003 251.62C236.592 251.914 236.959 254.815 237.07 255.476C237.291 257.055 237.254 258.707 237.033 260.286C238.1 260.286 239.167 260.286 240.234 260.286C239.829 259.111 239.535 257.899 239.351 256.688C239.167 255.513 239.277 254.301 238.909 253.162C239.719 255.696 239.571 258.377 238.836 260.874C239.829 260.727 240.859 260.617 241.852 260.47C241.411 259.515 241.043 258.487 240.859 257.422C240.749 256.908 240.712 256.394 240.675 255.88C240.675 255.659 240.638 255.439 240.675 255.219C240.785 254.705 240.528 254.668 239.939 255.072C239.608 254.815 239.277 254.558 238.946 254.301C241.043 257.899 236.849 261.902 233.281 261.388C233.685 261.902 234.09 262.453 234.495 262.967C234.458 262.306 234.237 261.351 234.458 260.727C234.2 261.057 233.943 261.388 233.685 261.718C233.06 262.122 236.408 261.645 235.01 261.498C233.097 261.314 232.802 264.252 234.568 264.729C236.334 265.207 237.953 266.161 239.829 265.941C241.448 265.757 242.662 264.803 243.324 263.371C244.023 261.865 244.17 260.103 243.949 258.45C243.839 257.532 243.618 256.688 243.25 255.88C243.103 255.513 242.919 255.145 242.735 254.778C242.625 254.558 242.478 254.338 242.33 254.117C242.183 253.787 242.11 253.86 242.183 254.338C243.213 254.631 244.243 254.888 245.274 255.182C245.31 254.484 245.384 253.823 245.421 253.126C244.354 253.273 243.25 253.42 242.183 253.566C242.809 255.402 242.698 257.092 241.963 258.891C241.153 260.874 244.354 261.718 245.163 259.772C246.083 257.459 246.156 255.035 245.384 252.685C244.795 250.886 242.257 251.253 242.147 253.126C242.11 253.823 242.036 254.484 241.999 255.182C241.889 256.798 244.391 257.495 245.09 256.027C245.899 254.264 245.678 251.987 243.802 250.996C242.183 250.151 240.013 250.886 239.24 252.538C238.173 254.815 240.565 256.834 240.785 259.038C240.896 260.066 240.896 262.122 239.755 262.636C238.652 263.114 236.555 261.828 235.525 261.535C235.378 262.6 235.23 263.701 235.083 264.766C238.431 265.06 238.505 260.653 236.187 259.221C235.047 258.524 233.501 257.973 232.287 258.707C230.779 259.625 231.221 261.461 231.257 262.93C231.294 263.591 231.736 264.435 232.471 264.509C238.357 265.353 243.728 260.653 242.588 254.521C242.367 253.309 241.889 251.951 240.528 251.694C239.387 251.473 238.247 252.134 237.769 253.162C236.555 255.77 237.99 259.625 239.093 262.012C239.719 263.371 241.742 262.893 242.11 261.608C242.846 259.148 243.066 256.614 242.625 254.08C242.294 252.171 241.705 249.674 239.314 249.601C233.98 249.49 236.187 258.23 237.107 260.984C237.585 262.379 240.013 262.71 240.307 260.984C240.749 258.156 240.712 255.329 239.976 252.538C239.535 250.886 238.652 247.654 236.261 248.499C234.348 249.197 233.759 251.951 233.759 253.75C233.759 256.394 234.715 259.001 235.819 261.314C236.592 262.967 238.762 261.939 238.909 260.47C239.24 257.385 238.983 254.264 238.1 251.29C237.475 249.197 236.334 244.974 233.538 245.084C230.816 245.158 230.669 248.646 230.669 250.629C230.669 253.823 231.478 256.908 232.876 259.809C233.649 261.424 235.819 260.433 235.966 258.964C236.261 256.357 236.003 253.713 235.194 251.216C234.605 249.38 233.649 246.736 231.441 246.479C229.013 246.222 228.167 249.013 227.615 250.812C226.806 253.456 226.549 256.247 226.659 259.038C226.769 261.167 230.043 261.167 229.97 259.038C229.896 257.569 229.859 256.1 229.786 254.631C228.756 254.925 227.726 255.182 226.696 255.476C228.02 258.377 230.043 260.727 232.545 262.636C233.428 263.297 234.715 262.563 234.973 261.645C236.371 256.871 236.187 251.804 234.421 247.14C233.796 245.525 231.037 245.598 231.184 247.581C231.478 251.987 231.772 256.431 232.03 260.837C233.06 260.543 234.09 260.286 235.12 259.992C233.207 256.431 234.495 251.694 231.883 248.536C231.037 247.508 229.455 248.169 229.124 249.27C227.836 253.199 229.087 257.312 228.204 261.278C229.197 261.131 230.227 261.021 231.221 260.874C230.338 258.928 229.492 256.981 228.609 254.998C228.057 253.75 225.813 254.044 225.592 255.402C225.187 257.973 225.371 261.571 227.615 263.334C228.645 264.142 230.007 264.215 231.294 264.362C233.023 264.546 234.789 264.619 236.555 264.509C238.247 264.399 239.902 264.142 241.558 263.775C242.662 263.518 244.133 263.334 244.906 262.453C245.899 261.388 245.715 259.662 245.825 258.303C245.936 256.688 246.12 255.109 246.156 253.493C246.193 250.849 245.126 248.536 242.404 247.875C241.3 247.618 240.16 247.765 239.02 247.581C237.254 247.324 237.07 245.818 236.113 244.57C234.899 242.954 232.287 241.926 230.632 243.505C229.565 244.533 229.786 245.855 229.823 247.177C229.859 248.352 229.271 251.326 227.395 250.519C225.151 250.005 223.458 252.869 225.408 253.677Z" fill="#6CA3E0"/>
<path d="M127.92 271.963C130.495 274.313 132.923 276.847 135.02 279.637C136.418 281.473 137.853 285.145 140.354 285.659C141.826 285.953 143.003 285.182 144.107 284.301C145.615 283.089 147.087 281.841 148.595 280.592C150.103 279.344 151.575 278.132 153.083 276.883C154.15 276.002 155.364 275.194 155.437 273.689C155.511 272.257 154.591 271.192 153.745 270.127C152.568 268.621 151.354 267.116 150.177 265.61C149 264.105 147.786 262.599 146.608 261.094C145.725 259.992 144.916 258.523 143.445 258.193C142.12 257.899 140.906 258.67 139.803 259.258C138.331 260.029 136.896 260.91 135.535 261.828C132.85 263.664 130.348 265.757 128.067 268.107C127.368 268.842 127.442 270.2 128.398 270.714C130.79 271.926 133.07 273.358 135.131 275.121C136.05 275.892 136.933 276.736 137.779 277.618C138.184 278.058 138.589 278.499 138.993 278.976C139.251 279.27 139.508 279.601 139.766 279.894C140.097 280.776 140.575 280.739 141.164 279.711C141.311 280.702 141.421 281.73 141.568 282.722C145.394 280.408 148.889 277.544 151.906 274.24C153.157 272.844 151.575 270.714 149.882 271.632C147.307 273.028 144.659 274.166 141.9 275.047C142.525 275.855 143.15 276.663 143.776 277.471C145.321 275.011 147.234 272.881 149.478 271.008C148.595 270.347 147.749 269.686 146.866 268.989C144.843 272 142.304 274.643 139.398 276.81C140.207 277.434 141.017 278.058 141.826 278.683C142.782 275.231 144.732 272.183 147.638 270.017C146.866 269.246 146.13 268.511 145.358 267.74C143.702 271.008 141.385 273.799 138.405 275.929C138.957 275.929 139.508 275.929 140.06 275.929C140.171 276.039 140.244 276.186 140.354 276.296C140.428 276.002 140.502 275.708 140.575 275.451C140.686 275.084 140.796 274.717 140.943 274.313C141.274 273.322 141.716 272.404 142.194 271.486C143.114 269.76 144.254 268.254 145.615 266.859C144.732 266.198 143.886 265.537 143.003 264.839C141.053 268.842 138.368 272.33 134.983 275.268C135.94 275.672 136.86 276.039 137.816 276.443C138.221 272.11 140.097 268.144 143.15 265.023C142.267 264.362 141.421 263.701 140.538 263.003C139.03 265.941 136.823 268.254 133.953 269.907C134.799 270.384 135.609 270.861 136.455 271.339C136.418 270.017 136.602 268.732 137.227 267.557C137.485 267.042 137.816 266.565 138.184 266.161C138.773 265.463 139.876 265.28 138.846 264.619C138.368 264.031 138.11 264.068 138.074 264.803C137.89 265.17 137.743 265.537 137.559 265.904C137.264 266.455 136.97 266.969 136.676 267.483C136.345 267.997 136.013 268.511 135.646 268.989C135.351 269.356 135.094 269.723 134.763 270.09C134.248 270.384 134.211 270.604 134.652 270.714C134.91 271.045 135.167 271.375 135.425 271.706C135.057 270.531 136.271 268.328 136.823 267.336C137.154 266.785 139.067 263.627 139.913 263.811C140.318 263.885 140.869 265.941 141.017 266.308C141.311 267.116 141.568 267.96 141.752 268.805C141.936 269.65 142.157 270.531 142.157 271.375C142.157 272.367 142.157 272.404 141.348 271.706C139.03 269.723 138.773 264.692 142.194 263.554C143.923 262.967 144.438 265.17 144.843 266.418C145.431 268.217 145.983 270.053 146.572 271.889C147.491 271.339 148.411 270.825 149.331 270.274C147.271 268.254 146.167 265.684 146.093 262.783C145.394 263.297 144.695 263.848 143.996 264.362C147.859 265.831 148.485 270.678 149 274.203C149.294 276.296 152.494 275.415 152.2 273.322C151.464 268.328 150.103 263.113 144.879 261.167C143.886 260.8 142.746 261.755 142.782 262.746C142.856 266.492 144.328 269.907 146.976 272.55C148.117 273.689 150.25 272.55 149.735 270.935C149.073 268.842 148.485 266.749 147.749 264.692C147.234 263.224 146.572 261.681 145.21 260.8C142.267 258.854 138.809 261.057 137.301 263.738C135.572 266.859 136.013 270.751 138.368 273.395C140.318 275.561 144.107 276.736 145.174 273.101C146.13 269.87 144.475 265.096 142.856 262.306C140.649 258.56 137.007 261.388 135.131 263.811C134.137 265.096 133.365 266.492 132.813 267.997C132.298 269.393 131.452 271.669 132.482 273.028C134.91 276.186 138.405 270.825 139.472 269.062C140.391 267.593 141.716 265.574 141.495 263.738C141.274 262.012 139.655 261.204 138.11 261.865C134.726 263.334 132.997 267.85 133.144 271.265C133.181 272.514 134.505 273.322 135.646 272.697C138.957 270.788 141.642 267.997 143.408 264.619C144.254 263.003 142.157 261.241 140.796 262.599C137.117 266.345 134.983 271.118 134.505 276.333C134.358 277.875 136.345 278.352 137.338 277.508C140.906 274.423 143.812 270.641 145.873 266.418C146.645 264.803 144.659 263.003 143.261 264.399C141.127 266.602 139.435 269.135 138.258 271.963C137.485 273.836 135.866 277.397 138.368 278.683C138.883 278.94 139.545 279.013 140.023 278.683C143.481 276.222 146.277 273.101 148.19 269.319C148.852 267.997 147.381 265.978 145.909 267.042C142.304 269.76 139.766 273.358 138.589 277.691C138.221 278.976 139.803 280.445 141.017 279.564C144.438 277.067 147.307 274.093 149.699 270.568C150.802 268.915 148.448 267.446 147.087 268.548C144.622 270.568 142.562 272.954 140.869 275.672C140.097 276.883 141.385 278.536 142.746 278.095C145.799 277.14 148.742 275.892 151.538 274.35C150.876 273.468 150.214 272.624 149.515 271.743C146.682 274.864 143.445 277.544 139.839 279.711C138.515 280.519 138.957 282.208 140.244 282.722C141.789 283.346 143.445 282.098 143.518 280.519C143.629 278.609 141.642 276.81 140.465 275.561C137.485 272.33 133.917 269.686 130.017 267.74C130.127 268.621 130.238 269.466 130.348 270.347C132.077 268.585 133.917 266.969 135.866 265.5C137.632 264.178 139.839 262.416 141.936 261.718C142.562 261.498 142.525 261.388 143.04 261.902C143.555 262.416 143.96 263.04 144.364 263.591C145.174 264.619 146.02 265.684 146.829 266.712C147.712 267.85 148.632 268.989 149.515 270.127C149.993 270.751 151.943 272.624 151.795 273.322C151.648 274.129 149.625 275.304 148.963 275.855C147.933 276.7 146.903 277.544 145.873 278.389C144.843 279.233 143.813 280.078 142.782 280.923C142.341 281.29 141.385 282.355 140.612 281.951C140.318 281.804 139.803 280.702 139.619 280.445C136.933 276.406 133.733 272.771 130.164 269.503C128.693 268.217 126.338 270.531 127.92 271.963Z" fill="#6CA3E0"/>
<path d="M129.686 269.025C131.011 271.596 139.325 285.916 142.856 281.033C144.107 279.307 141.238 277.654 139.987 279.38C139.913 279.454 139.876 279.564 139.803 279.637C140.281 279.38 140.759 279.086 141.238 278.829C140.612 278.903 139.104 276.81 138.699 276.332C137.89 275.414 137.081 274.496 136.345 273.505C134.91 271.559 133.659 269.503 132.556 267.373C131.599 265.463 128.73 267.152 129.686 269.025Z" fill="#6CA3E0"/>
<path d="M195.499 223.676C191.563 220.812 190.055 214.937 192.519 210.641C193.733 208.511 195.941 206.785 198.516 207.079C201.164 207.373 202.452 209.282 202.636 211.779C202.746 213.174 202.599 214.606 202.562 216.002C202.489 217.324 202.636 218.866 202.268 220.151C201.9 221.436 200.576 222.134 200.061 223.419C199.619 224.521 200.098 225.475 198.81 225.843C198.442 225.953 197.927 225.916 197.596 226.026C197.007 225.953 197.007 226.063 197.596 226.32C197.449 225.843 197.339 225.402 197.191 224.925C196.713 223.309 196.235 221.657 195.757 220.041C194.947 217.324 193.255 213.321 195.389 210.788C194.506 210.898 193.623 211.008 192.703 211.118C193.991 212.073 193.513 215.965 193.586 217.287C193.697 220.041 193.807 222.795 193.917 225.549C194.028 228.45 198.038 228.34 198.332 225.549C198.626 222.648 198.221 219.784 198.111 216.846C198.038 215.598 198.038 214.313 198.221 213.064C198.295 212.44 198.442 211.852 198.626 211.265C198.736 210.861 198.92 210.457 199.104 210.09C199.509 209.466 199.509 209.392 199.141 209.87C198.589 209.943 198.001 210.016 197.449 210.09C197.339 210.053 197.854 211.412 197.927 211.706C198.074 212.256 198.148 212.844 198.221 213.395C198.369 214.937 198.369 216.516 198.295 218.058C198.258 218.756 198.185 219.453 198.074 220.188C198.001 220.628 197.927 221.069 197.854 221.51C197.486 222.391 198.111 222.611 199.73 222.061C199.877 221.767 199.472 220.592 199.435 220.261C199.362 219.49 199.325 218.682 199.362 217.911C199.399 216.406 199.583 214.974 199.95 213.505C200.061 213.064 200.171 212.66 200.318 212.22C200.87 211.265 200.282 210.934 198.553 211.265C198.405 211.522 198.994 212.917 199.068 213.174C199.399 214.717 199.472 216.295 199.325 217.874C199.252 218.609 199.178 220.996 198.332 221.179C195.573 221.84 196.75 226.1 199.509 225.439C202.415 224.741 203.225 221.803 203.592 219.196C203.997 216.112 203.85 212.624 202.673 209.723C201.532 206.932 198.185 206.895 196.713 209.466C195.242 212.036 194.911 215.671 194.947 218.572C194.984 220.922 195.021 224.961 197.854 225.806C200.981 226.724 202.084 223.346 202.415 220.996C202.857 217.911 202.967 214.753 202.452 211.669C202.084 209.392 200.613 205.022 197.486 205.867C194.469 206.638 193.881 211.889 193.733 214.386C193.549 218.131 194.359 221.84 193.991 225.586C195.462 225.586 196.934 225.586 198.405 225.586C198.258 221.877 198.111 218.168 197.927 214.459C197.817 211.632 197.375 209.135 194.984 207.373C194.285 206.822 192.887 207.042 192.299 207.703C189.871 210.567 189.687 214.092 190.533 217.617C190.974 219.527 191.6 221.436 192.151 223.309C192.667 225.072 192.961 227.201 193.917 228.744C195.426 231.241 199.619 230.653 201.79 229.368C202.93 228.707 203.703 227.605 203.997 226.32C204.181 225.512 204.108 225.182 204.623 224.521C205.211 223.786 205.8 223.199 206.168 222.318C206.793 220.922 206.83 219.38 206.903 217.911C206.977 216.075 207.161 214.202 207.124 212.33C207.051 209.062 205.984 205.977 203.151 204.104C197.706 200.506 190.864 203.847 188.289 209.282C185.272 215.708 187.7 223.309 193.329 227.422C195.573 229.147 197.78 225.329 195.499 223.676Z" fill="#0A65CC"/>
<path d="M195.279 233.407C196.015 234.582 197.339 235.023 198.663 234.619C199.252 234.435 199.767 234.105 200.209 233.701C200.319 233.591 200.466 233.48 200.576 233.334C200.687 233.223 200.65 233.223 200.503 233.37C201.202 233.003 200.65 232.893 198.884 232.966C199.767 233.701 201.165 233.884 202.011 232.966C202.784 232.158 202.931 230.653 202.011 229.845C200.944 228.927 199.583 228.78 198.332 229.515C197.928 229.735 197.523 230.065 197.229 230.433C196.971 230.763 197.56 230.212 197.155 230.506C197.229 230.469 197.302 230.433 197.376 230.433C196.603 230.616 197.155 230.873 199.031 231.204C198.406 230.212 197.045 229.735 196.015 230.396C195.095 231.02 194.617 232.379 195.279 233.407Z" fill="#0A65CC"/>
<path d="M196.309 236.308C196.309 236.418 196.309 236.528 196.309 236.638C196.309 237.189 196.567 237.813 196.971 238.18C197.339 238.548 197.965 238.841 198.516 238.841C199.105 238.805 199.694 238.621 200.061 238.18C200.466 237.74 200.724 237.226 200.724 236.638C200.724 236.528 200.724 236.418 200.724 236.308C200.724 235.757 200.466 235.133 200.061 234.765C199.694 234.398 199.068 234.104 198.516 234.104C197.928 234.141 197.339 234.325 196.971 234.765C196.567 235.169 196.309 235.683 196.309 236.308Z" fill="#0A65CC"/>
<path d="M174.457 195.696C184.132 184.202 193.403 172.378 202.305 160.224C201.459 160.555 200.65 160.885 199.804 161.252C200.65 161.509 201.275 161.95 201.901 162.574C201.79 161.693 201.68 160.812 201.57 159.894C193.072 172.011 184.61 184.092 176.112 196.21C177.106 195.953 178.136 195.696 179.129 195.402C178.393 194.961 177.658 194.521 176.922 194.043C177.179 195.035 177.437 196.063 177.731 197.054C181.594 192.024 185.125 186.809 188.326 181.338C189.761 178.878 185.935 176.675 184.5 179.098C181.3 184.533 177.768 189.784 173.905 194.814C173.169 195.769 173.795 197.275 174.715 197.825C175.45 198.266 176.186 198.707 176.922 199.184C177.989 199.845 179.276 199.368 179.938 198.376C188.436 186.259 196.898 174.178 205.396 162.06C205.947 161.252 205.69 160.041 205.064 159.38C203.924 158.205 202.563 157.397 201.018 156.919C200.025 156.589 199.105 157.14 198.516 157.947C189.871 169.771 180.821 181.301 171.367 192.501C169.527 194.741 172.654 197.899 174.457 195.696Z" fill="#0A65CC"/>
<path d="M149.699 320.543C149.699 320.433 149.699 320.323 149.699 320.213C149.699 317.385 145.284 317.385 145.284 320.213C145.284 320.323 145.284 320.433 145.284 320.543C145.284 323.407 149.699 323.407 149.699 320.543C149.699 320.433 149.699 320.323 149.699 320.213C149.699 317.385 145.284 317.385 145.284 320.213C145.284 320.323 145.284 320.433 145.284 320.543C145.284 323.407 149.699 323.407 149.699 320.543Z" fill="#0A65CC"/>
<path d="M114.456 289.809C117.289 289.809 117.289 285.402 114.456 285.402C111.623 285.402 111.623 289.809 114.456 289.809Z" fill="#0A65CC"/>
<path d="M124.425 291.755C126.559 291.755 126.559 288.45 124.425 288.45C122.292 288.45 122.292 291.755 124.425 291.755Z" fill="#6CA3E0"/>
<path d="M259.621 207.813C261.754 207.813 261.754 204.508 259.621 204.508C257.487 204.508 257.487 207.813 259.621 207.813Z" fill="#6CA3E0"/>
<path d="M280.37 257.752C280.37 257.972 280.37 258.156 280.37 258.376C280.37 258.817 280.554 259.258 280.848 259.551C281.142 259.845 281.62 260.065 282.025 260.029C282.467 259.992 282.908 259.882 283.202 259.551C283.497 259.221 283.681 258.817 283.681 258.376C283.681 258.156 283.681 257.972 283.681 257.752C283.681 257.311 283.497 256.871 283.202 256.577C282.908 256.283 282.43 256.063 282.025 256.1C281.584 256.136 281.142 256.247 280.848 256.577C280.554 256.908 280.37 257.311 280.37 257.752Z" fill="#6CA3E0"/>
<path d="M243.987 416.529C241.301 413.592 240.418 409.479 241.743 405.881C243.104 402.245 246.709 399.124 251.013 399.271C254.802 399.418 257.856 402.062 258.959 404.559C259.769 406.468 259.585 408.231 259.585 408.231C259.474 409.222 259.143 409.993 258.886 410.471C257.01 408.304 254.14 407.313 251.455 407.937C248.144 408.708 246.709 411.536 246.562 411.793C245.054 414.877 246.378 417.741 246.562 418.072C245.679 417.521 244.833 417.007 243.987 416.529Z" fill="#6CA3E0"/>
<path d="M309.836 357.337C306.82 359.577 303.178 363.175 301.853 368.316C300.897 372.135 301.817 374.375 301.485 379.295C301.265 382.71 300.382 387.521 297.549 393.249C291.111 391.927 280.296 390.642 267.53 393.58C259.915 395.342 253.808 398.096 249.32 400.593C250.019 401.034 250.976 401.548 252.19 401.878C259.069 403.751 266.316 397.986 266.537 398.39C266.758 398.757 258.444 402.649 258.885 406.028C259.179 408.304 263.263 409.516 267.493 410.801C271.062 411.866 274.446 412.894 278.971 412.38C285.188 411.682 289.493 408.561 291.406 406.946C293.245 407.864 295.967 409.075 299.389 410.14C305.679 412.05 314.361 414.693 320.137 411.095C323.889 408.745 325.03 403.237 327.163 392.294C329.738 378.965 330.952 372.282 327.494 366.811C322.97 359.503 313.662 357.814 309.836 357.337Z" fill="white" stroke="#18191C" stroke-width="1.17937" stroke-miterlimit="10"/>
<path d="M296.372 393.653C300.823 395.305 304.502 398.316 307.04 402.319C307.408 402.906 308.364 402.356 307.997 401.768C305.311 397.509 301.375 394.351 296.666 392.588C295.967 392.331 295.709 393.396 296.372 393.653Z" fill="#18191C"/>
<path d="M272.68 400.887C268.303 401.621 264.771 404.559 263.189 408.672C262.932 409.332 263.999 409.626 264.256 408.965C265.691 405.22 269.002 402.613 272.975 401.952C273.674 401.842 273.379 400.777 272.68 400.887Z" fill="#18191C"/>
<path d="M277.831 404.559C276.249 405.513 274.777 406.615 273.379 407.79C272.46 408.598 271.43 409.553 271.65 410.875C272.202 414.363 276.396 413.592 278.677 412.711C279.339 412.454 279.045 411.389 278.383 411.646C277.389 412.013 276.286 412.49 275.219 412.454C273.49 412.38 271.945 410.728 273.416 409.222C274.814 407.753 276.654 406.578 278.383 405.477C278.971 405.11 278.419 404.155 277.831 404.559Z" fill="#18191C"/>
<path d="M344.159 312.135C342.283 312.759 339.892 313.714 337.206 315.036C336.434 315.403 334.484 316.394 332.387 317.753C329.15 319.809 326.795 321.976 324.11 324.693C320.689 328.181 317.231 331.67 313.11 337.251C309.652 341.951 304.281 349.332 300.419 360.164C298.874 364.461 297.991 368.169 297.476 370.813C299.499 369.638 301.338 369.051 302.773 368.72C311.05 366.847 318.996 371.034 326.538 374.963C329.371 376.431 331.615 377.863 333.16 378.855C333.969 374.889 334.778 370.887 335.588 366.921C336.287 363.579 336.949 360.201 337.648 356.86C338.715 355.942 340.149 354.583 341.731 352.82C344.711 349.442 350.634 342.722 351.443 333.396C352.437 322.637 346.036 314.411 344.159 312.135Z" fill="#0A65CC"/>
<path d="M341.989 312.575C338.052 313.163 334.668 315.256 331.615 317.679C328.083 320.433 324.772 323.481 321.682 326.713C315.649 332.955 310.388 339.932 306.047 347.459C305.679 348.084 306.636 348.634 307.004 348.01C311.197 340.74 316.201 333.983 322.013 327.924C324.846 324.987 327.825 322.196 330.952 319.589C334.3 316.835 337.869 314.264 342.283 313.604C342.982 313.53 342.688 312.465 341.989 312.575Z" fill="#18191C"/>
<path d="M340.444 352.673C337.721 355.427 334.925 358.108 332.093 360.715C331.578 361.192 332.35 361.964 332.865 361.486C335.698 358.879 338.494 356.199 341.216 353.445C341.694 352.93 340.922 352.159 340.444 352.673Z" fill="#18191C"/>
<path d="M336.618 357.704C335.33 364.754 334.08 371.841 332.792 378.891C333.05 378.781 333.344 378.671 333.601 378.561C327.752 374.485 321.241 371.437 314.325 369.528C308.917 368.059 302.038 366.627 297.402 370.703C296.887 371.18 297.66 371.951 298.175 371.474C302.884 367.288 310.499 369.491 315.833 371.107C321.977 372.98 327.752 375.844 333.013 379.479C333.307 379.663 333.749 379.479 333.822 379.148C335.11 372.098 336.361 365.011 337.648 357.961C337.795 357.3 336.728 357.006 336.618 357.704Z" fill="#18191C"/>
<path d="M306.305 346.945C302.479 354.4 297.696 362.074 297.365 370.703C297.328 371.401 298.432 371.401 298.469 370.703C298.8 362.294 303.509 354.804 307.261 347.496C307.555 346.872 306.599 346.321 306.305 346.945Z" fill="#18191C"/>
<path opacity="0.4" d="M339.009 333.065C332.424 346.137 328.856 357.153 326.759 364.864C323.705 376.174 322.639 385.097 314.729 392.515C313.442 393.726 309.652 397.215 303.693 399.381C291.185 403.898 281.914 397.802 274.042 404.265C273.159 404.999 270.547 406.835 270.841 408.928C271.136 410.911 273.858 411.939 274.263 412.123C277.5 413.371 280.848 412.086 285.041 410.397C289.787 408.488 289.272 407.827 291.406 407.459C295.894 406.688 297.954 409.516 303.914 411.389C306.452 412.16 313.957 414.51 319.364 411.389C323.338 409.075 324.552 404.742 326.465 397.435C327.789 392.478 329.15 385.244 328.929 376.137C330.401 377.276 331.872 378.414 333.344 379.552C335.257 364.057 337.133 348.561 339.009 333.065Z" fill="#042852"/>
<path opacity="0.38" d="M336.802 348.965C331.762 358.475 329.297 366.517 327.973 371.952C325.324 382.857 326.17 387.998 322.565 395.673C318.702 404.008 312.448 409.296 308.107 412.307C310.535 412.858 316.385 413.886 320.615 410.581C323.595 408.268 324.368 404.963 325.508 399.565C326.943 392.919 328.451 385.354 329.923 377.056C331.063 377.79 332.203 378.524 333.344 379.259C334.521 369.198 335.661 359.063 336.802 348.965Z" fill="#042852"/>
<path d="M343.387 311.4C342.063 320.029 340.775 328.732 339.524 337.471C334.668 371.364 330.475 404.669 326.943 437.423C327.016 438.524 327.311 440.287 328.414 442.05C329.518 443.849 330.99 444.767 331.688 445.244C338.384 450.018 341.732 452.441 345.116 454.057C361.339 461.878 379.292 460.96 379.292 460.96C383.081 460.777 390.623 460.299 398.716 457.068C399.157 456.884 402.247 455.452 408.428 452.551C414.02 449.944 415.013 449.43 416.374 448.182C419.611 445.207 420.862 441.535 421.708 438.928C423.511 433.384 423.327 428.684 423.253 427.545C423.253 427.545 422.885 418.402 422.628 365.011C422.591 354.142 423.658 338.169 429.397 318.45C423.437 315.549 417.846 312.869 411.113 309.638C406.478 307.398 402.174 305.341 395.994 304.607C394.228 304.387 392.646 304.313 390.291 304.35C380.727 304.423 372.854 305.892 369.47 306.48C362.885 307.544 353.982 309.16 343.387 311.4Z" fill="#0A65CC"/>
<path d="M343.093 312.685C354.497 310.262 366.012 308.315 377.563 306.883C378.078 306.81 378.372 306.149 377.857 305.855C377.71 305.782 377.563 305.672 377.379 305.598C376.754 305.231 376.202 306.186 376.827 306.553C376.975 306.626 377.122 306.737 377.306 306.81C377.416 306.479 377.49 306.112 377.6 305.782C365.938 307.214 354.313 309.16 342.835 311.62C342.1 311.767 342.394 312.832 343.093 312.685Z" fill="#18191C"/>
<path d="M339.672 331.927C335.625 360.715 331.946 389.54 328.635 418.439C328.231 422.074 327.826 425.673 327.421 429.308C327.09 432.466 326.17 436.028 326.575 439.186C326.943 441.976 329.15 443.739 331.174 445.428C333.381 447.264 335.699 448.99 338.127 450.569C348.096 456.995 359.758 460.85 371.603 461.548C385.693 462.356 399.856 458.757 411.886 451.413C412.475 451.046 411.923 450.092 411.334 450.459C390.292 463.274 363.51 463.788 342.063 451.634C339.598 450.238 337.207 448.696 334.926 447.007C332.608 445.281 328.856 442.931 327.9 440.104C327.458 438.745 327.679 437.24 327.826 435.807C328.01 434.008 328.231 432.172 328.415 430.373C328.782 426.995 329.15 423.616 329.555 420.238C331.137 406.468 332.755 392.735 334.521 379.002C336.508 363.396 338.568 347.79 340.775 332.221C340.849 331.523 339.782 331.229 339.672 331.927Z" fill="#18191C"/>
<path d="M393.86 304.276C400.334 305.562 406.404 308.536 412.437 311.07C418.36 313.567 424.945 315.586 430.169 319.405C430.758 319.809 431.31 318.854 430.721 318.45C425.608 314.705 419.17 312.722 413.394 310.299C407.14 307.691 400.849 304.57 394.154 303.212C393.455 303.065 393.161 304.13 393.86 304.276Z" fill="#18191C"/>
<path d="M422.702 366.554C422.113 382.013 421.524 397.472 422.076 412.894C422.334 420.385 423.511 428.17 422.113 435.624C420.936 441.756 417.478 447.888 411.334 450.165C410.672 450.422 410.966 451.487 411.629 451.23C421.414 447.595 423.952 436.468 423.805 427.142C423.732 420.826 423.18 414.51 423.033 408.157C422.886 401.695 422.959 395.269 423.07 388.806C423.217 381.389 423.511 373.971 423.769 366.554C423.842 365.819 422.738 365.819 422.702 366.554Z" fill="#18191C"/>
<path opacity="0.38" d="M417.404 357.851C415.454 364.534 412.401 371.841 407.692 379.112C386.613 411.462 348.022 417.925 338.163 419.283C351.407 420.679 364.797 422.184 378.335 423.8C393.271 425.562 408.023 427.435 422.554 429.344C421.635 412.931 421.635 399.418 421.855 389.76C422.26 369.785 423.695 353.628 421.083 353.114C420.457 352.967 419.354 353.665 417.404 357.851Z" fill="#042852"/>
<path opacity="0.42" d="M421.929 369.858C420.605 373.751 418.582 379.259 415.602 385.611C411.408 394.608 407.398 403.274 402.211 408.598C387.717 423.47 359.39 417.044 359.317 418.072C359.28 418.659 369.654 420.312 422.04 425.122C422.04 406.688 422.003 388.292 421.929 369.858Z" fill="#042852"/>
<path d="M487.926 521.255C352.915 503.262 217.867 485.269 82.8555 467.313C122.697 444.253 162.575 421.193 202.416 398.133C324.22 410.104 446.062 422.111 567.866 434.082C541.195 463.127 514.561 492.209 487.926 521.255Z" fill="white" stroke="#18191C" stroke-width="1.17937" stroke-miterlimit="10"/>
<path d="M81.5312 470.435C216.874 488.354 352.216 506.273 487.522 524.193" stroke="#E4E5E8" stroke-width="6.29" stroke-miterlimit="10"/>
<path d="M484.946 525C513.31 495.073 541.673 465.11 570 435.183" stroke="#E4E5E8" stroke-width="6.29" stroke-miterlimit="10"/>
<path d="M439.771 446.346C425.975 457.105 412.474 468.195 399.194 479.578C398.642 480.055 399.451 480.826 399.966 480.349C413.247 468.966 426.785 457.876 440.543 447.117C441.095 446.713 440.323 445.905 439.771 446.346Z" fill="#18191C"/>
<path d="M399.709 480.165C404.05 481.083 408.464 481.083 412.916 481.12C417.919 481.193 422.627 481.707 427.41 483.103C436.386 485.71 445.178 487.436 454.559 487.215C455.258 487.215 455.258 486.114 454.559 486.114C449.74 486.224 444.921 485.93 440.138 485.159C435.65 484.425 431.383 483.103 427.005 481.891C422.811 480.716 418.618 480.165 414.24 480.092C409.457 479.981 404.675 480.128 399.966 479.137C399.304 478.953 399.01 480.018 399.709 480.165Z" fill="#18191C"/>
<path d="M440.58 447.154C455.148 448.329 469.606 450.642 483.806 454.094C484.505 454.278 484.799 453.213 484.1 453.029C469.827 449.541 455.259 447.227 440.58 446.052C439.881 445.979 439.881 447.081 440.58 447.154Z" fill="#18191C"/>
<path d="M455.405 486.554C465.669 476.42 475.528 465.844 484.872 454.828C485.314 454.277 484.541 453.506 484.1 454.057C474.756 465.036 464.897 475.612 454.633 485.783C454.118 486.297 454.89 487.068 455.405 486.554Z" fill="#18191C"/>
<path d="M412.548 475.796C425.203 474.253 438.005 475.832 449.888 480.459C450.55 480.716 450.844 479.651 450.182 479.394C438.226 474.767 425.277 473.152 412.548 474.694C411.849 474.767 411.849 475.869 412.548 475.796Z" fill="#18191C"/>
<path d="M431.714 471.756C439.513 472.344 447.202 473.556 454.817 475.355C455.516 475.538 455.81 474.474 455.111 474.29C447.423 472.454 439.624 471.242 431.714 470.655C430.979 470.618 431.015 471.72 431.714 471.756Z" fill="#18191C"/>
<path d="M425.866 463.641C437.601 463.898 449.226 465.587 460.557 468.708C461.255 468.892 461.55 467.827 460.851 467.644C449.447 464.522 437.711 462.797 425.866 462.54C425.167 462.54 425.167 463.641 425.866 463.641Z" fill="#18191C"/>
<path d="M440.433 460.263C446.761 461.144 453.015 462.246 459.269 463.568C459.968 463.714 460.262 462.65 459.563 462.503C453.309 461.181 447.055 460.079 440.728 459.198C440.029 459.088 439.734 460.153 440.433 460.263Z" fill="#18191C"/>
<path d="M432.377 484.902C430.133 488.354 427.889 491.805 425.608 495.22C425.387 495.551 425.681 496.102 426.086 496.065C444.222 494.009 462.616 495.184 480.348 499.517C481.047 499.7 481.341 498.635 480.642 498.452C462.8 494.082 444.333 492.907 426.086 494.927C426.233 495.22 426.417 495.477 426.564 495.771C428.808 492.319 431.052 488.868 433.333 485.453C433.738 484.865 432.781 484.315 432.377 484.902Z" fill="#18191C"/>
<path d="M476.853 464.045C483.953 463.898 491.016 463.751 498.116 463.605C497.932 463.384 497.748 463.127 497.601 462.907C492.708 474.547 487.779 486.151 482.886 497.791C482.628 498.452 483.695 498.745 483.953 498.085C488.846 486.444 493.775 474.841 498.668 463.201C498.815 462.87 498.447 462.503 498.153 462.503C491.053 462.65 483.99 462.797 476.89 462.944C476.154 462.98 476.154 464.082 476.853 464.045Z" fill="#18191C"/>
<path d="M449.961 491.401C451.837 491.034 453.713 490.961 455.626 491.107C456.325 491.144 456.325 490.043 455.626 490.006C453.603 489.859 451.653 489.969 449.667 490.336C448.968 490.446 449.262 491.511 449.961 491.401Z" fill="#18191C"/>
<path d="M460.409 491.512C466.185 491.732 471.96 492.283 477.699 493.164C478.398 493.274 478.693 492.209 477.994 492.099C472.181 491.181 466.295 490.63 460.409 490.41C459.71 490.373 459.71 491.475 460.409 491.512Z" fill="#18191C"/>
<path d="M460.74 484.608C462.101 484.608 463.462 484.608 464.86 484.608C465.559 484.608 465.559 483.507 464.86 483.507C463.499 483.507 462.138 483.507 460.74 483.507C460.041 483.507 460.041 484.608 460.74 484.608Z" fill="#18191C"/>
<path d="M469.312 484.498C473.837 484.608 478.325 485.049 482.813 485.783C483.512 485.893 483.806 484.829 483.107 484.718C478.546 483.984 473.947 483.543 469.312 483.396C468.613 483.396 468.613 484.498 469.312 484.498Z" fill="#18191C"/>
<path d="M468.613 478.219C473.763 478.293 478.877 478.586 483.99 479.174C484.689 479.247 484.689 478.146 483.99 478.072C478.877 477.485 473.763 477.154 468.613 477.118C467.914 477.081 467.914 478.183 468.613 478.219Z" fill="#18191C"/>
<path d="M434.069 490.41C436.534 490.483 438.962 490.19 441.39 489.602C442.089 489.419 441.795 488.354 441.096 488.537C438.778 489.125 436.46 489.382 434.069 489.308C433.37 489.308 433.37 490.41 434.069 490.41Z" fill="#18191C"/>
<path d="M451.543 432.87C450.587 434.045 449.483 436.432 450.624 437.864C451.323 438.745 452.647 438.561 453.64 438.598C455.443 438.672 457.246 438.782 459.048 438.855C466.369 439.186 473.653 439.553 480.974 439.883C481.673 439.92 481.673 438.819 480.974 438.782C475.566 438.525 470.195 438.268 464.787 438.011C462.138 437.901 459.526 437.754 456.878 437.643C455.59 437.57 454.229 437.643 452.941 437.46C451.985 437.313 451.286 437.276 451.323 436.101C451.36 435.183 451.764 434.339 452.316 433.641C452.757 433.09 451.985 432.282 451.543 432.87Z" fill="#18191C"/>
<path d="M452.536 434.265C458.717 434.486 464.897 434.669 471.078 434.889C474.094 435 477.148 435.073 480.164 435.183C482.886 435.293 485.756 435.477 487.706 437.57C488.184 438.084 488.956 437.313 488.478 436.799C487.007 435.183 485.02 434.559 482.886 434.265C479.723 433.861 476.449 433.935 473.248 433.825C466.332 433.604 459.416 433.347 452.536 433.127C451.837 433.164 451.837 434.265 452.536 434.265Z" fill="#18191C"/>
<path d="M480.606 439.92C483.438 439.957 486.124 439.075 488.404 437.386C488.956 436.982 488.404 436.028 487.853 436.432C485.719 438.011 483.291 438.855 480.606 438.818C479.87 438.818 479.87 439.92 480.606 439.92Z" fill="#18191C"/>
<path d="M481.489 434.265C479.943 435.293 479.244 437.203 479.759 438.965C479.943 439.626 481.01 439.369 480.826 438.672C480.458 437.386 480.9 435.954 482.04 435.183C482.629 434.816 482.077 433.861 481.489 434.265Z" fill="#18191C"/>
<path d="M267.015 231.534C273.269 232.526 282.025 235.426 279.707 243.578C278.64 247.324 275.697 250.004 272.791 252.391C269.922 254.704 267.089 256.981 264.477 259.588C261.975 262.085 259.695 264.802 257.598 267.667C255.942 269.943 253.661 272.771 253.919 275.818C254.14 278.536 256.531 279.197 258.701 280.041C261.828 281.253 265.139 283.383 266.353 286.651C267.972 291.057 264.587 294.949 261.387 297.557C258.517 299.907 255.39 301.926 253.441 305.158C253.073 305.782 254.029 306.333 254.397 305.708C257.892 299.833 266.795 297.483 267.788 290.066C268.193 287.165 266.868 284.448 264.771 282.501C263.741 281.51 262.527 280.702 261.276 280.004C259.768 279.197 258.002 278.866 256.531 278.022C252.411 275.635 257.561 269.539 259.327 267.226C261.865 263.884 264.698 260.8 267.825 258.009C272.828 253.456 280.664 249.417 281.215 241.816C281.767 234.105 273.49 231.497 267.383 230.543C266.611 230.359 266.316 231.424 267.015 231.534Z" fill="#18191C"/>
<path d="M158.344 230.359C151.796 238.401 144.402 245.708 136.235 252.098C128.215 258.377 119.496 263.371 110.63 268.328C102.463 272.918 94.2229 277.618 87.2332 283.971C84.1063 286.798 80.6482 290.103 78.8824 294.032C77.5213 297.08 77.4109 301.045 80.9057 302.624C82.8187 303.469 85.0628 303.175 87.0493 302.845C90.2866 302.294 93.4872 301.596 96.6877 300.972C99.9618 300.348 103.236 299.687 106.51 299.062C109.637 298.475 115.486 297.924 115.633 302.588C115.67 303.285 116.774 303.285 116.737 302.588C116.59 298.255 111.955 297.153 108.386 297.594C102.942 298.291 97.5706 299.65 92.1628 300.678C88.3737 301.413 78.257 304.46 78.9928 297.226C79.471 292.563 83.8856 288.524 87.0861 285.476C93.8551 279.087 101.985 274.35 110.078 269.797C118.576 265.023 127.038 260.323 134.837 254.448C143.813 247.655 151.943 239.796 159.043 231.094C159.558 230.58 158.786 229.809 158.344 230.359Z" fill="#18191C"/>
<path d="M99.8147 305.782C96.5774 309.675 92.7883 314.265 93.3769 319.662C93.8183 323.812 96.7981 327.704 101.286 327.41C104.156 327.227 106.694 325.648 109.196 324.436C112.323 322.93 115.523 321.572 118.834 320.58C122.108 319.626 125.529 319.001 128.951 318.928C131.673 318.891 134.763 319.075 137.044 320.764C140.502 323.261 138.368 327.006 136.529 329.797C134.726 332.478 133.144 335.232 131.747 338.133C130.496 340.776 129.392 343.53 128.509 346.321C127.847 348.414 127.075 350.874 128.693 352.71C132.151 356.713 137.412 353.298 140.318 350.581C144.769 346.431 149.589 342.98 155.144 340.409C161.361 337.545 168.13 335.856 174.935 335.489C178.394 335.305 181.888 335.415 185.31 335.966C188.363 336.443 191.784 337.398 193.219 340.446C193.513 341.07 194.47 340.519 194.175 339.895C192.189 335.599 186.744 334.938 182.551 334.534C177.069 334.02 171.477 334.424 166.106 335.599C160.735 336.774 155.475 338.757 150.692 341.474C148.338 342.796 146.131 344.301 143.997 345.954C141.606 347.827 139.582 350.14 137.154 351.866C134.984 353.408 130.349 354.546 129.061 351.168C128.436 349.516 129.245 347.606 129.76 345.991C130.312 344.301 130.937 342.649 131.636 341.033C132.85 338.169 134.285 335.415 135.904 332.771C137.338 330.458 139.472 328.108 139.987 325.354C140.833 320.874 136.419 318.561 132.629 318.01C127.001 317.239 121.041 318.524 115.744 320.434C112.507 321.609 109.453 323.114 106.363 324.62C103.162 326.199 99.1893 327.41 96.467 324.289C91.3903 318.487 96.7246 311.18 100.587 306.517C101.066 306.003 100.293 305.232 99.8147 305.782Z" fill="#18191C"/>
<path d="M120.968 324.363C124.426 323.261 127.479 326.639 127.553 329.907C127.626 333.359 125.345 336.333 123.065 338.683C122.55 339.197 123.359 339.969 123.837 339.454C126.633 336.59 129.539 332.514 128.436 328.255C127.553 324.913 124.168 322.196 120.673 323.298C120.011 323.518 120.269 324.583 120.968 324.363Z" fill="#18191C"/>
<path d="M249.468 229.625C251.16 231.02 253.146 231.314 255.243 231.755C257.524 232.232 259.511 233.113 261.093 234.876C264.072 238.217 264.992 243.248 262.785 247.214C262.454 247.838 263.373 248.389 263.741 247.765C265.875 243.946 265.434 239.245 263.079 235.647C261.976 233.958 260.43 232.489 258.554 231.608C255.906 230.359 252.595 230.763 250.24 228.854C249.688 228.413 248.916 229.184 249.468 229.625Z" fill="#18191C"/>
<path d="M114.566 307.838C116.663 313.457 123.322 312.025 127.405 309.821C130.017 308.426 132.445 306.627 134.579 304.57C136.86 302.331 138.699 299.687 140.943 297.41C143.408 294.913 146.866 292.636 150.581 293.261C153.929 293.811 155.952 296.786 158.086 299.062C160.882 302 166.511 305.011 169.343 300.348C169.711 299.723 168.755 299.173 168.387 299.797C166.584 302.734 162.758 301.706 160.551 299.944C158.564 298.328 157.13 296.125 155.18 294.472C151.501 291.315 146.903 291.608 143.003 294.252C138.699 297.153 136.087 301.963 132.151 305.305C129.833 307.251 127.148 309.05 124.278 310.115C121.225 311.253 116.957 311.18 115.633 307.581C115.375 306.884 114.309 307.178 114.566 307.838Z" fill="#18191C"/>
<path d="M123.763 273.615C128.472 277.691 132.408 282.538 135.462 287.973C135.793 288.597 136.749 288.046 136.418 287.422C133.328 281.877 129.355 276.994 124.536 272.844C124.021 272.367 123.211 273.175 123.763 273.615Z" fill="#18191C"/>
<path d="M124.72 272.44C128.693 267.189 134.322 261.828 140.575 259.441C141.569 259.074 142.709 258.744 143.776 259.001C145.1 259.295 145.873 260.433 146.645 261.461C147.749 262.893 148.816 264.362 149.883 265.831C151.98 268.768 153.966 271.816 155.842 274.901C156.21 275.488 157.167 274.937 156.799 274.35C154.444 270.494 151.906 266.712 149.221 263.077C147.197 260.323 145.358 257.091 141.422 258.009C138 258.817 134.726 261.314 132.041 263.407C128.914 265.867 126.155 268.732 123.727 271.889C123.359 272.44 124.315 272.991 124.72 272.44Z" fill="#18191C"/>
<path d="M136.124 288.45C143.629 285.292 150.324 280.666 155.879 274.717C156.357 274.203 155.585 273.432 155.107 273.946C149.699 279.748 143.151 284.338 135.83 287.385C135.168 287.679 135.462 288.744 136.124 288.45Z" fill="#18191C"/>
<path d="M128.988 273.175C133.182 269.393 137.854 266.271 143.004 263.885C143.629 263.591 143.078 262.636 142.452 262.93C137.228 265.353 132.483 268.548 128.215 272.404C127.663 272.844 128.473 273.652 128.988 273.175Z" fill="#18191C"/>
<path d="M132.041 275.011C134.322 273.358 136.602 271.743 138.883 270.09C139.472 269.686 138.92 268.732 138.331 269.136C136.051 270.788 133.77 272.404 131.489 274.056C130.9 274.497 131.452 275.452 132.041 275.011Z" fill="#18191C"/>
<path d="M133.586 277.544C137.412 274.864 141.238 272.146 145.063 269.466C145.652 269.062 145.1 268.107 144.512 268.511C140.686 271.192 136.86 273.909 133.034 276.59C132.445 276.993 132.997 277.948 133.586 277.544Z" fill="#18191C"/>
<path d="M136.823 280.556C139.178 278.646 141.642 276.957 144.218 275.378C144.843 275.011 144.254 274.056 143.666 274.423C140.98 276.002 138.442 277.802 136.051 279.748C135.499 280.225 136.271 280.996 136.823 280.556Z" fill="#18191C"/>
<path d="M138.516 283.566C141.974 280.739 145.726 278.389 149.736 276.443C150.361 276.149 149.809 275.194 149.184 275.488C145.064 277.471 141.275 279.931 137.743 282.795C137.191 283.236 137.964 284.007 138.516 283.566Z" fill="#18191C"/>
<path d="M214.151 306.627C215.954 304.35 213.82 301.559 211.429 300.899C208.56 300.091 205.286 301.449 203.851 304.02C202.232 306.884 202.894 310.629 204.991 313.053C207.677 316.211 214.667 318.12 213.416 323.334C213.232 324.032 214.299 324.326 214.483 323.628C215.917 317.68 208.744 315.844 205.764 312.282C203.667 309.748 203.299 305.489 205.948 303.175C207.015 302.257 208.523 301.706 209.921 301.78C211.576 301.853 215.145 303.653 213.416 305.892C212.937 306.407 213.71 307.178 214.151 306.627Z" fill="#18191C"/>
<path d="M214.74 306.406C215.034 304.423 215.954 302.661 217.426 301.302C218.125 300.641 218.934 300.127 219.817 299.723C220.258 299.539 220.737 299.356 221.215 299.246C222.245 299.025 222.466 299.025 223.312 299.76C224.158 300.531 224.195 300.751 224.158 301.816C224.158 302.22 224.084 302.624 224.047 302.991C223.937 303.726 223.716 304.423 223.459 305.121C222.907 306.626 222.061 308.022 221.178 309.344C218.014 314.044 213.489 318.34 213.232 324.325C213.195 325.023 214.299 325.023 214.335 324.325C214.667 316.284 223.017 311.657 224.93 304.166C225.298 302.734 225.593 300.898 224.967 299.503C224.195 297.887 222.502 297.814 220.957 298.181C217.205 299.062 214.335 302.33 213.747 306.112C213.563 306.81 214.63 307.14 214.74 306.406Z" fill="#18191C"/>
<path d="M220.994 250.959C220.331 254.521 220.184 258.266 220.994 261.828C221.766 265.243 224.231 264.509 227.064 264.692C233.501 265.133 242.036 269.209 246.267 261.938C246.635 261.314 245.678 260.763 245.31 261.388C241.705 267.593 234.127 264.545 228.609 263.774C227.321 263.591 226.107 263.591 224.82 263.627C222.833 263.627 222.244 262.673 221.95 260.91C221.398 257.716 221.472 254.484 222.097 251.29C222.171 250.555 221.104 250.261 220.994 250.959Z" fill="#18191C"/>
<path d="M221.141 252.722C223.128 251.51 224.857 251.29 227.101 250.923C228.057 250.776 228.683 250.408 228.83 249.417C229.235 246.92 228.168 244.35 230.154 242.22C232.362 239.833 235.341 241.963 236.261 244.386C236.703 245.525 236.96 246.847 237.843 247.765C238.983 248.976 240.492 248.646 241.926 249.05C247.481 250.555 245.826 257.716 244.649 261.571C244.428 262.232 245.495 262.526 245.716 261.865C246.966 257.863 248.217 252.869 244.869 249.527C244.318 248.976 243.692 248.536 242.993 248.242C241.926 247.801 240.749 248.022 239.646 247.618C237.512 246.847 237.549 243.689 236.261 242.073C233.944 239.209 229.97 239.613 228.389 242.954C227.947 243.872 227.8 244.827 227.726 245.818C227.653 246.993 228.205 249.344 226.954 249.821C226.071 250.188 224.71 250.041 223.753 250.335C222.613 250.665 221.583 251.18 220.59 251.767C220.001 252.171 220.553 253.126 221.141 252.722Z" fill="#18191C"/>
<path d="M225.519 251.583C224.967 255.916 225.703 260.212 227.616 264.142C227.91 264.766 228.866 264.215 228.572 263.591C226.733 259.845 226.071 255.733 226.622 251.583C226.733 250.886 225.629 250.886 225.519 251.583Z" fill="#18191C"/>
<path d="M190.129 227.164C185.383 224.961 182.551 219.857 182.808 214.643C183.102 209.319 186.708 204.472 191.306 201.938C194.176 200.359 197.229 199.882 200.135 201.571C202.784 203.076 204.66 205.683 205.727 208.474C207.64 213.541 206.941 219.306 203.924 223.823C203.52 224.41 204.476 224.961 204.881 224.374C209.884 216.92 208.743 203.957 199.583 200.102C194.985 198.156 190.092 200.763 186.781 203.994C183.544 207.152 181.447 211.669 181.704 216.222C181.999 221.253 184.942 225.989 189.54 228.156C190.202 228.413 190.754 227.458 190.129 227.164Z" fill="#18191C"/>
<path d="M189.614 228.487C188.657 229.515 188.915 231.094 190.092 231.865C192.005 233.113 195.316 231.975 197.339 231.498C199.51 230.984 202.784 230.506 204.255 228.597C205.138 227.422 205.138 225.806 203.998 224.815C203.446 224.374 202.674 225.145 203.225 225.586C204.918 227.018 202.71 228.67 201.386 229.184C200.282 229.588 199.142 229.919 198.002 230.213C196.935 230.47 195.868 230.727 194.801 230.91C194.139 231.02 193.403 231.204 192.741 231.241C191.784 231.277 189.025 230.763 190.423 229.295C190.901 228.744 190.129 227.973 189.614 228.487Z" fill="#18191C"/>
<path d="M191.747 232.416C191.895 234.582 193.734 235.978 195.868 236.124C198.811 236.308 201.018 233.848 202.747 231.828C203.188 231.277 202.416 230.506 201.974 231.057C200.76 232.489 199.399 234.142 197.597 234.766C195.757 235.427 193.035 234.692 192.888 232.416C192.814 231.718 191.711 231.718 191.747 232.416Z" fill="#18191C"/>
<path d="M194.727 236.528C194.433 238.034 195.353 239.613 196.935 239.87C198.553 240.127 199.951 238.695 199.988 237.153C199.988 236.455 198.884 236.455 198.884 237.153C198.884 238.071 198.001 238.989 197.008 238.768C196.162 238.585 195.61 237.63 195.794 236.822C195.941 236.124 194.875 235.831 194.727 236.528Z" fill="#18191C"/>
<path d="M187.186 213.284C190.349 215.304 192.777 218.131 194.323 221.546C194.617 222.207 195.573 221.62 195.279 220.996C193.66 217.397 191.085 214.459 187.738 212.33C187.112 211.962 186.56 212.917 187.186 213.284Z" fill="#18191C"/>
<path d="M192.851 210.604C193.55 215.891 194.286 221.179 194.985 226.43C195.095 227.128 196.126 226.834 196.052 226.136C195.353 220.849 194.617 215.561 193.918 210.31C193.808 209.612 192.778 209.906 192.851 210.604Z" fill="#18191C"/>
<path d="M194.764 219.6C195.721 216.149 197.928 213.358 201.055 211.596C201.68 211.265 201.129 210.31 200.503 210.641C197.156 212.513 194.728 215.598 193.697 219.307C193.514 220.004 194.58 220.298 194.764 219.6Z" fill="#18191C"/>
<path d="M154.665 314.007C156.137 317.202 157.719 320.36 159.485 323.408C160.368 324.913 161.545 327.777 163.715 326.859C164.377 326.566 163.789 325.648 163.163 325.905C161.765 326.492 159.264 320.801 158.786 319.883C157.645 317.79 156.615 315.623 155.622 313.457C155.328 312.796 154.371 313.346 154.665 314.007Z" fill="#18191C"/>
<path d="M155.658 314.668C158.785 312.245 161.839 309.748 165.003 307.398C167.762 305.305 170.741 303.285 174.126 302.33C177.768 301.265 180.932 302.11 183.36 305.048C185.42 307.544 186.671 310.629 188.068 313.493C188.363 314.117 189.319 313.567 189.025 312.942C186.339 307.434 183.176 299.65 175.634 300.861C171.882 301.449 168.497 303.505 165.444 305.708C161.839 308.352 158.381 311.18 154.849 313.934C154.334 314.338 155.107 315.109 155.658 314.668Z" fill="#18191C"/>
<path d="M162.207 326.969C171.808 324.876 180.711 320.397 188.179 314.007C188.731 313.53 187.921 312.759 187.406 313.236C180.086 319.515 171.33 323.848 161.912 325.941C161.213 326.088 161.508 327.153 162.207 326.969Z" fill="#18191C"/>
<path d="M171.146 316.615C169.196 316.137 167.578 314.228 168.056 312.135C168.498 310.115 170.962 308.646 172.912 309.601C176.848 311.584 174.163 317.239 170.116 315.807C169.454 315.587 169.16 316.651 169.822 316.872C172.103 317.68 174.862 316.578 175.745 314.265C176.628 311.988 175.193 309.234 172.949 308.426C170.521 307.545 167.762 309.197 167.063 311.621C166.253 314.338 168.24 317.019 170.852 317.68C171.551 317.863 171.845 316.798 171.146 316.615Z" fill="#18191C"/>
<path d="M190.754 288.744C190.312 284.815 190.275 280.335 194.948 279.27C197.302 278.719 199.252 278.022 200.613 275.855C202.011 273.652 201.827 271.596 201.275 269.172C200.87 267.263 200.907 265.61 202.452 264.178C203.703 263.04 205.358 262.599 206.977 263.113C207.639 263.334 207.934 262.269 207.271 262.049C204.917 261.314 202.452 262.232 200.944 264.178C198.626 267.226 201.349 270.31 200.429 273.579C199.877 275.525 198.369 277.177 196.419 277.838C194.837 278.352 193.145 278.315 191.821 279.417C189.025 281.694 189.282 285.549 189.65 288.744C189.724 289.442 190.827 289.442 190.754 288.744Z" fill="#18191C"/>
<path d="M181.778 268.181C180.638 267.263 181.557 265.207 183.029 265.978C183.617 266.271 183.985 266.969 183.654 267.593C183.323 268.218 182.477 268.548 181.852 268.218C181.226 267.887 180.674 268.842 181.3 269.172C182.44 269.723 183.838 269.319 184.537 268.291C185.273 267.189 184.795 265.794 183.728 265.133C182.661 264.472 181.226 264.656 180.527 265.757C179.902 266.786 180.049 268.218 181.005 268.989C181.557 269.393 182.33 268.622 181.778 268.181Z" fill="#18191C"/>
<path d="M232.103 211.265C231.441 210.2 231.036 208.842 231.441 207.63C231.772 206.602 232.802 205.977 233.869 206.088C235.046 206.198 235.672 207.299 235.046 208.328C234.495 209.282 233.354 209.76 232.287 209.613C231.588 209.539 231.588 210.641 232.287 210.714C233.869 210.898 235.598 209.943 236.187 208.438C236.739 207.079 236.04 205.574 234.642 205.133C233.317 204.692 231.699 205.206 230.889 206.345C229.675 207.997 230.154 210.237 231.147 211.889C231.515 212.403 232.471 211.853 232.103 211.265Z" fill="#18191C"/>
<path d="M172.765 256.284C174.751 259.882 178.798 261.902 182.881 261.314C187.885 260.58 190.57 256.761 192.557 252.501C194.874 247.581 198.075 243.542 203.188 241.375C207.824 239.429 213.82 240.421 217.646 236.785C219.117 235.39 220.111 233.444 219.78 231.388C219.522 229.809 218.566 228.487 218.934 226.834C219.375 225.035 220.773 223.713 222.539 223.346C223.238 223.199 222.943 222.134 222.244 222.281C220.111 222.758 218.382 224.374 217.867 226.54C217.572 227.716 217.793 228.78 218.161 229.919C218.75 231.755 218.97 233.26 217.756 234.949C215.623 237.924 211.87 238.328 208.523 238.805C205.543 239.246 202.747 240.053 200.172 241.596C197.891 242.954 195.868 244.79 194.286 246.92C192.557 249.27 191.6 252.024 190.202 254.558C188.436 257.679 185.53 260.066 181.815 260.286C178.43 260.47 175.266 258.67 173.611 255.696C173.39 255.109 172.434 255.659 172.765 256.284Z" fill="#18191C"/>
<path d="M165.076 196.063C164.451 200.653 163.826 205.243 163.237 209.833C163.127 210.531 164.193 210.824 164.304 210.127C164.929 205.537 165.555 200.947 166.143 196.357C166.254 195.659 165.187 195.365 165.076 196.063Z" fill="#18191C"/>
<path d="M164.892 210.457C169.233 207.336 173.574 204.215 177.915 201.093C178.504 200.689 177.952 199.735 177.363 200.139C173.022 203.26 168.681 206.381 164.341 209.502C163.752 209.906 164.304 210.861 164.892 210.457Z" fill="#18191C"/>
<path d="M165.775 196.687C176.664 182.109 187.369 167.422 197.891 152.587C198.295 151.999 197.339 151.448 196.934 152.036C186.413 166.871 175.708 181.595 164.818 196.137C164.414 196.687 165.37 197.238 165.775 196.687Z" fill="#18191C"/>
<path d="M179.276 199.441C189.282 186.222 198.994 172.783 208.412 159.123C208.817 158.535 207.86 157.984 207.456 158.572C198.038 172.195 188.326 185.671 178.32 198.89C177.878 199.441 178.835 199.992 179.276 199.441Z" fill="#18191C"/>
<path d="M197.56 152.586C199.289 149.355 201.313 145.426 205.139 144.361C208.928 143.296 212.643 146.161 212.717 150.09C212.717 150.787 213.821 150.787 213.821 150.09C213.784 146.307 210.583 142.892 206.684 143.003C201.57 143.149 198.701 148.033 196.604 152.036C196.273 152.66 197.229 153.211 197.56 152.586Z" fill="#18191C"/>
<path d="M208.633 159.012C210.509 156.222 212.201 153.357 213.71 150.346C214.041 149.722 213.084 149.171 212.753 149.796C211.245 152.807 209.553 155.671 207.676 158.462C207.309 159.012 208.265 159.6 208.633 159.012Z" fill="#18191C"/>
<path d="M196.75 154.386C200.981 151.522 206.462 153.064 208.559 157.691C208.853 158.352 209.81 157.764 209.516 157.14C207.161 151.962 200.87 150.237 196.198 153.431C195.61 153.835 196.162 154.79 196.75 154.386Z" fill="#18191C"/>
<path d="M194.801 157.69C198.48 155.34 203.888 156.883 205.58 160.995C205.837 161.656 206.904 161.362 206.647 160.701C204.66 156.001 198.59 153.982 194.249 156.736C193.661 157.14 194.212 158.094 194.801 157.69Z" fill="#18191C"/>
<path d="M165.113 197.201C167.136 198.413 169.16 195.769 171.257 195.806C172.838 195.843 174.31 196.577 175.23 197.899C175.892 198.854 176.223 199.772 177.29 200.322C177.915 200.653 178.467 199.698 177.842 199.368C176.591 198.707 176.223 197.091 175.156 196.173C174.42 195.549 173.537 195.108 172.581 194.888C171.624 194.668 170.631 194.668 169.711 194.888C168.534 195.182 166.805 196.907 165.702 196.247C165.076 195.879 164.524 196.834 165.113 197.201Z" fill="#18191C"/>
<path d="M171.146 195.218C178.577 185.451 186.045 175.647 193.476 165.879C193.918 165.328 192.961 164.777 192.52 165.328C185.089 175.096 177.621 184.9 170.19 194.667C169.785 195.218 170.741 195.769 171.146 195.218Z" fill="#18191C"/>
<path d="M182.808 187.874C189.724 177.74 197.045 167.935 204.807 158.425C205.248 157.874 204.476 157.103 204.034 157.654C196.235 167.238 188.804 177.115 181.851 187.324C181.483 187.911 182.44 188.462 182.808 187.874Z" fill="#18191C"/>
<path d="M164.672 206.969C165.371 206.381 166.401 206.969 166.217 207.887C166.07 208.585 167.136 208.878 167.284 208.181C167.467 207.299 167.136 206.381 166.327 205.904C165.518 205.427 164.561 205.61 163.862 206.198C163.347 206.638 164.12 207.41 164.672 206.969Z" fill="#18191C"/>
<path d="M165.003 206.822C164.819 207.593 164.488 208.291 164.009 208.915C164.304 209.098 164.635 209.282 164.929 209.466C165.15 208.658 165.591 207.96 166.217 207.373C165.922 207.336 165.628 207.299 165.334 207.262C165.518 207.666 165.37 208.107 165.003 208.327C165.26 208.437 165.554 208.548 165.812 208.658C165.665 208.144 165.775 207.666 166.106 207.262C165.885 207.299 165.665 207.336 165.444 207.336C165.738 207.483 165.702 207.887 165.407 208.034C165.628 208.07 165.849 208.107 166.069 208.107C165.849 207.923 165.665 207.703 165.554 207.446C165.518 207.336 165.481 207.226 165.444 207.079C165.444 207.005 165.37 206.234 165.26 206.455C164.929 207.079 165.885 207.63 166.217 207.005C166.732 206.051 165.407 205.206 164.671 205.977C163.899 206.822 164.598 208.217 165.334 208.841C165.518 209.025 165.775 209.062 165.996 208.915C167.026 208.401 167.026 206.858 166.033 206.308C165.849 206.198 165.518 206.198 165.37 206.381C164.782 207.079 164.561 207.96 164.782 208.841C164.855 209.172 165.297 209.355 165.591 209.172C166.511 208.621 166.768 207.519 166.327 206.601C166.18 206.271 165.702 206.271 165.444 206.491C164.671 207.189 164.156 208.07 163.899 209.062C163.752 209.539 164.451 210.053 164.819 209.612C165.407 208.841 165.849 207.997 166.106 207.042C166.253 206.418 165.187 206.124 165.003 206.822Z" fill="#18191C"/>
<path d="M162.943 212.587C162.207 216.553 160.551 220.188 157.939 223.272C157.498 223.823 158.271 224.594 158.712 224.043C161.434 220.775 163.237 217.03 164.009 212.844C164.12 212.183 163.053 211.889 162.943 212.587Z" fill="#18191C"/>
<path d="M155.254 217.177C151.428 220.004 147.382 222.538 143.188 224.778C142.562 225.108 143.114 226.063 143.74 225.733C147.933 223.493 151.98 220.959 155.806 218.132C156.395 217.691 155.843 216.736 155.254 217.177Z" fill="#18191C"/>
<path d="M245.053 301.119C244.06 299.577 242.404 300.384 241.521 301.559C240.565 302.771 239.792 304.203 238.983 305.525C238.357 306.553 237.622 307.692 237.511 308.977C237.291 311.547 239.24 311.841 241.19 312.465C243.508 313.236 243.361 315.954 241.889 317.459C240.712 318.671 238.983 319.185 237.438 319.699C236.776 319.919 237.07 320.984 237.732 320.764C240.822 319.773 245.421 317.533 243.839 313.42C243.581 312.759 243.14 312.208 242.551 311.841C242.22 311.657 241.852 311.511 241.484 311.4C240.418 311.07 240.123 311.18 239.277 310.262C238.578 309.858 238.357 309.307 238.688 308.573C238.836 308.059 239.02 307.582 239.277 307.141C239.571 306.553 239.939 306.003 240.307 305.452C240.675 304.901 243.25 300.274 244.096 301.633C244.464 302.257 245.421 301.706 245.053 301.119Z" fill="#18191C"/>
<path d="M181.888 344.338C184.904 343.567 187.48 346.541 186.155 349.405C185.861 350.03 186.817 350.617 187.112 349.956C188.841 346.248 185.64 342.245 181.63 343.273C180.895 343.457 181.189 344.522 181.888 344.338Z" fill="#18191C"/>
<path d="M238.247 283.86C236.849 282.832 236.849 280.152 238.983 280.078C239.755 280.042 240.565 280.482 240.528 281.327C240.528 282.024 239.903 282.869 239.13 282.759C238.431 282.649 238.137 283.714 238.836 283.824C240.197 284.044 241.374 283.053 241.595 281.731C241.852 280.372 240.859 279.197 239.535 279.013C238.174 278.793 236.776 279.564 236.297 280.886C235.819 282.355 236.481 283.934 237.695 284.815C238.247 285.219 238.799 284.264 238.247 283.86Z" fill="#18191C"/>
<path d="M84.4743 279.307C84.9893 277.251 86.7552 276.076 88.4106 274.937C90.1396 273.726 91.9054 272.477 93.6713 271.265C97.1661 268.805 100.661 266.382 104.156 263.921C104.744 263.518 104.193 262.563 103.604 262.967C99.5205 265.831 95.4371 268.658 91.3536 271.522C88.5945 273.432 84.2904 275.452 83.4075 279.013C83.2235 279.711 84.2904 280.005 84.4743 279.307Z" fill="#18191C"/>
<path d="M331.284 472.344C286.587 464.706 241.89 457.068 197.192 449.431C224.342 438.488 251.491 427.582 278.641 416.64C321.094 426.077 363.547 435.514 405.963 444.951C381.095 454.094 356.189 463.2 331.284 472.344Z" fill="white" stroke="#18191C" stroke-width="1.17937" stroke-miterlimit="10"/>
<path d="M329.445 472.895C329.592 473.335 329.702 473.813 329.849 474.253C330.033 474.841 330.916 474.731 330.916 474.106C330.916 473.739 330.916 473.409 330.916 473.041C330.916 472.344 329.813 472.344 329.813 473.041C329.813 473.482 329.739 473.886 329.555 474.29C329.923 474.29 330.254 474.29 330.622 474.29C330.475 473.813 330.438 473.372 330.548 472.858C330.217 472.895 329.886 472.931 329.555 473.005C329.665 473.115 329.665 473.188 329.592 473.298C329.923 473.335 330.254 473.372 330.585 473.445C330.511 473.188 330.548 472.968 330.695 472.748C330.364 472.638 329.996 472.564 329.665 472.454C329.592 473.041 329.518 473.592 329.445 474.18C329.408 474.474 329.739 474.731 329.996 474.731C330.328 474.731 330.511 474.474 330.548 474.18C330.622 473.592 330.695 473.041 330.769 472.454C330.843 471.903 329.996 471.756 329.739 472.16C329.445 472.638 329.371 473.188 329.518 473.739C329.629 474.216 330.291 474.253 330.511 473.886C330.806 473.445 330.806 472.895 330.475 472.491C330.217 472.16 329.555 472.123 329.481 472.638C329.334 473.298 329.371 473.996 329.555 474.657C329.739 475.208 330.438 475.134 330.622 474.657C330.806 474.143 330.916 473.629 330.916 473.115C330.548 473.115 330.18 473.115 329.813 473.115C329.813 473.482 329.813 473.813 329.813 474.18C330.18 474.143 330.548 474.07 330.879 474.033C330.732 473.592 330.622 473.115 330.475 472.674C330.328 471.903 329.261 472.197 329.445 472.895Z" fill="#18191C"/>
<path d="M330.29 475.538C336.213 472.491 342.688 470.875 349.052 469.076C352.179 468.194 355.269 467.24 358.249 465.991C361.119 464.816 363.878 463.347 366.71 462.025C373.001 459.088 379.807 457.178 386.392 455.012C393.234 452.735 400.04 450.459 406.883 448.219C407.545 447.998 407.25 446.934 406.588 447.154C399.746 449.43 392.94 451.707 386.098 453.947C379.623 456.077 372.964 457.986 366.747 460.814C363.51 462.282 360.346 464.008 357.035 465.293C354.019 466.469 350.928 467.387 347.801 468.268C341.658 470.03 335.441 471.646 329.702 474.584C329.113 474.914 329.665 475.869 330.29 475.538Z" fill="#18191C"/>
<path d="M330.806 475.318C356.226 466.542 381.573 457.656 406.92 448.623C408.906 447.925 408.06 444.73 406.037 445.428C380.727 454.461 355.343 463.347 329.923 472.123C327.936 472.821 328.782 476.016 330.806 475.318Z" fill="#18191C"/>
<path d="M327.936 439.847C332.718 440.324 336.802 443.225 341.511 444.143C342.21 444.29 342.504 443.225 341.805 443.078C337.022 442.123 332.865 439.222 327.936 438.745C327.237 438.708 327.237 439.81 327.936 439.847Z" fill="#18191C"/>
<path d="M341.842 443.629C344.748 442.05 347.471 440.177 349.935 437.974C350.45 437.497 349.678 436.726 349.163 437.203C346.735 439.333 344.123 441.169 341.29 442.674C340.665 443.041 341.217 443.996 341.842 443.629Z" fill="#18191C"/>
<path d="M329.077 437.754C331.395 436.101 333.786 434.522 336.251 433.053C336.876 432.686 336.287 431.732 335.699 432.099C333.234 433.567 330.843 435.11 328.525 436.799C327.936 437.239 328.488 438.194 329.077 437.754Z" fill="#18191C"/>
<path d="M336.434 433.237C340.628 434.816 344.822 436.358 349.052 437.937C349.715 438.194 350.009 437.13 349.347 436.873C345.153 435.294 340.959 433.751 336.729 432.172C336.066 431.952 335.772 433.017 336.434 433.237Z" fill="#18191C"/>
<path d="M324.625 444.033C335.698 447.448 346.624 451.377 357.33 455.82C357.992 456.077 358.286 455.012 357.624 454.755C346.919 450.312 335.993 446.383 324.92 442.968C324.221 442.748 323.926 443.812 324.625 444.033Z" fill="#18191C"/>
<path d="M325.692 452.589C332.571 455.894 339.524 459.015 346.551 462.062C347.213 462.356 347.765 461.402 347.103 461.108C340.076 458.097 333.123 454.939 326.244 451.634C325.619 451.34 325.067 452.295 325.692 452.589Z" fill="#18191C"/>
<path d="M326.685 462.026C330.438 463.935 334.19 465.881 337.942 467.791C338.568 468.121 339.12 467.166 338.494 466.836C334.742 464.927 330.989 462.98 327.237 461.071C326.612 460.74 326.06 461.695 326.685 462.026Z" fill="#18191C"/>
<path d="M328.819 462.356C334.006 457.95 339.451 453.911 345.116 450.165C345.705 449.761 345.153 448.806 344.565 449.21C338.826 452.993 333.307 457.142 328.047 461.585C327.495 462.062 328.267 462.833 328.819 462.356Z" fill="#18191C"/>
<path d="M327.458 454.828C330.401 452.772 333.344 450.716 336.287 448.623C336.876 448.219 336.324 447.264 335.735 447.668C332.792 449.724 329.849 451.781 326.906 453.874C326.354 454.278 326.906 455.232 327.458 454.828Z" fill="#18191C"/>
<path d="M329.297 474.877C283.055 467.019 236.813 459.161 190.57 451.303C186.229 418.512 181.852 385.758 177.511 352.967C227.285 359.65 277.022 366.333 326.796 373.053C327.642 406.982 328.488 440.912 329.297 474.877Z" fill="white" stroke="#18191C" stroke-width="1.17937" stroke-miterlimit="10"/>
<path d="M246.893 418.145C242.883 416.897 240.712 413.519 240.381 409.443C240.05 405.293 240.86 401.291 244.722 399.124C248.144 397.215 252.227 397.766 255.28 400.079C258.334 402.392 261.056 407.129 258.591 410.765C258.187 411.352 259.143 411.903 259.548 411.315C262.197 407.423 259.695 402.282 256.458 399.602C253.11 396.848 248.585 396.003 244.649 397.949C240.087 400.189 238.91 404.743 239.278 409.479C239.646 414.069 242.074 417.852 246.598 419.247C247.261 419.431 247.555 418.366 246.893 418.145Z" fill="#18191C"/>
<path d="M247.923 418.549C246.23 415.758 246.782 411.866 249.504 409.92C252.227 407.974 256.126 408.782 258.186 411.279C258.628 411.829 259.4 411.058 258.959 410.507C256.531 407.607 251.969 406.799 248.806 409.039C245.642 411.315 244.98 415.868 246.966 419.1C247.334 419.687 248.291 419.137 247.923 418.549Z" fill="#18191C"/>
<path d="M251.712 420.092C249.983 418.256 250.24 414.841 252.558 413.519C254.839 412.197 257.929 413.702 258.665 416.126C258.886 416.787 259.952 416.53 259.732 415.832C258.775 412.748 254.913 410.912 252.006 412.601C249.1 414.29 248.732 418.549 250.939 420.899C251.418 421.377 252.19 420.606 251.712 420.092Z" fill="#18191C"/>
<path d="M254.545 422.662C255.979 423.176 257.635 422.331 258.187 420.972C258.775 419.614 258.003 418.145 256.715 417.557C255.428 416.97 253.882 417.3 253.184 418.549C252.521 419.761 252.742 421.413 253.846 422.294C254.398 422.735 255.17 421.964 254.618 421.523C253.147 420.385 254.177 417.704 256.127 418.512C256.973 418.843 257.561 419.724 257.157 420.642C256.752 421.523 255.722 421.964 254.839 421.633C254.177 421.376 253.882 422.441 254.545 422.662Z" fill="#18191C"/>
<path d="M326.796 373.017L330.033 474.18" stroke="#18191C" stroke-width="1.17937" stroke-miterlimit="10"/>
<path d="M327.017 372.943C328.01 406.211 329.003 439.479 329.996 472.748" stroke="#18191C" stroke-width="1.17937" stroke-miterlimit="10"/>
<path opacity="0.08" d="M263.337 366.187C265.728 367.435 286.256 378.598 287.69 398.427C288.5 409.369 283.129 417.668 279.744 422.735C261.497 450.128 225.409 454.975 215.623 456.003C229.86 465.44 279.597 496.542 333.969 494.706C346.073 494.302 364.834 493.458 385.178 482.295C400.445 473.923 410.341 463.164 416.006 456.003C412.511 453.837 409.053 451.707 405.559 449.541C379.881 458.317 354.166 467.093 328.488 475.832C327.164 441.903 325.839 408.011 324.515 374.081C304.098 371.511 283.717 368.867 263.337 366.187Z" fill="#18191C"/>
<path d="M430.132 370.042C428.146 371.511 426.012 373.494 424.062 376.101C416.815 385.832 417.809 397.252 418.324 400.96C411.886 399.638 401.07 398.353 388.305 401.291C380.69 403.053 374.583 405.807 370.095 408.304C370.794 408.745 371.75 409.259 372.964 409.59C379.843 411.462 387.091 405.697 387.311 406.101C387.532 406.468 379.218 410.361 379.66 413.739C379.954 416.016 384.037 417.227 388.268 418.513C391.836 419.577 395.221 420.606 399.746 420.091C405.963 419.394 410.267 416.273 412.18 414.657C414.019 415.575 416.742 416.787 420.163 417.852C426.454 419.761 435.136 422.405 440.911 418.806C444.664 416.456 445.804 410.948 447.938 400.006C450.66 385.979 452.021 378.965 448.269 374.522C443.302 368.61 433.333 369.602 430.132 370.042Z" fill="white" stroke="#18191C" stroke-width="1.17937" stroke-miterlimit="10"/>
<path d="M417.073 401.328C421.524 402.98 425.203 405.991 427.741 409.994C428.109 410.581 429.066 410.03 428.698 409.443C426.012 405.183 422.076 402.025 417.367 400.263C416.705 400.042 416.411 401.107 417.073 401.328Z" fill="#18191C"/>
<path d="M393.419 408.598C389.041 409.333 385.509 412.27 383.927 416.383C383.67 417.044 384.737 417.338 384.994 416.677C386.429 412.931 389.74 410.324 393.713 409.663C394.412 409.553 394.118 408.488 393.419 408.598Z" fill="#18191C"/>
<path d="M384.442 417.08C386.723 419.247 389.886 419.981 392.866 419.026C393.528 418.806 393.234 417.741 392.572 417.962C389.96 418.806 387.201 418.219 385.214 416.309C384.699 415.795 383.927 416.566 384.442 417.08Z" fill="#18191C"/>
<path d="M398.532 412.234C396.95 413.188 395.479 414.29 394.081 415.465C393.161 416.273 392.131 417.228 392.352 418.549C392.903 422.038 397.097 421.267 399.378 420.385C400.04 420.128 399.746 419.064 399.084 419.321C398.09 419.688 396.987 420.165 395.92 420.128C394.191 420.055 392.646 418.403 394.117 416.897C395.515 415.428 397.355 414.253 399.084 413.152C399.709 412.821 399.157 411.866 398.532 412.234Z" fill="#18191C"/>
<path d="M428.293 317.643C429.802 318.818 431.751 320.434 433.812 322.527C434.4 323.114 435.908 324.657 437.417 326.566C439.771 329.504 441.279 332.294 442.935 335.709C445.069 340.079 447.202 344.449 449.336 350.985C451.139 356.493 453.898 365.159 454.229 376.689C454.376 381.242 454.082 385.061 453.787 387.741C452.279 386.016 450.771 384.877 449.52 384.143C442.493 379.847 433.959 381.389 425.902 382.858C422.886 383.408 420.384 384.069 418.655 384.547C419.096 380.508 419.501 376.468 419.943 372.429C420.31 369.051 420.642 365.636 421.009 362.221C420.31 361.009 419.354 359.283 418.471 357.117C416.742 352.968 413.284 344.816 415.271 335.673C417.625 325.171 425.902 319.222 428.293 317.643Z" fill="#0A65CC"/>
<path d="M429.581 319.663C433.259 321.572 435.724 324.877 437.858 328.292C440.065 331.817 442.052 335.452 443.818 339.198C447.423 346.835 450.071 354.914 451.8 363.176C451.948 363.873 453.014 363.58 452.867 362.882C451.102 354.289 448.306 345.954 444.48 338.023C442.604 334.13 440.543 330.348 438.189 326.713C436.092 323.481 433.627 320.47 430.169 318.671C429.507 318.377 428.955 319.332 429.581 319.663Z" fill="#18191C"/>
<path d="M418.103 357.006C419.795 360.458 421.561 363.836 423.4 367.215C423.731 367.839 424.688 367.288 424.357 366.664C422.517 363.286 420.752 359.907 419.059 356.456C418.728 355.795 417.772 356.345 418.103 357.006Z" fill="#18191C"/>
<path d="M420.715 363.322C419.795 370.446 418.875 377.57 417.992 384.693C417.956 385.061 418.397 385.318 418.691 385.207C424.945 383.225 431.457 382.27 438.005 382.49C443.192 382.674 450.072 383.151 452.978 388.219C453.346 388.843 454.265 388.292 453.934 387.668C451.175 382.821 445.142 381.829 440.065 381.499C432.744 380.985 425.387 381.939 418.434 384.143C418.655 384.326 418.912 384.51 419.133 384.657C420.053 377.533 420.972 370.409 421.855 363.286C421.929 362.625 420.825 362.625 420.715 363.322Z" fill="#18191C"/>
<path d="M451.727 362.625C453.014 370.703 455.111 379.259 452.941 387.374C452.757 388.072 453.824 388.366 454.008 387.668C456.215 379.369 454.118 370.63 452.794 362.331C452.683 361.633 451.616 361.927 451.727 362.625Z" fill="#18191C"/>
<path opacity="0.32" d="M425.497 316.284C428.845 322.527 432.193 329.981 435.025 338.536C440.58 355.428 442.052 370.593 442.162 381.939C438.41 382.16 434.657 382.38 430.905 382.6C432.119 391.303 433.37 400.042 434.584 408.745C432.229 407.386 428.624 405.661 423.989 404.632C422.481 404.302 416.926 403.2 411.003 404.192C398.569 406.285 391.064 416.456 389.372 418.88C391.064 419.577 393.234 420.238 395.846 420.385C403.866 420.863 409.715 416.236 411.444 414.767C416.926 417.521 421.708 418.843 425.093 419.504C431.015 420.716 437.932 422.111 441.757 418.439C442.052 418.145 442.714 417.448 444.149 413.886C446.393 408.231 447.57 402.943 449.115 393.359C449.446 391.23 449.924 388.365 450.403 384.95C451.322 385.868 452.279 386.823 453.198 387.741C453.64 386.089 454.192 383.629 454.486 380.618C455.259 372.796 453.75 366.627 452.316 361.597C446.54 341.254 443.082 328.989 431.53 320.103C429.139 318.341 426.932 317.055 425.497 316.284Z" fill="#042852"/>
<path opacity="0.29" d="M444.958 341.438C447.423 353.408 447.754 363.58 447.57 370.924C447.386 377.754 446.687 382.747 445.951 387.778C443.781 402.943 442.677 410.508 438.483 414.033C430.537 420.716 416.374 415.649 412.989 414.363C416.19 416.493 427.704 423.727 438.961 419.724C440.139 419.284 441.426 418.733 442.677 417.925C444.001 415.685 445.767 412.234 446.908 407.717C447.57 405.036 447.754 403.09 448.011 400.814C448.416 397.142 449.115 391.781 450.292 385.061C451.359 385.979 452.463 386.897 453.529 387.815C453.897 385.942 454.376 383.078 454.486 379.553C454.817 371.034 452.941 364.571 450.77 357.19C449.593 353.151 447.754 347.717 444.958 341.438Z" fill="#042852"/>
<path d="M343.829 245.047C344.197 248.976 344.859 254.484 346.331 260.984C347.287 265.206 347.876 267.887 349.127 271.228C351.003 276.259 354.571 285.88 363.878 292.159C366.123 293.701 369.838 295.757 375.062 296.969C375.908 297.043 376.754 297.153 377.6 297.226C377.895 298.768 378.262 301.045 378.63 303.799C379.513 310.886 379.072 313.052 380.911 314.962C383.155 317.275 386.724 317.055 387.496 316.981C393.64 316.578 396.73 310.482 396.877 310.152C395.884 308.352 394.891 306.149 394.081 303.579C392.315 297.887 392.279 292.82 392.573 289.368C395.406 285.292 398.533 282.171 401.696 279.747C402.91 278.829 403.94 277.581 405.743 276.957C408.318 276.075 409.642 276.957 411.555 276.369C414.719 275.378 416.08 271.302 416.669 269.613C418.913 262.93 416.154 256.32 414.388 252.391C412.806 248.793 408.686 239.87 398.643 232.893C388.306 225.696 367.631 217.691 353.946 228.083C351.591 229.882 346.22 234.692 343.829 245.047Z" fill="white"/>
<path d="M345.374 260.176C343.019 259.772 337.06 258.376 333.197 253.272C327.311 245.524 330.475 234.692 333.749 228.964C338.899 219.967 348.28 216.846 360.052 212.917C367.042 210.604 373.7 208.401 382.75 208.768C387.753 208.988 404.713 209.723 414.866 222.317C420.899 229.772 421.561 237.777 422.886 253.566C423.511 260.8 423.033 264.729 421.782 268.474C420.862 271.192 417.883 279.894 409.311 283.383C404.823 285.219 400.666 284.852 398.385 284.484C400.445 281.437 402.505 278.426 404.602 275.378C405.779 275.451 409.973 275.525 413.174 272.624C417.552 268.621 418.324 260.653 415.124 258.523C412.769 256.944 408.097 258.487 404.05 262.122C403.683 259.809 403.094 257.275 402.101 254.668C397.465 242.22 387.386 235.39 382.456 232.562C380.506 235.059 374.326 242.367 363.363 245.267C354.681 247.544 347.471 245.928 344.27 244.974C344.638 250.041 345.006 255.108 345.374 260.176Z" fill="#ADB2BA"/>
<path d="M343.534 246.002C345.042 257.348 346.624 269.135 352.179 279.343C356.741 287.716 364.098 294.876 373.553 297.263C374.252 297.446 374.546 296.382 373.847 296.198C364.503 293.811 357.293 286.614 352.878 278.279C347.618 268.364 346.109 256.981 344.638 246.002C344.527 245.304 343.424 245.304 343.534 246.002Z" fill="#18191C"/>
<path d="M373.553 297.41C380.212 297.41 387.202 293.848 392.425 290.029C397.686 286.173 401.99 281.216 405.08 275.488C405.411 274.864 404.455 274.313 404.124 274.937C401.144 280.519 396.987 285.366 391.874 289.074C386.76 292.82 379.991 296.308 373.553 296.308C372.818 296.308 372.818 297.41 373.553 297.41Z" fill="#18191C"/>
<path d="M392.389 289.148C391.653 296.565 393.088 303.983 396.472 310.629C396.803 311.253 397.76 310.702 397.429 310.078C394.118 303.579 392.793 296.382 393.492 289.148C393.566 288.45 392.462 288.45 392.389 289.148Z" fill="#18191C"/>
<path d="M376.386 297.226C377.6 301.412 378.593 305.671 379.329 309.968C379.807 312.832 379.991 316.063 383.192 317.128C387.974 318.744 395.037 315.88 396.877 311.143C397.134 310.482 396.067 310.188 395.81 310.849C394.78 313.53 392.205 314.998 389.556 315.77C387.349 316.394 384.001 317.055 382.125 315.255C381.021 314.191 380.874 312.501 380.653 311.069C380.396 309.564 380.138 308.058 379.844 306.553C379.182 303.321 378.409 300.09 377.49 296.932C377.269 296.271 376.202 296.565 376.386 297.226Z" fill="#18191C"/>
<path d="M377.968 301.779C384.516 300.935 388.82 295.941 391.984 290.58C392.352 289.956 391.396 289.405 391.028 290.029C388.121 295.023 384.075 299.907 377.968 300.678C377.269 300.788 377.269 301.89 377.968 301.779Z" fill="#18191C"/>
<path d="M377.711 298.034C382.824 297.447 387.423 295.06 390.844 291.204C391.322 290.69 390.55 289.882 390.071 290.433C386.871 294.068 382.53 296.382 377.711 296.933C377.049 297.006 377.012 298.108 377.711 298.034Z" fill="#18191C"/>
<path d="M377.894 297.226C382.014 296.639 385.73 294.95 388.894 292.269C389.445 291.792 388.636 291.02 388.121 291.498C385.105 294.068 381.536 295.647 377.6 296.198C376.901 296.271 377.195 297.336 377.894 297.226Z" fill="#18191C"/>
<path d="M377.674 298.144C377.857 299.026 377.821 300.788 378.924 301.082C379.991 301.376 381.61 300.127 382.456 299.613C385.362 297.851 387.79 295.464 389.703 292.673C390.108 292.086 389.151 291.535 388.747 292.122C387.386 294.142 385.73 295.941 383.78 297.41C382.861 298.108 381.904 298.695 380.911 299.246C380.506 299.466 379.587 300.091 379.182 299.833C378.924 299.687 378.814 298.108 378.777 297.851C378.593 297.153 377.526 297.447 377.674 298.144Z" fill="#18191C"/>
<path d="M378.189 299.172C381.352 297.887 384.332 296.271 387.128 294.325C387.717 293.921 387.165 292.967 386.576 293.371C383.854 295.28 380.984 296.859 377.894 298.107C377.232 298.364 377.526 299.429 378.189 299.172Z" fill="#18191C"/>
<path d="M378.74 300.274C382.272 299.025 385.362 297.079 387.937 294.362C388.416 293.848 387.643 293.077 387.165 293.591C384.7 296.125 381.794 298.034 378.446 299.209C377.784 299.466 378.078 300.531 378.74 300.274Z" fill="#18191C"/>
<path d="M379.329 299.686C381.941 298.548 384.332 297.006 386.392 295.023C386.908 294.546 386.135 293.774 385.62 294.252C383.597 296.161 381.316 297.63 378.777 298.732C378.115 299.025 378.667 299.98 379.329 299.686Z" fill="#18191C"/>
<path d="M349.273 273.909C343.277 271.779 341.29 263.958 341.879 258.303C342.504 252.097 348.096 245.341 354.939 248.242C358.213 249.637 359.427 253.235 360.31 256.43C361.229 259.808 361.634 263.554 360.751 267.005C359.979 270.053 358.102 272.954 355.159 274.276C352.216 275.598 348.722 274.863 346.735 272.33C346.294 271.779 345.521 272.55 345.962 273.101C349.31 277.397 355.601 276.553 358.985 272.77C363.29 267.96 362.848 260.653 361.009 254.888C360.163 252.207 359.059 249.417 356.594 247.874C354.46 246.516 351.738 246.185 349.347 246.809C343.755 248.315 340.849 254.227 340.739 259.625C340.628 265.537 342.946 272.844 349.053 274.974C349.641 275.194 349.936 274.129 349.273 273.909Z" fill="#18191C"/>
<path d="M362.002 262.93C365.607 260.763 369.985 260.543 373.737 262.416C374.362 262.746 374.914 261.791 374.289 261.461C370.169 259.405 365.386 259.588 361.413 261.975C360.861 262.342 361.413 263.297 362.002 262.93Z" fill="#18191C"/>
<path d="M379.586 270.751C375.429 266.748 373.7 260.543 375.319 254.961C377.011 249.16 382.824 244.166 389.078 246.222C395.994 248.499 396.362 258.376 394.559 264.178C393.492 267.593 391.358 271.008 387.827 272.256C384.295 273.505 381.242 271.632 378.409 269.649C377.821 269.245 377.269 270.2 377.857 270.604C380.175 272.256 382.677 273.909 385.62 273.799C388.415 273.688 390.954 272.146 392.683 270.053C396.582 265.353 397.355 258.193 395.736 252.464C394.265 247.25 389.924 243.872 384.369 244.79C379.071 245.634 375.172 250.408 373.995 255.402C372.633 261.167 374.473 267.409 378.74 271.522C379.329 272.036 380.101 271.228 379.586 270.751Z" fill="#18191C"/>
<path d="M352.621 258.67C352.253 260.983 352.658 263.223 353.908 265.206C354.166 265.61 354.754 265.537 354.902 265.059C355.785 262.526 354.534 260.029 353.283 257.862C353.025 257.385 352.253 257.605 352.253 258.156C352.29 260.102 352.694 262.012 353.43 263.811C353.688 264.472 354.754 264.178 354.497 263.517C353.798 261.791 353.393 260.029 353.357 258.156C353.025 258.266 352.658 258.34 352.327 258.45C353.467 260.396 354.644 262.526 353.835 264.802C354.166 264.766 354.497 264.729 354.828 264.655C353.724 262.93 353.32 260.983 353.651 258.964C353.798 258.266 352.731 257.972 352.621 258.67Z" fill="#18191C"/>
<path d="M385.179 257.642C385.179 257.165 385.142 257.055 384.921 256.651C384.664 256.173 383.891 256.394 383.891 256.945C383.928 259.221 384.112 261.681 385.878 263.297C386.245 263.628 386.76 263.371 386.834 262.893C387.128 260.176 386.319 257.642 384.627 255.512C384.259 255.072 383.597 255.549 383.707 256.063C384.149 257.863 384.7 259.625 385.362 261.314C385.62 261.975 386.687 261.681 386.429 261.02C385.73 259.295 385.179 257.569 384.774 255.77C384.48 255.953 384.149 256.137 383.854 256.32C385.363 258.23 385.988 260.506 385.73 262.93C386.061 262.783 386.356 262.673 386.687 262.526C385.105 261.094 385.031 258.927 384.995 256.945C384.664 257.055 384.296 257.128 383.965 257.238C384.001 257.385 384.038 257.532 384.075 257.679C384.075 258.34 385.179 258.34 385.179 257.642Z" fill="#18191C"/>
<path d="M365.68 264.876C364.945 267.079 364.319 269.319 363.915 271.596C363.694 272.807 362.921 275.084 363.473 276.296C364.577 278.756 369.47 277.25 371.162 276.443C371.787 276.149 371.235 275.194 370.61 275.488C369.249 276.149 367.777 276.479 366.269 276.369C365.386 276.296 364.687 276.149 364.503 275.157C364.393 274.607 364.761 273.175 364.871 272.55C365.313 270.017 365.975 267.556 366.784 265.133C366.968 264.509 365.901 264.215 365.68 264.876Z" fill="#18191C"/>
<path d="M371.235 286.063C373.994 285.696 376.386 283.933 377.6 281.4C377.894 280.776 376.937 280.188 376.643 280.849C375.539 283.162 373.479 284.668 370.941 284.998C370.242 285.108 370.573 286.173 371.235 286.063Z" fill="#18191C"/>
<path d="M350.303 255.512C351.002 254.668 352.29 254.521 353.173 255.255C353.725 255.733 354.497 254.925 353.945 254.484C352.658 253.383 350.671 253.456 349.531 254.741C349.053 255.255 349.825 256.026 350.303 255.512Z" fill="#18191C"/>
<path d="M381.867 253.456C383.008 252.464 384.737 252.464 385.877 253.419C386.429 253.86 387.202 253.089 386.65 252.648C385.031 251.253 382.677 251.289 381.058 252.685C380.543 253.162 381.352 253.933 381.867 253.456Z" fill="#18191C"/>
<path d="M396.362 258.523C400.335 257.128 404.418 256.283 408.649 256.063C409.348 256.026 409.348 254.925 408.649 254.961C404.345 255.182 400.151 256.026 396.067 257.458C395.405 257.715 395.663 258.78 396.362 258.523Z" fill="#18191C"/>
<path opacity="0.4" d="M401.843 212.771C404.05 215.598 412.548 227.201 410.966 243.138C410.084 252.024 406.405 258.56 404.087 262.012C405.412 260.984 406.552 260.286 407.398 259.809C409.642 258.56 411.077 257.789 412.916 257.899C413.468 257.936 414.792 258.046 415.749 258.817C418.545 261.167 417.588 269.503 412.622 273.395C409.9 275.525 406.699 275.745 405.08 275.708C402.984 278.683 400.85 281.657 398.753 284.668C400.151 284.888 402.285 285.072 404.749 284.705C405.816 284.558 410.084 283.787 414.13 280.556C418.103 277.361 419.722 273.469 420.789 270.825C423.732 263.481 423.143 257.018 422.113 245.378C421.672 240.2 421.414 237.556 420.384 234.068C419.28 230.286 417.551 224.704 412.622 219.711C409.09 216.039 405.117 213.982 401.843 212.771Z" fill="#042852"/>
<path opacity="0.48" d="M366.306 244.166C369.985 240.898 374.105 236.712 378.078 231.498C380.543 228.266 382.603 225.145 384.295 222.244C383.67 225.549 383.045 228.854 382.456 232.159C381.021 234.215 378.63 237.152 374.915 239.833C371.64 242.146 368.55 243.432 366.306 244.166Z" fill="#042852"/>
<path opacity="0.27" d="M392.462 239.98C395.258 249.27 395.479 257.055 395.221 262.196C395.037 266.014 394.007 286.027 383.449 292.93C382.419 293.591 379.807 295.133 379.917 295.354C380.065 295.611 384.957 293.444 387.643 291.975C391.873 289.699 398.385 285.109 404.418 275.415C405.411 275.525 410.267 275.855 413.762 272.514C417.993 268.511 418.728 260.653 415.381 258.34C412.99 256.688 408.428 258.083 404.418 261.388C404.013 259.699 403.498 257.936 402.799 256.063C400.04 248.793 395.883 243.505 392.462 239.98Z" fill="#042852"/>
<path opacity="0.36" d="M383.596 295.06C384.553 297.997 385.509 300.935 386.466 303.909C387.79 307.949 389.078 312.024 390.365 316.064C391.101 315.917 392.904 315.403 394.485 313.787C396.067 312.171 396.582 310.409 396.766 309.674C395.332 306.847 393.639 302.551 393.051 297.116C392.756 294.289 392.83 291.792 393.051 289.699C389.924 291.498 386.76 293.297 383.596 295.06Z" fill="#042852"/>
<path opacity="0.43" d="M365.239 266.161C363.4 270.09 361.561 273.982 359.721 277.912C362.738 277.838 365.718 277.801 368.734 277.728C366.968 277.177 365.166 276.626 363.4 276.076C363.989 272.771 364.614 269.466 365.239 266.161Z" fill="#042852"/>
<defs>
<filter id="filter0_f_1553_2061" x="73" y="166" width="320" height="320" filterUnits="userSpaceOnUse" color-interpolation-filters="sRGB">
<feFlood flood-opacity="0" result="BackgroundImageFix"/>
<feBlend mode="normal" in="SourceGraphic" in2="BackgroundImageFix" result="shape"/>
<feGaussianBlur stdDeviation="20" result="effect1_foregroundBlur_1553_2061"/>
</filter>
<filter id="filter1_f_1553_2061" x="195" y="67" width="412" height="413" filterUnits="userSpaceOnUse" color-interpolation-filters="sRGB">
<feFlood flood-opacity="0" result="BackgroundImageFix"/>
<feBlend mode="normal" in="SourceGraphic" in2="BackgroundImageFix" result="shape"/>
<feGaussianBlur stdDeviation="20" result="effect1_foregroundBlur_1553_2061"/>
</filter>
<filter id="filter2_f_1553_2061" x="213" y="266" width="325" height="325" filterUnits="userSpaceOnUse" color-interpolation-filters="sRGB">
<feFlood flood-opacity="0" result="BackgroundImageFix"/>
<feBlend mode="normal" in="SourceGraphic" in2="BackgroundImageFix" result="shape"/>
<feGaussianBlur stdDeviation="20" result="effect1_foregroundBlur_1553_2061"/>
</filter>
<filter id="filter3_b_1553_2061" x="-100" y="-100" width="882" height="844" filterUnits="userSpaceOnUse" color-interpolation-filters="sRGB">
<feFlood flood-opacity="0" result="BackgroundImageFix"/>
<feGaussianBlur in="BackgroundImageFix" stdDeviation="50"/>
<feComposite in2="SourceAlpha" operator="in" result="effect1_backgroundBlur_1553_2061"/>
<feBlend mode="normal" in="SourceGraphic" in2="effect1_backgroundBlur_1553_2061" result="shape"/>
</filter>
</defs>
</svg>
