<svg width="423" height="394" viewBox="0 0 423 394" fill="none" xmlns="http://www.w3.org/2000/svg">
<g clip-path="url(#clip0_1879_1516)">
<path d="M284.828 279.312H133.247C120.506 279.312 110.141 268.946 110.141 256.205V104.625C110.141 91.8836 120.506 81.5181 133.247 81.5181H284.828C297.569 81.5181 307.934 91.8836 307.934 104.625V256.205C307.934 268.946 297.569 279.312 284.828 279.312ZM133.247 85.2151C122.528 85.2151 113.838 93.9051 113.838 104.625V256.205C113.838 266.925 122.528 275.615 133.247 275.615H239.426C275.22 275.615 304.237 246.597 304.237 210.803V104.625C304.237 93.9051 295.547 85.2151 284.828 85.2151L133.247 85.2151Z" fill="#F2F2F2"/>
<path d="M149.589 100.978C142.415 100.978 136.579 106.814 136.579 113.988V134.353C136.579 141.527 142.415 147.363 149.589 147.363H169.954C177.128 147.363 182.964 141.527 182.964 134.353V113.988C182.964 106.814 177.128 100.978 169.954 100.978H149.589Z" fill="#F2F2F2"/>
<path d="M149.589 158.305C142.415 158.305 136.579 164.141 136.579 171.315V191.679C136.579 198.853 142.415 204.69 149.589 204.69H169.954C177.128 204.69 182.964 198.853 182.964 191.679V171.315C182.964 164.141 177.128 158.305 169.954 158.305H149.589Z" fill="#F2F2F2"/>
<path d="M149.589 215.633C142.415 215.633 136.579 221.469 136.579 228.643V249.007C136.579 256.181 142.415 262.018 149.589 262.018H169.954C177.128 262.018 182.964 256.181 182.964 249.007V228.643C182.964 221.469 177.128 215.633 169.954 215.633H149.589Z" fill="#F2F2F2"/>
<path d="M163.094 51.2935C154.054 51.2935 146.701 58.6473 146.701 67.6869V93.3463C146.701 102.386 154.055 109.74 163.094 109.74H188.754C197.793 109.74 205.147 102.386 205.147 93.3463V67.6869C205.147 58.6473 197.793 51.2935 188.754 51.2935H163.094Z" fill="#6CA3E0"/>
<path d="M247.571 123C238.531 123 231.177 130.354 231.177 139.393V165.053C231.177 174.092 238.531 181.446 247.571 181.446H273.23C282.27 181.446 289.624 174.092 289.624 165.053V139.393C289.624 130.354 282.27 123 273.23 123H247.571Z" fill="#6CA3E0"/>
<path d="M210.844 381.273L205.632 381.229L203.324 360.654L211.018 360.719L210.844 381.273Z" fill="#A0616A"/>
<path d="M194.148 389.561C194.136 390.844 195.17 391.9 196.458 391.912L206.822 391.999L208.637 388.321L209.303 392.018L213.214 392.053L212.226 378.869L210.866 378.778L205.316 378.396L203.526 378.276L203.494 382.006L195.169 387.653C194.535 388.083 194.154 388.796 194.148 389.561Z" fill="#33333E"/>
<path d="M237.366 381.273L232.154 381.229L229.846 360.654L237.54 360.719L237.366 381.273Z" fill="#A0616A"/>
<path d="M220.67 389.561C220.658 390.844 221.692 391.9 222.98 391.912L233.344 391.999L235.159 388.321L235.825 392.018L239.736 392.053L238.748 378.869L237.388 378.778L231.838 378.396L230.048 378.276L230.016 382.006L221.691 387.653C221.057 388.083 220.676 388.796 220.67 389.561Z" fill="#33333E"/>
<path d="M190.389 214.922L211.519 215.589L231.536 220.038C231.536 220.038 229.535 222.484 236.207 229.157C236.207 229.157 245.104 244.726 238.876 259.85L236.207 320.348C236.207 320.348 243.989 362.995 238.043 376.568L230.185 377.059L216.888 320.84L210.407 260.295L207.293 319.903C207.293 319.903 219.205 360.817 211.683 377.06L203.172 376.568L188.61 319.903C188.61 319.903 182.382 254.512 183.272 242.057C184.161 229.602 190.389 214.922 190.389 214.922Z" fill="#33333E"/>
<path d="M261.348 119.327C258.46 120.075 256.724 123.023 257.472 125.911C257.815 127.235 258.622 128.312 259.672 129.023L259.671 129.03L259.261 138.956L266.857 142.471L267.463 127.197L267.41 127.199C268.069 126.026 268.296 124.608 267.932 123.203C267.184 120.314 264.237 118.579 261.348 119.327Z" fill="#A0616A"/>
<path d="M218.898 154.748C217.302 153.167 216.376 151.022 216.342 148.691C216.295 145.563 217.863 142.724 220.535 141.096C223.612 139.222 227.46 139.412 230.338 141.579L254.188 159.536L258.438 133.667L267.562 136.604L265.385 170.29C265.233 172.646 263.901 174.722 261.823 175.842C259.744 176.963 257.278 176.935 255.226 175.767L220.759 156.157C220.066 155.763 219.443 155.288 218.898 154.748Z" fill="#3F3D56"/>
<path d="M182.53 104.856C184.055 107.42 183.211 110.736 180.647 112.26C179.471 112.959 178.14 113.155 176.894 112.922L176.889 112.927L170.192 120.264L162.324 117.412L172.646 106.139L172.683 106.178C173.041 104.881 173.877 103.714 175.125 102.972C177.69 101.448 181.005 102.291 182.53 104.856Z" fill="#A0616A"/>
<path d="M185.423 159.59L147.139 149.249C144.86 148.633 143.089 146.917 142.402 144.658C141.715 142.399 142.231 139.987 143.781 138.206L165.952 112.752L174.499 117.09L159.304 138.453L188.884 142.493C192.454 142.98 195.32 145.555 196.185 149.052C196.937 152.089 196.052 155.208 193.816 157.397C192.15 159.029 189.983 159.9 187.736 159.899C186.969 159.899 186.192 159.798 185.423 159.59Z" fill="#3F3D56"/>
<path d="M240.002 223.824L186.467 226.279C184.997 224.047 185.395 220.689 187.454 216.485C195.228 200.611 189.324 170.581 185.352 154.944C184.238 150.557 187.229 146.195 191.733 145.745L196.781 145.24L201.447 130.997H217.788L224.567 138.742L236.073 145.731C233.978 167.302 225.055 197.762 237.767 213.038C240.548 216.379 241.336 219.992 240.002 223.824Z" fill="#3F3D56"/>
<path d="M207.54 131.326C216.331 131.326 223.457 124.2 223.457 115.409C223.457 106.618 216.331 99.4922 207.54 99.4922C198.75 99.4922 191.624 106.618 191.624 115.409C191.624 124.2 198.75 131.326 207.54 131.326Z" fill="#A0616A"/>
<path d="M225.552 105.221C227.766 97.1471 203.63 90.2236 198.94 96.7255C198.288 95.8011 195.877 95.2396 194.771 95.5232C193.666 95.8068 192.735 96.5157 191.828 97.2019C190.58 98.1603 189.287 99.1528 188.522 100.531C187.75 101.903 187.631 103.775 188.669 104.966C189.492 105.913 190.937 110.946 192.173 111.195C193.035 111.371 193.761 111.513 194.385 111.615C194.94 110.804 196.358 109.785 196.256 108.804C197.095 109.36 196.788 110.338 196.619 111.337C196.056 114.665 183.36 140.425 190.631 132.834C191.352 133.26 192.242 133.657 193.269 134.019C195.01 131.394 196.439 128.297 197.38 125.059L197.387 125.119C197.711 127.933 199.768 130.242 202.488 131.03C213.403 134.192 222.232 129.552 225.269 121.185C224.157 118.928 223.673 119.173 223.772 119.106C225.16 118.171 227.068 118.782 227.664 120.346C227.84 120.807 228 121.201 228.139 121.497C229.721 115.837 231.603 116.654 225.552 105.221Z" fill="#33333E"/>
<path d="M218.021 99.3628L216.906 93.6629C216.812 93.1838 216.723 92.664 216.939 92.2261C217.217 91.6636 217.931 91.4305 218.551 91.5201C219.172 91.6098 219.637 92.1769 220.254 92.2861C222.402 92.6658 225.241 90.5444 226.01 95.911C226.331 98.1486 229.902 98.3849 231.094 100.305C232.286 102.226 232.433 104.997 230.806 106.566C229.506 107.819 227.419 107.964 225.731 107.324C224.043 106.684 222.688 105.391 221.505 104.028C220.321 102.664 219.25 101.189 217.885 100.007" fill="#33333E"/>
<path d="M226.401 108.033C222.045 107.424 219.077 105.84 217.577 103.325C215.614 100.032 216.929 96.4072 216.986 96.2544L217.907 96.5966C217.894 96.63 216.702 99.9485 218.426 102.83C219.767 105.072 222.496 106.495 226.536 107.06L226.401 108.033Z" fill="#6CA3E0"/>
<path d="M246.84 46.4447C234.036 46.4447 223.618 36.0264 223.618 23.2224C223.618 10.4183 234.036 0 246.84 0C259.644 0 270.062 10.4183 270.062 23.2224C270.062 36.0264 259.644 46.4447 246.84 46.4447ZM246.84 9.28895C239.157 9.28895 232.907 15.539 232.907 23.2224C232.907 30.9057 239.157 37.1558 246.84 37.1558C254.523 37.1558 260.773 30.9057 260.773 23.2224C260.773 15.539 254.523 9.28895 246.84 9.28895Z" fill="#6CA3E0"/>
<path d="M282.569 62.2266C281.431 62.2266 280.29 61.8116 279.395 60.9702L257.599 40.5441C255.725 38.7911 255.63 35.852 257.385 33.981C259.136 32.1033 262.075 32.0103 263.949 33.7679L285.744 54.194C287.618 55.947 287.713 58.8861 285.958 60.7571C285.044 61.7345 283.808 62.2266 282.569 62.2266Z" fill="#6CA3E0"/>
<path d="M381.077 380.752C382.656 380.851 383.528 378.889 382.334 377.745L382.215 377.273C382.23 377.235 382.246 377.197 382.262 377.16C383.859 373.352 389.271 373.378 390.855 377.191C392.26 380.576 394.049 383.967 394.49 387.546C394.687 389.125 394.598 390.735 394.248 392.285C397.541 385.092 399.274 377.237 399.274 369.338C399.274 367.353 399.165 365.369 398.943 363.389C398.76 361.77 398.508 360.16 398.183 358.566C396.42 349.946 392.604 341.736 387.099 334.878C384.453 333.432 382.246 331.17 380.913 328.46C380.434 327.483 380.059 326.431 379.881 325.36C380.182 325.399 381.017 320.813 380.79 320.531C381.209 319.894 381.961 319.578 382.419 318.956C384.699 315.866 387.839 316.405 389.479 320.605C392.981 322.373 393.015 325.305 390.866 328.124C389.499 329.918 389.311 332.345 388.111 334.266C388.235 334.424 388.363 334.577 388.486 334.735C390.75 337.638 392.707 340.758 394.358 344.036C393.891 340.393 394.58 336.004 395.754 333.175C397.09 329.951 399.595 327.236 401.8 324.45C404.449 321.102 409.882 322.563 410.349 326.806C410.353 326.847 410.358 326.889 410.362 326.93C410.034 327.114 409.714 327.311 409.4 327.518C407.612 328.701 408.23 331.473 410.349 331.8L410.397 331.807C410.278 332.987 410.076 334.157 409.779 335.308C412.609 346.25 406.5 350.236 397.778 350.415C397.585 350.513 397.398 350.612 397.205 350.706C398.089 353.194 398.795 355.747 399.318 358.334C399.787 360.619 400.113 362.93 400.296 365.25C400.523 368.178 400.503 371.12 400.256 374.043L400.271 373.939C400.898 370.72 402.646 367.714 405.183 365.63C408.963 362.525 414.304 361.381 418.383 358.885C420.346 357.684 422.861 359.237 422.519 361.513L422.502 361.622C421.895 361.868 421.302 362.155 420.73 362.476C420.402 362.66 420.081 362.857 419.768 363.064C417.979 364.247 418.597 367.019 420.716 367.346L420.764 367.353C420.799 367.358 420.828 367.363 420.863 367.368C419.821 369.842 418.37 372.137 416.553 374.117C414.784 383.669 407.185 384.576 399.056 381.794H399.052C398.163 385.665 396.864 389.446 395.196 393.05H381.422C381.372 392.897 381.328 392.739 381.283 392.586C382.557 392.665 383.841 392.591 385.095 392.359C384.073 391.105 383.051 389.841 382.029 388.587C382.004 388.562 381.984 388.538 381.965 388.513C381.446 387.871 380.923 387.234 380.405 386.593L380.404 386.592C380.372 384.622 380.609 382.658 381.077 380.752Z" fill="#F2F2F2"/>
<path d="M0.000488281 393.091C0.000488281 393.596 0.405626 394.001 0.910132 394.001H421.534C422.038 394.001 422.444 393.596 422.444 393.091C422.444 392.587 422.038 392.182 421.534 392.182H0.910132C0.405626 392.182 0.000488281 392.587 0.000488281 393.091Z" fill="#CCCCCC"/>
</g>
<defs>
<clipPath id="clip0_1879_1516">
<rect width="422.55" height="394" fill="white"/>
</clipPath>
</defs>
</svg>
