<svg width="49" height="48" viewBox="0 0 49 48" fill="none" xmlns="http://www.w3.org/2000/svg">
<rect x="0.5" width="48" height="48" rx="8" fill="#FADBAE"/>
<path d="M22.4937 30.1876H16.25C16.1008 30.1876 15.9577 30.2469 15.8523 30.3524C15.7468 30.4579 15.6875 30.6009 15.6875 30.7501C15.6875 30.8993 15.7468 31.0424 15.8523 31.1479C15.9577 31.2533 16.1008 31.3126 16.25 31.3126H22.4937C22.6229 31.9484 22.9678 32.52 23.4701 32.9306C23.9724 33.3411 24.6012 33.5654 25.25 33.5654C25.8988 33.5654 26.5276 33.3411 27.0299 32.9306C27.5322 32.52 27.8771 31.9484 28.0062 31.3126H32.75C32.8992 31.3126 33.0423 31.2533 33.1477 31.1479C33.2532 31.0424 33.3125 30.8993 33.3125 30.7501C33.3125 30.6009 33.2532 30.4579 33.1477 30.3524C33.0423 30.2469 32.8992 30.1876 32.75 30.1876H28.0062C27.8771 29.5518 27.5322 28.9802 27.0299 28.5696C26.5276 28.1591 25.8988 27.9348 25.25 27.9348C24.6012 27.9348 23.9724 28.1591 23.4701 28.5696C22.9678 28.9802 22.6229 29.5518 22.4937 30.1876ZM26.9375 30.7501C26.9375 31.0839 26.8385 31.4101 26.6531 31.6876C26.4677 31.9651 26.2041 32.1814 25.8958 32.3092C25.5874 32.4369 25.2481 32.4703 24.9208 32.4052C24.5934 32.3401 24.2928 32.1794 24.0568 31.9434C23.8208 31.7074 23.66 31.4067 23.5949 31.0793C23.5298 30.752 23.5632 30.4127 23.691 30.1043C23.8187 29.796 24.035 29.5324 24.3125 29.347C24.59 29.1616 24.9162 29.0626 25.25 29.0626C25.6976 29.0626 26.1268 29.2404 26.4432 29.5569C26.7597 29.8733 26.9375 30.3026 26.9375 30.7501ZM17.9937 23.4376H16.25C16.1008 23.4376 15.9577 23.4969 15.8523 23.6024C15.7468 23.7079 15.6875 23.8509 15.6875 24.0001C15.6875 24.1493 15.7468 24.2924 15.8523 24.3979C15.9577 24.5033 16.1008 24.5626 16.25 24.5626H17.9937C18.1229 25.1984 18.4678 25.77 18.9701 26.1806C19.4724 26.5911 20.1012 26.8154 20.75 26.8154C21.3988 26.8154 22.0276 26.5911 22.5299 26.1806C23.0322 25.77 23.3771 25.1984 23.5063 24.5626H32.75C32.8992 24.5626 33.0423 24.5033 33.1477 24.3979C33.2532 24.2924 33.3125 24.1493 33.3125 24.0001C33.3125 23.8509 33.2532 23.7079 33.1477 23.6024C33.0423 23.4969 32.8992 23.4376 32.75 23.4376H23.5063C23.3771 22.8018 23.0322 22.2302 22.5299 21.8196C22.0276 21.4091 21.3988 21.1848 20.75 21.1848C20.1012 21.1848 19.4724 21.4091 18.9701 21.8196C18.4678 22.2302 18.1229 22.8018 17.9937 23.4376ZM22.4375 24.0001C22.4375 24.3339 22.3385 24.6601 22.1531 24.9376C21.9677 25.2151 21.7041 25.4314 21.3958 25.5592C21.0874 25.6869 20.7481 25.7203 20.4208 25.6552C20.0934 25.5901 19.7928 25.4294 19.5568 25.1934C19.3208 24.9574 19.16 24.6567 19.0949 24.3293C19.0298 24.002 19.0632 23.6627 19.191 23.3543C19.3187 23.046 19.535 22.7824 19.8125 22.597C20.09 22.4116 20.4162 22.3126 20.75 22.3126C21.1976 22.3126 21.6268 22.4904 21.9432 22.8069C22.2597 23.1233 22.4375 23.5526 22.4375 24.0001ZM28.25 14.4376C27.6019 14.4384 26.9738 14.6626 26.4717 15.0724C25.9696 15.4823 25.6242 16.0527 25.4938 16.6876H16.25C16.1008 16.6876 15.9577 16.7469 15.8523 16.8524C15.7468 16.9579 15.6875 17.1009 15.6875 17.2501C15.6875 17.3993 15.7468 17.5424 15.8523 17.6479C15.9577 17.7533 16.1008 17.8126 16.25 17.8126H25.4938C25.6229 18.4484 25.9678 19.02 26.4701 19.4306C26.9724 19.8411 27.6012 20.0654 28.25 20.0654C28.8988 20.0654 29.5276 19.8411 30.0299 19.4306C30.5322 19.02 30.8771 18.4484 31.0062 17.8126H32.75C32.8992 17.8126 33.0423 17.7533 33.1477 17.6479C33.2532 17.5424 33.3125 17.3993 33.3125 17.2501C33.3125 17.1009 33.2532 16.9579 33.1477 16.8524C33.0423 16.7469 32.8992 16.6876 32.75 16.6876H31.0062C30.8758 16.0527 30.5304 15.4823 30.0283 15.0724C29.5262 14.6626 28.8981 14.4384 28.25 14.4376ZM29.9375 17.2501C29.9375 17.5839 29.8385 17.9101 29.6531 18.1876C29.4677 18.4651 29.2041 18.6814 28.8958 18.8092C28.5874 18.9369 28.2481 18.9703 27.9208 18.9052C27.5934 18.8401 27.2928 18.6794 27.0568 18.4434C26.8208 18.2074 26.66 17.9067 26.5949 17.5793C26.5298 17.252 26.5632 16.9127 26.691 16.6043C26.8187 16.296 27.035 16.0324 27.3125 15.847C27.59 15.6616 27.9162 15.5626 28.25 15.5626C28.6976 15.5626 29.1268 15.7404 29.4432 16.0569C29.7597 16.3733 29.9375 16.8026 29.9375 17.2501Z" fill="#DE6718"/>
</svg>
