<svg width="25" height="24" viewBox="0 0 25 24" fill="none" xmlns="http://www.w3.org/2000/svg">
<path d="M10.4937 18.1876H4.25C4.10082 18.1876 3.95774 18.2469 3.85225 18.3524C3.74676 18.4579 3.6875 18.6009 3.6875 18.7501C3.6875 18.8993 3.74676 19.0424 3.85225 19.1479C3.95774 19.2533 4.10082 19.3126 4.25 19.3126H10.4937C10.6229 19.9484 10.9678 20.52 11.4701 20.9306C11.9724 21.3411 12.6012 21.5654 13.25 21.5654C13.8988 21.5654 14.5276 21.3411 15.0299 20.9306C15.5322 20.52 15.8771 19.9484 16.0062 19.3126H20.75C20.8992 19.3126 21.0423 19.2533 21.1477 19.1479C21.2532 19.0424 21.3125 18.8993 21.3125 18.7501C21.3125 18.6009 21.2532 18.4579 21.1477 18.3524C21.0423 18.2469 20.8992 18.1876 20.75 18.1876H16.0062C15.8771 17.5518 15.5322 16.9802 15.0299 16.5696C14.5276 16.1591 13.8988 15.9348 13.25 15.9348C12.6012 15.9348 11.9724 16.1591 11.4701 16.5696C10.9678 16.9802 10.6229 17.5518 10.4937 18.1876ZM14.9375 18.7501C14.9375 19.0839 14.8385 19.4101 14.6531 19.6876C14.4677 19.9651 14.2041 20.1814 13.8958 20.3092C13.5874 20.4369 13.2481 20.4703 12.9208 20.4052C12.5934 20.3401 12.2928 20.1794 12.0568 19.9434C11.8208 19.7074 11.66 19.4067 11.5949 19.0793C11.5298 18.752 11.5632 18.4127 11.691 18.1043C11.8187 17.796 12.035 17.5324 12.3125 17.347C12.59 17.1616 12.9162 17.0626 13.25 17.0626C13.6976 17.0626 14.1268 17.2404 14.4432 17.5569C14.7597 17.8733 14.9375 18.3026 14.9375 18.7501ZM5.99375 11.4376H4.25C4.10082 11.4376 3.95774 11.4969 3.85225 11.6024C3.74676 11.7079 3.6875 11.8509 3.6875 12.0001C3.6875 12.1493 3.74676 12.2924 3.85225 12.3979C3.95774 12.5033 4.10082 12.5626 4.25 12.5626H5.99375C6.12285 13.1984 6.46779 13.77 6.9701 14.1806C7.47242 14.5911 8.10124 14.8154 8.75 14.8154C9.39876 14.8154 10.0276 14.5911 10.5299 14.1806C11.0322 13.77 11.3771 13.1984 11.5063 12.5626L20.75 12.5626C20.8992 12.5626 21.0423 12.5033 21.1477 12.3979C21.2532 12.2924 21.3125 12.1493 21.3125 12.0001C21.3125 11.8509 21.2532 11.7079 21.1477 11.6024C21.0423 11.4969 20.8992 11.4376 20.75 11.4376L11.5063 11.4376C11.3771 10.8018 11.0322 10.2302 10.5299 9.81965C10.0276 9.40908 9.39876 9.18479 8.75 9.18479C8.10124 9.18479 7.47242 9.40908 6.9701 9.81965C6.46779 10.2302 6.12285 10.8018 5.99375 11.4376ZM10.4375 12.0001C10.4375 12.3339 10.3385 12.6601 10.1531 12.9376C9.96768 13.2151 9.70413 13.4314 9.39578 13.5592C9.08743 13.6869 8.74813 13.7203 8.42078 13.6552C8.09344 13.5901 7.79276 13.4294 7.55676 13.1934C7.32076 12.9574 7.16004 12.6567 7.09492 12.3293C7.02981 12.002 7.06323 11.6627 7.19095 11.3543C7.31868 11.046 7.53497 10.7824 7.81248 10.597C8.08998 10.4116 8.41624 10.3126 8.75 10.3126C9.19755 10.3126 9.62677 10.4904 9.94324 10.8069C10.2597 11.1233 10.4375 11.5526 10.4375 12.0001ZM16.25 2.43761C15.6019 2.43836 14.9738 2.66257 14.4717 3.07243C13.9696 3.48229 13.6242 4.05275 13.4938 4.68761H4.25C4.10082 4.68761 3.95774 4.74687 3.85225 4.85236C3.74676 4.95785 3.6875 5.10093 3.6875 5.25011C3.6875 5.39929 3.74676 5.54237 3.85225 5.64786C3.95774 5.75335 4.10082 5.81261 4.25 5.81261H13.4938C13.6229 6.4484 13.9678 7.02 14.4701 7.43057C14.9724 7.84114 15.6012 8.06543 16.25 8.06543C16.8988 8.06543 17.5276 7.84114 18.0299 7.43057C18.5322 7.02 18.8771 6.4484 19.0062 5.81261H20.75C20.8992 5.81261 21.0423 5.75335 21.1477 5.64786C21.2532 5.54237 21.3125 5.39929 21.3125 5.25011C21.3125 5.10093 21.2532 4.95785 21.1477 4.85236C21.0423 4.74687 20.8992 4.68761 20.75 4.68761H19.0062C18.8758 4.05275 18.5304 3.48229 18.0283 3.07243C17.5262 2.66257 16.8981 2.43836 16.25 2.43761ZM17.9375 5.25011C17.9375 5.58387 17.8385 5.91013 17.6531 6.18763C17.4677 6.46514 17.2041 6.68143 16.8958 6.80916C16.5874 6.93688 16.2481 6.9703 15.9208 6.90518C15.5934 6.84007 15.2928 6.67935 15.0568 6.44335C14.8208 6.20735 14.66 5.90667 14.5949 5.57932C14.5298 5.25198 14.5632 4.91268 14.691 4.60433C14.8187 4.29598 15.035 4.03243 15.3125 3.84701C15.59 3.66158 15.9162 3.56261 16.25 3.56261C16.6976 3.56261 17.1268 3.7404 17.4432 4.05687C17.7597 4.37333 17.9375 4.80256 17.9375 5.25011Z" fill="#DE6718"/>
</svg>
