<svg width="32" height="32" viewBox="0 0 32 32" fill="none" xmlns="http://www.w3.org/2000/svg">
<path d="M21.75 29.0002C21.75 29.1991 21.671 29.3899 21.5303 29.5305C21.3897 29.6712 21.1989 29.7502 21 29.7502H11C10.8011 29.7502 10.6103 29.6712 10.4697 29.5305C10.329 29.3899 10.25 29.1991 10.25 29.0002C10.25 28.8013 10.329 28.6105 10.4697 28.4699C10.6103 28.3292 10.8011 28.2502 11 28.2502H21C21.1989 28.2502 21.3897 28.3292 21.5303 28.4699C21.671 28.6105 21.75 28.8013 21.75 29.0002ZM26.75 13.0002C26.7542 14.6295 26.3861 16.2382 25.6738 17.7035C24.9615 19.1688 23.9238 20.452 22.64 21.4552C22.3647 21.6668 22.1414 21.9385 21.9871 22.2496C21.8329 22.5607 21.7518 22.903 21.75 23.2502V24.0002C21.75 24.4643 21.5656 24.9094 21.2374 25.2376C20.9092 25.5658 20.4641 25.7502 20 25.7502H12C11.5359 25.7502 11.0908 25.5658 10.7626 25.2376C10.4344 24.9094 10.25 24.4643 10.25 24.0002V23.2502C10.2497 22.9066 10.1706 22.5676 10.0189 22.2593C9.86727 21.9509 9.64699 21.6814 9.375 21.4714C8.09527 20.4748 7.05891 19.2002 6.34427 17.7441C5.62964 16.288 5.25545 14.6885 5.25 13.0664C5.2175 7.23893 9.92375 2.39019 15.7412 2.25019C17.1746 2.21567 18.6003 2.46824 19.9346 2.993C21.2689 3.51777 22.4847 4.30414 23.5105 5.30582C24.5363 6.30751 25.3513 7.50427 25.9077 8.82568C26.464 10.1471 26.7504 11.5664 26.75 13.0002ZM25.25 13.0002C25.2504 11.7664 25.0039 10.545 24.5251 9.40791C24.0463 8.27081 23.3449 7.24098 22.4621 6.37905C21.5793 5.51712 20.533 4.8405 19.3848 4.38903C18.2366 3.93755 17.0097 3.72034 15.7762 3.75019C10.7712 3.87519 6.7225 8.04268 6.75 13.0527C6.75474 14.4486 7.07678 15.8253 7.6918 17.0785C8.30681 18.3317 9.19869 19.4286 10.3 20.2864C10.7522 20.6367 11.1181 21.086 11.3695 21.5998C11.6209 22.1136 11.751 22.6782 11.75 23.2502V24.0002C11.75 24.0665 11.7763 24.1301 11.8232 24.177C11.8701 24.2238 11.9337 24.2502 12 24.2502H20C20.0663 24.2502 20.1299 24.2238 20.1768 24.177C20.2237 24.1301 20.25 24.0665 20.25 24.0002V23.2502C20.2515 22.6761 20.3841 22.1099 20.6375 21.5948C20.891 21.0797 21.2586 20.6292 21.7125 20.2777C22.8179 19.4146 23.7113 18.3101 24.3244 17.0488C24.9375 15.7875 25.2541 14.4026 25.25 13.0002ZM22.74 11.8752C22.4899 10.4777 21.8177 9.19031 20.8138 8.18642C19.8099 7.18252 18.5225 6.51028 17.125 6.26019C17.0278 6.24377 16.9284 6.24666 16.8323 6.26868C16.7362 6.2907 16.6455 6.33143 16.5651 6.38854C16.4029 6.50387 16.2932 6.67893 16.26 6.87519C16.2268 7.07144 16.273 7.27284 16.3884 7.43506C16.5037 7.59727 16.6787 7.70703 16.875 7.74018C19.0475 8.10518 20.8913 9.95018 21.26 12.1252C21.2895 12.2998 21.3799 12.4584 21.5151 12.5728C21.6503 12.6872 21.8216 12.75 21.9988 12.7502C22.0406 12.7499 22.0824 12.7466 22.1238 12.7402C22.2211 12.724 22.3142 12.6887 22.3979 12.6364C22.4816 12.5842 22.5541 12.5159 22.6114 12.4356C22.6686 12.3552 22.7094 12.2643 22.7315 12.1682C22.7536 12.072 22.7565 11.9725 22.74 11.8752Z" fill="#F3AA60"/>
</svg>
