<svg width="456" height="535" viewBox="0 0 456 535" fill="none" xmlns="http://www.w3.org/2000/svg">
<rect x="1.01436" y="95.4997" width="301.897" height="432.425" rx="12.4233" transform="rotate(-15 1.01436 95.4997)" fill="white" stroke="#242424" stroke-width="1.65645"/>
<rect x="150.562" y="100.828" width="301.897" height="432.425" rx="12.4233" fill="white" stroke="#242424" stroke-width="1.65645"/>
<g clip-path="url(#clip0_586_694)">
<path d="M325.084 343.675C318.677 337.268 309.987 333.669 300.926 333.669C291.865 333.669 284.347 336.097 277.94 342.504" stroke="#242424" stroke-width="1.65645"/>
<circle cx="282.072" cy="323.024" r="5.98359" fill="#242424"/>
<circle cx="320.948" cy="323.024" r="5.98359" fill="#242424"/>
<path d="M350.602 277.077L350.602 277.078C351.654 278.13 352.239 279.557 352.239 281.03V281.84H319.524V249.125H320.334C321.836 249.125 323.263 249.711 324.313 250.762L350.602 277.077ZM309.275 249.125V284.816C309.275 288.818 312.546 292.089 316.548 292.089H352.239V379.337C352.239 382.451 349.737 384.954 346.623 384.954H256.398C253.284 384.954 250.782 382.451 250.782 379.337V254.741C250.782 251.628 253.284 249.125 256.398 249.125H309.275Z" stroke="#242424" stroke-width="1.65645"/>
</g>
<path d="M248.143 424.951V440.257H244.479L239.122 431.259L237.8 428.754H237.777L237.87 431.398V440.257H234.994V424.951H238.635L243.992 433.926L245.314 436.454H245.36L245.268 433.81V424.951H248.143ZM256.593 440.489C255.434 440.489 254.436 440.257 253.602 439.793C252.782 439.329 252.148 438.695 251.7 437.891C251.267 437.072 251.051 436.137 251.051 435.085C251.051 434.869 251.058 434.653 251.074 434.436C251.105 434.204 251.136 433.98 251.167 433.764H260.373V435.549H252.558L254.135 434.575C254.12 434.714 254.104 434.846 254.089 434.969C254.089 435.078 254.089 435.186 254.089 435.294C254.089 436.191 254.313 436.894 254.761 437.404C255.225 437.899 255.843 438.147 256.616 438.147C257.498 438.147 258.178 437.853 258.657 437.265C259.136 436.662 259.376 435.758 259.376 434.552C259.376 433.686 259.268 432.975 259.051 432.419C258.85 431.862 258.541 431.452 258.124 431.189C257.722 430.927 257.204 430.795 256.57 430.795C255.967 430.795 255.441 430.95 254.993 431.259C254.56 431.568 254.236 431.986 254.019 432.511L251.352 431.607C251.615 430.958 251.994 430.393 252.489 429.914C252.983 429.435 253.578 429.071 254.274 428.824C254.985 428.561 255.774 428.43 256.64 428.43C257.892 428.43 258.943 428.669 259.793 429.149C260.659 429.628 261.309 430.316 261.741 431.213C262.19 432.109 262.414 433.192 262.414 434.459C262.414 436.345 261.904 437.822 260.883 438.889C259.878 439.955 258.448 440.489 256.593 440.489ZM269.098 425.114V436.477C269.098 437.033 269.237 437.443 269.516 437.706C269.81 437.953 270.204 438.077 270.698 438.077C271.085 438.077 271.425 438.023 271.719 437.915C272.013 437.791 272.275 437.629 272.507 437.428L273.017 439.538C272.646 439.832 272.183 440.064 271.626 440.234C271.07 440.404 270.482 440.489 269.864 440.489C269.091 440.489 268.403 440.373 267.8 440.141C267.212 439.909 266.748 439.538 266.408 439.028C266.084 438.518 265.921 437.837 265.921 436.987V425.995L269.098 425.114ZM272.809 428.662V431.027H263.788V428.662H272.809ZM276.558 426.992C275.894 426.992 275.399 426.853 275.074 426.575C274.75 426.281 274.587 425.856 274.587 425.299C274.587 424.727 274.75 424.302 275.074 424.024C275.399 423.73 275.894 423.583 276.558 423.583C277.223 423.583 277.718 423.73 278.043 424.024C278.367 424.302 278.53 424.727 278.53 425.299C278.53 425.856 278.367 426.281 278.043 426.575C277.718 426.853 277.223 426.992 276.558 426.992ZM278.135 428.662V440.257H274.958V428.662H278.135ZM286.767 428.43C287.803 428.43 288.677 428.584 289.388 428.894C290.114 429.187 290.694 429.597 291.127 430.123C291.575 430.633 291.892 431.205 292.078 431.839L289.11 432.906C288.955 432.21 288.692 431.684 288.321 431.329C287.95 430.973 287.448 430.795 286.814 430.795C286.226 430.795 285.724 430.934 285.306 431.213C284.889 431.475 284.572 431.885 284.356 432.442C284.139 432.983 284.031 433.663 284.031 434.482C284.031 435.302 284.139 435.982 284.356 436.523C284.587 437.064 284.912 437.466 285.33 437.729C285.762 437.992 286.265 438.123 286.837 438.123C287.301 438.123 287.695 438.046 288.02 437.891C288.344 437.721 288.607 437.482 288.808 437.173C289.024 436.863 289.171 436.492 289.249 436.059L292.124 436.987C291.954 437.683 291.637 438.293 291.173 438.819C290.71 439.345 290.114 439.754 289.388 440.048C288.661 440.342 287.819 440.489 286.86 440.489C285.67 440.489 284.618 440.249 283.706 439.77C282.794 439.291 282.091 438.603 281.596 437.706C281.101 436.809 280.854 435.727 280.854 434.459C280.854 433.192 281.101 432.109 281.596 431.213C282.091 430.316 282.786 429.628 283.683 429.149C284.58 428.669 285.608 428.43 286.767 428.43ZM299.486 440.489C298.327 440.489 297.329 440.257 296.495 439.793C295.675 439.329 295.041 438.695 294.593 437.891C294.16 437.072 293.944 436.137 293.944 435.085C293.944 434.869 293.951 434.653 293.967 434.436C293.998 434.204 294.029 433.98 294.06 433.764H303.266V435.549H295.451L297.028 434.575C297.012 434.714 296.997 434.846 296.982 434.969C296.982 435.078 296.982 435.186 296.982 435.294C296.982 436.191 297.206 436.894 297.654 437.404C298.118 437.899 298.736 438.147 299.509 438.147C300.39 438.147 301.071 437.853 301.55 437.265C302.029 436.662 302.269 435.758 302.269 434.552C302.269 433.686 302.161 432.975 301.944 432.419C301.743 431.862 301.434 431.452 301.017 431.189C300.615 430.927 300.097 430.795 299.463 430.795C298.86 430.795 298.334 430.95 297.886 431.259C297.453 431.568 297.128 431.986 296.912 432.511L294.245 431.607C294.508 430.958 294.887 430.393 295.381 429.914C295.876 429.435 296.471 429.071 297.167 428.824C297.878 428.561 298.667 428.43 299.532 428.43C300.785 428.43 301.836 428.669 302.686 429.149C303.552 429.628 304.201 430.316 304.634 431.213C305.083 432.109 305.307 433.192 305.307 434.459C305.307 436.345 304.797 437.822 303.776 438.889C302.771 439.955 301.341 440.489 299.486 440.489ZM325.625 428.662L320.941 440.976C320.57 442.027 320.152 442.862 319.689 443.48C319.24 444.099 318.715 444.547 318.112 444.825C317.524 445.104 316.821 445.243 316.001 445.243C315.398 445.243 314.842 445.165 314.332 445.011C313.837 444.872 313.404 444.686 313.033 444.454L313.705 442.158C313.999 442.39 314.308 442.553 314.633 442.645C314.958 442.754 315.329 442.808 315.746 442.808C316.179 442.808 316.55 442.715 316.859 442.529C317.184 442.344 317.455 441.973 317.671 441.416L318.065 440.419L316.79 437.404L313.242 428.662H316.767L318.97 435.619L319.573 437.938L320.292 435.48L322.402 428.662H325.625ZM332.537 428.43C333.712 428.43 334.74 428.669 335.621 429.149C336.518 429.628 337.214 430.316 337.708 431.213C338.218 432.109 338.474 433.192 338.474 434.459C338.474 435.712 338.218 436.794 337.708 437.706C337.214 438.603 336.518 439.291 335.621 439.77C334.74 440.249 333.712 440.489 332.537 440.489C331.377 440.489 330.349 440.249 329.453 439.77C328.556 439.291 327.852 438.603 327.342 437.706C326.848 436.794 326.6 435.712 326.6 434.459C326.6 433.192 326.848 432.109 327.342 431.213C327.852 430.316 328.556 429.628 329.453 429.149C330.349 428.669 331.377 428.43 332.537 428.43ZM332.537 430.795C331.949 430.795 331.447 430.934 331.03 431.213C330.628 431.475 330.318 431.877 330.102 432.419C329.885 432.96 329.777 433.64 329.777 434.459C329.777 435.279 329.885 435.959 330.102 436.5C330.318 437.041 330.628 437.451 331.03 437.729C331.447 437.992 331.949 438.123 332.537 438.123C333.109 438.123 333.596 437.992 333.998 437.729C334.415 437.451 334.732 437.041 334.949 436.5C335.165 435.959 335.273 435.279 335.273 434.459C335.273 433.64 335.165 432.96 334.949 432.419C334.732 431.877 334.415 431.475 333.998 431.213C333.596 430.934 333.109 430.795 332.537 430.795ZM343.117 428.662L346.178 433.74L347.036 433.717L351.674 440.257H347.987L344.81 435.062L343.883 434.969L339.407 428.662H343.117ZM351.605 428.662L347.129 434.9L346.178 434.83L342.793 440.257H339.198L343.998 433.671L344.903 433.787L348.01 428.662H351.605ZM357.586 440.489C356.627 440.489 355.769 440.249 355.011 439.77C354.269 439.291 353.682 438.603 353.249 437.706C352.832 436.809 352.623 435.735 352.623 434.482C352.623 433.199 352.847 432.109 353.295 431.213C353.744 430.3 354.347 429.613 355.104 429.149C355.877 428.669 356.743 428.43 357.702 428.43C358.722 428.43 359.565 428.724 360.229 429.311C360.894 429.899 361.327 430.656 361.528 431.584L361.226 431.955V423.583H364.404V440.257H361.551L361.342 436.732L361.737 436.917C361.628 437.644 361.381 438.278 360.995 438.819C360.608 439.345 360.121 439.754 359.534 440.048C358.946 440.342 358.297 440.489 357.586 440.489ZM358.513 438.054C359.07 438.054 359.549 437.915 359.951 437.636C360.353 437.343 360.662 436.917 360.879 436.361C361.111 435.804 361.226 435.14 361.226 434.367C361.226 433.624 361.118 432.998 360.902 432.488C360.685 431.962 360.376 431.56 359.974 431.282C359.572 431.004 359.101 430.865 358.56 430.865C357.694 430.865 357.014 431.174 356.519 431.792C356.04 432.395 355.8 433.284 355.8 434.459C355.8 435.634 356.04 436.531 356.519 437.149C356.998 437.752 357.663 438.054 358.513 438.054ZM371.777 440.489C371.004 440.489 370.308 440.35 369.69 440.071C369.071 439.793 368.577 439.352 368.206 438.749C367.85 438.131 367.672 437.335 367.672 436.361V428.662H370.849V435.596C370.849 436.492 371.035 437.118 371.406 437.474C371.777 437.814 372.31 437.984 373.006 437.984C373.331 437.984 373.648 437.93 373.957 437.822C374.266 437.698 374.537 437.513 374.768 437.265C375.016 437.018 375.209 436.701 375.348 436.314C375.487 435.913 375.557 435.441 375.557 434.9V428.662H378.734V440.257H375.905L375.789 438.239C375.402 439.012 374.869 439.584 374.189 439.955C373.524 440.311 372.72 440.489 371.777 440.489ZM382.077 440.257V428.662H384.837L385.046 430.934C385.355 430.13 385.803 429.512 386.391 429.079C386.994 428.646 387.743 428.43 388.64 428.43C388.903 428.43 389.143 428.453 389.359 428.499C389.575 428.546 389.753 428.608 389.892 428.685L389.521 431.352C389.367 431.29 389.173 431.244 388.942 431.213C388.725 431.182 388.439 431.166 388.083 431.166C387.62 431.166 387.171 431.282 386.738 431.514C386.306 431.731 385.95 432.071 385.672 432.534C385.393 432.983 385.254 433.555 385.254 434.251V440.257H382.077Z" fill="#242424"/>
<defs>
<clipPath id="clip0_586_694">
<rect width="137.485" height="137.485" fill="white" transform="translate(232.768 248.297)"/>
</clipPath>
</defs>
</svg>
