<svg width="32" height="32" viewBox="0 0 32 32" fill="none" xmlns="http://www.w3.org/2000/svg">
<path d="M12.7288 23.1814C12.6813 23.3751 11.5113 27.7501 5 27.7501C4.80109 27.7501 4.61032 27.6711 4.46967 27.5305C4.32902 27.3898 4.25 27.199 4.25 27.0001C4.25 20.4889 8.6325 19.3189 8.81875 19.2726C9.01036 19.2282 9.21174 19.2608 9.37953 19.3635C9.54731 19.4661 9.66806 19.6305 9.71576 19.8214C9.76347 20.0122 9.7343 20.2141 9.63456 20.3836C9.53481 20.5531 9.37247 20.6767 9.1825 20.7276C9.0575 20.7614 6.0775 21.6126 5.775 26.2276C10.4425 25.9189 11.265 22.8526 11.275 22.8201C11.3232 22.627 11.4462 22.461 11.6169 22.3585C11.7875 22.2561 11.9919 22.2256 12.185 22.2739C12.3781 22.3221 12.5442 22.4451 12.6466 22.6158C12.749 22.7864 12.7795 22.9908 12.7313 23.1839L12.7288 23.1814ZM24.42 14.6414L23.75 15.3101V22.7064C23.7505 22.9361 23.7054 23.1636 23.6175 23.3758C23.5295 23.588 23.4004 23.7806 23.2375 23.9426L18.9438 28.2364C18.7142 28.4658 18.4253 28.6268 18.1094 28.7015C17.7935 28.7762 17.4631 28.7615 17.1551 28.6592C16.8471 28.5569 16.5736 28.3709 16.3652 28.1221C16.1568 27.8732 16.0217 27.5713 15.975 27.2501L15.2925 22.3564L9.6475 16.7076L4.75625 16.0251C4.43428 15.9796 4.13137 15.8452 3.88149 15.6371C3.63162 15.429 3.44466 15.1555 3.3416 14.847C3.23853 14.5386 3.22344 14.2076 3.29801 13.8911C3.37257 13.5746 3.53385 13.2851 3.76375 13.0551L8.0575 8.76138C8.21956 8.5987 8.41225 8.46976 8.62445 8.38201C8.83664 8.29425 9.06413 8.24943 9.29375 8.25013H16.69L17.3588 7.58138C20.6225 4.31763 24.555 4.17763 26.0938 4.26888C26.5196 4.29517 26.9211 4.4761 27.2229 4.77765C27.5247 5.0792 27.7059 5.4806 27.7325 5.90638C27.8238 7.44513 27.6825 11.3751 24.42 14.6414ZM4.96625 14.5401L9.73375 15.2051L15.19 9.75013H9.29375C9.22755 9.75041 9.16417 9.77693 9.1175 9.82388L4.825 14.1151C4.79308 14.1473 4.77052 14.1876 4.75973 14.2316C4.74894 14.2757 4.75033 14.3218 4.76375 14.3651C4.77646 14.411 4.80247 14.4521 4.83851 14.4833C4.87455 14.5144 4.91899 14.5342 4.96625 14.5401ZM22.25 16.8101L16.7938 22.2664L17.4588 27.0364C17.4656 27.0823 17.4851 27.1253 17.5151 27.1608C17.5451 27.1962 17.5843 27.2226 17.6284 27.237C17.6725 27.2514 17.7198 27.2532 17.7649 27.2423C17.81 27.2314 17.8511 27.2081 17.8838 27.1751L22.1763 22.8826C22.2232 22.836 22.2497 22.7726 22.25 22.7064V16.8101ZM26.235 6.00013C26.2302 5.94108 26.2045 5.88567 26.1626 5.84377C26.1207 5.80188 26.0653 5.77622 26.0063 5.77138C24.6098 5.68176 23.2104 5.89194 21.902 6.38782C20.5935 6.88369 19.4063 7.65378 18.42 8.64638L11.0613 16.0001L16 20.9389L22.47 14.4701L23.3588 13.5814C24.3509 12.5958 25.1209 11.4094 25.6169 10.1019C26.113 8.79432 26.3237 7.39581 26.235 6.00013Z" fill="#F3AA60"/>
</svg>
