<svg width="406" height="338" viewBox="0 0 406 338" fill="none" xmlns="http://www.w3.org/2000/svg">
<path d="M274.528 309.474L268.952 306.167L275.146 307.309C274.906 308.022 274.7 308.745 274.528 309.474Z" fill="#D1CCEB"/>
<path d="M305.476 327.489C305.12 327.489 304.758 327.397 304.43 327.201L301.274 325.331C303.533 325.313 305.793 325.249 308.042 325.137L307.244 326.484C306.86 327.13 306.177 327.489 305.476 327.489Z" fill="#D2CEEB"/>
<path d="M301.274 325.331L276.539 310.666C276.74 309.67 277.011 308.685 277.353 307.717L280.587 308.313L301.276 320.579C301.604 320.774 301.965 320.867 302.321 320.867C303.024 320.867 303.707 320.507 304.091 319.86L307.947 313.357L314.329 314.533L308.042 325.137C305.793 325.249 303.533 325.313 301.274 325.331Z" fill="#D1CCEB"/>
<path d="M276.54 310.666L274.528 309.474C274.7 308.746 274.905 308.023 275.146 307.31L277.353 307.717C277.011 308.685 276.74 309.67 276.54 310.666Z" fill="#DFDDF2"/>
<path d="M350.098 254.2L351.449 246.874L353.32 248.766L350.098 254.2ZM369.242 221.91L364.816 217.436L365.114 216.933C367.635 216.326 370.216 215.959 372.845 215.834L369.242 221.91ZM366.655 214.332L401.052 156.317L404.523 158.375C405.499 158.954 405.82 160.214 405.242 161.19L382.88 198.909C382.625 198.886 382.371 198.875 382.119 198.875C377.875 198.875 374.134 202.006 373.505 206.336L372.443 213.632C370.488 213.738 368.557 213.972 366.655 214.332ZM374.861 212.435L375.699 206.656C376.142 203.616 378.628 201.368 381.57 201.118L374.861 212.435Z" fill="#D7D3EE"/>
<path d="M365.115 216.935L366.656 214.334C368.557 213.973 370.489 213.739 372.444 213.634L373.505 206.338C374.134 202.008 377.876 198.877 382.119 198.877C382.371 198.877 382.625 198.888 382.88 198.91L381.57 201.119C378.629 201.37 376.143 203.618 375.7 206.658L374.861 212.437L372.845 215.835C370.217 215.96 367.635 216.328 365.115 216.935Z" fill="#E2DFF2"/>
<path d="M301.277 320.58L179.879 248.605C178.904 248.027 178.581 246.766 179.16 245.79L277.159 80.4986C277.737 79.5222 278.997 79.2005 279.974 79.7796L401.371 151.753C402.347 152.332 402.669 153.592 402.09 154.568L304.091 319.86C303.513 320.836 302.253 321.159 301.277 320.58Z" fill="#99C6FF"/>
<path d="M348.681 261.885C348.442 260.531 348.194 259.179 347.949 257.826L350.098 254.202L348.681 261.885Z" fill="#D7D3EE"/>
<path d="M336.522 318.587C336.399 318.587 336.274 318.576 336.148 318.553L330.923 317.59C331.049 316.01 331.059 314.421 330.952 312.827L333.182 313.238C333.198 313.241 333.215 313.243 333.232 313.246L335.201 313.609L335.566 311.629C335.569 311.615 335.571 311.602 335.574 311.59L335.849 310.096L335.864 310.091C339.421 308.964 341.398 305.155 340.272 301.598C339.857 300.288 339.074 299.161 338.018 298.328L338.573 295.32C338.961 295.112 339.335 294.874 339.694 294.606L343.123 292.049L338.54 316.905C338.357 317.895 337.494 318.587 336.522 318.587Z" fill="#D1CCEB"/>
<path d="M328.727 317.185L322.214 315.984C322.281 314.38 322.187 312.766 321.928 311.162L328.696 312.411C328.831 314.008 328.841 315.601 328.727 317.185ZM336.341 307.427L337.526 300.997C337.798 301.38 338.012 301.806 338.158 302.267C338.782 304.241 337.984 306.332 336.341 307.427Z" fill="#D1CCEB"/>
<path d="M320.007 315.578L314.329 314.531L316.878 310.232L319.595 310.734C319.915 312.34 320.051 313.964 320.007 315.578ZM339.138 292.253L343.965 266.066C344.601 268.366 345.502 270.619 346.675 272.776L343.714 288.838L339.138 292.253ZM347.356 269.079C346.41 266.832 345.755 264.504 345.386 262.15L347.95 257.825C348.195 259.178 348.442 260.53 348.682 261.884L347.356 269.079Z" fill="#D1CCEB"/>
<path d="M330.923 317.59L328.727 317.186C328.842 315.602 328.832 314.009 328.696 312.412L330.952 312.828C331.059 314.422 331.049 316.011 330.923 317.59ZM335.849 310.096L336.342 307.428C337.985 306.333 338.782 304.243 338.158 302.268C338.012 301.807 337.798 301.381 337.526 300.998L338.018 298.329C339.074 299.161 339.857 300.288 340.272 301.599C341.398 305.156 339.421 308.964 335.864 310.092L335.849 310.096Z" fill="#DFDDF2"/>
<path d="M322.215 315.984L320.007 315.577C320.051 313.964 319.915 312.34 319.595 310.733L321.928 311.163C322.187 312.766 322.281 314.38 322.215 315.984Z" fill="#DFDDF2"/>
<path d="M338.573 295.32L339.139 292.254L343.714 288.839L343.123 292.05L339.694 294.607C339.335 294.874 338.961 295.113 338.573 295.32Z" fill="#DFDDF2"/>
<path d="M346.675 272.777C345.502 270.619 344.601 268.367 343.964 266.067L344.371 263.861L345.385 262.15C345.755 264.505 346.41 266.832 347.356 269.079L346.675 272.777Z" fill="#DFDDF2"/>
<path d="M265.035 305.444L244.4 301.641V296.873L257.28 299.246L258.38 299.898C258.949 301.545 260.106 302.886 261.657 303.691L265.035 305.444Z" fill="#D1CCEB"/>
<path d="M268.951 306.168L268.632 306.11C268.643 306.072 268.654 306.035 268.665 305.999L268.951 306.168Z" fill="#D1CCEB"/>
<path d="M268.632 306.108L265.035 305.444L261.657 303.691C260.105 302.886 258.948 301.545 258.379 299.898L268.665 305.997C268.654 306.034 268.643 306.07 268.632 306.108Z" fill="#DFDDF2"/>
<path d="M242.181 301.232L199.753 293.411V291.302H214.18L242.181 296.463V301.232ZM202.142 289.083H199.753V288.643L202.142 289.083Z" fill="#D1CCEB"/>
<path d="M244.4 301.643L242.181 301.234V296.465L244.4 296.875V301.643ZM214.18 291.304H199.753V289.085H202.142L214.18 291.304Z" fill="#E3E3F4"/>
<path d="M372.173 134.443L368.616 132.334L369.93 125.207L371.727 125.539C372.842 125.744 373.58 126.816 373.374 127.931L372.173 134.443Z" fill="#D1CCEB"/>
<path d="M314.329 314.533L307.947 313.357L310.496 309.058L316.878 310.234L314.329 314.533Z" fill="#BBB6E1"/>
<path d="M258.38 299.898L257.28 299.246L258.234 299.422C258.261 299.524 258.291 299.626 258.323 299.727C258.341 299.785 258.36 299.841 258.38 299.898Z" fill="#BBB6E1"/>
<path d="M275.146 307.308L268.952 306.166L268.666 305.997C268.678 305.957 268.69 305.917 268.703 305.877L268.978 304.99L262.68 301.721C261.875 301.304 261.227 300.67 260.797 299.895L268.914 301.39L275.837 305.495C275.581 306.092 275.351 306.697 275.146 307.308Z" fill="#BBB6E1"/>
<path d="M280.587 308.313L277.353 307.717C277.481 307.356 277.617 306.996 277.765 306.64L280.587 308.313Z" fill="#BBB6E1"/>
<path d="M268.666 305.997L258.38 299.898C258.36 299.842 258.341 299.785 258.323 299.727C258.291 299.626 258.261 299.524 258.235 299.422L260.798 299.895C261.227 300.67 261.875 301.304 262.68 301.721L268.979 304.991L268.704 305.877C268.69 305.917 268.678 305.957 268.666 305.997Z" fill="#C9C5E7"/>
<path d="M277.353 307.716L275.146 307.309C275.351 306.698 275.581 306.093 275.837 305.496L277.764 306.639C277.617 306.995 277.48 307.355 277.353 307.716Z" fill="#C9C5E7"/>
<path d="M347.949 257.827C347.532 255.525 347.12 253.227 346.755 250.93L347.566 246.533L348.894 244.293L351.449 246.876L350.098 254.202L347.949 257.827Z" fill="#C2BCE4"/>
<path d="M345.386 262.151C345.265 261.379 345.175 260.605 345.115 259.83L346.755 250.93C347.12 253.226 347.533 255.524 347.95 257.826L345.386 262.151Z" fill="#BBB6E1"/>
<path d="M344.372 263.861L345.115 259.83C345.175 260.605 345.265 261.378 345.386 262.151L344.372 263.861Z" fill="#C9C5E7"/>
<path d="M307.948 313.356L280.587 308.312L277.765 306.639L275.837 305.496L268.914 301.391L310.496 309.057L307.948 313.356ZM347.566 246.532L348.123 243.513L348.894 244.292L347.566 246.532ZM358.122 210.67L354.796 207.307L355.31 204.521L368.616 132.333L372.173 134.443L358.122 210.67Z" fill="#DF8AB2"/>
<path d="M335.201 313.61L192.369 287.281L227.948 94.2667L370.779 120.594L335.201 313.61Z" fill="white"/>
<path d="M333.231 313.246C333.215 313.243 333.198 313.241 333.181 313.237L330.951 312.827C330.951 312.826 330.951 312.826 330.951 312.826L333.231 313.246Z" fill="#DEB6DC"/>
<path d="M328.696 312.412L321.928 311.163L328.696 312.411C328.696 312.411 328.696 312.411 328.696 312.412Z" fill="#DEB6DC"/>
<path d="M319.595 310.734L316.878 310.233H316.879L319.595 310.733C319.595 310.733 319.595 310.733 319.595 310.734Z" fill="#DEB6DC"/>
<path d="M330.952 312.827L328.696 312.411C328.696 312.41 328.696 312.41 328.696 312.41L330.952 312.826C330.952 312.826 330.952 312.826 330.952 312.827Z" fill="#E9C2DD"/>
<path d="M321.928 311.164L319.595 310.735C319.595 310.734 319.595 310.734 319.595 310.734L321.928 311.164Z" fill="#E9C2DD"/>
<path d="M335.566 311.63L335.849 310.097L335.574 311.592C335.572 311.604 335.569 311.617 335.566 311.63ZM338.018 298.33L338.573 295.321L338.018 298.33Z" fill="#DEB6DC"/>
<path d="M336.34 307.429L337.526 300.999L336.341 307.429H336.34Z" fill="#DEB6DC"/>
<path d="M339.137 292.254L343.965 266.066V266.067L339.139 292.254H339.137Z" fill="#DEB6DC"/>
<path d="M335.849 310.097L336.34 307.428H336.341L335.849 310.097ZM337.526 300.999L338.018 298.33L337.526 300.999Z" fill="#E9C2DD"/>
<path d="M338.573 295.32L339.137 292.254H339.139L338.573 295.32Z" fill="#E9C2DD"/>
<path d="M343.964 266.067V266.066L344.371 263.862L343.964 266.067Z" fill="#E9C2DD"/>
<path d="M257.28 299.246L244.4 296.873V296.872L257.279 299.246H257.28ZM242.181 296.464L214.18 291.302H214.182L242.181 296.462V296.464ZM202.144 289.083H202.142L199.753 288.643V288.642L202.144 289.083Z" fill="#DEB6DC"/>
<path d="M244.4 296.874L242.182 296.464V296.463L244.4 296.872V296.874ZM214.182 291.303H214.18L202.142 289.084H202.144L214.182 291.303Z" fill="#EBC5DD"/>
<path d="M316.878 310.233L310.496 309.057V309.056L316.879 310.233H316.878Z" fill="#D3AAD6"/>
<path d="M258.234 299.423L257.28 299.246H257.279L258.234 299.422C258.234 299.423 258.234 299.423 258.234 299.423Z" fill="#D3AAD6"/>
<path d="M268.914 301.391L260.797 299.896C260.797 299.896 260.797 299.896 260.797 299.894L268.913 301.391H268.914Z" fill="#D3AAD6"/>
<path d="M260.798 299.895L258.235 299.422C258.235 299.422 258.235 299.422 258.235 299.421L260.798 299.893C260.798 299.895 260.798 299.895 260.798 299.895Z" fill="#DAB3D5"/>
<path d="M346.755 250.93V250.929L347.566 246.533L346.755 250.93Z" fill="#D6AED6"/>
<path d="M345.115 259.829C345.115 259.828 345.115 259.829 345.115 259.828L346.755 250.927V250.928L345.115 259.829Z" fill="#D3AAD6"/>
<path d="M344.372 263.861L345.115 259.828C345.115 259.83 345.115 259.828 345.115 259.83L344.372 263.861Z" fill="#DAB3D5"/>
<path d="M310.496 309.057L268.914 301.391H268.913L310.496 309.056V309.057ZM347.566 246.532L348.122 243.512H348.123L347.566 246.532ZM354.796 207.307L355.31 204.521L354.796 207.307Z" fill="#E98EB3"/>
<path d="M333.556 313.272C333.449 313.272 333.34 313.264 333.231 313.247L330.951 312.826L328.696 312.41L321.928 311.163L319.595 310.733L316.879 310.233L310.496 309.055L268.913 301.391L260.797 299.894L258.234 299.422L257.279 299.247L244.4 296.872L242.181 296.463L214.182 291.303L202.144 289.084L199.753 288.642V247.226L202.057 234.723H228.569C233.46 234.723 237.994 233.006 241.72 230.079L271.261 235.524L271.464 235.543C271.989 235.543 272.456 235.169 272.553 234.634C272.665 234.031 272.267 233.453 271.665 233.342L243.825 228.21C245.778 226.259 247.434 223.939 248.703 221.347C254.541 222.652 260.606 223.34 266.831 223.34C276.472 223.34 285.852 221.714 294.698 218.557L329.844 225.035L348.122 243.512L347.566 246.532L346.755 250.928L345.115 259.828L344.372 263.861L343.964 266.066L339.137 292.254L338.572 295.32L338.018 298.329L337.526 300.998L336.34 307.428L335.849 310.096L335.566 311.629C335.368 312.598 334.514 313.272 333.556 313.272ZM327.115 222.276L298.651 217.029C304.607 214.547 310.294 211.35 315.623 207.467C315.572 208.329 315.876 209.208 316.535 209.868L320.393 213.725C321.543 211.797 324.696 208.198 328.22 204.563C324.696 208.198 321.543 211.797 320.393 213.725C319.978 214.419 319.818 214.9 320 215.083L327.115 222.276ZM354.796 207.307L341.244 193.608C341.197 193.56 341.129 193.537 341.041 193.537C340.738 193.537 340.202 193.808 339.493 194.289L335.803 190.599C335.195 189.99 334.401 189.688 333.606 189.688C333.597 189.688 333.59 189.688 333.582 189.688C339.012 182.373 343.137 174.364 345.878 165.897C345.928 165.8 345.965 165.696 345.986 165.585C345.988 165.57 345.991 165.555 345.992 165.541C348.286 158.346 349.584 150.818 349.838 143.103C350.049 142.942 350.203 142.705 350.255 142.423C350.329 142.016 350.173 141.621 349.877 141.372C349.881 141.01 349.885 140.648 349.885 140.286C349.885 131.871 348.625 123.741 346.286 116.079L368.759 120.222C369.875 120.427 370.613 121.499 370.408 122.614L355.31 204.521L354.796 207.307Z" fill="#FDE1EA"/>
<path d="M349.165 143.331L348.962 143.312L314.22 136.908C313.617 136.797 313.219 136.219 313.33 135.617C313.442 135.014 314.012 134.616 314.623 134.727L349.366 141.131C349.968 141.242 350.366 141.82 350.255 142.422C350.157 142.957 349.691 143.331 349.165 143.331Z" fill="white"/>
<path d="M347.119 154.431L346.917 154.413L312.174 148.008C311.571 147.897 311.173 147.319 311.284 146.717C311.396 146.115 311.968 145.716 312.577 145.827L347.319 152.231C347.922 152.342 348.32 152.921 348.209 153.523C348.111 154.057 347.645 154.431 347.119 154.431Z" fill="white"/>
<path d="M344.896 166.495L344.694 166.477L309.951 160.073C309.348 159.962 308.95 159.383 309.062 158.78C309.172 158.179 309.743 157.781 310.354 157.891L345.096 164.295C345.699 164.405 346.097 164.985 345.986 165.587C345.887 166.122 345.42 166.495 344.896 166.495Z" fill="white"/>
<path d="M288.956 173.033L232.209 162.573C231.001 162.351 230.203 161.191 230.425 159.984L241.597 99.3756C241.819 98.1674 242.98 97.3686 244.187 97.5916L300.934 108.052C302.142 108.275 302.941 109.434 302.719 110.642L291.547 171.251C291.324 172.458 290.165 173.256 288.956 173.033Z" fill="#6C92D3"/>
<path d="M257.643 135.239C257.213 135.239 256.777 135.2 256.338 135.119L255.492 134.963C251 134.135 248.016 129.805 248.844 125.31L250.979 113.728C251.145 112.824 252.019 112.225 252.917 112.394C253.822 112.56 254.419 113.428 254.253 114.332L252.118 125.914C251.622 128.603 253.407 131.194 256.095 131.69L256.942 131.846C259.033 132.234 261.046 130.844 261.431 128.753L266.835 99.4384C267.232 97.2815 265.801 95.2024 263.644 94.8041L262.196 94.5378C259.898 94.1151 257.7 95.6362 257.276 97.9262L257.144 98.6495C256.975 99.5537 256.098 100.151 255.206 99.9842C254.301 99.8178 253.703 98.9502 253.87 98.0471L254.003 97.3226C254.76 93.2264 258.707 90.5082 262.799 91.2649L264.247 91.5311C268.209 92.2612 270.838 96.0789 270.109 100.041L264.705 129.356C264.067 132.813 261.038 135.239 257.643 135.239Z" fill="#3C419F"/>
<path d="M263.42 110.624L263.318 110.615L241.141 106.527C240.839 106.471 240.64 106.183 240.696 105.881C240.751 105.579 241.036 105.375 241.341 105.436L263.52 109.523C263.82 109.579 264.02 109.868 263.965 110.17C263.915 110.438 263.682 110.624 263.42 110.624Z" fill="white"/>
<path d="M331.233 225.273L331.03 225.254L224.873 205.686C224.27 205.575 223.871 204.997 223.983 204.394C224.095 203.792 224.664 203.39 225.275 203.504L331.434 223.072C332.036 223.183 332.435 223.762 332.323 224.365C332.225 224.899 331.759 225.273 331.233 225.273Z" fill="white"/>
<path d="M323.644 266.449L323.442 266.431L217.282 246.864C216.679 246.753 216.281 246.175 216.392 245.571C216.503 244.97 217.074 244.566 217.685 244.681L323.844 264.249C324.447 264.359 324.845 264.938 324.734 265.542C324.635 266.075 324.168 266.449 323.644 266.449Z" fill="white"/>
<path d="M271.464 235.542L271.261 235.523L221.077 226.272C220.475 226.163 220.075 225.583 220.187 224.98C220.299 224.378 220.87 223.974 221.48 224.09L271.665 233.341C272.267 233.452 272.665 234.03 272.553 234.633C272.456 235.168 271.989 235.542 271.464 235.542Z" fill="white"/>
<path d="M278.378 198.03L278.176 198.013L227.991 188.763C227.389 188.651 226.99 188.073 227.102 187.47C227.213 186.869 227.786 186.471 228.395 186.581L278.579 195.83C279.181 195.94 279.579 196.519 279.468 197.123C279.37 197.656 278.904 198.03 278.378 198.03Z" fill="white"/>
<path d="M327.468 245.702L327.266 245.683L279.451 236.869C278.848 236.758 278.45 236.18 278.561 235.577C278.672 234.975 279.243 234.574 279.854 234.687L327.668 243.502C328.271 243.611 328.669 244.191 328.558 244.794C328.459 245.328 327.993 245.702 327.468 245.702Z" fill="white"/>
<path d="M316.227 27.6299H257.224C255.182 27.6299 253.527 25.9734 253.527 23.932V4.19785C253.527 2.15531 255.182 0.499971 257.224 0.499971H316.227C318.269 0.499971 319.925 2.15531 319.925 4.19785V23.932C319.925 25.9734 318.269 27.6299 316.227 27.6299Z" fill="#0169EE"/>
<path d="M360.675 57.2007H278.141C276.1 57.2007 274.443 55.5453 274.443 53.5028V24.154C274.443 22.1125 276.1 20.4572 278.141 20.4572H360.675C362.717 20.4572 364.373 22.1125 364.373 24.154V53.5028C364.373 55.5453 362.717 57.2007 360.675 57.2007Z" fill="#F795B4"/>
<path d="M296.422 49.4336H387.815C390.576 49.4336 392.835 51.6925 392.835 54.4539V82.4503C392.835 85.2118 390.576 87.4707 387.815 87.4707H296.422C293.661 87.4707 291.402 85.2118 291.402 82.4503V54.4539C291.402 51.6925 293.661 49.4336 296.422 49.4336Z" fill="white"/>
<path d="M387.815 87.4707H330.881C320.697 75.1434 307.029 65.7916 291.402 60.9421V54.4539C291.402 51.6925 293.661 49.4336 296.422 49.4336H387.815C390.576 49.4336 392.835 51.6925 392.835 54.4539V82.4503C392.835 85.2118 390.576 87.4707 387.815 87.4707Z" fill="#0169EE"/>
<path d="M360.636 65.2037C358.818 65.2037 357.339 66.6826 357.339 68.501C357.339 70.3183 358.818 71.7973 360.636 71.7973C362.455 71.7973 363.933 70.3183 363.933 68.501C363.933 66.6826 362.455 65.2037 360.636 65.2037ZM360.636 72.9067C358.206 72.9067 356.229 70.9308 356.229 68.501C356.229 66.0713 358.206 64.0942 360.636 64.0942C363.066 64.0942 365.043 66.0713 365.043 68.501C365.043 70.9308 363.066 72.9067 360.636 72.9067Z" fill="white"/>
<path d="M342.457 65.2037C340.64 65.2037 339.161 66.6826 339.161 68.501C339.161 70.3183 340.64 71.7973 342.457 71.7973C344.275 71.7973 345.754 70.3183 345.754 68.501C345.754 66.6826 344.275 65.2037 342.457 65.2037ZM342.457 72.9067C340.027 72.9067 338.051 70.9308 338.051 68.501C338.051 66.0713 340.027 64.0942 342.457 64.0942C344.888 64.0942 346.864 66.0713 346.864 68.501C346.864 70.9308 344.888 72.9067 342.457 72.9067Z" fill="white"/>
<path d="M325.51 65.2037C323.691 65.2037 322.212 66.6826 322.212 68.501C322.212 70.3183 323.691 71.7973 325.51 71.7973C327.327 71.7973 328.806 70.3183 328.806 68.501C328.806 66.6826 327.327 65.2037 325.51 65.2037ZM325.51 72.9067C323.079 72.9067 321.103 70.9308 321.103 68.501C321.103 66.0713 323.079 64.0942 325.51 64.0942C327.939 64.0942 329.915 66.0713 329.915 68.501C329.915 70.9308 327.939 72.9067 325.51 72.9067Z" fill="white"/>
<path d="M74.0934 3.15616H215.709C218.561 3.15616 220.873 5.46941 220.873 8.32074V216.906C220.873 226.746 212.897 234.722 203.057 234.722H104.728C83.7602 234.722 66.7631 217.725 66.7631 196.758V10.4875C66.7631 6.43909 70.0449 3.15616 74.0934 3.15616Z" fill="white"/>
<path d="M66.7631 10.4893V4.96075C66.7631 3.96556 67.5697 3.15786 68.5649 3.15786H74.0934C70.0449 3.15786 66.7631 6.4408 66.7631 10.4893Z" fill="#BAB0DE"/>
<path d="M80.4506 194.938C78.3449 191.473 74.5338 189.157 70.1825 189.157H66.7631V10.4879C66.7631 6.43942 70.0449 3.15648 74.0934 3.15648H215.709H81.6744C80.9987 3.15648 80.4506 3.70456 80.4506 4.38023V194.938Z" fill="#CBC2E6"/>
<path d="M220.873 71.1372V5.92583C220.873 4.39587 219.634 3.15656 218.104 3.15656H218.684C219.893 3.15656 220.873 4.13734 220.873 5.34666V71.1372Z" fill="#A6A2D8"/>
<path d="M220.872 71.1372V8.32116C220.872 5.46982 218.56 3.15656 215.708 3.15656H218.103C219.633 3.15656 220.872 4.39587 220.872 5.92583V71.1372Z" fill="#8883C9"/>
<path d="M123.373 220.975H94.1535C87.5466 220.975 82.1901 215.619 82.1901 209.011V201.164C82.1901 198.884 81.5544 196.753 80.4504 194.937V4.37962C80.4504 3.70396 80.9985 3.15588 81.6742 3.15588H215.708C218.561 3.15588 220.873 5.46913 220.873 8.32047V71.1365C206.4 80.7867 195.115 94.8526 188.959 111.398H133.391C132.779 111.398 132.282 111.895 132.282 112.508C132.282 113.12 132.779 113.617 133.391 113.617H188.169C186.098 119.709 184.716 126.114 184.117 132.744H106.818C106.205 132.744 105.709 133.241 105.709 133.854C105.709 134.466 106.205 134.963 106.818 134.963H183.946C183.834 136.724 183.778 138.497 183.778 140.285C183.778 163.256 193.149 184.077 208.273 199.127H126.354V208.926C126.354 213.279 125.276 217.378 123.373 220.975Z" fill="#0169EE"/>
<path d="M101.958 234.684V234.724H225.74C239.987 234.724 251.536 223.174 251.536 208.927V199.128H126.354V208.927C126.354 222.704 115.554 233.957 101.958 234.684Z" fill="#5E56B0"/>
<path d="M228.569 234.724H202.057H225.739C231.342 234.724 236.529 232.937 240.759 229.902L241.72 230.079C237.994 233.006 233.46 234.724 228.569 234.724ZM243.825 228.211L243.036 228.066C245.18 226.126 246.995 223.834 248.392 221.278C248.494 221.301 248.601 221.325 248.703 221.348C247.434 223.94 245.778 226.259 243.825 228.211Z" fill="#C9ADD2"/>
<path d="M241.72 230.078L240.759 229.901C241.553 229.331 242.313 228.718 243.035 228.064L243.824 228.21C243.156 228.877 242.453 229.501 241.72 230.078Z" fill="#CCCBE6"/>
<path d="M225.739 234.724H199.753V232.161C199.753 225.984 194.746 220.976 188.57 220.976H137.434C139.129 217.379 140.088 213.28 140.088 208.927V199.128H208.273C219.13 209.934 232.95 217.764 248.393 221.278C246.996 223.834 245.181 226.126 243.036 228.066C242.314 228.719 241.554 229.333 240.759 229.902C236.529 232.937 231.342 234.724 225.739 234.724Z" fill="#5450AC"/>
<path d="M197.483 172.439H108.482C107.87 172.439 107.373 171.942 107.373 171.329C107.373 170.717 107.87 170.22 108.482 170.22H197.483C198.096 170.22 198.592 170.717 198.592 171.329C198.592 171.942 198.096 172.439 197.483 172.439Z" fill="white"/>
<path d="M199.349 134.965H106.818C106.204 134.965 105.708 134.468 105.708 133.856C105.708 133.243 106.204 132.746 106.818 132.746H199.349C199.962 132.746 200.458 133.243 200.458 133.856C200.458 134.468 199.962 134.965 199.349 134.965Z" fill="white"/>
<path d="M152.982 153.685H105.701C105.088 153.685 104.591 153.189 104.591 152.575C104.591 151.963 105.088 151.466 105.701 151.466H152.982C153.595 151.466 154.091 151.963 154.091 152.575C154.091 153.189 153.595 153.685 152.982 153.685Z" fill="white"/>
<path d="M149.4 153.685H109.282C108.669 153.685 108.173 153.189 108.173 152.575C108.173 151.963 108.669 151.466 109.282 151.466H149.4C150.012 151.466 150.509 151.963 150.509 152.575C150.509 153.189 150.012 153.685 149.4 153.685Z" fill="white"/>
<path d="M168.373 94.8975H107.462C106.848 94.8975 106.352 94.4004 106.352 93.788C106.352 93.1756 106.848 92.6785 107.462 92.6785H168.373C168.985 92.6785 169.482 93.1756 169.482 93.788C169.482 94.4004 168.985 94.8975 168.373 94.8975Z" fill="white"/>
<path d="M196.61 94.8975H178.056C177.443 94.8975 176.947 94.4004 176.947 93.788C176.947 93.1756 177.443 92.6785 178.056 92.6785H196.61C197.224 92.6785 197.719 93.1756 197.719 93.788C197.719 94.4004 197.224 94.8975 196.61 94.8975Z" fill="white"/>
<path d="M199.349 113.619H133.391C132.779 113.619 132.282 113.122 132.282 112.509C132.282 111.897 132.779 111.4 133.391 111.4H199.349C199.963 111.4 200.459 111.897 200.459 112.509C200.459 113.122 199.963 113.619 199.349 113.619Z" fill="white"/>
<path d="M126.876 113.619H106.818C106.204 113.619 105.708 113.122 105.708 112.509C105.708 111.897 106.204 111.4 106.818 111.4H126.876C127.488 111.4 127.986 111.897 127.986 112.509C127.986 113.122 127.488 113.619 126.876 113.619Z" fill="white"/>
<path d="M197.483 79.0444H108.482C107.87 79.0444 107.373 78.5474 107.373 77.935C107.373 77.3214 107.87 76.8255 108.482 76.8255H197.483C198.096 76.8255 198.592 77.3214 198.592 77.935C198.592 78.5474 198.096 79.0444 197.483 79.0444Z" fill="white"/>
<path d="M197.483 41.5708H108.482C107.87 41.5708 107.373 41.0738 107.373 40.4613C107.373 39.8478 107.87 39.3519 108.482 39.3519H197.483C198.096 39.3519 198.592 39.8478 198.592 40.4613C198.592 41.0738 198.096 41.5708 197.483 41.5708Z" fill="white"/>
<path d="M141.146 60.2925H107.462C106.848 60.2925 106.352 59.7954 106.352 59.183C106.352 58.5695 106.848 58.0735 107.462 58.0735H141.146C141.759 58.0735 142.256 58.5695 142.256 59.183C142.256 59.7954 141.759 60.2925 141.146 60.2925Z" fill="white"/>
<path d="M196.805 60.2925H156.688C156.075 60.2925 155.578 59.7954 155.578 59.183C155.578 58.5695 156.075 58.0735 156.688 58.0735H196.805C197.419 58.0735 197.915 58.5695 197.915 59.183C197.915 59.7954 197.419 60.2925 196.805 60.2925Z" fill="white"/>
<path d="M220.873 132.647V118.729C221.999 116.162 223.312 113.7 224.798 111.353L220.873 132.647ZM326.229 107.203L279.974 79.7789C279.644 79.5837 279.284 79.4916 278.927 79.4916C278.226 79.4916 277.543 79.851 277.159 80.4979L268.87 94.4783C267.806 92.9861 266.186 91.8888 264.247 91.5316L262.799 91.2653C262.339 91.1799 261.879 91.1388 261.427 91.1388C257.859 91.1388 254.674 93.6884 254.003 97.323L253.87 98.0475C253.803 98.4081 253.859 98.7631 254.006 99.0693L238.859 96.2768C248.036 89.5223 259.365 85.5271 271.609 85.5271C274.06 85.5271 276.047 83.54 276.047 81.0892C276.047 78.6384 274.06 76.6513 271.609 76.6513C251.006 76.6513 232.638 86.4003 220.873 101.527V90.208C232.985 79.0833 249.128 72.2844 266.831 72.2844C275.491 72.2844 283.777 73.9121 291.402 76.8766V82.4505C291.402 85.212 293.661 87.4709 296.423 87.4709H309.62C316.328 92.9162 321.986 99.6152 326.229 107.203ZM264.951 101.087L256.648 99.5564C256.897 99.3223 257.076 99.0105 257.144 98.6499L257.276 97.9266C257.652 95.894 259.425 94.4672 261.427 94.4672C261.681 94.4672 261.938 94.4905 262.197 94.5382L263.644 94.8045C265.288 95.1074 266.509 96.3855 266.823 97.931L264.951 101.087Z" fill="#EDE9F6"/>
<path d="M329.075 112.907L269.753 101.972L270.109 100.041C270.482 98.0187 269.978 96.0339 268.869 94.4784L277.158 80.498C277.542 79.8511 278.226 79.4917 278.927 79.4917C279.283 79.4917 279.644 79.5838 279.973 79.779L326.228 107.203C327.263 109.052 328.214 110.956 329.075 112.907ZM266.479 101.368L264.951 101.088L266.822 97.9311C266.92 98.4148 266.93 98.9241 266.835 99.4388L266.479 101.368Z" fill="#F9ACC4"/>
<path d="M329.076 112.908L269.753 101.973V101.972L329.076 112.907V112.908ZM266.479 101.369L256.648 99.5563L264.951 101.087L266.479 101.368V101.369ZM254.008 99.0704L238.858 96.2778L238.859 96.2767L254.006 99.0693C254.006 99.0693 254.008 99.0693 254.008 99.0704Z" fill="white"/>
<path d="M220.873 132.647L224.798 111.353V111.352L220.873 132.647Z" fill="#F2D2EB"/>
<path d="M266.831 208.288C261.574 208.288 256.453 207.689 251.536 206.554V199.128H232.772C228.489 196.64 224.5 193.696 220.873 190.366V132.648L224.798 111.352C228.509 105.496 233.288 100.378 238.858 96.2781L254.008 99.0706C254.03 99.1161 254.054 99.1616 254.08 99.2049L244.224 97.3886C244.088 97.3631 243.952 97.3509 243.819 97.3509C242.766 97.3509 241.832 98.1009 241.634 99.1727L230.876 157.531L230.425 159.985C230.424 159.987 230.424 159.991 230.422 159.994L229.833 163.188C229.611 164.396 230.41 165.556 231.618 165.779L291.144 176.751C291.28 176.776 291.417 176.788 291.55 176.788C292.602 176.788 293.537 176.038 293.733 174.967L305.534 110.951C305.757 109.744 304.958 108.584 303.751 108.361L269.732 102.091L269.753 101.973L329.075 112.908C332.544 120.76 334.566 129.386 334.808 138.448L314.622 134.728C314.555 134.716 314.486 134.709 314.419 134.709C313.89 134.709 313.43 135.083 313.33 135.618C313.219 136.22 313.617 136.798 314.22 136.909L334.831 140.709C334.813 143.791 334.587 146.832 334.169 149.806L312.578 145.826C312.509 145.813 312.441 145.807 312.375 145.807C311.845 145.807 311.384 146.182 311.284 146.716C311.173 147.318 311.571 147.896 312.174 148.007L333.823 151.998C333.24 155.341 332.412 158.604 331.359 161.761L310.354 157.889C310.285 157.877 310.218 157.871 310.151 157.871C309.621 157.871 309.159 158.244 309.062 158.779C308.95 159.381 309.348 159.961 309.95 160.072L330.612 163.88C321.001 189.781 296.035 208.288 266.831 208.288ZM228.193 186.562C227.664 186.562 227.202 186.935 227.103 187.47C226.991 188.072 227.389 188.65 227.992 188.762L278.176 198.012L278.378 198.03C278.904 198.03 279.37 197.656 279.469 197.122C279.58 196.519 279.181 195.94 278.579 195.83L228.395 186.58C228.327 186.568 228.26 186.562 228.193 186.562ZM266.458 101.487L256.532 99.6575C256.572 99.6253 256.61 99.5921 256.648 99.5565L266.479 101.369L266.458 101.487Z" fill="#FDE1EA"/>
<path d="M334.832 140.709L314.22 136.91C313.617 136.799 313.219 136.221 313.33 135.618C313.43 135.083 313.89 134.709 314.419 134.709C314.486 134.709 314.555 134.716 314.623 134.728L334.808 138.448C334.825 139.061 334.833 139.671 334.833 140.287C334.833 140.429 334.833 140.567 334.832 140.709Z" fill="white"/>
<path d="M333.823 151.999L312.174 148.008C311.571 147.897 311.173 147.319 311.284 146.716C311.384 146.183 311.845 145.808 312.374 145.808C312.441 145.808 312.509 145.813 312.577 145.827L334.169 149.806C334.065 150.543 333.95 151.271 333.823 151.999Z" fill="white"/>
<path d="M330.612 163.88L309.951 160.072C309.348 159.961 308.95 159.381 309.062 158.779C309.159 158.244 309.621 157.871 310.151 157.871C310.218 157.871 310.286 157.877 310.354 157.889L331.359 161.761C331.121 162.474 330.873 163.178 330.612 163.88Z" fill="white"/>
<path d="M291.549 176.787C291.416 176.787 291.28 176.774 291.143 176.75L231.618 165.777C230.41 165.554 229.611 164.395 229.833 163.187L230.422 159.993C230.206 161.196 231.003 162.351 232.208 162.573L288.956 173.033C289.092 173.059 289.227 173.071 289.362 173.071C290.413 173.071 291.349 172.321 291.546 171.25L301.665 116.36L302.368 112.54L302.719 110.642C302.719 110.638 302.72 110.634 302.721 110.631L302.744 110.501C302.953 109.371 302.205 108.286 301.074 108.077L269.694 102.293L269.732 102.089L303.75 108.36C304.957 108.583 305.756 109.742 305.533 110.949L293.733 174.966C293.537 176.037 292.601 176.787 291.549 176.787ZM230.876 157.53L241.633 99.1713C241.832 98.0996 242.766 97.3496 243.819 97.3496C243.952 97.3496 244.087 97.3618 244.224 97.3873L254.079 99.2035C254.131 99.2901 254.191 99.3722 254.258 99.4476L244.122 97.5792C243.99 97.5548 243.858 97.5437 243.728 97.5437C242.707 97.5437 241.8 98.2704 241.609 99.3111L241.469 100.069L230.876 157.53ZM266.42 101.69L256.277 99.8204C256.366 99.7727 256.451 99.7183 256.531 99.6562L266.458 101.486L266.42 101.69Z" fill="#EAD0E4"/>
<path d="M289.362 173.073C289.228 173.073 289.093 173.061 288.956 173.036L232.209 162.575C231.004 162.354 230.206 161.199 230.423 159.995C230.424 159.991 230.424 159.988 230.425 159.986L230.876 157.532L241.47 100.071L240.543 105.097L264.963 109.598L261.431 128.754C261.089 130.609 259.467 131.913 257.647 131.913C257.414 131.913 257.179 131.891 256.942 131.848L256.096 131.691C253.408 131.195 251.622 128.605 252.118 125.915L254.253 114.333C254.419 113.429 253.822 112.562 252.917 112.395C252.815 112.376 252.714 112.367 252.613 112.367C251.831 112.367 251.126 112.929 250.979 113.73L248.844 125.312C248.017 129.806 251 134.136 255.492 134.964L256.339 135.12C256.777 135.201 257.213 135.24 257.643 135.24C261.038 135.24 264.067 132.815 264.705 129.358L268.237 110.202L301.665 116.363L291.547 171.253C291.349 172.323 290.414 173.073 289.362 173.073ZM241.236 105.425C240.973 105.425 240.745 105.615 240.696 105.881C240.641 106.183 240.839 106.472 241.141 106.527L263.318 110.616L263.42 110.624C263.682 110.624 263.915 110.438 263.965 110.171C264.021 109.869 263.821 109.579 263.52 109.524L241.342 105.437C241.307 105.429 241.27 105.425 241.236 105.425ZM302.368 112.543L302.721 110.633C302.72 110.637 302.719 110.64 302.719 110.644L302.368 112.543Z" fill="#89ADE0"/>
<path d="M301.664 116.361L302.368 112.541L301.664 116.361ZM302.721 110.632C302.936 109.428 302.138 108.274 300.933 108.053L269.694 102.294L301.074 108.078C302.205 108.287 302.953 109.372 302.744 110.502L302.721 110.632Z" fill="#EAD4E6"/>
<path d="M301.665 116.361L268.236 110.2L269.694 102.294L300.934 108.053C302.138 108.274 302.936 109.428 302.721 110.632L302.368 112.541L301.665 116.361Z" fill="#90B3E3"/>
<path d="M266.42 101.691L256.276 99.8214H256.277L266.42 101.691ZM241.469 100.07L241.609 99.3122C241.8 98.2715 242.707 97.5448 243.728 97.5448C243.858 97.5448 243.99 97.5559 244.122 97.5803L254.258 99.4487L244.186 97.5925C244.05 97.567 243.914 97.5548 243.781 97.5548C242.729 97.5548 241.794 98.3048 241.597 99.3765L241.469 100.07Z" fill="#EAD4E6"/>
<path d="M264.962 109.597L240.543 105.096L241.469 100.07L241.597 99.3767C241.794 98.305 242.73 97.555 243.782 97.555C243.915 97.555 244.05 97.5672 244.186 97.5927L254.258 99.4488C254.497 99.7195 254.824 99.9148 255.206 99.9847C255.306 100.004 255.407 100.012 255.505 100.012C255.778 100.012 256.042 99.9448 256.276 99.8216L266.42 101.691L264.962 109.597Z" fill="#90B3E3"/>
<path d="M257.643 135.239C257.213 135.239 256.777 135.2 256.338 135.119L255.492 134.963C251 134.135 248.016 129.805 248.844 125.31L250.979 113.728C251.126 112.927 251.831 112.366 252.613 112.366C252.714 112.366 252.815 112.375 252.917 112.394C253.822 112.56 254.419 113.428 254.253 114.332L252.118 125.914C251.622 128.603 253.407 131.194 256.095 131.69L256.942 131.846C257.178 131.889 257.414 131.911 257.646 131.911C259.467 131.911 261.089 130.608 261.431 128.753L264.962 109.597L266.42 101.691L266.458 101.486L266.479 101.369V101.368L266.835 99.4384C266.931 98.9236 266.921 98.4143 266.823 97.9306C266.509 96.3851 265.287 95.107 263.644 94.8041L262.196 94.5378C261.938 94.4901 261.681 94.4668 261.426 94.4668C259.425 94.4668 257.652 95.8936 257.276 97.9262L257.144 98.6495C257.076 99.0101 256.896 99.3219 256.648 99.556C256.61 99.5915 256.571 99.6247 256.531 99.6569C256.452 99.719 256.366 99.7734 256.277 99.8211H256.276C256.042 99.9443 255.778 100.012 255.505 100.012C255.406 100.012 255.306 100.003 255.206 99.9842C254.824 99.9143 254.497 99.7191 254.258 99.4483C254.192 99.3729 254.132 99.2908 254.08 99.2043C254.054 99.161 254.03 99.1155 254.007 99.07C254.007 99.0689 254.006 99.0689 254.006 99.0689C253.859 98.7627 253.803 98.4076 253.87 98.0471L254.003 97.3226C254.674 93.688 257.858 91.1384 261.426 91.1384C261.879 91.1384 262.338 91.1795 262.799 91.2649L264.247 91.5311C266.186 91.8884 267.806 92.9857 268.87 94.4779C269.978 96.0334 270.482 98.0182 270.109 100.041L269.753 101.971V101.972L269.732 102.09L269.694 102.294L268.236 110.2L264.705 129.356C264.067 132.813 261.038 135.239 257.643 135.239Z" fill="#6465B6"/>
<path d="M263.42 110.624L263.318 110.615L241.141 106.527C240.839 106.471 240.64 106.183 240.696 105.881C240.745 105.615 240.972 105.425 241.235 105.425C241.269 105.425 241.306 105.428 241.341 105.436L263.52 109.523C263.82 109.579 264.02 109.868 263.965 110.17C263.915 110.438 263.682 110.624 263.42 110.624Z" fill="white"/>
<path d="M278.378 198.03L278.176 198.013L227.991 188.763C227.389 188.651 226.99 188.073 227.102 187.47C227.201 186.936 227.664 186.563 228.193 186.563C228.26 186.563 228.326 186.568 228.395 186.581L278.579 195.83C279.181 195.94 279.579 196.519 279.468 197.123C279.37 197.656 278.904 198.03 278.378 198.03Z" fill="white"/>
<path d="M309.619 87.4707H296.422C293.661 87.4707 291.402 85.2118 291.402 82.4503V76.8764C298.041 79.4581 304.176 83.0517 309.619 87.4707Z" fill="#AEA3D9"/>
<path d="M220.873 190.366C207.331 177.928 198.829 160.081 198.829 140.287C198.829 138.495 198.899 136.722 199.035 134.965H199.349C199.963 134.965 200.459 134.468 200.459 133.855C200.459 133.243 199.963 132.746 199.349 132.746H199.245C201.102 115.988 209.075 101.045 220.873 90.2087V101.528C212.41 112.409 207.365 126.075 207.365 140.896C207.365 143.347 209.354 145.334 211.803 145.334C214.254 145.334 216.242 143.347 216.242 140.896C216.242 133.019 217.895 125.52 220.873 118.73V190.366Z" fill="#ACA6DA"/>
<path d="M251.535 206.553C244.852 205.011 238.545 202.482 232.772 199.127H251.535V206.553Z" fill="#7974C1"/>
<path d="M199.349 134.965H199.035C199.092 134.222 199.162 133.482 199.244 132.746H199.349C199.962 132.746 200.458 133.243 200.458 133.856C200.458 134.468 199.962 134.965 199.349 134.965Z" fill="white"/>
<path d="M220.873 118.729V101.527C232.638 86.4006 251.006 76.6517 271.609 76.6517C274.06 76.6517 276.047 78.6387 276.047 81.0896C276.047 83.5404 274.06 85.5274 271.609 85.5274C259.365 85.5274 248.036 89.5226 238.859 96.2771L227.948 94.2668L227.582 96.2527C227.58 96.2638 227.578 96.2749 227.575 96.2871L224.798 111.354C223.312 113.7 221.999 116.162 220.873 118.729Z" fill="#F4F4F4"/>
<path d="M238.857 96.2783L229.968 94.6396C229.842 94.6163 229.716 94.6052 229.593 94.6052C228.633 94.6052 227.778 95.2809 227.582 96.2528L227.948 94.2669L238.859 96.2772L238.857 96.2783Z" fill="white"/>
<path d="M224.798 111.354L227.575 96.2869C227.577 96.2747 227.58 96.2636 227.582 96.2525L224.798 111.352V111.354Z" fill="#FCF8FC"/>
<path d="M224.798 111.353L227.582 96.2526C227.778 95.2807 228.633 94.605 229.593 94.605C229.717 94.605 229.842 94.6161 229.968 94.6394L238.857 96.2781C233.288 100.378 228.508 105.496 224.798 111.353Z" fill="#F4F4F4"/>
<path d="M211.803 145.334C209.354 145.334 207.365 143.347 207.365 140.897C207.365 126.075 212.41 112.41 220.873 101.528V118.73C217.895 125.52 216.242 133.019 216.242 140.897C216.242 143.347 214.254 145.334 211.803 145.334Z" fill="#F4F4F4"/>
<path d="M328.087 108.304L326.228 107.202C321.986 99.6143 316.327 92.9154 309.62 87.4701H311.358C318.195 93.2427 323.9 100.316 328.087 108.304Z" fill="#8584CA"/>
<path d="M330.391 113.149L329.075 112.906C328.214 110.956 327.264 109.052 326.228 107.203L328.087 108.304C328.916 109.884 329.684 111.5 330.391 113.149Z" fill="#886CB2"/>
<path d="M330.391 113.149L329.075 112.908V112.906L330.391 113.149Z" fill="#8F8ECB"/>
<path d="M266.831 209.397C261.576 209.397 256.457 208.808 251.536 207.692V206.554C256.453 207.689 261.574 208.288 266.831 208.288C296.035 208.288 321.001 189.781 330.612 163.88L331.72 164.083C322.001 190.505 296.581 209.397 266.831 209.397ZM332.46 161.964L331.359 161.761C332.412 158.604 333.24 155.341 333.823 151.998L334.914 152.2C334.331 155.543 333.508 158.803 332.46 161.964ZM335.261 150.006L334.169 149.806C334.587 146.832 334.812 143.791 334.831 140.709L335.94 140.913C335.912 143.995 335.681 147.032 335.261 150.006ZM335.923 138.653L334.808 138.448C334.566 129.386 332.544 120.76 329.075 112.908L330.391 113.15C333.761 121.011 335.712 129.623 335.923 138.653Z" fill="#8C80C1"/>
<path d="M335.939 140.914L334.831 140.709C334.832 140.567 334.832 140.429 334.832 140.287C334.832 139.671 334.824 139.061 334.808 138.448L335.923 138.654C335.935 139.197 335.941 139.741 335.941 140.287C335.941 140.496 335.94 140.704 335.939 140.914Z" fill="#8F8ECB"/>
<path d="M334.915 152.201L333.823 151.999C333.951 151.271 334.065 150.543 334.169 149.806L335.261 150.007C335.157 150.743 335.041 151.473 334.915 152.201Z" fill="#8F8ECB"/>
<path d="M331.72 164.084L330.612 163.881C330.873 163.179 331.121 162.475 331.358 161.762L332.46 161.965C332.225 162.675 331.978 163.384 331.72 164.084Z" fill="#8F8ECB"/>
<path d="M220.873 90.2075V88.712C233.095 77.8081 249.202 71.1745 266.831 71.1745C275.481 71.1745 283.764 72.7722 291.402 75.6867V76.8761C283.777 73.9116 275.491 72.284 266.831 72.284C249.128 72.284 232.985 79.0828 220.873 90.2075Z" fill="#8584CA"/>
<path d="M311.358 87.4707H309.619C304.176 83.0517 298.041 79.4581 291.402 76.8764V75.687C298.73 78.484 305.464 82.4947 311.358 87.4707Z" fill="#6966BA"/>
<path d="M232.772 199.128H230.614C227.153 196.99 223.895 194.557 220.873 191.861V190.365C224.5 193.696 228.489 196.639 232.772 199.128Z" fill="#8C80C1"/>
<path d="M220.873 191.86C206.674 179.195 197.719 160.766 197.719 140.285C197.719 138.495 197.788 136.721 197.922 134.963H199.035C198.899 136.721 198.829 138.494 198.829 140.285C198.829 160.08 207.331 177.927 220.873 190.365V191.86Z" fill="#6868BA"/>
<path d="M199.245 132.745H198.129C200.029 115.309 208.441 99.8027 220.873 88.7124V90.208C209.075 101.044 201.103 115.988 199.245 132.745Z" fill="#6868BA"/>
<path d="M251.536 207.691C244.028 205.988 236.98 203.059 230.615 199.127H232.772C238.546 202.482 244.852 205.011 251.536 206.553V207.691Z" fill="#5454AE"/>
<path d="M199.035 134.965H197.923C197.979 134.224 198.048 133.481 198.129 132.746H199.245C199.163 133.482 199.093 134.222 199.035 134.965Z" fill="#8F8ECB"/>
<path d="M266.83 210.507C228.049 210.507 196.61 179.068 196.61 140.288C196.61 101.505 228.049 70.0669 266.83 70.0669C305.612 70.0669 337.051 101.505 337.051 140.288C337.051 179.068 305.612 210.507 266.83 210.507ZM331.374 190.6C331.477 190.496 331.592 190.414 331.707 190.328C342.4 176.484 348.775 159.134 348.775 140.288C348.775 95.0311 312.087 58.3432 266.83 58.3432C221.574 58.3432 184.887 95.0311 184.887 140.288C184.887 185.543 221.574 222.231 266.83 222.231C285.598 222.231 302.874 215.898 316.69 205.284L326.169 195.803L331.374 190.6Z" fill="#3C419F"/>
<path d="M266.831 71.1752C228.723 71.1752 197.72 102.178 197.72 140.286C197.72 178.396 228.723 209.398 266.831 209.398C304.939 209.398 335.942 178.396 335.942 140.286C335.942 102.178 304.939 71.1752 266.831 71.1752ZM266.831 211.617C227.499 211.617 195.501 179.618 195.501 140.286C195.501 100.956 227.499 68.9563 266.831 68.9563C306.163 68.9563 338.161 100.956 338.161 140.286C338.161 179.618 306.163 211.617 266.831 211.617ZM266.831 59.4525C222.259 59.4525 185.997 95.7145 185.997 140.286C185.997 184.859 222.259 221.121 266.831 221.121C284.749 221.121 301.734 215.355 315.956 204.447L330.59 189.815C330.695 189.71 330.806 189.619 330.92 189.533C341.876 175.297 347.666 158.272 347.666 140.286C347.666 95.7145 311.403 59.4525 266.831 59.4525ZM266.831 223.34C221.036 223.34 183.778 186.083 183.778 140.286C183.778 94.4919 221.036 57.2336 266.831 57.2336C312.628 57.2336 349.885 94.4919 349.885 140.286C349.885 158.817 343.903 176.355 332.585 191.006L332.377 191.212C332.268 191.294 332.21 191.332 332.161 191.382L317.367 206.162C302.74 217.4 285.265 223.34 266.831 223.34Z" fill="#0169EE"/>
<path d="M329.349 203.412L326.17 200.235C324.946 199.011 324.946 197.027 326.17 195.804L316.691 205.284L316.535 205.438C315.312 206.661 315.312 208.646 316.535 209.868L320.393 213.726C321.666 211.594 325.386 207.419 329.349 203.412Z" fill="#4E5DB3"/>
<path d="M326.169 195.803C324.946 197.027 324.946 199.011 326.169 200.235L329.348 203.412C333.181 199.536 337.226 195.832 339.496 194.293L335.803 190.6C334.683 189.479 332.934 189.397 331.707 190.328C331.592 190.414 331.477 190.496 331.374 190.6L326.169 195.803Z" fill="#4E5DB3"/>
<path d="M329.347 203.412L326.17 200.236C325.557 199.623 325.252 198.822 325.252 198.02C325.252 197.218 325.557 196.417 326.17 195.804L331.374 190.601C331.478 190.497 331.593 190.415 331.707 190.329C332.268 189.904 332.938 189.69 333.607 189.69C334.401 189.69 335.195 189.992 335.803 190.601L339.493 194.291C337.221 195.834 333.174 199.542 329.347 203.412Z" fill="#4750AB"/>
<path d="M398.95 251.941L341.244 193.609C341.036 193.398 340.405 193.676 339.496 194.293C337.226 195.832 333.181 199.535 329.348 203.412C325.385 207.418 321.665 211.593 320.392 213.726C319.977 214.419 319.818 214.9 320 215.084L377.706 273.417C383.571 279.349 393.083 279.349 398.95 273.417C404.815 267.487 404.815 257.872 398.95 251.941Z" fill="#6C92D3"/>
<path d="M328.22 204.564C328.593 204.18 328.969 203.795 329.348 203.412C333.182 199.536 337.227 195.832 339.497 194.294L339.493 194.29C340.202 193.809 340.738 193.538 341.041 193.538C341.129 193.538 341.198 193.561 341.244 193.609C341.199 193.562 341.131 193.539 341.044 193.539C340.742 193.539 340.202 193.814 339.497 194.294C337.227 195.832 333.182 199.536 329.348 203.412C328.969 203.795 328.593 204.18 328.22 204.564Z" fill="#E4C3DC"/>
<path d="M328.22 204.564C328.229 204.554 328.238 204.545 328.247 204.535C328.611 204.16 328.978 203.785 329.347 203.411L329.348 203.412C328.969 203.795 328.593 204.18 328.22 204.564Z" fill="#4C59B1"/>
<path d="M329.348 203.412L329.347 203.411C333.173 199.541 337.221 195.833 339.493 194.29L339.496 194.293C337.226 195.832 333.181 199.536 329.348 203.412Z" fill="#454EAA"/>
<path d="M397.927 273.774C387.558 273.767 323.881 209.532 328.22 204.563C328.593 204.179 328.969 203.794 329.348 203.411C333.181 199.535 337.226 195.831 339.496 194.292C340.202 193.813 340.741 193.538 341.044 193.538C341.131 193.538 341.198 193.561 341.244 193.608L398.95 251.941C401.883 254.906 403.349 258.793 403.349 262.679C403.349 266.566 401.883 270.452 398.95 273.417C398.711 273.659 398.368 273.774 397.927 273.774Z" fill="#6386CD"/>
<path d="M190.402 171.238C190.119 171.238 189.835 171.13 189.618 170.913L182.656 163.95C182.222 163.517 182.222 162.815 182.656 162.381C183.088 161.947 183.791 161.948 184.225 162.381L191.186 169.344C191.62 169.778 191.62 170.48 191.186 170.913C190.97 171.13 190.686 171.238 190.402 171.238Z" fill="white"/>
<path d="M179.83 221.204H85.4143C78.8063 221.204 73.4498 215.848 73.4498 209.24V201.393C73.4498 194.762 68.0744 189.386 61.4431 189.386H17.8328C11.2011 189.386 5.82492 194.762 5.82492 201.393V232.389V268.022V326.023C5.82492 332.2 10.8323 337.206 17.009 337.206H179.83C186.007 337.206 191.014 332.2 191.014 326.023V232.389C191.014 226.212 186.007 221.204 179.83 221.204Z" fill="#F26690"/>
<path d="M174.006 337.206H150.058C155.384 337.206 159.702 332.2 159.702 326.023V232.389C159.702 226.212 155.384 221.204 150.058 221.204H68.6358C62.9376 221.204 58.3188 215.848 58.3188 209.24V201.393C58.3188 194.762 53.6824 189.386 47.963 189.386H12.0082H55.6184C62.2497 189.386 67.6251 194.762 67.6251 201.393V209.24C67.6251 215.848 72.9816 221.204 79.5896 221.204H174.006C180.182 221.204 185.189 226.212 185.189 232.389V326.023C185.189 332.2 180.182 337.206 174.006 337.206Z" fill="#F5799E"/>
<path d="M158.716 337.5H11.8292C5.29613 337.5 -0.000183105 332.484 -0.000183105 326.294V268.178V232.474V201.417C-0.000183105 194.773 5.6862 189.386 12.7006 189.386H50.7301C56.7794 189.386 61.6834 194.773 61.6834 201.417V209.279C61.6834 215.9 66.5687 221.267 72.5957 221.267H158.716C164.35 221.267 168.917 226.285 168.917 232.474V326.294C168.917 332.484 164.35 337.5 158.716 337.5Z" fill="#F68AAB"/>
<path d="M8.72416 233.664C8.11128 233.664 7.61469 233.168 7.61469 232.555V205.329C7.61469 201.112 11.0449 197.683 15.2614 197.683H47.397C48.0094 197.683 48.5065 198.179 48.5065 198.792C48.5065 199.405 48.0094 199.902 47.397 199.902H15.2614C12.2688 199.902 9.83363 202.336 9.83363 205.329V232.555C9.83363 233.168 9.33692 233.664 8.72416 233.664Z" fill="white"/>
</svg>
