<svg width="46" height="42" viewBox="0 0 46 42" fill="none" xmlns="http://www.w3.org/2000/svg">
<rect width="45.5" height="41.4993" rx="8" fill="#D5E4F0"/>
<path d="M36.75 31.9993H34.5V17.7493C34.5 17.2851 34.3156 16.84 33.9874 16.5118C33.6592 16.1836 33.2141 15.9993 32.75 15.9993H24.5V9.74926C24.4999 9.43252 24.4138 9.12176 24.2509 8.8501C24.088 8.57845 23.8545 8.35609 23.5751 8.20675C23.2958 8.0574 22.9812 7.98666 22.6648 8.00207C22.3485 8.01749 22.0422 8.11847 21.7788 8.29426L11.7787 14.9605C11.5391 15.1204 11.3426 15.337 11.2068 15.591C11.071 15.845 10.9999 16.1287 11 16.4168V31.9993H8.75C8.55109 31.9993 8.36032 32.0783 8.21967 32.2189C8.07902 32.3596 8 32.5504 8 32.7493C8 32.9482 8.07902 33.1389 8.21967 33.2796C8.36032 33.4202 8.55109 33.4993 8.75 33.4993H36.75C36.9489 33.4993 37.1397 33.4202 37.2803 33.2796C37.421 33.1389 37.5 32.9482 37.5 32.7493C37.5 32.5504 37.421 32.3596 37.2803 32.2189C37.1397 32.0783 36.9489 31.9993 36.75 31.9993ZM32.75 17.4993C32.8163 17.4993 32.8799 17.5256 32.9268 17.5725C32.9737 17.6194 33 17.683 33 17.7493V31.9993H24.5V17.4993H32.75ZM12.5 16.4168C12.5001 16.3757 12.5103 16.3353 12.5297 16.2991C12.5491 16.2629 12.5771 16.2321 12.6112 16.2093L22.6112 9.54176C22.6489 9.51667 22.6926 9.50224 22.7377 9.50003C22.7829 9.49781 22.8278 9.50788 22.8677 9.52918C22.9076 9.55047 22.941 9.58218 22.9643 9.62094C22.9876 9.6597 22.9999 9.70404 23 9.74926V31.9993H12.5V16.4168ZM20.5 19.7493V21.7493C20.5 21.9482 20.421 22.1389 20.2803 22.2796C20.1397 22.4202 19.9489 22.4993 19.75 22.4993C19.5511 22.4993 19.3603 22.4202 19.2197 22.2796C19.079 22.1389 19 21.9482 19 21.7493V19.7493C19 19.5504 19.079 19.3596 19.2197 19.2189C19.3603 19.0783 19.5511 18.9993 19.75 18.9993C19.9489 18.9993 20.1397 19.0783 20.2803 19.2189C20.421 19.3596 20.5 19.5504 20.5 19.7493ZM16.5 19.7493V21.7493C16.5 21.9482 16.421 22.1389 16.2803 22.2796C16.1397 22.4202 15.9489 22.4993 15.75 22.4993C15.5511 22.4993 15.3603 22.4202 15.2197 22.2796C15.079 22.1389 15 21.9482 15 21.7493V19.7493C15 19.5504 15.079 19.3596 15.2197 19.2189C15.3603 19.0783 15.5511 18.9993 15.75 18.9993C15.9489 18.9993 16.1397 19.0783 16.2803 19.2189C16.421 19.3596 16.5 19.5504 16.5 19.7493ZM16.5 26.7493V28.7493C16.5 28.9482 16.421 29.1389 16.2803 29.2796C16.1397 29.4202 15.9489 29.4993 15.75 29.4993C15.5511 29.4993 15.3603 29.4202 15.2197 29.2796C15.079 29.1389 15 28.9482 15 28.7493V26.7493C15 26.5504 15.079 26.3596 15.2197 26.2189C15.3603 26.0783 15.5511 25.9993 15.75 25.9993C15.9489 25.9993 16.1397 26.0783 16.2803 26.2189C16.421 26.3596 16.5 26.5504 16.5 26.7493ZM20.5 26.7493V28.7493C20.5 28.9482 20.421 29.1389 20.2803 29.2796C20.1397 29.4202 19.9489 29.4993 19.75 29.4993C19.5511 29.4993 19.3603 29.4202 19.2197 29.2796C19.079 29.1389 19 28.9482 19 28.7493V26.7493C19 26.5504 19.079 26.3596 19.2197 26.2189C19.3603 26.0783 19.5511 25.9993 19.75 25.9993C19.9489 25.9993 20.1397 26.0783 20.2803 26.2189C20.421 26.3596 20.5 26.5504 20.5 26.7493Z" fill="#86A2CE"/>
</svg>
