<svg width="40" height="40" viewBox="0 0 40 40" fill="none" xmlns="http://www.w3.org/2000/svg">
<rect width="40" height="40" rx="20" fill="#86A2CE"/>
<path d="M25.7502 33.0002C25.7502 33.1991 25.6712 33.3899 25.5305 33.5305C25.3898 33.6712 25.1991 33.7502 25.0002 33.7502H15.0002C14.8013 33.7502 14.6105 33.6712 14.4698 33.5305C14.3292 33.3899 14.2502 33.1991 14.2502 33.0002C14.2502 32.8013 14.3292 32.6105 14.4698 32.4699C14.6105 32.3292 14.8013 32.2502 15.0002 32.2502H25.0002C25.1991 32.2502 25.3898 32.3292 25.5305 32.4699C25.6712 32.6105 25.7502 32.8013 25.7502 33.0002ZM30.7502 17.0002C30.7544 18.6295 30.3863 20.2382 29.674 21.7035C28.9617 23.1688 27.924 24.452 26.6402 25.4552C26.3649 25.6668 26.1416 25.9385 25.9873 26.2496C25.8331 26.5607 25.752 26.903 25.7502 27.2502V28.0002C25.7502 28.4643 25.5658 28.9094 25.2376 29.2376C24.9094 29.5658 24.4643 29.7502 24.0002 29.7502H16.0002C15.536 29.7502 15.0909 29.5658 14.7627 29.2376C14.4345 28.9094 14.2502 28.4643 14.2502 28.0002V27.2502C14.2498 26.9066 14.1708 26.5676 14.0191 26.2593C13.8674 25.9509 13.6472 25.6814 13.3752 25.4714C12.0954 24.4748 11.0591 23.2002 10.3444 21.7441C9.62981 20.288 9.25562 18.6885 9.25017 17.0664C9.21767 11.2389 13.9239 6.39019 19.7414 6.25019C21.1748 6.21567 22.6005 6.46824 23.9348 6.993C25.269 7.51777 26.4848 8.30414 27.5106 9.30582C28.5364 10.3075 29.3515 11.5043 29.9078 12.8257C30.4642 14.1471 30.7506 15.5664 30.7502 17.0002ZM29.2502 17.0002C29.2505 15.7664 29.0041 14.545 28.5253 13.4079C28.0465 12.2708 27.3451 11.241 26.4623 10.3791C25.5795 9.51712 24.5332 8.8405 23.385 8.38903C22.2368 7.93755 21.0098 7.72034 19.7764 7.75019C14.7714 7.87519 10.7227 12.0427 10.7502 17.0527C10.7549 18.4486 11.077 19.8253 11.692 21.0785C12.307 22.3317 13.1989 23.4286 14.3002 24.2864C14.7524 24.6367 15.1183 25.086 15.3697 25.5998C15.621 26.1136 15.7512 26.6782 15.7502 27.2502V28.0002C15.7502 28.0665 15.7765 28.1301 15.8234 28.177C15.8703 28.2238 15.9339 28.2502 16.0002 28.2502H24.0002C24.0665 28.2502 24.1301 28.2238 24.1769 28.177C24.2238 28.1301 24.2502 28.0665 24.2502 28.0002V27.2502C24.2517 26.6761 24.3842 26.1099 24.6377 25.5948C24.8911 25.0797 25.2588 24.6292 25.7127 24.2777C26.8181 23.4146 27.7115 22.3101 28.3246 21.0488C28.9377 19.7875 29.2543 18.4026 29.2502 17.0002ZM26.7402 15.8752C26.4901 14.4777 25.8178 13.1903 24.8139 12.1864C23.81 11.1825 22.5227 10.5103 21.1252 10.2602C21.028 10.2438 20.9285 10.2467 20.8325 10.2687C20.7364 10.2907 20.6456 10.3314 20.5653 10.3885C20.4031 10.5039 20.2933 10.6789 20.2602 10.8752C20.227 11.0714 20.2732 11.2728 20.3885 11.4351C20.5039 11.5973 20.6789 11.707 20.8752 11.7402C23.0477 12.1052 24.8914 13.9502 25.2602 16.1252C25.2897 16.2998 25.3801 16.4584 25.5153 16.5728C25.6505 16.6872 25.8218 16.75 25.9989 16.7502C26.0408 16.7499 26.0826 16.7466 26.1239 16.7402C26.2212 16.724 26.3144 16.6887 26.3981 16.6364C26.4817 16.5842 26.5543 16.5159 26.6115 16.4356C26.6688 16.3552 26.7096 16.2643 26.7317 16.1682C26.7537 16.072 26.7566 15.9725 26.7402 15.8752Z" fill="#F6C17B"/>
</svg>
