<svg width="25" height="24" viewBox="0 0 25 24" fill="none" xmlns="http://www.w3.org/2000/svg">
<path d="M17.3974 12.3976L9.89738 19.8976C9.79075 19.997 9.64972 20.0511 9.50399 20.0485C9.35827 20.0459 9.21923 19.9869 9.11617 19.8838C9.01311 19.7808 8.95407 19.6417 8.9515 19.496C8.94893 19.3503 9.00303 19.2093 9.10239 19.1026L16.2039 12.0001L9.10239 4.89763C9.00303 4.791 8.94893 4.64996 8.9515 4.50424C8.95407 4.35851 9.01311 4.21947 9.11617 4.11641C9.21923 4.01335 9.35827 3.95432 9.50399 3.95175C9.64972 3.94918 9.79075 4.00327 9.89738 4.10263L17.3974 11.6026C17.5027 11.7081 17.5619 11.8511 17.5619 12.0001C17.5619 12.1492 17.5027 12.2922 17.3974 12.3976Z" fill="#242424"/>
</svg>
