<svg width="40" height="40" viewBox="0 0 40 40" fill="none" xmlns="http://www.w3.org/2000/svg">
<rect width="40" height="40" rx="20" fill="#154A4C"/>
<path d="M20 10.4375C18.1087 10.4375 16.2599 10.9983 14.6874 12.0491C13.1148 13.0998 11.8892 14.5933 11.1654 16.3406C10.4416 18.0879 10.2523 20.0106 10.6212 21.8656C10.9902 23.7205 11.901 25.4244 13.2383 26.7617C14.5756 28.099 16.2795 29.0098 18.1345 29.3788C19.9894 29.7477 21.9121 29.5584 23.6594 28.8346C25.4067 28.1108 26.9002 26.8852 27.9509 25.3126C29.0017 23.7401 29.5625 21.8913 29.5625 20C29.5595 17.4648 28.5511 15.0343 26.7584 13.2416C24.9658 11.4489 22.5352 10.4405 20 10.4375ZM20 28.4375C18.3312 28.4375 16.6999 27.9426 15.3124 27.0155C13.9248 26.0884 12.8434 24.7706 12.2048 23.2289C11.5662 21.6871 11.3991 19.9906 11.7246 18.3539C12.0502 16.7172 12.8538 15.2138 14.0338 14.0338C15.2138 12.8538 16.7172 12.0502 18.3539 11.7246C19.9906 11.3991 21.6871 11.5662 23.2289 12.2048C24.7706 12.8434 26.0884 13.9248 27.0155 15.3124C27.9427 16.6999 28.4375 18.3312 28.4375 20C28.435 22.237 27.5453 24.3817 25.9635 25.9635C24.3817 27.5453 22.237 28.435 20 28.4375ZM20.9375 15.5V24.5C20.9375 24.6492 20.8782 24.7923 20.7728 24.8977C20.6673 25.0032 20.5242 25.0625 20.375 25.0625C20.2258 25.0625 20.0827 25.0032 19.9773 24.8977C19.8718 24.7923 19.8125 24.6492 19.8125 24.5V16.5509L18.4372 17.4688C18.3129 17.5515 18.1608 17.5816 18.0143 17.5522C17.8678 17.5228 17.7391 17.4365 17.6563 17.3122C17.5735 17.1879 17.5434 17.0357 17.5728 16.8893C17.6022 16.7428 17.6885 16.614 17.8128 16.5312L20.0628 15.0312C20.1476 14.9747 20.2461 14.9422 20.3479 14.9373C20.4497 14.9324 20.5509 14.9552 20.6407 15.0034C20.7305 15.0515 20.8056 15.1231 20.8578 15.2106C20.9101 15.2981 20.9377 15.3981 20.9375 15.5Z" fill="#FDFDFD"/>
</svg>
