<svg width="40" height="40" viewBox="0 0 40 40" fill="none" xmlns="http://www.w3.org/2000/svg">
<rect width="40" height="40" rx="20" fill="#154A4C"/>
<path d="M20 10.4375C18.1087 10.4375 16.2599 10.9983 14.6874 12.0491C13.1148 13.0998 11.8892 14.5933 11.1654 16.3406C10.4416 18.0879 10.2523 20.0106 10.6212 21.8656C10.9902 23.7205 11.901 25.4244 13.2383 26.7617C14.5756 28.099 16.2795 29.0098 18.1345 29.3788C19.9894 29.7477 21.9121 29.5584 23.6594 28.8346C25.4067 28.1108 26.9002 26.8852 27.9509 25.3126C29.0017 23.7401 29.5625 21.8913 29.5625 20C29.5595 17.4648 28.5511 15.0343 26.7584 13.2416C24.9658 11.4489 22.5352 10.4405 20 10.4375ZM20 28.4375C18.3312 28.4375 16.6999 27.9426 15.3124 27.0155C13.9248 26.0884 12.8434 24.7706 12.2048 23.2289C11.5662 21.6871 11.3991 19.9906 11.7246 18.3539C12.0502 16.7172 12.8538 15.2138 14.0338 14.0338C15.2138 12.8538 16.7172 12.0502 18.3539 11.7246C19.9906 11.3991 21.6871 11.5662 23.2289 12.2048C24.7706 12.8434 26.0884 13.9248 27.0155 15.3124C27.9427 16.6999 28.4375 18.3312 28.4375 20C28.435 22.237 27.5453 24.3817 25.9635 25.9635C24.3817 27.5453 22.237 28.435 20 28.4375ZM22.25 19.4422L18.875 23.9422H22.25C22.3992 23.9422 22.5423 24.0015 22.6478 24.1069C22.7532 24.2124 22.8125 24.3555 22.8125 24.5047C22.8125 24.6539 22.7532 24.7969 22.6478 24.9024C22.5423 25.0079 22.3992 25.0672 22.25 25.0672H17.75C17.6455 25.0672 17.5431 25.0381 17.4543 24.9832C17.3654 24.9283 17.2936 24.8497 17.2469 24.7562C17.2002 24.6628 17.1804 24.5582 17.1898 24.4542C17.1992 24.3501 17.2373 24.2508 17.3 24.1672L21.3472 18.7709C21.4913 18.5765 21.5919 18.3533 21.6422 18.1165C21.6924 17.8797 21.6912 17.6349 21.6384 17.3986C21.5857 17.1624 21.4828 16.9402 21.3366 16.7473C21.1905 16.5543 21.0046 16.3951 20.7914 16.2803C20.5783 16.1656 20.343 16.098 20.1014 16.0822C19.8599 16.0665 19.6178 16.1028 19.3915 16.1889C19.1653 16.2749 18.9602 16.4086 18.7902 16.581C18.6202 16.7533 18.4893 16.9601 18.4063 17.1875C18.383 17.2588 18.3456 17.3247 18.2965 17.3814C18.2473 17.4381 18.1873 17.4843 18.12 17.5174C18.0527 17.5506 17.9795 17.5699 17.9046 17.5743C17.8297 17.5787 17.7547 17.5681 17.684 17.5431C17.6133 17.5181 17.5483 17.4792 17.4928 17.4287C17.4374 17.3782 17.3926 17.3171 17.3611 17.249C17.3296 17.1809 17.312 17.1073 17.3094 17.0323C17.3068 16.9573 17.3192 16.8826 17.3459 16.8125C17.4828 16.4323 17.7 16.0861 17.9827 15.7974C18.2654 15.5087 18.607 15.2843 18.9843 15.1395C19.3615 14.9947 19.7655 14.9328 20.1688 14.9582C20.5721 14.9836 20.9652 15.0956 21.3213 15.2865C21.6774 15.4775 21.9882 15.7429 22.2325 16.0648C22.4768 16.3867 22.6488 16.7574 22.737 17.1518C22.8251 17.5461 22.8272 17.9548 22.7432 18.3501C22.6592 18.7453 22.4909 19.1178 22.25 19.4422Z" fill="#FDFDFD"/>
</svg>
