<svg width="40" height="40" viewBox="0 0 40 40" fill="none" xmlns="http://www.w3.org/2000/svg">
<rect width="40" height="40" rx="20" fill="#154A4C"/>
<path d="M20 10.4375C18.1087 10.4375 16.2599 10.9983 14.6874 12.0491C13.1148 13.0998 11.8892 14.5933 11.1654 16.3406C10.4416 18.0879 10.2523 20.0106 10.6212 21.8656C10.9902 23.7205 11.901 25.4244 13.2383 26.7617C14.5756 28.099 16.2795 29.0098 18.1345 29.3788C19.9894 29.7477 21.9121 29.5584 23.6594 28.8346C25.4067 28.1108 26.9002 26.8852 27.9509 25.3126C29.0017 23.7401 29.5625 21.8913 29.5625 20C29.5595 17.4648 28.5511 15.0343 26.7584 13.2416C24.9658 11.4489 22.5352 10.4405 20 10.4375ZM20 28.4375C18.3312 28.4375 16.6999 27.9426 15.3124 27.0155C13.9248 26.0884 12.8434 24.7706 12.2048 23.2289C11.5662 21.6871 11.3991 19.9906 11.7246 18.3539C12.0502 16.7172 12.8538 15.2138 14.0338 14.0338C15.2138 12.8538 16.7172 12.0502 18.3539 11.7246C19.9906 11.3991 21.6871 11.5662 23.2289 12.2048C24.7706 12.8434 26.0884 13.9248 27.0155 15.3124C27.9427 16.6999 28.4375 18.3312 28.4375 20C28.435 22.237 27.5453 24.3817 25.9635 25.9635C24.3817 27.5453 22.237 28.435 20 28.4375ZM22.8125 22.25C22.8125 22.8832 22.6239 23.5021 22.2707 24.0277C21.9175 24.5533 21.4158 24.9618 20.8295 25.2011C20.2432 25.4404 19.5989 25.4996 18.9788 25.3712C18.3587 25.2429 17.7909 24.9327 17.3478 24.4803C17.2435 24.3736 17.1859 24.2299 17.1875 24.0807C17.1892 23.9316 17.2501 23.7891 17.3567 23.6848C17.4634 23.5805 17.6071 23.5229 17.7563 23.5245C17.9055 23.5262 18.0479 23.5871 18.1522 23.6937C18.3902 23.9366 18.6846 24.1168 19.0092 24.2184C19.3337 24.3199 19.6783 24.3397 20.0123 24.2758C20.3463 24.212 20.6594 24.0665 20.9236 23.8525C21.1878 23.6384 21.395 23.3623 21.5267 23.0488C21.6584 22.7352 21.7105 22.394 21.6784 22.0555C21.6463 21.7169 21.5311 21.3916 21.3428 21.1084C21.1546 20.8251 20.8993 20.5929 20.5996 20.4322C20.2998 20.2715 19.9651 20.1875 19.625 20.1875C19.5221 20.1876 19.4211 20.1594 19.3331 20.1061C19.2451 20.0527 19.1734 19.9762 19.1258 19.885C19.0782 19.7937 19.0566 19.6911 19.0633 19.5884C19.07 19.4857 19.1047 19.3868 19.1638 19.3025L21.17 16.4375H17.75C17.6008 16.4375 17.4577 16.3782 17.3523 16.2727C17.2468 16.1673 17.1875 16.0242 17.1875 15.875C17.1875 15.7258 17.2468 15.5827 17.3523 15.4773C17.4577 15.3718 17.6008 15.3125 17.75 15.3125H22.25C22.3529 15.3124 22.4539 15.3406 22.5419 15.3939C22.6299 15.4473 22.7016 15.5238 22.7492 15.615C22.7968 15.7063 22.8184 15.8089 22.8117 15.9116C22.805 16.0143 22.7703 16.1132 22.7113 16.1975L20.5991 19.2144C21.2415 19.4215 21.8018 19.8268 22.1995 20.3722C22.5971 20.9176 22.8118 21.575 22.8125 22.25Z" fill="#FDFDFD"/>
</svg>
