<svg width="40" height="40" viewBox="0 0 40 40" fill="none" xmlns="http://www.w3.org/2000/svg">
<rect width="40" height="40" rx="8" fill="#135C5B"/>
<path d="M30.53 14.47L23.53 7.47C23.3895 7.32931 23.1988 7.25018 23 7.25H11C10.5359 7.25 10.0908 7.43437 9.76256 7.76256C9.43437 8.09075 9.25 8.53587 9.25 9V31C9.25 31.4641 9.43437 31.9092 9.76256 32.2374C10.0908 32.5656 10.5359 32.75 11 32.75H29C29.4641 32.75 29.9092 32.5656 30.2374 32.2374C30.5656 31.9092 30.75 31.4641 30.75 31V15C30.7498 14.8012 30.6707 14.6105 30.53 14.47ZM23.75 9.81L28.19 14.25H23.75V9.81ZM29 31.25H11C10.9337 31.25 10.8701 31.2237 10.8232 31.1768C10.7763 31.1299 10.75 31.0663 10.75 31V9C10.75 8.9337 10.7763 8.87011 10.8232 8.82322C10.8701 8.77634 10.9337 8.75 11 8.75H22.25V15C22.25 15.1989 22.329 15.3897 22.4697 15.5303C22.6103 15.671 22.8011 15.75 23 15.75H29.25V31C29.25 31.0663 29.2237 31.1299 29.1768 31.1768C29.1299 31.2237 29.0663 31.25 29 31.25ZM23.53 23.47C23.6705 23.6106 23.7493 23.8012 23.7493 24C23.7493 24.1988 23.6705 24.3894 23.53 24.53L20.53 27.53C20.3894 27.6705 20.1988 27.7493 20 27.7493C19.8012 27.7493 19.6106 27.6705 19.47 27.53L16.47 24.53C16.3375 24.3878 16.2654 24.1998 16.2688 24.0055C16.2723 23.8112 16.351 23.6258 16.4884 23.4884C16.6258 23.351 16.8112 23.2723 17.0055 23.2688C17.1998 23.2654 17.3878 23.3375 17.53 23.47L19.25 25.1887V19C19.25 18.8011 19.329 18.6103 19.4697 18.4697C19.6103 18.329 19.8011 18.25 20 18.25C20.1989 18.25 20.3897 18.329 20.5303 18.4697C20.671 18.6103 20.75 18.8011 20.75 19V25.1887L22.47 23.47C22.6106 23.3295 22.8012 23.2507 23 23.2507C23.1988 23.2507 23.3894 23.3295 23.53 23.47Z" fill="#F2F7FB"/>
</svg>
