<svg width="16" height="17" viewBox="0 0 16 17" fill="none" xmlns="http://www.w3.org/2000/svg">
<g id="DownloadSimple">
<path id="Vector" d="M13.875 10.0547V13.5547C13.875 13.7868 13.7828 14.0093 13.6187 14.1734C13.4546 14.3375 13.2321 14.4297 13 14.4297H3C2.76794 14.4297 2.54538 14.3375 2.38128 14.1734C2.21719 14.0093 2.125 13.7868 2.125 13.5547V10.0547C2.125 9.95523 2.16451 9.85985 2.23483 9.78952C2.30516 9.7192 2.40054 9.67969 2.5 9.67969C2.59946 9.67969 2.69484 9.7192 2.76517 9.78952C2.83549 9.85985 2.875 9.95523 2.875 10.0547V13.5547C2.875 13.5878 2.88817 13.6196 2.91161 13.6431C2.93505 13.6665 2.96685 13.6797 3 13.6797H13C13.0332 13.6797 13.0649 13.6665 13.0884 13.6431C13.1118 13.6196 13.125 13.5878 13.125 13.5547V10.0547C13.125 9.95523 13.1645 9.85985 13.2348 9.78952C13.3052 9.7192 13.4005 9.67969 13.5 9.67969C13.5995 9.67969 13.6948 9.7192 13.7652 9.78952C13.8355 9.85985 13.875 9.95523 13.875 10.0547ZM7.735 10.3197C7.80531 10.3899 7.90062 10.4294 8 10.4294C8.09938 10.4294 8.19469 10.3899 8.265 10.3197L10.765 7.81969C10.8312 7.7486 10.8673 7.65458 10.8656 7.55743C10.8639 7.46028 10.8245 7.36758 10.7558 7.29888C10.6871 7.23017 10.5944 7.19081 10.4973 7.1891C10.4001 7.18739 10.3061 7.22345 10.235 7.28969L8.375 9.14906V3.05469C8.375 2.95523 8.33549 2.85985 8.26517 2.78952C8.19484 2.7192 8.09946 2.67969 8 2.67969C7.90054 2.67969 7.80516 2.7192 7.73484 2.78952C7.66451 2.85985 7.625 2.95523 7.625 3.05469V9.14906L5.765 7.28969C5.69391 7.22345 5.59989 7.18739 5.50274 7.1891C5.40559 7.19081 5.3129 7.23017 5.24419 7.29888C5.17548 7.36758 5.13613 7.46028 5.13441 7.55743C5.1327 7.65458 5.16876 7.7486 5.235 7.81969L7.735 10.3197Z" fill="#127371"/>
</g>
</svg>
