<svg width="330" height="304" viewBox="0 0 330 304" fill="none" xmlns="http://www.w3.org/2000/svg">
<g filter="url(#filter0_d_620_1343)">
<rect x="16" y="44" width="186" height="240" rx="16" fill="#F6C17B"/>
<rect x="52" y="83" width="114" height="12" rx="6" fill="#F3AA60"/>
<rect x="52" y="103" width="72" height="10" rx="5" fill="#F3AA60"/>
<rect x="52" y="121" width="114" height="12" rx="6" fill="#F3AA60"/>
<rect x="52" y="141" width="72" height="10" rx="5" fill="#F3AA60"/>
<rect x="52" y="159" width="114" height="12" rx="6" fill="#F3AA60"/>
<rect x="52" y="179" width="72" height="10" rx="5" fill="#F3AA60"/>
<rect x="52" y="197" width="114" height="12" rx="6" fill="#F3AA60"/>
<rect x="52" y="217" width="72" height="10" rx="5" fill="#F3AA60"/>
<rect x="52" y="235" width="114" height="12" rx="6" fill="#F3AA60"/>
<rect x="52" y="255" width="72" height="10" rx="5" fill="#F3AA60"/>
<path d="M94.6023 68.1591C93.7008 68.1591 92.9091 67.9545 92.2273 67.5455C91.5492 67.1364 91.0189 66.5436 90.6364 65.767C90.2576 64.9867 90.0682 64.0417 90.0682 62.9318V61.9545H98.5V63.1818H91.6818V63.4318C91.6818 64.1742 91.8011 64.7992 92.0398 65.3068C92.2784 65.8144 92.6136 66.197 93.0455 66.4545C93.4811 66.7121 93.9924 66.8409 94.5795 66.8409C95.2841 66.8409 95.8807 66.6667 96.3693 66.3182C96.858 65.9659 97.2292 65.4754 97.483 64.8466C97.7367 64.2178 97.8636 63.4886 97.8636 62.6591V61.75C97.8636 61.0833 97.786 60.4905 97.6307 59.9716C97.4754 59.4489 97.2443 59.0076 96.9375 58.6477C96.6345 58.2879 96.2557 58.0152 95.8011 57.8295C95.3504 57.6402 94.8258 57.5455 94.2273 57.5455C93.9508 57.5455 93.6629 57.5663 93.3636 57.608C93.0682 57.6496 92.767 57.714 92.4602 57.8011C92.1572 57.8883 91.8523 58 91.5455 58.1364L91.1591 56.9545C91.3295 56.8447 91.5341 56.7443 91.7727 56.6534C92.0114 56.5625 92.2689 56.483 92.5455 56.4148C92.8258 56.3466 93.1155 56.2955 93.4148 56.2614C93.7178 56.2235 94.0189 56.2045 94.3182 56.2045C95.375 56.2045 96.2898 56.4299 97.0625 56.8807C97.839 57.3314 98.4394 57.9716 98.8636 58.8011C99.2879 59.6269 99.5 60.6098 99.5 61.75V62.6591C99.5 63.7083 99.2992 64.6477 98.8977 65.4773C98.5 66.3068 97.9337 66.9621 97.1989 67.4432C96.4678 67.9205 95.6023 68.1591 94.6023 68.1591ZM101.774 68V59.2727H103.07V60.5909H103.161C103.32 60.1591 103.607 59.8087 104.024 59.5398C104.441 59.2708 104.911 59.1364 105.433 59.1364C105.532 59.1364 105.655 59.1383 105.803 59.142C105.95 59.1458 106.062 59.1515 106.138 59.1591V60.5227C106.092 60.5114 105.988 60.4943 105.825 60.4716C105.666 60.4451 105.498 60.4318 105.32 60.4318C104.895 60.4318 104.517 60.5208 104.183 60.6989C103.854 60.8731 103.592 61.1155 103.399 61.4261C103.21 61.733 103.115 62.0833 103.115 62.4773V68H101.774ZM107.727 68V59.2727H109.068V68H107.727ZM108.409 57.8182C108.148 57.8182 107.922 57.7292 107.733 57.5511C107.547 57.3731 107.455 57.1591 107.455 56.9091C107.455 56.6591 107.547 56.4451 107.733 56.267C107.922 56.089 108.148 56 108.409 56C108.67 56 108.894 56.089 109.08 56.267C109.269 56.4451 109.364 56.6591 109.364 56.9091C109.364 57.1591 109.269 57.3731 109.08 57.5511C108.894 57.7292 108.67 57.8182 108.409 57.8182ZM111.274 68V66.9773L116.229 60.6136V60.5227H111.433V59.2727H117.956V60.3409L113.138 66.6591V66.75H118.115V68H111.274ZM123.135 59.0909C123.976 59.0909 124.699 59.2784 125.305 59.6534C125.915 60.0246 126.383 60.5473 126.709 61.2216C127.038 61.892 127.203 62.6742 127.203 63.5682C127.203 64.4621 127.038 65.2519 126.709 65.9375C126.383 66.6193 125.925 67.1534 125.334 67.5398C124.747 67.9223 124.059 68.1136 123.271 68.1136C122.817 68.1136 122.368 68.0379 121.925 67.8864C121.482 67.7348 121.078 67.4905 120.714 67.1534C120.351 66.8125 120.061 66.3636 119.845 65.8068C119.629 65.2462 119.521 64.5606 119.521 63.75V63.1818H126.249V64.3409H120.885C120.885 64.8333 120.982 65.2727 121.175 65.6591C121.372 66.0455 121.648 66.3504 122.004 66.5739C122.364 66.7973 122.786 66.9091 123.271 66.9091C123.809 66.9091 124.271 66.7784 124.658 66.517C125.044 66.2519 125.341 65.9091 125.55 65.4886C125.758 65.0644 125.862 64.6136 125.862 64.1364V63.3636C125.862 62.7008 125.747 62.142 125.516 61.6875C125.288 61.233 124.97 60.8883 124.561 60.6534C124.152 60.4148 123.677 60.2955 123.135 60.2955C122.786 60.2955 122.468 60.3466 122.18 60.4489C121.893 60.5473 121.644 60.6989 121.436 60.9034C121.228 61.1042 121.067 61.3561 120.953 61.6591L119.658 61.2955C119.794 60.8561 120.023 60.4716 120.345 60.142C120.667 59.8087 121.065 59.5511 121.538 59.3693C122.012 59.1837 122.544 59.0909 123.135 59.0909Z" fill="#242424"/>
</g>
<g filter="url(#filter1_d_620_1343)">
<rect x="64" y="26" width="186" height="240" rx="16" fill="#F6C17B"/>
<rect x="100" y="65" width="114" height="12" rx="6" fill="#F3AA60"/>
<rect x="100" y="85" width="72" height="10" rx="5" fill="#F3AA60"/>
<rect x="100" y="103" width="114" height="12" rx="6" fill="#F3AA60"/>
<rect x="100" y="123" width="72" height="10" rx="5" fill="#F3AA60"/>
<rect x="100" y="141" width="114" height="12" rx="6" fill="#F3AA60"/>
<rect x="100" y="161" width="72" height="10" rx="5" fill="#F3AA60"/>
<rect x="100" y="179" width="114" height="12" rx="6" fill="#F3AA60"/>
<rect x="100" y="199" width="72" height="10" rx="5" fill="#F3AA60"/>
<rect x="100" y="217" width="114" height="12" rx="6" fill="#F3AA60"/>
<rect x="100" y="237" width="72" height="10" rx="5" fill="#F3AA60"/>
<path d="M142.602 50.1591C141.701 50.1591 140.909 49.9545 140.227 49.5455C139.549 49.1364 139.019 48.5436 138.636 47.767C138.258 46.9867 138.068 46.0417 138.068 44.9318V43.9545H146.5V45.1818H139.682V45.4318C139.682 46.1742 139.801 46.7992 140.04 47.3068C140.278 47.8144 140.614 48.197 141.045 48.4545C141.481 48.7121 141.992 48.8409 142.58 48.8409C143.284 48.8409 143.881 48.6667 144.369 48.3182C144.858 47.9659 145.229 47.4754 145.483 46.8466C145.737 46.2178 145.864 45.4886 145.864 44.6591V43.75C145.864 43.0833 145.786 42.4905 145.631 41.9716C145.475 41.4489 145.244 41.0076 144.938 40.6477C144.634 40.2879 144.256 40.0152 143.801 39.8295C143.35 39.6402 142.826 39.5455 142.227 39.5455C141.951 39.5455 141.663 39.5663 141.364 39.608C141.068 39.6496 140.767 39.714 140.46 39.8011C140.157 39.8883 139.852 40 139.545 40.1364L139.159 38.9545C139.33 38.8447 139.534 38.7443 139.773 38.6534C140.011 38.5625 140.269 38.483 140.545 38.4148C140.826 38.3466 141.116 38.2955 141.415 38.2614C141.718 38.2235 142.019 38.2045 142.318 38.2045C143.375 38.2045 144.29 38.4299 145.062 38.8807C145.839 39.3314 146.439 39.9716 146.864 40.8011C147.288 41.6269 147.5 42.6098 147.5 43.75V44.6591C147.5 45.7083 147.299 46.6477 146.898 47.4773C146.5 48.3068 145.934 48.9621 145.199 49.4432C144.468 49.9205 143.602 50.1591 142.602 50.1591ZM149.774 50V41.2727H151.07V42.5909H151.161C151.32 42.1591 151.607 41.8087 152.024 41.5398C152.441 41.2708 152.911 41.1364 153.433 41.1364C153.532 41.1364 153.655 41.1383 153.803 41.142C153.95 41.1458 154.062 41.1515 154.138 41.1591V42.5227C154.092 42.5114 153.988 42.4943 153.825 42.4716C153.666 42.4451 153.498 42.4318 153.32 42.4318C152.895 42.4318 152.517 42.5208 152.183 42.6989C151.854 42.8731 151.592 43.1155 151.399 43.4261C151.21 43.733 151.115 44.0833 151.115 44.4773V50H149.774ZM155.727 50V41.2727H157.068V50H155.727ZM156.409 39.8182C156.148 39.8182 155.922 39.7292 155.733 39.5511C155.547 39.3731 155.455 39.1591 155.455 38.9091C155.455 38.6591 155.547 38.4451 155.733 38.267C155.922 38.089 156.148 38 156.409 38C156.67 38 156.894 38.089 157.08 38.267C157.269 38.4451 157.364 38.6591 157.364 38.9091C157.364 39.1591 157.269 39.3731 157.08 39.5511C156.894 39.7292 156.67 39.8182 156.409 39.8182ZM159.274 50V48.9773L164.229 42.6136V42.5227H159.433V41.2727H165.956V42.3409L161.138 48.6591V48.75H166.115V50H159.274ZM171.135 41.0909C171.976 41.0909 172.699 41.2784 173.305 41.6534C173.915 42.0246 174.383 42.5473 174.709 43.2216C175.038 43.892 175.203 44.6742 175.203 45.5682C175.203 46.4621 175.038 47.2519 174.709 47.9375C174.383 48.6193 173.925 49.1534 173.334 49.5398C172.747 49.9223 172.059 50.1136 171.271 50.1136C170.817 50.1136 170.368 50.0379 169.925 49.8864C169.482 49.7348 169.078 49.4905 168.714 49.1534C168.351 48.8125 168.061 48.3636 167.845 47.8068C167.629 47.2462 167.521 46.5606 167.521 45.75V45.1818H174.249V46.3409H168.885C168.885 46.8333 168.982 47.2727 169.175 47.6591C169.372 48.0455 169.648 48.3504 170.004 48.5739C170.364 48.7973 170.786 48.9091 171.271 48.9091C171.809 48.9091 172.271 48.7784 172.658 48.517C173.044 48.2519 173.341 47.9091 173.55 47.4886C173.758 47.0644 173.862 46.6136 173.862 46.1364V45.3636C173.862 44.7008 173.747 44.142 173.516 43.6875C173.288 43.233 172.97 42.8883 172.561 42.6534C172.152 42.4148 171.677 42.2955 171.135 42.2955C170.786 42.2955 170.468 42.3466 170.18 42.4489C169.893 42.5473 169.644 42.6989 169.436 42.9034C169.228 43.1042 169.067 43.3561 168.953 43.6591L167.658 43.2955C167.794 42.8561 168.023 42.4716 168.345 42.142C168.667 41.8087 169.065 41.5511 169.538 41.3693C170.012 41.1837 170.544 41.0909 171.135 41.0909Z" fill="#242424"/>
</g>
<g filter="url(#filter2_d_620_1343)">
<rect x="128" y="12" width="186" height="240" rx="16" fill="#F6C17B" shape-rendering="crispEdges"/>
<rect x="164" y="51" width="114" height="12" rx="6" fill="#F3AA60"/>
<rect x="164" y="71" width="72" height="10" rx="5" fill="#F3AA60"/>
<rect x="164" y="89" width="114" height="12" rx="6" fill="#F3AA60"/>
<rect x="164" y="109" width="72" height="10" rx="5" fill="#F3AA60"/>
<rect x="164" y="127" width="114" height="12" rx="6" fill="#F3AA60"/>
<rect x="164" y="147" width="72" height="10" rx="5" fill="#F3AA60"/>
<rect x="164" y="165" width="114" height="12" rx="6" fill="#F3AA60"/>
<rect x="164" y="185" width="72" height="10" rx="5" fill="#F3AA60"/>
<rect x="164" y="203" width="114" height="12" rx="6" fill="#F3AA60"/>
<rect x="164" y="223" width="72" height="10" rx="5" fill="#F3AA60"/>
<path d="M206.602 36.1591C205.701 36.1591 204.909 35.9545 204.227 35.5455C203.549 35.1364 203.019 34.5436 202.636 33.767C202.258 32.9867 202.068 32.0417 202.068 30.9318V29.9545H210.5V31.1818H203.682V31.4318C203.682 32.1742 203.801 32.7992 204.04 33.3068C204.278 33.8144 204.614 34.197 205.045 34.4545C205.481 34.7121 205.992 34.8409 206.58 34.8409C207.284 34.8409 207.881 34.6667 208.369 34.3182C208.858 33.9659 209.229 33.4754 209.483 32.8466C209.737 32.2178 209.864 31.4886 209.864 30.6591V29.75C209.864 29.0833 209.786 28.4905 209.631 27.9716C209.475 27.4489 209.244 27.0076 208.938 26.6477C208.634 26.2879 208.256 26.0152 207.801 25.8295C207.35 25.6402 206.826 25.5455 206.227 25.5455C205.951 25.5455 205.663 25.5663 205.364 25.608C205.068 25.6496 204.767 25.714 204.46 25.8011C204.157 25.8883 203.852 26 203.545 26.1364L203.159 24.9545C203.33 24.8447 203.534 24.7443 203.773 24.6534C204.011 24.5625 204.269 24.483 204.545 24.4148C204.826 24.3466 205.116 24.2955 205.415 24.2614C205.718 24.2235 206.019 24.2045 206.318 24.2045C207.375 24.2045 208.29 24.4299 209.062 24.8807C209.839 25.3314 210.439 25.9716 210.864 26.8011C211.288 27.6269 211.5 28.6098 211.5 29.75V30.6591C211.5 31.7083 211.299 32.6477 210.898 33.4773C210.5 34.3068 209.934 34.9621 209.199 35.4432C208.468 35.9205 207.602 36.1591 206.602 36.1591ZM213.774 36V27.2727H215.07V28.5909H215.161C215.32 28.1591 215.607 27.8087 216.024 27.5398C216.441 27.2708 216.911 27.1364 217.433 27.1364C217.532 27.1364 217.655 27.1383 217.803 27.142C217.95 27.1458 218.062 27.1515 218.138 27.1591V28.5227C218.092 28.5114 217.988 28.4943 217.825 28.4716C217.666 28.4451 217.498 28.4318 217.32 28.4318C216.895 28.4318 216.517 28.5208 216.183 28.6989C215.854 28.8731 215.592 29.1155 215.399 29.4261C215.21 29.733 215.115 30.0833 215.115 30.4773V36H213.774ZM219.727 36V27.2727H221.068V36H219.727ZM220.409 25.8182C220.148 25.8182 219.922 25.7292 219.733 25.5511C219.547 25.3731 219.455 25.1591 219.455 24.9091C219.455 24.6591 219.547 24.4451 219.733 24.267C219.922 24.089 220.148 24 220.409 24C220.67 24 220.894 24.089 221.08 24.267C221.269 24.4451 221.364 24.6591 221.364 24.9091C221.364 25.1591 221.269 25.3731 221.08 25.5511C220.894 25.7292 220.67 25.8182 220.409 25.8182ZM223.274 36V34.9773L228.229 28.6136V28.5227H223.433V27.2727H229.956V28.3409L225.138 34.6591V34.75H230.115V36H223.274ZM235.135 27.0909C235.976 27.0909 236.699 27.2784 237.305 27.6534C237.915 28.0246 238.383 28.5473 238.709 29.2216C239.038 29.892 239.203 30.6742 239.203 31.5682C239.203 32.4621 239.038 33.2519 238.709 33.9375C238.383 34.6193 237.925 35.1534 237.334 35.5398C236.747 35.9223 236.059 36.1136 235.271 36.1136C234.817 36.1136 234.368 36.0379 233.925 35.8864C233.482 35.7348 233.078 35.4905 232.714 35.1534C232.351 34.8125 232.061 34.3636 231.845 33.8068C231.629 33.2462 231.521 32.5606 231.521 31.75V31.1818H238.249V32.3409H232.885C232.885 32.8333 232.982 33.2727 233.175 33.6591C233.372 34.0455 233.648 34.3504 234.004 34.5739C234.364 34.7973 234.786 34.9091 235.271 34.9091C235.809 34.9091 236.271 34.7784 236.658 34.517C237.044 34.2519 237.341 33.9091 237.55 33.4886C237.758 33.0644 237.862 32.6136 237.862 32.1364V31.3636C237.862 30.7008 237.747 30.142 237.516 29.6875C237.288 29.233 236.97 28.8883 236.561 28.6534C236.152 28.4148 235.677 28.2955 235.135 28.2955C234.786 28.2955 234.468 28.3466 234.18 28.4489C233.893 28.5473 233.644 28.6989 233.436 28.9034C233.228 29.1042 233.067 29.3561 232.953 29.6591L231.658 29.2955C231.794 28.8561 232.023 28.4716 232.345 28.142C232.667 27.8087 233.065 27.5511 233.538 27.3693C234.012 27.1837 234.544 27.0909 235.135 27.0909Z" fill="#40190A"/>
</g>
<defs>
<filter id="filter0_d_620_1343" x="0" y="32" width="218" height="272" filterUnits="userSpaceOnUse" color-interpolation-filters="sRGB">
<feFlood flood-opacity="0" result="BackgroundImageFix"/>
<feColorMatrix in="SourceAlpha" type="matrix" values="0 0 0 0 0 0 0 0 0 0 0 0 0 0 0 0 0 0 127 0" result="hardAlpha"/>
<feOffset dy="4"/>
<feGaussianBlur stdDeviation="8"/>
<feComposite in2="hardAlpha" operator="out"/>
<feColorMatrix type="matrix" values="0 0 0 0 0.952941 0 0 0 0 0.666667 0 0 0 0 0.376471 0 0 0 0.24 0"/>
<feBlend mode="normal" in2="BackgroundImageFix" result="effect1_dropShadow_620_1343"/>
<feBlend mode="normal" in="SourceGraphic" in2="effect1_dropShadow_620_1343" result="shape"/>
</filter>
<filter id="filter1_d_620_1343" x="48" y="14" width="218" height="272" filterUnits="userSpaceOnUse" color-interpolation-filters="sRGB">
<feFlood flood-opacity="0" result="BackgroundImageFix"/>
<feColorMatrix in="SourceAlpha" type="matrix" values="0 0 0 0 0 0 0 0 0 0 0 0 0 0 0 0 0 0 127 0" result="hardAlpha"/>
<feOffset dy="4"/>
<feGaussianBlur stdDeviation="8"/>
<feComposite in2="hardAlpha" operator="out"/>
<feColorMatrix type="matrix" values="0 0 0 0 0.870588 0 0 0 0 0.403922 0 0 0 0 0.0941176 0 0 0 0.24 0"/>
<feBlend mode="normal" in2="BackgroundImageFix" result="effect1_dropShadow_620_1343"/>
<feBlend mode="normal" in="SourceGraphic" in2="effect1_dropShadow_620_1343" result="shape"/>
</filter>
<filter id="filter2_d_620_1343" x="112" y="0" width="218" height="272" filterUnits="userSpaceOnUse" color-interpolation-filters="sRGB">
<feFlood flood-opacity="0" result="BackgroundImageFix"/>
<feColorMatrix in="SourceAlpha" type="matrix" values="0 0 0 0 0 0 0 0 0 0 0 0 0 0 0 0 0 0 127 0" result="hardAlpha"/>
<feOffset dy="4"/>
<feGaussianBlur stdDeviation="8"/>
<feComposite in2="hardAlpha" operator="out"/>
<feColorMatrix type="matrix" values="0 0 0 0 0.870588 0 0 0 0 0.403922 0 0 0 0 0.0941176 0 0 0 0.24 0"/>
<feBlend mode="normal" in2="BackgroundImageFix" result="effect1_dropShadow_620_1343"/>
<feBlend mode="normal" in="SourceGraphic" in2="effect1_dropShadow_620_1343" result="shape"/>
</filter>
</defs>
</svg>
