<svg width="44" height="40" viewBox="0 0 44 40" fill="none" xmlns="http://www.w3.org/2000/svg">
<rect width="43.5" height="39.5" rx="8" fill="#D5E4F0"/>
<path d="M35.4463 20.4713L31.4463 10.4713C31.3802 10.3063 31.2578 10.1702 31.1007 10.0871C30.9437 10.004 30.7623 9.97931 30.5888 10.0175L22.5 11.815V8.75C22.5 8.55109 22.421 8.36032 22.2803 8.21967C22.1397 8.07902 21.9489 8 21.75 8C21.5511 8 21.3603 8.07902 21.2197 8.21967C21.079 8.36032 21 8.55109 21 8.75V12.1488L12.5875 14.0238C12.4683 14.0502 12.3574 14.1054 12.2644 14.1845C12.1714 14.2636 12.0991 14.3641 12.0538 14.4775L8.05375 24.4775C8.0193 24.5643 8.00108 24.6566 8 24.75C8 27.4825 10.9138 28.5 12.75 28.5C14.5862 28.5 17.5 27.4825 17.5 24.75C17.4997 24.6545 17.4815 24.56 17.4462 24.4713L13.7738 15.2913L21 13.685V30H18.75C18.5511 30 18.3603 30.079 18.2197 30.2197C18.079 30.3603 18 30.5511 18 30.75C18 30.9489 18.079 31.1397 18.2197 31.2803C18.3603 31.421 18.5511 31.5 18.75 31.5H24.75C24.9489 31.5 25.1397 31.421 25.2803 31.2803C25.421 31.1397 25.5 30.9489 25.5 30.75C25.5 30.5511 25.421 30.3603 25.2803 30.2197C25.1397 30.079 24.9489 30 24.75 30H22.5V13.3512L29.5263 11.79L26.0537 20.4713C26.0185 20.56 26.0003 20.6545 26 20.75C26 23.4825 28.9137 24.5 30.75 24.5C32.5863 24.5 35.5 23.4825 35.5 20.75C35.4997 20.6545 35.4815 20.56 35.4463 20.4713ZM12.75 27C11.9857 26.994 11.2348 26.7982 10.565 26.43C9.89375 26.0387 9.54625 25.5325 9.50375 24.8838L12.7537 16.77L16.0037 24.8838C15.8825 26.6063 13.5725 27 12.75 27ZM30.75 23C29.9857 22.994 29.2348 22.7982 28.565 22.43C27.8938 22.0388 27.5462 21.5325 27.5037 20.8838L30.7537 12.77L34.0037 20.8838C33.8825 22.6063 31.5725 23 30.75 23Z" fill="#86A2CE"/>
</svg>
