<svg width="24" height="24" viewBox="0 0 24 24" fill="none" xmlns="http://www.w3.org/2000/svg">
<path d="M15.3975 19.1026C15.4528 19.1541 15.4971 19.2162 15.5278 19.2852C15.5586 19.3542 15.5751 19.4287 15.5764 19.5042C15.5778 19.5798 15.5639 19.6548 15.5356 19.7248C15.5073 19.7949 15.4652 19.8585 15.4118 19.9119C15.3584 19.9653 15.2947 20.0074 15.2247 20.0357C15.1546 20.064 15.0796 20.0779 15.0041 20.0766C14.9286 20.0752 14.8541 20.0587 14.7851 20.028C14.7161 19.9972 14.654 19.9529 14.6025 19.8976L7.10249 12.3976C6.99716 12.2922 6.93799 12.1492 6.93799 12.0001C6.93799 11.8511 6.99716 11.7081 7.10249 11.6026L14.6025 4.10263C14.7091 4.00327 14.8502 3.94918 14.9959 3.95175C15.1416 3.95432 15.2807 4.01335 15.3837 4.11641C15.4868 4.21947 15.5458 4.35851 15.5484 4.50424C15.5509 4.64996 15.4969 4.791 15.3975 4.89763L8.29593 12.0001L15.3975 19.1026Z" fill="#515151"/>
</svg>
