<svg width="32" height="32" viewBox="0 0 32 32" fill="none" xmlns="http://www.w3.org/2000/svg">
<path d="M28.53 27.4698L22.1075 21.0473C23.9389 18.9411 24.8811 16.2061 24.7353 13.4188C24.5896 10.6315 23.3673 8.00965 21.3262 6.10596C19.285 4.20226 16.5844 3.16543 13.7938 3.21404C11.0031 3.26264 8.34024 4.39288 6.36662 6.3665C4.393 8.34012 3.26276 11.0029 3.21416 13.7936C3.16556 16.5843 4.20238 19.2849 6.10608 21.326C8.00977 23.3672 10.6316 24.5895 13.4189 24.7352C16.2062 24.881 18.9413 23.9388 21.0475 22.1073L27.47 28.5298C27.6121 28.6623 27.8002 28.7344 27.9945 28.731C28.1888 28.7276 28.3742 28.6489 28.5116 28.5115C28.649 28.3741 28.7277 28.1887 28.7311 27.9944C28.7346 27.8001 28.6624 27.612 28.53 27.4698ZM4.74997 13.9998C4.74997 12.1704 5.29247 10.382 6.30887 8.86082C7.32527 7.33966 8.76993 6.15407 10.4601 5.45396C12.1504 4.75385 14.0102 4.57067 15.8046 4.92758C17.5989 5.28449 19.2471 6.16547 20.5407 7.45911C21.8343 8.75274 22.7153 10.4009 23.0722 12.1953C23.4291 13.9896 23.246 15.8494 22.5459 17.5397C21.8457 19.2299 20.6601 20.6745 19.139 21.6909C17.6178 22.7073 15.8294 23.2498 14 23.2498C11.5476 23.2469 9.19658 22.2714 7.46252 20.5373C5.72845 18.8032 4.75294 16.4522 4.74997 13.9998Z" fill="#fff"/>
</svg>
