<svg width="40" height="40" viewBox="0 0 40 40" fill="none" xmlns="http://www.w3.org/2000/svg">
<rect width="40" height="40" rx="20" fill="#F7A340"/>
<path d="M21.25 26.5C21.25 26.7472 21.1767 26.9889 21.0393 27.1945C20.902 27.4 20.7068 27.5602 20.4784 27.6549C20.25 27.7495 19.9986 27.7742 19.7561 27.726C19.5137 27.6777 19.2909 27.5587 19.1161 27.3839C18.9413 27.2091 18.8223 26.9863 18.774 26.7439C18.7258 26.5014 18.7505 26.2501 18.8452 26.0216C18.9398 25.7932 19.1 25.598 19.3055 25.4607C19.5111 25.3233 19.7528 25.25 20 25.25C20.3315 25.25 20.6495 25.3817 20.8839 25.6161C21.1183 25.8505 21.25 26.1685 21.25 26.5ZM20 13.25C17.375 13.25 15.25 15.1562 15.25 17.5V18C15.25 18.1989 15.329 18.3897 15.4697 18.5303C15.6103 18.671 15.8011 18.75 16 18.75C16.1989 18.75 16.3897 18.671 16.5303 18.5303C16.671 18.3897 16.75 18.1989 16.75 18V17.5C16.75 15.9838 18.2075 14.75 20 14.75C21.7925 14.75 23.25 15.9838 23.25 17.5C23.25 19.0162 21.7925 20.25 20 20.25C19.8011 20.25 19.6103 20.329 19.4697 20.4697C19.329 20.6103 19.25 20.8011 19.25 21V22C19.25 22.1989 19.329 22.3897 19.4697 22.5303C19.6103 22.671 19.8011 22.75 20 22.75C20.1989 22.75 20.3897 22.671 20.5303 22.5303C20.671 22.3897 20.75 22.1989 20.75 22V21.6975C23.0138 21.375 24.75 19.615 24.75 17.5C24.75 15.1562 22.625 13.25 20 13.25ZM32.75 20C32.75 22.5217 32.0022 24.9868 30.6012 27.0835C29.2003 29.1802 27.209 30.8144 24.8792 31.7795C22.5495 32.7445 19.9859 32.997 17.5126 32.505C15.0393 32.0131 12.7675 30.7987 10.9844 29.0156C9.20127 27.2325 7.98696 24.9607 7.49499 22.4874C7.00303 20.0141 7.25552 17.4505 8.22054 15.1208C9.18556 12.791 10.8198 10.7998 12.9165 9.39876C15.0132 7.99777 17.4783 7.25 20 7.25C23.3803 7.25397 26.621 8.59854 29.0112 10.9888C31.4015 13.379 32.746 16.6197 32.75 20ZM31.25 20C31.25 17.775 30.5902 15.5999 29.354 13.7498C28.1179 11.8998 26.3609 10.4578 24.3052 9.60636C22.2495 8.75487 19.9875 8.53208 17.8052 8.96617C15.623 9.40025 13.6184 10.4717 12.0451 12.045C10.4717 13.6184 9.40025 15.6229 8.96617 17.8052C8.53209 19.9875 8.75488 22.2495 9.60636 24.3052C10.4578 26.3609 11.8998 28.1179 13.7498 29.354C15.5999 30.5902 17.775 31.25 20 31.25C22.9827 31.2467 25.8422 30.0604 27.9513 27.9513C30.0604 25.8422 31.2467 22.9827 31.25 20Z" fill="#FCDEAC"/>
</svg>
