<svg width="24" height="24" viewBox="0 0 24 24" fill="none" xmlns="http://www.w3.org/2000/svg">
<path d="M16.8976 12.3976L9.39763 19.8976C9.291 19.997 9.14996 20.0511 9.00424 20.0485C8.85851 20.0459 8.71947 19.9869 8.61641 19.8838C8.51335 19.7808 8.45432 19.6417 8.45175 19.496C8.44918 19.3503 8.50327 19.2093 8.60263 19.1026L15.7042 12.0001L8.60263 4.89763C8.50327 4.791 8.44918 4.64996 8.45175 4.50424C8.45432 4.35851 8.51335 4.21947 8.61641 4.11641C8.71947 4.01335 8.85851 3.95432 9.00424 3.95175C9.14996 3.94918 9.291 4.00327 9.39763 4.10263L16.8976 11.6026C17.003 11.7081 17.0621 11.8511 17.0621 12.0001C17.0621 12.1492 17.003 12.2922 16.8976 12.3976Z" fill="black"/>
</svg>
