<svg width="60" height="60" viewBox="0 0 60 60" fill="none" xmlns="http://www.w3.org/2000/svg">
<rect x="10" y="10" width="40" height="40" rx="20" fill="#7A8282"/>
<path d="M30 17.25C27.4783 17.25 25.0132 17.9978 22.9165 19.3988C20.8198 20.7998 19.1856 22.791 18.2205 25.1208C17.2555 27.4505 17.003 30.0141 17.495 32.4874C17.987 34.9607 19.2013 37.2325 20.9844 39.0156C22.7675 40.7987 25.0393 42.0131 27.5126 42.505C29.9859 42.997 32.5495 42.7445 34.8792 41.7795C37.209 40.8144 39.2003 39.1802 40.6012 37.0835C42.0022 34.9868 42.75 32.5217 42.75 30C42.746 26.6197 41.4015 23.379 39.0112 20.9888C36.621 18.5985 33.3803 17.254 30 17.25ZM30 41.25C27.775 41.25 25.5999 40.5902 23.7498 39.354C21.8998 38.1179 20.4578 36.3609 19.6064 34.3052C18.7549 32.2495 18.5321 29.9875 18.9662 27.8052C19.4003 25.6229 20.4717 23.6184 22.0451 22.045C23.6184 20.4717 25.623 19.4002 27.8052 18.9662C29.9875 18.5321 32.2495 18.7549 34.3052 19.6064C36.3609 20.4578 38.1179 21.8998 39.354 23.7498C40.5902 25.5999 41.25 27.775 41.25 30C41.2467 32.9827 40.0604 35.8422 37.9513 37.9513C35.8422 40.0604 32.9827 41.2467 30 41.25ZM33 29.2563L28.5 35.2563H33C33.1989 35.2563 33.3897 35.3353 33.5303 35.4759C33.671 35.6166 33.75 35.8073 33.75 36.0063C33.75 36.2052 33.671 36.3959 33.5303 36.5366C33.3897 36.6772 33.1989 36.7563 33 36.7563H27C26.8607 36.7563 26.7242 36.7175 26.6057 36.6442C26.4872 36.571 26.3915 36.4662 26.3292 36.3417C26.2669 36.2171 26.2405 36.0776 26.253 35.9389C26.2655 35.8002 26.3164 35.6677 26.4 35.5562L31.7963 28.3612C31.9884 28.102 32.1226 27.8044 32.1896 27.4886C32.2566 27.1729 32.2549 26.8465 32.1846 26.5315C32.1143 26.2165 31.9771 25.9203 31.7822 25.6631C31.5873 25.4058 31.3394 25.1934 31.0552 25.0404C30.7711 24.8874 30.4573 24.7974 30.1353 24.7763C29.8132 24.7553 29.4904 24.8038 29.1887 24.9185C28.8871 25.0332 28.6136 25.2115 28.3869 25.4413C28.1603 25.671 27.9857 25.9468 27.875 26.25C27.8439 26.3451 27.7942 26.433 27.7286 26.5085C27.6631 26.5841 27.5831 26.6457 27.4934 26.6899C27.4037 26.7341 27.306 26.7599 27.2062 26.7658C27.1063 26.7716 27.0063 26.7575 26.912 26.7241C26.8177 26.6908 26.7311 26.6389 26.6571 26.5716C26.5832 26.5042 26.5234 26.4228 26.4814 26.332C26.4394 26.2413 26.416 26.143 26.4125 26.0431C26.4091 25.9431 26.4256 25.8435 26.4613 25.75C26.6438 25.2431 26.9333 24.7814 27.3103 24.3965C27.6873 24.0116 28.1427 23.7124 28.6457 23.5193C29.1487 23.3262 29.6874 23.2438 30.2251 23.2776C30.7628 23.3115 31.2869 23.4608 31.7617 23.7154C32.2365 23.97 32.6509 24.3239 32.9766 24.7531C33.3024 25.1822 33.5318 25.6765 33.6493 26.2023C33.7668 26.7281 33.7696 27.2731 33.6576 27.8001C33.5455 28.3271 33.3213 28.8237 33 29.2563Z" fill="#F2F7FB"/>
</svg>
