<svg width="60" height="60" viewBox="0 0 60 60" fill="none" xmlns="http://www.w3.org/2000/svg">
<rect x="10" y="10" width="40" height="40" rx="20" fill="#7A8282"/>
<path d="M30 17.25C27.4783 17.25 25.0132 17.9978 22.9165 19.3988C20.8198 20.7998 19.1856 22.791 18.2205 25.1208C17.2555 27.4505 17.003 30.0141 17.495 32.4874C17.987 34.9607 19.2013 37.2325 20.9844 39.0156C22.7675 40.7987 25.0393 42.0131 27.5126 42.505C29.9859 42.997 32.5495 42.7445 34.8792 41.7795C37.209 40.8144 39.2003 39.1802 40.6012 37.0835C42.0022 34.9868 42.75 32.5217 42.75 30C42.746 26.6197 41.4015 23.379 39.0112 20.9888C36.621 18.5985 33.3803 17.254 30 17.25ZM30 41.25C27.775 41.25 25.5999 40.5902 23.7498 39.354C21.8998 38.1179 20.4578 36.3609 19.6064 34.3052C18.7549 32.2495 18.5321 29.9875 18.9662 27.8052C19.4003 25.6229 20.4717 23.6184 22.0451 22.045C23.6184 20.4717 25.623 19.4002 27.8052 18.9662C29.9875 18.5321 32.2495 18.7549 34.3052 19.6064C36.3609 20.4578 38.1179 21.8998 39.354 23.7498C40.5902 25.5999 41.25 27.775 41.25 30C41.2467 32.9827 40.0604 35.8422 37.9513 37.9513C35.8422 40.0604 32.9827 41.2467 30 41.25ZM33.75 33C33.75 33.8443 33.4985 34.6695 33.0276 35.3703C32.5567 36.0711 31.8877 36.6158 31.106 36.9348C30.3242 37.2539 29.4652 37.3328 28.6384 37.1617C27.8116 36.9905 27.0546 36.5769 26.4638 35.9737C26.3247 35.8315 26.2478 35.6399 26.25 35.441C26.2523 35.2421 26.3334 35.0522 26.4756 34.9131C26.6179 34.7741 26.8095 34.6972 27.0084 34.6994C27.2073 34.7016 27.3972 34.7828 27.5363 34.925C27.8536 35.2488 28.2462 35.4891 28.6789 35.6245C29.1116 35.7599 29.5711 35.7862 30.0164 35.7011C30.4618 35.616 30.8792 35.4221 31.2315 35.1366C31.5837 34.8512 31.86 34.483 32.0356 34.065C32.2111 33.647 32.2807 33.192 32.2379 32.7406C32.1951 32.2892 32.0414 31.8554 31.7904 31.4778C31.5395 31.1002 31.199 30.7905 30.7994 30.5763C30.3998 30.3621 29.9534 30.25 29.5 30.25C29.3628 30.2501 29.2282 30.2125 29.1108 30.1414C28.9934 30.0703 28.8978 29.9683 28.8344 29.8466C28.771 29.7249 28.7422 29.5882 28.7511 29.4512C28.76 29.3143 28.8063 29.1824 28.885 29.07L31.56 25.25H27C26.8011 25.25 26.6103 25.171 26.4697 25.0303C26.329 24.8897 26.25 24.6989 26.25 24.5C26.25 24.3011 26.329 24.1103 26.4697 23.9697C26.6103 23.829 26.8011 23.75 27 23.75H33C33.1372 23.7499 33.2719 23.7875 33.3892 23.8586C33.5066 23.9297 33.6022 24.0317 33.6656 24.1534C33.729 24.2751 33.7578 24.4118 33.7489 24.5488C33.74 24.6857 33.6937 24.8176 33.615 24.93L30.7988 28.9525C31.6553 29.2286 32.4024 29.7691 32.9326 30.4963C33.4629 31.2235 33.749 32.1 33.75 33Z" fill="#F2F7FB"/>
</svg>
