<svg width="60" height="60" viewBox="0 0 60 60" fill="none" xmlns="http://www.w3.org/2000/svg">
<rect x="10" y="10" width="40" height="40" rx="20" fill="#242C2C"/>
<path d="M30 17.25C27.4783 17.25 25.0132 17.9978 22.9165 19.3988C20.8198 20.7998 19.1856 22.791 18.2205 25.1208C17.2555 27.4505 17.003 30.0141 17.495 32.4874C17.987 34.9607 19.2013 37.2325 20.9844 39.0156C22.7675 40.7987 25.0393 42.0131 27.5126 42.505C29.9859 42.997 32.5495 42.7445 34.8792 41.7795C37.209 40.8144 39.2003 39.1802 40.6012 37.0835C42.0022 34.9868 42.75 32.5217 42.75 30C42.746 26.6197 41.4015 23.379 39.0112 20.9888C36.621 18.5985 33.3803 17.254 30 17.25ZM30 41.25C27.775 41.25 25.5999 40.5902 23.7498 39.354C21.8998 38.1179 20.4578 36.3609 19.6064 34.3052C18.7549 32.2495 18.5321 29.9875 18.9662 27.8052C19.4003 25.6229 20.4717 23.6184 22.0451 22.045C23.6184 20.4717 25.623 19.4002 27.8052 18.9662C29.9875 18.5321 32.2495 18.7549 34.3052 19.6064C36.3609 20.4578 38.1179 21.8998 39.354 23.7498C40.5902 25.5999 41.25 27.775 41.25 30C41.2467 32.9827 40.0604 35.8422 37.9513 37.9513C35.8422 40.0604 32.9827 41.2467 30 41.25ZM31.25 24V36C31.25 36.1989 31.171 36.3897 31.0303 36.5303C30.8897 36.671 30.6989 36.75 30.5 36.75C30.3011 36.75 30.1103 36.671 29.9697 36.5303C29.829 36.3897 29.75 36.1989 29.75 36V25.4012L27.9163 26.625C27.7505 26.7354 27.5477 26.7754 27.3524 26.7363C27.1571 26.6971 26.9854 26.582 26.875 26.4163C26.7646 26.2505 26.7246 26.0477 26.7637 25.8524C26.8029 25.6571 26.918 25.4854 27.0838 25.375L30.0838 23.375C30.1968 23.2996 30.3282 23.2563 30.4639 23.2498C30.5996 23.2432 30.7345 23.2737 30.8543 23.3378C30.974 23.402 31.0741 23.4975 31.1438 23.6141C31.2135 23.7308 31.2502 23.8641 31.25 24Z" fill="#F2F7FB"/>
</svg>
